<?xml version="1.0" encoding="UTF-8"?>
<svg width="156px" height="123px" viewBox="0 0 156 123" version="1.1" xmlns="http://www.w3.org/2000/svg" xmlns:xlink="http://www.w3.org/1999/xlink">
    <title>使用束缚带</title>
    <defs>
        <path d="M141.787333,119.462097 L26.8333333,119.462097 C20.93,119.462097 16.1,114.632097 16.1,108.728764 L16.1,26.8334303 C16.1,20.9300969 20.93,16.1000969 26.8333333,16.1000969 L141.787333,16.1000969 C147.690667,16.1000969 152.520667,20.9300969 152.520667,26.8334303 L152.520667,108.78243 C152.520667,114.685764 147.74487,119.462097 141.787333,119.462097" id="path-1"></path>
        <filter x="-11.4%" y="-14.0%" width="122.7%" height="130.0%" filterUnits="objectBoundingBox" id="filter-2">
            <feOffset dx="0" dy="1" in="SourceAlpha" result="shadowOffsetOuter1"></feOffset>
            <feGaussianBlur stdDeviation="5" in="shadowOffsetOuter1" result="shadowBlurOuter1"></feGaussianBlur>
            <feColorMatrix values="0 0 0 0 0   0 0 0 0 0   0 0 0 0 0  0 0 0 0.1 0" type="matrix" in="shadowBlurOuter1"></feColorMatrix>
        </filter>
        <path d="M130.785667,70.0887636 L90.6966667,70.0887636 C86.8326667,70.0887636 83.72,66.9760969 83.72,63.1120969 L83.72,23.0767636 C83.72,19.2127636 86.8326667,16.1000969 90.6966667,16.1000969 L130.785667,16.1000969 C134.649667,16.1000969 137.762333,19.2127636 137.762333,23.0767636 L137.762333,63.1657636 C137.762333,66.9760969 134.596,70.0887636 130.785667,70.0887636" id="path-3"></path>
        <filter x="-14.8%" y="-13.0%" width="129.6%" height="129.6%" filterUnits="objectBoundingBox" id="filter-4">
            <feOffset dx="0" dy="1" in="SourceAlpha" result="shadowOffsetOuter1"></feOffset>
            <feGaussianBlur stdDeviation="2.5" in="shadowOffsetOuter1" result="shadowBlurOuter1"></feGaussianBlur>
            <feColorMatrix values="0 0 0 0 0.196078431   0 0 0 0 0.450980392   0 0 0 0 0.250980392  0 0 0 0.5 0" type="matrix" in="shadowBlurOuter1"></feColorMatrix>
        </filter>
    </defs>
    <g id="页面-1" stroke="none" stroke-width="1" fill="none" fill-rule="evenodd">
        <g id="padCard-床头卡" transform="translate(-746.000000, -326.000000)">
            <g id="使用束缚带" transform="translate(744.000000, 322.000000)">
                <g id="编组" transform="translate(-4.293333, -3.440097)">
                    <g id="Fill-2">
                        <use fill="black" fill-opacity="1" filter="url(#filter-2)" xlink:href="#path-1"></use>
                        <use fill="#FFFFFF" fill-rule="evenodd" xlink:href="#path-1"></use>
                    </g>
                    <g id="Fill-5">
                        <use fill="black" fill-opacity="1" filter="url(#filter-4)" xlink:href="#path-3"></use>
                        <use fill="#275F60" fill-rule="evenodd" xlink:href="#path-3"></use>
                    </g>
                </g>
                <g id="图标位置" transform="translate(90.160000, 22.856667)">
                    <g id="编组" transform="translate(0.000000, 0.000000)" fill="#FFB400" opacity="0">
                        <g id="图标背景底板60*60px" transform="translate(0.000000, 0.000000)">
                            <rect x="3.55271368e-15" y="3.55271368e-15" width="32.2" height="32.2"></rect>
                        </g>
                    </g>
                    <g id="Fill-173" transform="translate(4.293333, 2.683333)" fill="#FEFEFE">
                        <path d="M8.30411167,24.6027857 L8.278942,24.4780643 L8.17901467,24.3785127 L8.05429333,24.353343 L7.90628067,24.3785127 L7.80485067,24.4780643 L7.78118367,24.6027857 L7.80485067,24.7515497 L7.90628067,24.852604 L8.05429333,24.876271 L8.17901467,24.852604 L8.278942,24.7515497 L8.30411167,24.6027857 Z M8.30411167,23.8537063 L8.278942,23.705318 L8.17901467,23.6294333 L8.05429333,23.5805967 L7.90628067,23.6294333 L7.80485067,23.705318 L7.78118367,23.8537063 L7.80485067,23.9788033 L7.90628067,24.0798577 L8.05429333,24.1286943 L8.17901467,24.0798577 L8.278942,23.9788033 L8.30411167,23.8537063 Z M8.30411167,23.0813357 L8.278942,22.9584927 L8.17901467,22.8570627 L8.05429333,22.8333957 L7.90628067,22.8570627 L7.80485067,22.9584927 L7.78118367,23.0813357 L7.80485067,23.2316023 L7.90628067,23.3307783 L8.05429333,23.3563237 L8.17901467,23.3307783 L8.278942,23.2316023 L8.30411167,23.0813357 Z M8.30411167,22.3341347 L8.278942,22.2094133 L8.17901467,22.1098617 L8.05429333,22.0591467 L7.90628067,22.1098617 L7.80485067,22.2094133 L7.78118367,22.3341347 L7.80485067,22.458856 L7.90628067,22.5587833 L8.05429333,22.6091227 L8.17901467,22.5587833 L8.278942,22.458856 L8.30411167,22.3341347 Z M9.076858,24.6027857 L9.02802133,24.4780643 L8.951761,24.3785127 L8.80374833,24.353343 L8.67865133,24.3785127 L8.57909967,24.4780643 L8.53063867,24.6027857 L8.57909967,24.7515497 L8.67865133,24.852604 L8.80374833,24.876271 L8.951761,24.852604 L9.02802133,24.7515497 L9.076858,24.6027857 Z M9.076858,23.8537063 L9.02802133,23.705318 L8.951761,23.6294333 L8.80374833,23.5805967 L8.67865133,23.6294333 L8.57909967,23.705318 L8.53063867,23.8537063 L8.57909967,23.9788033 L8.67865133,24.0798577 L8.80374833,24.1286943 L8.951761,24.0798577 L9.02802133,23.9788033 L9.076858,23.8537063 Z M9.076858,23.0813357 L9.02802133,22.9584927 L8.951761,22.8570627 L8.80374833,22.8333957 L8.67865133,22.8570627 L8.57909967,22.9584927 L8.53063867,23.0813357 L8.57909967,23.2316023 L8.67865133,23.3307783 L8.80374833,23.3563237 L8.951761,23.3307783 L9.02802133,23.2316023 L9.076858,23.0813357 Z M9.076858,22.3341347 L9.02802133,22.2094133 L8.951761,22.1098617 L8.80374833,22.0591467 L8.67865133,22.1098617 L8.57909967,22.2094133 L8.53063867,22.3341347 L8.57909967,22.458856 L8.67865133,22.5587833 L8.80374833,22.6091227 L8.951761,22.5587833 L9.02802133,22.458856 L9.076858,22.3341347 Z M9.82556167,24.6027857 L9.800392,24.4780643 L9.70084033,24.3785127 L9.576119,24.353343 L9.42585233,24.3785127 L9.32630067,24.4780643 L9.30300933,24.6027857 L9.32630067,24.7515497 L9.42585233,24.852604 L9.576119,24.876271 L9.70084033,24.852604 L9.800392,24.7515497 L9.82556167,24.6027857 Z M9.82556167,23.8537063 L9.800392,23.705318 L9.70084033,23.6294333 L9.576119,23.5805967 L9.42585233,23.6294333 L9.32630067,23.705318 L9.30300933,23.8537063 L9.32630067,23.9788033 L9.42585233,24.0798577 L9.576119,24.1286943 L9.70084033,24.0798577 L9.800392,23.9788033 L9.82556167,23.8537063 Z M9.82556167,23.0813357 L9.800392,22.9584927 L9.70084033,22.8570627 L9.576119,22.8333957 L9.42585233,22.8570627 L9.32630067,22.9584927 L9.30300933,23.0813357 L9.32630067,23.2316023 L9.42585233,23.3307783 L9.576119,23.3563237 L9.70084033,23.3307783 L9.800392,23.2316023 L9.82556167,23.0813357 Z M9.82556167,22.3341347 L9.800392,22.2094133 L9.70084033,22.1098617 L9.576119,22.0591467 L9.42585233,22.1098617 L9.32630067,22.2094133 L9.30300933,22.3341347 L9.32630067,22.458856 L9.42585233,22.5587833 L9.576119,22.6091227 L9.70084033,22.5587833 L9.800392,22.458856 L9.82556167,22.3341347 Z M10.598308,24.6027857 L10.5494713,24.4780643 L10.4499197,24.3785127 L10.3251983,24.353343 L10.2001013,24.3785127 L10.0986713,24.4780643 L10.0498347,24.6027857 L10.0986713,24.7515497 L10.2001013,24.852604 L10.3251983,24.876271 L10.4499197,24.852604 L10.5494713,24.7515497 L10.598308,24.6027857 Z M10.598308,23.8537063 L10.5494713,23.705318 L10.4499197,23.6294333 L10.3251983,23.5805967 L10.2001013,23.6294333 L10.0986713,23.705318 L10.0498347,23.8537063 L10.0986713,23.9788033 L10.2001013,24.0798577 L10.3251983,24.1286943 L10.4499197,24.0798577 L10.5494713,23.9788033 L10.598308,23.8537063 Z M10.598308,23.0813357 L10.5494713,22.9584927 L10.4499197,22.8570627 L10.3251983,22.8333957 L10.2001013,22.8570627 L10.0986713,22.9584927 L10.0498347,23.0813357 L10.0986713,23.2316023 L10.2001013,23.3307783 L10.3251983,23.3563237 L10.4499197,23.3307783 L10.5494713,23.2316023 L10.598308,23.0813357 Z M10.598308,22.3341347 L10.5494713,22.2094133 L10.4499197,22.1098617 L10.3251983,22.0591467 L10.2001013,22.1098617 L10.0986713,22.2094133 L10.0498347,22.3341347 L10.0986713,22.458856 L10.2001013,22.5587833 L10.3251983,22.6091227 L10.4499197,22.5587833 L10.5494713,22.458856 L10.598308,22.3341347 Z M13.317759,23.9551363 L13.317759,22.9821597 L12.7185707,22.9821597 L12.7185707,22.3848497 L11.7452183,22.3848497 L11.7452183,22.9821597 L11.1464057,22.9821597 L11.1464057,23.9551363 L11.7452183,23.9551363 L11.7452183,24.5520707 L12.7185707,24.5520707 L12.7185707,23.9551363 L13.317759,23.9551363 Z M14.4139543,24.6027857 L14.3651177,24.4780643 L14.2636877,24.3785127 L14.1389663,24.353343 L13.990578,24.3785127 L13.9165717,24.4780643 L13.8658567,24.6027857 L13.9165717,24.7515497 L13.990578,24.852604 L14.1389663,24.876271 L14.2636877,24.852604 L14.3651177,24.7515497 L14.4139543,24.6027857 Z M14.4139543,23.8537063 L14.3651177,23.705318 L14.2636877,23.6294333 L14.1389663,23.5805967 L13.990578,23.6294333 L13.9165717,23.705318 L13.8658567,23.8537063 L13.9165717,23.9788033 L13.990578,24.0798577 L14.1389663,24.1286943 L14.2636877,24.0798577 L14.3651177,23.9788033 L14.4139543,23.8537063 Z M14.4139543,23.0813357 L14.3651177,22.9584927 L14.2636877,22.8570627 L14.1389663,22.8333957 L13.990578,22.8570627 L13.9165717,22.9584927 L13.8658567,23.0813357 L13.9165717,23.2316023 L13.990578,23.3307783 L14.1389663,23.3563237 L14.2636877,23.3307783 L14.3651177,23.2316023 L14.4139543,23.0813357 Z M14.4139543,22.3341347 L14.3651177,22.2094133 L14.2636877,22.1098617 L14.1389663,22.0591467 L13.990578,22.1098617 L13.9165717,22.2094133 L13.8658567,22.3341347 L13.9165717,22.458856 L13.990578,22.5587833 L14.1389663,22.6091227 L14.2636877,22.5587833 L14.3651177,22.458856 L14.4139543,22.3341347 Z M15.1630337,24.6027857 L15.1374883,24.4780643 L15.0383123,24.3785127 L14.8880457,24.353343 L14.7629487,24.3785127 L14.6637727,24.4780643 L14.6382273,24.6027857 L14.6637727,24.7515497 L14.7629487,24.852604 L14.8880457,24.876271 L15.0383123,24.852604 L15.1374883,24.7515497 L15.1630337,24.6027857 Z M15.1630337,23.8537063 L15.1374883,23.705318 L15.0383123,23.6294333 L14.8880457,23.5805967 L14.7629487,23.6294333 L14.6637727,23.705318 L14.6382273,23.8537063 L14.6637727,23.9788033 L14.7629487,24.0798577 L14.8880457,24.1286943 L15.0383123,24.0798577 L15.1374883,23.9788033 L15.1630337,23.8537063 Z M15.1630337,23.0813357 L15.1374883,22.9584927 L15.0383123,22.8570627 L14.8880457,22.8333957 L14.7629487,22.8570627 L14.6637727,22.9584927 L14.6382273,23.0813357 L14.6637727,23.2316023 L14.7629487,23.3307783 L14.8880457,23.3563237 L15.0383123,23.3307783 L15.1374883,23.2316023 L15.1630337,23.0813357 Z M15.1630337,22.3341347 L15.1374883,22.2094133 L15.0383123,22.1098617 L14.8880457,22.0591467 L14.7629487,22.1098617 L14.6637727,22.2094133 L14.6382273,22.3341347 L14.6637727,22.458856 L14.7629487,22.5587833 L14.8880457,22.6091227 L15.0383123,22.5587833 L15.1374883,22.458856 L15.1630337,22.3341347 Z M15.9102347,24.6027857 L15.8869433,24.4780643 L15.7855133,24.3785127 L15.6604163,24.353343 L15.5139063,24.3785127 L15.410598,24.4780643 L15.389185,24.6027857 L15.410598,24.7515497 L15.5139063,24.852604 L15.6604163,24.876271 L15.7855133,24.852604 L15.8869433,24.7515497 L15.9102347,24.6027857 Z M15.9102347,23.8537063 L15.8869433,23.705318 L15.7855133,23.6294333 L15.6604163,23.5805967 L15.5139063,23.6294333 L15.410598,23.705318 L15.389185,23.8537063 L15.410598,23.9788033 L15.5139063,24.0798577 L15.6604163,24.1286943 L15.7855133,24.0798577 L15.8869433,23.9788033 L15.9102347,23.8537063 Z M15.9102347,23.0813357 L15.8869433,22.9584927 L15.7855133,22.8570627 L15.6604163,22.8333957 L15.5139063,22.8570627 L15.410598,22.9584927 L15.389185,23.0813357 L15.410598,23.2316023 L15.5139063,23.3307783 L15.6604163,23.3563237 L15.7855133,23.3307783 L15.8869433,23.2316023 L15.9102347,23.0813357 Z M15.9102347,22.3341347 L15.8869433,22.2094133 L15.7855133,22.1098617 L15.6604163,22.0591467 L15.5139063,22.1098617 L15.410598,22.2094133 L15.389185,22.3341347 L15.410598,22.458856 L15.5139063,22.5587833 L15.6604163,22.6091227 L15.7855133,22.5587833 L15.8869433,22.458856 L15.9102347,22.3341347 Z M16.6844837,24.6027857 L16.6337687,24.4780643 L16.534217,24.3785127 L16.4094957,24.353343 L16.2847743,24.3785127 L16.1852227,24.4780643 L16.1345077,24.6027857 L16.1852227,24.7515497 L16.2847743,24.852604 L16.4094957,24.876271 L16.534217,24.852604 L16.6337687,24.7515497 L16.6844837,24.6027857 Z M16.6844837,23.8537063 L16.6337687,23.705318 L16.534217,23.6294333 L16.4094957,23.5805967 L16.2847743,23.6294333 L16.1852227,23.705318 L16.1345077,23.8537063 L16.1852227,23.9788033 L16.2847743,24.0798577 L16.4094957,24.1286943 L16.534217,24.0798577 L16.6337687,23.9788033 L16.6844837,23.8537063 Z M16.6844837,23.0813357 L16.6337687,22.9584927 L16.534217,22.8570627 L16.4094957,22.8333957 L16.2847743,22.8570627 L16.1852227,22.9584927 L16.1345077,23.0813357 L16.1852227,23.2316023 L16.2847743,23.3307783 L16.4094957,23.3563237 L16.534217,23.3307783 L16.6337687,23.2316023 L16.6844837,23.0813357 Z M16.6844837,22.3341347 L16.6337687,22.2094133 L16.534217,22.1098617 L16.4094957,22.0591467 L16.2847743,22.1098617 L16.1852227,22.2094133 L16.1345077,22.3341347 L16.1852227,22.458856 L16.2847743,22.5587833 L16.4094957,22.6091227 L16.534217,22.5587833 L16.6337687,22.458856 L16.6844837,22.3341347 Z M23.7658003,10.3935697 L23.7913457,11.3417523 L23.742509,12.2643897 L23.566697,13.187027 L23.3172543,14.0844947 L22.9427147,14.956417 L22.5193383,15.7798783 L21.9964103,16.549995 L21.372428,17.2739047 L17.057145,21.8855887 L17.232957,21.9847647 L17.3576783,22.135407 L17.4061393,22.3341347 L17.4061393,24.0295183 L17.3576783,24.3785127 L17.2074117,24.702713 L16.9831387,25.0009923 L16.6844837,25.201974 L16.3587807,25.324817 L16.3587807,26.621994 L15.1630337,26.621994 L15.1630337,25.375532 L8.727488,25.375532 L8.727488,26.621994 L7.481026,26.621994 L7.481026,25.1001683 L7.305214,24.801889 L7.23120767,24.4780643 L7.23120767,22.6835047 L7.182371,22.3593043 L7.00693467,22.084692 L6.43329167,21.4622123 L2.34453567,17.0240863 L1.72017767,16.2517157 L1.195747,15.4537997 L0.746825333,14.5818773 L0.397831,13.65924 L0.175436333,12.7133113 L0.0232913333,11.7418373 L2.13541777e-14,10.7681093 L0.0740063333,9.79663533 L0.249442667,8.82516133 L0.548097667,7.902524 L0.971098333,6.85478967 L1.49590467,5.88331567 L2.11838433,4.96067833 L2.81674867,4.088756 L3.59099767,3.29084 L4.43775033,2.543639 L5.362266,1.919281 L6.30857033,1.34601367 L7.33075933,0.871922333 L8.378118,0.522552333 L9.451022,0.249818333 L10.5494713,0.0740063333 L11.671212,0 L12.7929527,0.0251696667 L13.8929047,0.175812 L14.9875973,0.399709333 L16.034956,0.749079333 L17.057145,1.17245567 L18.0560427,1.695008 L18.97868,2.31748767 L19.8506023,3.015852 L20.6485183,3.78822267 L21.372428,4.63685367 L22.0200773,5.53432133 L22.5700533,6.50579533 L23.0441447,7.52798433 L23.4186843,8.575343 L23.641079,9.47281067 L23.7658003,10.3935697 Z M14.852733,4.510254 L14.6637727,4.58613867 L14.4394997,4.73640533 L14.2636877,4.96067833 L14.1896813,5.233788 L13.2182073,11.3672977 L13.1674923,11.4664737 L13.093486,11.5153103 L12.968389,11.54048 L12.8688373,11.5153103 L12.7929527,11.441304 L12.7674073,11.316207 L12.5938493,4.78712033 L12.584082,4.78712033 L12.519843,4.486587 L12.344031,4.16276233 L12.069043,3.91331967 L11.7452183,3.76493133 L11.3958483,3.71421633 L11.046854,3.78822267 L10.7230293,3.96403467 L10.473211,4.213853 L10.299653,4.537302 L10.2801183,4.86112667 L10.2763617,4.86112667 L10.248938,4.86112667 L10.374035,10.992758 L10.3484897,11.1174793 L10.2237683,11.1678187 L10.0986713,11.142649 L10.024665,11.0179277 L9.002476,6.05724933 L8.90517833,5.807431 L8.727488,5.58503633 L8.503215,5.43476967 L8.23010533,5.35850933 L7.95474167,5.35850933 L7.705299,5.43476967 L7.481026,5.60832767 L7.305214,5.83260067 L7.20791633,6.082419 L7.20791633,6.35552867 L7.929572,12.2136747 L7.90628067,12.7617723 L7.88073533,13.06193 L7.83002033,13.3354153 L7.73046867,13.6104033 L7.65646233,13.7351247 L7.55503233,13.8346763 L7.43218933,13.883513 L7.28192267,13.883513 L7.131656,13.859846 L7.00693467,13.8095067 L6.88183767,13.709955 L6.80783133,13.5852337 L6.68311,13.3354153 L6.48400667,12.8124873 L6.18347333,12.3387717 L6.058752,12.0885777 L5.98474567,11.8158437 L5.86002433,11.2673703 L5.76047267,11.0179277 L5.610206,10.7681093 L5.412981,10.5438363 L5.212375,10.3699027 L4.96255667,10.2451813 L4.71273833,10.12046 L4.43775033,10.0464537 L4.139471,9.995363 L3.840816,9.97019333 L3.565828,10.021284 L3.31600967,10.1460053 L3.216458,10.2451813 L3.11690633,10.3699027 L3.066567,10.4949997 L3.04102167,10.643388 L3.11690633,10.918376 L3.341555,11.2166553 L3.515113,11.54048 L3.59099767,11.9153953 L3.59099767,12.289935 L3.63983433,12.687766 L3.69054933,13.06193 L3.79197933,13.4113 L3.91482233,13.7587917 L4.21347733,14.4567803 L4.56247167,15.129975 L4.91184167,15.802794 L5.212375,16.501534 L5.436648,17.225068 L5.610206,17.972269 L5.70975767,18.3449303 L5.86002433,18.6706333 L6.03546067,18.994458 L6.283025,19.2927373 L6.80783133,19.8412107 L7.38147433,20.366017 L8.40554167,21.4622123 L15.461313,21.4622123 L15.9861193,20.7386783 L16.483502,19.9914773 L16.710029,19.5913923 L16.883587,19.1935613 L17.0338537,18.770185 L17.158575,18.3449303 L17.332133,17.449341 L17.4316847,16.549995 L17.5312363,14.7573137 L17.630788,13.859846 L17.7555093,12.9860453 L18.079334,11.2166553 L18.3798673,9.44726533 L18.652977,7.67787533 L18.6041403,7.377342 L18.4538737,7.104608 L18.2296007,6.90588033 L17.9797823,6.78078333 L17.681503,6.755238 L17.3847263,6.80407467 L17.1352837,6.95434133 L16.9324237,7.17861433 L16.832872,7.453978 L15.6604163,12.23922 L15.6115797,12.3387717 L15.535695,12.4146563 L15.410598,12.4146563 L15.311422,12.3639413 L15.23704,12.289935 L15.23704,12.164838 L15.9861193,5.48323067 L15.9609497,5.21049667 L15.861398,4.935133 L15.7111313,4.71123567 L15.461313,4.56059333 L15.2118703,4.486587 L15.1882033,4.486587 L15.1123187,4.486587 L14.9132153,4.486587 L14.852733,4.510254 Z" id="Fill-157"></path>
                    </g>
                </g>
            </g>
        </g>
    </g>
</svg>