<?xml version="1.0" encoding="UTF-8"?>
<svg width="156px" height="123px" viewBox="0 0 156 123" version="1.1" xmlns="http://www.w3.org/2000/svg" xmlns:xlink="http://www.w3.org/1999/xlink">
    <title>卧床休息</title>
    <defs>
        <path d="M141.787333,119.462 L26.8333333,119.462 C20.93,119.462 16.1,114.632 16.1,108.728667 L16.1,26.8333333 C16.1,20.93 20.93,16.1 26.8333333,16.1 L141.787333,16.1 C147.690667,16.1 152.520667,20.93 152.520667,26.8333333 L152.520667,108.782333 C152.520667,114.685667 147.74487,119.462 141.787333,119.462" id="path-1"></path>
        <filter x="-11.4%" y="-14.0%" width="122.7%" height="130.0%" filterUnits="objectBoundingBox" id="filter-2">
            <feOffset dx="0" dy="1" in="SourceAlpha" result="shadowOffsetOuter1"></feOffset>
            <feGaussianBlur stdDeviation="5" in="shadowOffsetOuter1" result="shadowBlurOuter1"></feGaussianBlur>
            <feColorMatrix values="0 0 0 0 0   0 0 0 0 0   0 0 0 0 0  0 0 0 0.1 0" type="matrix" in="shadowBlurOuter1"></feColorMatrix>
        </filter>
        <path d="M130.785667,70.0886667 L90.6966667,70.0886667 C86.8326667,70.0886667 83.72,66.976 83.72,63.112 L83.72,23.0766667 C83.72,19.2126667 86.8326667,16.1 90.6966667,16.1 L130.785667,16.1 C134.649667,16.1 137.762333,19.2126667 137.762333,23.0766667 L137.762333,63.1656667 C137.762333,66.976 134.596,70.0886667 130.785667,70.0886667" id="path-3"></path>
        <filter x="-14.8%" y="-13.0%" width="129.6%" height="129.6%" filterUnits="objectBoundingBox" id="filter-4">
            <feOffset dx="0" dy="1" in="SourceAlpha" result="shadowOffsetOuter1"></feOffset>
            <feGaussianBlur stdDeviation="2.5" in="shadowOffsetOuter1" result="shadowBlurOuter1"></feGaussianBlur>
            <feColorMatrix values="0 0 0 0 0.0117647059   0 0 0 0 0.654901961   0 0 0 0 0.941176471  0 0 0 0.5 0" type="matrix" in="shadowBlurOuter1"></feColorMatrix>
        </filter>
    </defs>
    <g id="padCard-床头卡" stroke="none" stroke-width="1" fill="none" fill-rule="evenodd">
        <g id="多重耐药备份" transform="translate(-1108.000000, -326.000000)">
            <g id="卧床休息" transform="translate(1106.000000, 322.000000)">
                <g id="编组" transform="translate(-4.293333, -3.440000)">
                    <g id="Fill-2">
                        <use fill="black" fill-opacity="1" filter="url(#filter-2)" xlink:href="#path-1"></use>
                        <use fill="#FFFFFF" fill-rule="evenodd" xlink:href="#path-1"></use>
                    </g>
                    <g id="Fill-5">
                        <use fill="black" fill-opacity="1" filter="url(#filter-4)" xlink:href="#path-3"></use>
                        <use fill="#03A7F0" fill-rule="evenodd" xlink:href="#path-3"></use>
                    </g>
                </g>
                <g id="图标位置" transform="translate(90.160000, 22.856667)">
                    <g id="编组" transform="translate(0.000000, 0.000000)" fill="#FFB400" opacity="0">
                        <g id="图标背景底板60*60px" transform="translate(0.000000, 0.000000)">
                            <rect x="3.55271368e-15" y="3.55271368e-15" width="32.2" height="32.2"></rect>
                        </g>
                    </g>
                    <g id="编组-6" transform="translate(0.000000, 3.756667)" fill="#FEFEFE">
                        <polygon id="Fill-85" points="32.0342706 23.7518772 32.0342706 23.8723253 32.0071522 23.9927734 31.9796816 24.1266047 31.9409409 24.2333175 31.8729688 24.3562309 31.8067575 24.4629438 31.7254022 24.5559213 31.6454556 24.6492509 31.539095 24.7306063 31.4323822 24.7968175 31.3232041 24.8510544 31.2027559 24.889795 31.0823078 24.9310009 30.9618597 24.9443841 30.8280284 24.9581194 30.7075803 24.9443841 30.5874844 24.9310009 30.4670362 24.889795 30.3465881 24.8510544 30.2236747 24.7968175 30.1306972 24.7306063 30.0239844 24.6492509 29.9440378 24.5559213 29.8626825 24.4629438 29.7964712 24.3562309 29.7284991 24.2333175 29.6876453 24.1266047 29.6492569 23.9927734 29.6351694 23.8723253 29.6217863 23.7518772 29.6217863 18.1933019 2.69388219 18.1933019 2.69388219 23.5905753 2.69388219 23.6039584 2.69388219 23.6997534 2.68049906 23.8061141 2.65302844 23.9131791 2.62591 24.0061566 2.60090469 24.1128694 2.54631562 24.2083122 2.50546187 24.3016419 2.43960281 24.3946194 2.38501375 24.4766791 2.30577156 24.5559213 2.22371188 24.6217803 2.14446969 24.6901047 2.06487531 24.7559638 1.9694325 24.7968175 1.87610281 24.8510544 1.76939 24.889795 1.67429938 24.9172656 1.56723437 24.9310009 1.46052156 24.9443841 1.35380875 24.9581194 1.24709594 24.9443841 1.13791781 24.9443841 1.04494031 24.9172656 0.9382275 24.889795 0.844897813 24.8510544 0.736071875 24.8105528 0.6564775 24.7559638 0.5635 24.7034878 0.481440313 24.6355156 0.402198125 24.5693044 0.320138438 24.4900622 0.268014688 24.4083547 0.199690313 24.3153772 0.147566563 24.2220475 0.106712813 24.1266047 0.0658590625 24.0198919 0.0383884375 23.9265622 0.0271184375 23.8198494 0.0137353125 23.7131366 2.00195416e-14 23.6039584 2.00195416e-14 1.35345656 0.0137353125 1.24709594 0.0271184375 1.13791781 0.0383884375 1.031205 0.0658590625 0.9382275 0.106712813 0.8311625 0.147566563 0.738185 0.199690313 0.642742188 0.254631563 0.563147813 0.320138438 0.470170313 0.402198125 0.401845938 0.468057188 0.32260375 0.5635 0.254279375 0.642742187 0.202155625 0.736071875 0.147566562 0.8311625 0.106360625 0.9382275 0.0679721875 1.03155719 0.04085375 1.13791781 0.0271184375 1.24709594 0.0137353125 1.35380875 0 1.46052156 0.0137353125 1.55385125 0.0271184375 1.66302938 0.04085375 1.76939 0.0679721875 1.86271969 0.106360625 1.95604938 0.147566562 2.05114 0.202155625 2.14446969 0.254279375 2.22371188 0.32260375 2.30577156 0.401845938 2.37127844 0.470170313 2.43960281 0.563147813 2.49172656 0.642742188 2.54631562 0.738185 2.58752156 0.8311625 2.62591 0.9382275 2.65302844 1.031205 2.68049906 1.13791781 2.69388219 1.24709594 2.69388219 1.35345656 2.69388219 15.2056953 30.5462784 15.2056953 30.6392559 15.2056953 30.7209634 15.2056953 30.8005578 15.2194306 30.8938875 15.2447881 30.975595 15.2581713 31.0551894 15.2856419 31.1368969 15.3264956 31.2164913 15.3536141 31.2981988 15.40609 31.3640578 15.4469438 31.4436522 15.4990675 31.5119766 15.5536566 31.5641003 15.6082456 31.6320725 15.6737525 31.6866616 15.7286938 31.7387853 15.8079359 31.7933744 15.8762603 31.8458503 15.9417672 31.8867041 16.0217138 31.9138225 16.1030691 31.9546763 16.1830156 31.9796816 16.2643709 31.9934169 16.3443175 32.0205353 16.4369428 32.0342706 16.5190025 32.0342706 16.6123322 32.0342706 16.6915744"></polygon>
                        <polygon id="Fill-87" points="31.5118357 11.3603009 31.5118357 13.2092852 3.94118944 13.2092852 3.94118944 10.5287862 9.03417287 10.5287862 12.6254288 3.13496181 13.6182454 3.18919869 14.5973266 3.25505775 15.5739426 3.34803525 16.5667591 3.47094869 17.5458404 3.60477994 18.5111863 3.76396869 19.4881544 3.952389 20.4538526 4.1524315 21.4054632 4.39544088 22.3570738 4.64972025 23.3090366 4.91562181 24.2472641 5.21075494 25.1851394 5.53335869 26.1096316 5.88096775 27.034476 6.24231212 27.9452329 6.63042275 28.2135997 6.79172463 28.4816144 6.96676181 28.7380069 7.16680431 28.9926385 7.36895994 29.2331826 7.56865025 29.4606957 7.79616337 29.6762344 8.02543744 29.8900122 8.26633369 30.1034379 8.50687775 30.2918582 8.76150931 30.4668954 9.029524 30.6391151 9.29753869 30.8004169 9.5789365 30.9483357 9.8606865 31.0821669 10.1537065 31.2026151 10.4491918 31.3234154 10.7446771 31.418506 11.0535456"></polygon>
                        <polygon id="Fill-89" points="10.5357243 4.55455919 10.5357243 4.77009794 10.5086058 4.97014044 10.4811352 5.18356606 10.4265462 5.399457 10.3744224 5.5994995 10.3064502 5.81503825 10.2268558 6.00134544 10.1335262 6.20385325 10.0247002 6.38980825 9.90425209 6.56484544 9.78380397 6.73953044 9.64962053 6.89871919 9.50205397 7.06002106 9.34321741 7.20758763 9.18191553 7.34177106 9.00687834 7.47560231 8.81845803 7.58266731 8.63215084 7.68902794 8.44373053 7.78482294 8.24368803 7.86406513 8.04153241 7.9436595 7.84184209 7.99789638 7.62559897 8.03910231 7.41217334 8.07784294 7.19663459 8.09122606 6.98285678 8.10496138 6.76943116 8.09122606 6.55354022 8.07784294 6.34011459 8.03910231 6.13795897 7.99789638 5.92418116 7.9436595 5.72202553 7.86406513 5.52233522 7.78482294 5.33356272 7.68902794 5.14725553 7.58266731 4.97257053 7.47560231 4.79753334 7.34177106 4.62284834 7.20758763 4.47739491 7.06002106 4.32982834 6.89871919 4.19564491 6.73953044 4.06146147 6.56484544 3.94101334 6.38980825 3.84592272 6.20385325 3.75259303 6.00134544 3.65961553 5.81503825 3.59129116 5.5994995 3.53916741 5.399457 3.49831366 5.18356606 3.45710772 4.97014044 3.44372459 4.77009794 3.42998928 4.55455919 3.44372459 4.32704606 3.45710772 4.12735575 3.49831366 3.91146481 3.53916741 3.69803919 3.59129116 3.49588356 3.65961553 3.28245794 3.75259303 3.09403763 3.84592272 2.89364294 3.94101334 2.70522263 4.06146147 2.53265075 4.19564491 2.35796575 4.32982834 2.19666388 4.47739491 2.03747513 4.62284834 1.88990856 4.79753334 1.75572513 4.97257053 1.62189388 5.14725553 1.51482888 5.33356272 1.40600294 5.52233522 1.31302544 5.72202553 1.23307888 5.92418116 1.15172356 6.13795897 1.09924763 6.34011459 1.05839388 6.55354022 1.01754013 6.76943116 1.00380481 6.98285678 0.992534813 7.19663459 1.00380481 7.41217334 1.01754013 7.62559897 1.05839388 7.84184209 1.09924763 8.04153241 1.15172356 8.24368803 1.23307888 8.44373053 1.31302544 8.63215084 1.40600294 8.81845803 1.51482888 9.00687834 1.62189388 9.18191553 1.75572513 9.34321741 1.88990856 9.50205397 2.03747513 9.64962053 2.19666388 9.78380397 2.35796575 9.90425209 2.53265075 10.0247002 2.70522263 10.1335262 2.89364294 10.2268558 3.09403763 10.3064502 3.28245794 10.3744224 3.49588356 10.4265462 3.69803919 10.4811352 3.91146481 10.5086058 4.12735575 10.5357243 4.32704606"></polygon>
                    </g>
                </g>
            </g>
        </g>
    </g>
</svg>