<?xml version="1.0" encoding="UTF-8"?>
<svg width="156px" height="123px" viewBox="0 0 156 123" version="1.1" xmlns="http://www.w3.org/2000/svg" xmlns:xlink="http://www.w3.org/1999/xlink">
    <title>控制滴速</title>
    <defs>
        <path d="M141.787333,119.462097 L26.8333333,119.462097 C20.93,119.462097 16.1,114.632097 16.1,108.728764 L16.1,26.8334303 C16.1,20.9300969 20.93,16.1000969 26.8333333,16.1000969 L141.787333,16.1000969 C147.690667,16.1000969 152.520667,20.9300969 152.520667,26.8334303 L152.520667,108.78243 C152.520667,114.685764 147.74487,119.462097 141.787333,119.462097" id="path-1"></path>
        <filter x="-11.4%" y="-14.0%" width="122.7%" height="130.0%" filterUnits="objectBoundingBox" id="filter-2">
            <feOffset dx="0" dy="1" in="SourceAlpha" result="shadowOffsetOuter1"></feOffset>
            <feGaussianBlur stdDeviation="5" in="shadowOffsetOuter1" result="shadowBlurOuter1"></feGaussianBlur>
            <feColorMatrix values="0 0 0 0 0   0 0 0 0 0   0 0 0 0 0  0 0 0 0.1 0" type="matrix" in="shadowBlurOuter1"></feColorMatrix>
        </filter>
        <path d="M130.785667,70.0887636 L90.6966667,70.0887636 C86.8326667,70.0887636 83.72,66.9760969 83.72,63.1120969 L83.72,23.0767636 C83.72,19.2127636 86.8326667,16.1000969 90.6966667,16.1000969 L130.785667,16.1000969 C134.649667,16.1000969 137.762333,19.2127636 137.762333,23.0767636 L137.762333,63.1657636 C137.762333,66.9760969 134.596,70.0887636 130.785667,70.0887636" id="path-3"></path>
        <filter x="-14.8%" y="-13.0%" width="129.6%" height="129.6%" filterUnits="objectBoundingBox" id="filter-4">
            <feOffset dx="0" dy="1" in="SourceAlpha" result="shadowOffsetOuter1"></feOffset>
            <feGaussianBlur stdDeviation="2.5" in="shadowOffsetOuter1" result="shadowBlurOuter1"></feGaussianBlur>
            <feColorMatrix values="0 0 0 0 0.196078431   0 0 0 0 0.450980392   0 0 0 0 0.250980392  0 0 0 0.5 0" type="matrix" in="shadowBlurOuter1"></feColorMatrix>
        </filter>
    </defs>
    <g id="页面-1" stroke="none" stroke-width="1" fill="none" fill-rule="evenodd">
        <g id="padCard-床头卡" transform="translate(-384.000000, -326.000000)">
            <g id="控制滴速" transform="translate(382.000000, 322.000000)">
                <g id="编组" transform="translate(-4.293333, -3.440097)">
                    <g id="Fill-2">
                        <use fill="black" fill-opacity="1" filter="url(#filter-2)" xlink:href="#path-1"></use>
                        <use fill="#FFFFFF" fill-rule="evenodd" xlink:href="#path-1"></use>
                    </g>
                    <g id="Fill-5">
                        <use fill="black" fill-opacity="1" filter="url(#filter-4)" xlink:href="#path-3"></use>
                        <use fill="#275F60" fill-rule="evenodd" xlink:href="#path-3"></use>
                    </g>
                </g>
                <g id="图标位置" transform="translate(90.160000, 22.856667)">
                    <g id="编组" transform="translate(0.000000, 0.000000)" fill="#FFB400" opacity="0">
                        <g id="图标背景底板60*60px" transform="translate(0.000000, 0.000000)">
                            <rect x="3.55271368e-15" y="3.55271368e-15" width="32.2" height="32.2"></rect>
                        </g>
                    </g>
                    <g id="编组-3" transform="translate(3.756667, 2.683333)" fill="#FEFEFE">
                        <path d="M19.4782415,8.36196433 L21.6398275,8.36196433 L21.6398275,7.59635567 L19.4782415,7.59635567 L19.4782415,8.36196433 Z M19.4782415,9.91910267 L21.6398275,9.91910267 L21.6398275,9.176034 L19.4782415,9.176034 L19.4782415,9.91910267 Z M19.4782415,11.476241 L21.6398275,11.476241 L21.6398275,10.7331723 L19.4782415,10.7331723 L19.4782415,11.476241 Z M19.4782415,13.0559193 L21.6398275,13.0559193 L21.6398275,12.287681 L19.4782415,12.287681 L19.4782415,13.0559193 Z M19.4782415,14.612682 L21.6398275,14.612682 L21.6398275,13.8448193 L19.4782415,13.8448193 L19.4782415,14.612682 Z M19.4782415,16.1675663 L21.6398275,16.1675663 L21.6398275,15.4248733 L19.4782415,15.4248733 L19.4782415,16.1675663 Z M23.4749592,7.014448 L23.4749592,4.08913167 L23.4287522,3.83142433 L23.3115442,3.59926233 L23.1274675,3.41518567 L22.8930515,3.29835333 L22.6379739,3.275062 L12.3653689,3.275062 L12.1099155,3.29835333 L11.8777535,3.41518567 L11.6914229,3.59926233 L11.5723365,3.83142433 L11.5261295,4.08913167 L11.5261295,7.014448 L23.4749592,7.014448 Z M24.4960212,4.08913167 L24.4960212,18.2581513 L24.4731055,18.6537283 L24.3348602,19.026014 L24.1256139,19.3735057 L23.8476205,19.6518747 L23.4978749,19.8607453 L23.1274675,20.000869 L22.7318905,20.0241603 L19.5469885,20.0241603 L19.5469885,20.4197373 L19.5011572,20.6289837 L19.3610335,20.767229 L19.0112879,20.999391 L19.0112879,22.601985 L18.4087185,22.601985 L18.4087185,21.4178837 L18.3377175,21.2082617 L18.1972182,21.0474763 L17.9902259,20.999391 L17.0131169,20.999391 L16.8016165,21.0474763 L16.6633712,21.2082617 L16.5942485,21.4178837 L16.5942485,22.601985 L15.9898009,22.601985 L15.9898009,20.999391 L15.6423092,20.767229 L15.4999315,20.6289837 L15.4541002,20.4197373 L15.4541002,20.0241603 L13.6437625,20.0241603 L13.8740462,19.2352603 L14.0393395,18.398275 L14.0855465,17.560914 L14.0122915,16.7261827 L13.8740462,15.8891973 L13.6437625,15.0773817 L13.3173082,14.3091433 L12.8988155,13.589366 L12.3860305,12.89288 L11.8296682,12.287681 L11.1786379,11.7313187 L10.4817762,11.266619 L10.4817762,4.08913167 L10.5279832,3.670639 L10.6681069,3.275062 L10.8983905,2.92531633 L11.2019292,2.62440733 L11.5512992,2.41478533 L11.9468762,2.27691567 L12.3653689,2.22883033 L15.8744712,2.22883033 L15.8744712,1.62588533 L15.9206782,1.25359967 L16.0356322,0.904229667 L16.2219629,0.602945 L16.4792945,0.347491667 L16.8016165,0.161161 L17.1303249,0.0458313333 L17.5026105,1.33463611e-15 L17.8730179,0.0458313333 L18.1972182,0.161161 L18.5217942,0.347491667 L18.7791259,0.602945 L18.9650809,0.904229667 L19.0822889,1.25359967 L19.1284959,1.62588533 L19.1284959,2.22883033 L22.6379739,2.22883033 L23.0564665,2.27691567 L23.4520435,2.41478533 L23.8014135,2.62440733 L24.1026982,2.92531633 L24.3348602,3.275062 L24.4501899,3.670639 L24.4960212,4.08913167 Z" id="Fill-151"></path>
                        <polygon id="Fill-152" points="19.4782415 6.80520167 21.6398275 6.80520167 21.6398275 6.039593 19.4782415 6.039593"></polygon>
                        <polygon id="Fill-153" points="19.4782415 5.25031733 21.6398275 5.25031733 21.6398275 4.48245467 19.4782415 4.48245467"></polygon>
                        <polygon id="Fill-154" points="19.0114757 22.6020977 19.0114757 23.206921 18.896146 23.4856657 18.151199 24.2512744 18.036245 24.5318974 18.036245 25.808037 17.990038 26.0172834 17.640668 26.6221067 17.3393834 26.6221067 17.012929 26.0172834 16.9670977 25.808037 16.9670977 24.5318974 16.8498897 24.2512744 16.106821 23.4856657 15.989613 23.206921 15.989613 22.6020977 16.5944364 22.6020977 16.6425217 22.7655127 16.73456 22.857551 16.8750594 22.9056364 17.012929 22.857551 17.130137 22.7655127 17.176344 22.6020977 17.176344 21.9995284 17.1992597 21.836489 17.3393834 21.7211594 17.5024227 21.673074 17.6617054 21.7211594 17.7811674 21.836489 17.8269987 21.9995284 17.8269987 22.6020977 17.8732057 22.7655127 17.9671224 22.857551 18.1282834 22.9056364 18.268407 22.857551 18.360821 22.7655127 18.4089064 22.6020977"></polygon>
                        <path d="M11.7835363,17.5841678 L11.7373293,16.9124758 L11.6201213,16.2614454 L11.410875,15.6340821 L11.109966,15.0521744 L10.7373047,14.4954364 L10.2958963,13.9849054 L9.808281,13.5664128 L9.249289,13.1937514 L8.66963533,12.8928424 L8.04189633,12.6832204 L7.39124167,12.5430968 L6.71729567,12.5201811 L6.066641,12.5430968 L5.41561067,12.6832204 L4.78787167,12.8928424 L4.18117,13.1937514 L3.64546933,13.5664128 L3.13681667,13.9849054 L2.69315433,14.4954364 L2.322747,15.0521744 L2.04475367,15.6340821 L1.83325333,16.2614454 L1.697262,16.9124758 L1.64917667,17.5841678 L1.697262,18.2348224 L1.83325333,18.8858528 L2.04475367,19.5135918 L2.322747,20.1161611 L2.69315433,20.6518618 L3.13681667,21.1623928 L3.64546933,21.6041768 L4.18117,21.9764624 L4.78787167,22.2552071 L5.41561067,22.4640778 L6.066641,22.6019474 L6.71729567,22.6504084 L7.39124167,22.6019474 L8.04189633,22.4640778 L8.66963533,22.2552071 L9.249289,21.9764624 L9.808281,21.6041768 L10.2958963,21.1623928 L10.7373047,20.6518618 L11.109966,20.1161611 L11.410875,19.5135918 L11.6201213,18.8858528 L11.7373293,18.2348224 L11.7835363,17.5841678 Z M13.4113,16.8181834 L13.457507,17.6322531 L13.384252,18.4440688 L13.2463823,19.2355984 L12.993183,20.0241228 L12.643813,20.7671914 L12.2249447,21.4411374 L11.7125353,22.0917921 L11.1306277,22.6504084 L10.4818513,23.1609394 L9.78498967,23.5561408 L9.04004267,23.9036324 L8.274434,24.1357944 L7.46036433,24.2762938 L6.64629467,24.2992094 L5.834479,24.2511241 L5.041071,24.0899631 L4.27320833,23.8578011 L3.53239367,23.5084311 L2.833278,23.0689011 L2.207793,22.5794074 L1.62588533,21.9764624 L1.13864567,21.3487234 L0.719777333,20.6518618 L0.393698667,19.8862531 L0.161161,19.1180148 L0.0229156667,18.3061991 L-2.13541777e-14,17.4921294 L0.046207,16.6780598 L0.209246333,15.8891598 L0.464699667,15.1231754 L0.7889,14.3786041 L1.230684,13.6813668 L1.74309333,13.0558818 L2.322747,12.4739741 L1.48801567,10.9401271 L1.416639,10.7079651 L1.39146933,10.4295961 L1.48801567,10.1974341 L1.62588533,9.9652721 L1.83325333,9.82702677 L2.090585,9.7331101 L2.34566267,9.7331101 L2.58007867,9.8018571 L2.81261633,9.94198077 L2.950486,10.1512271 L3.71872433,11.5449504 L4.39229467,11.2669571 L5.11244767,11.0340438 L5.85739467,10.8939201 L5.85739467,9.22220343 L4.74204033,9.22220343 L4.484333,9.17599643 L4.27320833,9.0591641 L4.08913167,8.8980031 L3.973802,8.6635871 L3.95088633,8.4314251 L3.973802,8.17597177 L4.08913167,7.96634977 L4.27320833,7.7822731 L4.484333,7.66544077 L4.74204033,7.64214943 L8.71584233,7.64214943 L8.94800433,7.66544077 L9.18016633,7.7822731 L9.34358133,7.96634977 L9.456657,8.17597177 L9.50248833,8.4314251 L9.456657,8.6635871 L9.34358133,8.8980031 L9.18016633,9.0591641 L8.94800433,9.17599643 L8.71584233,9.22220343 L7.57757233,9.22220343 L7.57757233,10.8939201 L8.389388,11.0573351 L9.15725067,11.2894971 L9.90031933,11.6369888 L10.5761437,12.0554814 L11.2267983,12.5663881 L11.7835363,13.1475444 L12.2940673,13.7985748 L12.71256,14.4954364 L13.0390143,15.2385051 L13.2711763,16.0292834 L13.4113,16.8181834 Z" id="Fill-155"></path>
                        <polygon id="Fill-156" points="6.7173708 13.7526683 7.43714813 17.632178 7.41423247 17.910547 7.32219413 18.1660003 7.1106938 18.3752466 6.85561613 18.467285 6.57499313 18.467285 6.3217938 18.3752466 6.13546313 18.1660003 6.02050913 17.910547 6.02050913 17.632178"></polygon>
                    </g>
                </g>
            </g>
        </g>
    </g>
</svg>