<?xml version="1.0" encoding="UTF-8"?>
<svg width="156px" height="123px" viewBox="0 0 156 123" version="1.1" xmlns="http://www.w3.org/2000/svg" xmlns:xlink="http://www.w3.org/1999/xlink">
    <title>术前准备</title>
    <defs>
        <path d="M141.787333,119.462097 L26.8333333,119.462097 C20.93,119.462097 16.1,114.632097 16.1,108.728764 L16.1,26.8334303 C16.1,20.9300969 20.93,16.1000969 26.8333333,16.1000969 L141.787333,16.1000969 C147.690667,16.1000969 152.520667,20.9300969 152.520667,26.8334303 L152.520667,108.78243 C152.520667,114.685764 147.74487,119.462097 141.787333,119.462097" id="path-1"></path>
        <filter x="-11.4%" y="-14.0%" width="122.7%" height="130.0%" filterUnits="objectBoundingBox" id="filter-2">
            <feOffset dx="0" dy="1" in="SourceAlpha" result="shadowOffsetOuter1"></feOffset>
            <feGaussianBlur stdDeviation="5" in="shadowOffsetOuter1" result="shadowBlurOuter1"></feGaussianBlur>
            <feColorMatrix values="0 0 0 0 0   0 0 0 0 0   0 0 0 0 0  0 0 0 0.1 0" type="matrix" in="shadowBlurOuter1"></feColorMatrix>
        </filter>
        <path d="M130.785667,70.0887636 L90.6966667,70.0887636 C86.8326667,70.0887636 83.72,66.9760969 83.72,63.1120969 L83.72,23.0767636 C83.72,19.2127636 86.8326667,16.1000969 90.6966667,16.1000969 L130.785667,16.1000969 C134.649667,16.1000969 137.762333,19.2127636 137.762333,23.0767636 L137.762333,63.1657636 C137.762333,66.9760969 134.596,70.0887636 130.785667,70.0887636" id="path-3"></path>
        <filter x="-14.8%" y="-13.0%" width="129.6%" height="129.6%" filterUnits="objectBoundingBox" id="filter-4">
            <feOffset dx="0" dy="1" in="SourceAlpha" result="shadowOffsetOuter1"></feOffset>
            <feGaussianBlur stdDeviation="2.5" in="shadowOffsetOuter1" result="shadowBlurOuter1"></feGaussianBlur>
            <feColorMatrix values="0 0 0 0 0.196078431   0 0 0 0 0.450980392   0 0 0 0 0.250980392  0 0 0 0.5 0" type="matrix" in="shadowBlurOuter1"></feColorMatrix>
        </filter>
    </defs>
    <g id="页面-1" stroke="none" stroke-width="1" fill="none" fill-rule="evenodd">
        <g id="padCard-床头卡" transform="translate(-927.000000, -326.000000)">
            <g id="术前准备" transform="translate(925.000000, 322.000000)">
                <g id="编组" transform="translate(-4.293333, -3.440097)">
                    <g id="Fill-2">
                        <use fill="black" fill-opacity="1" filter="url(#filter-2)" xlink:href="#path-1"></use>
                        <use fill="#FFFFFF" fill-rule="evenodd" xlink:href="#path-1"></use>
                    </g>
                    <g id="Fill-5">
                        <use fill="black" fill-opacity="1" filter="url(#filter-4)" xlink:href="#path-3"></use>
                        <use fill="#275F60" fill-rule="evenodd" xlink:href="#path-3"></use>
                    </g>
                </g>
                <g id="图标位置" transform="translate(90.160000, 22.856667)">
                    <g id="编组" transform="translate(0.000000, 0.000000)" fill="#FFB400" opacity="0">
                        <g id="图标背景底板60*60px" transform="translate(0.000000, 0.000000)">
                            <rect x="3.55271368e-15" y="3.55271368e-15" width="32.2" height="32.2"></rect>
                        </g>
                    </g>
                    <g id="编组" transform="translate(2.683333, 0.536667)" fill="#FEFEFE">
                        <path d="M25.9883681,19.0563251 L1.70126764,19.0563251 C1.13348062,19.0563251 0.672073559,19.5168777 0.672073559,20.0846648 C0.672073559,20.6537335 1.13305339,21.1142861 1.70126764,21.1142861 L4.54191165,21.1142861 L4.54191165,22.2357616 L8.5343644,22.2357616 L8.5343644,27.9067961 L5.69414761,27.9067961 L5.69414761,29.3063975 L6.53450658,29.3063975 C6.52638923,29.3606556 6.51741743,29.4144864 6.51741743,29.4713078 C6.51741743,30.1074514 7.03350977,30.6235438 7.67008062,30.6235438 C8.30665147,30.6235438 8.82231658,30.1074514 8.82231658,29.4713078 C8.82231658,29.4144864 8.81419923,29.3606556 8.80565466,29.3063975 L18.8835538,29.3063975 C18.8754365,29.3606556 18.8664647,29.4144864 18.8664647,29.4713078 C18.8664647,30.1074514 19.382557,30.6235438 20.0191279,30.6235438 C20.656126,30.6235438 21.1713638,30.1074514 21.1713638,29.4713078 C21.1713638,29.4144864 21.1632465,29.3606556 21.1547019,29.3063975 L21.9544741,29.3063975 L21.9544741,27.9067961 L18.7434228,27.9067961 L18.7434228,22.2357616 L22.6538476,22.2357616 L22.6538476,21.1142861 L25.9883681,21.1142861 C26.5565823,21.1142861 27.0175622,20.6533062 27.0175622,20.0846648 C27.0175622,19.5168777 26.5565823,19.0563251 25.9883681,19.0563251" id="Fill-29"></path>
                        <path d="M10.5029918,9.54382051 L10.5645127,9.52502244 C9.87667443,10.0654668 9.70450124,10.8357603 9.67160463,11.5167629 C9.6459709,12.0512261 10.0001435,12.5997878 10.725578,13.1483495 C11.1297364,13.4525364 11.3078908,13.9374411 11.2497877,14.4065382 L10.8729719,14.4039749 C10.9755068,14.0087883 10.8447748,13.5760055 10.4982923,13.3145415 C9.68271258,12.6984777 9.28410814,12.0760054 9.31358693,11.4625049 C9.34562908,10.7973097 9.86471203,10.0945184 10.5029918,9.54382051 M12.8847921,13.8891642 C13.6567945,13.3068514 13.9998592,12.6877969 13.963972,11.9422828 C13.9191129,11.0254498 13.5636586,9.98557504 12.886501,9.41906971 L12.972374,9.44726681 C13.635433,10.0603401 14.2194548,10.982727 14.2634593,11.8910153 C14.3031916,12.7040316 13.9071505,13.4119497 13.0544019,14.0562106 C12.9232427,14.1544733 12.8292524,14.2805057 12.7617502,14.4176462 L12.4712347,14.4159373 C12.5639433,14.2104402 12.7010838,14.0284408 12.8847921,13.8891642 M8.62788477,14.4586601 C7.88151613,14.6778285 7.37695897,15.401554 7.20393132,16.0859745 C7.20393132,16.0859745 7.19837735,16.1047725 7.19026,16.1363875 C7.02492247,14.9461282 6.00939971,14.0228868 4.77086354,14.0143422 C3.41099441,14.0036615 2.29977241,15.099076 2.28945327,16.4593724 C2.27969265,17.820096 3.37425273,18.9308908 4.73369464,18.9411443 C5.92267227,18.9501161 6.92025142,18.1165928 7.16163567,16.9993896 C7.17701591,17.1061968 7.19196892,17.1796801 7.19196892,17.1796801 L7.19282337,17.1873702 C7.38977583,18.0170485 8.05838884,18.9048298 9.07177545,18.9125199 L14.5099703,18.9523038 C15.1824284,18.957379 15.7109104,18.5797087 16.044576,18.0533629 L24.2571944,18.0734427 L24.2614667,18.0734427 C24.979211,18.0734427 25.5628055,17.4915571 25.5653698,16.7725311 C25.5662233,16.0517962 24.9843378,15.4660656 24.2636029,15.4652111 L17.0712067,15.4472675 C17.165197,15.5835535 17.2373987,15.7382103 17.2694409,15.9091018 C17.3959006,16.5678885 16.9618362,17.20745 16.3034766,17.3339097 C16.2009417,17.3535622 13.7836814,17.8124059 11.4219608,17.8124059 C10.6593575,17.8124059 9.98006379,17.7637018 9.39134256,17.668857 C9.39305148,17.6568946 9.39518762,17.6457867 9.39689654,17.6329698 C9.39945991,17.5590592 9.40800448,17.4855759 9.41654906,17.4133742 C10.051411,17.5197542 10.7524934,17.5616226 11.4578481,17.5616226 C13.7870993,17.5616226 16.1569372,17.1134596 16.2898053,17.0878259 C16.8080338,16.9887088 17.1489624,16.4871423 17.0494181,15.9684866 C16.9507282,15.4494036 16.4491616,15.110184 15.9309332,15.2093011 C15.8912009,15.2161367 12.2554842,15.9018389 9.87581997,15.5498024 C9.89376358,15.4635022 9.90957105,15.3763475 9.92153345,15.2887656 C10.3504711,15.3490049 10.8490471,15.3797653 11.4104257,15.3797653 C13.3056124,15.3797653 15.3332401,15.035419 15.7647412,14.9580906 C15.6549434,14.8457294 15.5319015,14.7483212 15.3960428,14.6667205 C16.2158947,13.627273 16.3876407,12.5750085 16.3500446,11.7897621 C16.266735,10.0735842 15.1679026,7.84515896 12.5404457,6.73564588 L11.870551,7.41024009 L11.2207361,6.72838299 C11.2186,6.72881022 11.2160366,6.72881022 11.2134732,6.72966468 C10.8033336,6.82750006 7.63500514,8.07885309 7.22785613,11.3612516 C7.18897831,12.1648689 7.42438136,13.3089876 8.62788477,14.4586601" id="Fill-31"></path>
                        <path d="M9.52292902,4.98904927 C9.52292902,4.08375153 10.2560536,3.34891807 11.162633,3.34891807 L12.4259484,3.34891807 C13.3316734,3.34891807 14.0652252,4.08375153 14.0652252,4.98904927 C14.0652252,5.20608148 14.0207934,5.41243297 13.9447467,5.60212254 C14.3283981,5.13687042 14.5599561,4.5408863 14.5599561,3.89064413 C14.5599561,2.40559697 13.3555982,1.20081187 11.8701238,1.20081187 C10.3855039,1.20081187 9.18114601,2.40559697 9.18114601,3.89064413 C9.18114601,4.38409335 9.31657753,4.84550041 9.54898997,5.24325038 C9.53489142,5.15951354 9.52292902,5.07577671 9.52292902,4.98904927" id="Fill-33"></path>
                        <path d="M12.3992466,3.51711803 L11.2453018,3.51711803 C10.416478,3.51711803 9.74572882,4.18786718 9.74572882,5.01583651 C9.74572882,5.84423307 10.416478,6.51498222 11.2453018,6.51498222 L12.3992466,6.51498222 C13.2267887,6.51498222 13.8979659,5.84380585 13.8979659,5.01583651 C13.8988196,4.18786718 13.2267887,3.51711803 12.3992466,3.51711803" id="Fill-35"></path>
                        <path d="M1.79111385,4.36239013 C2.47467986,4.1004989 3.43466288,3.94925992 4.42327022,3.94925992 C5.41273203,3.94925992 6.37228782,4.10007167 7.05585383,4.36239013 C7.67149047,4.59779317 7.86288896,4.84900368 7.86288896,4.91351522 C7.86288896,4.978454 7.67149047,5.22881005 7.05585383,5.46506755 C6.37228782,5.72653155 5.41273203,5.87777053 4.42327022,5.87777053 C3.43466288,5.87777053 2.47467986,5.72738601 1.79111385,5.46506755 C1.17504998,5.22881005 0.984078722,4.978454 0.984078722,4.91351522 C0.984078722,4.84900368 1.17590443,4.59779317 1.79111385,4.36239013 M4.42327022,6.4536749 C6.62819785,6.4536749 8.41657743,5.77224503 8.43708441,4.928041 C8.43708441,4.93316775 8.43836609,4.93744004 8.43836609,4.94213955 L8.43836609,3.71941085 C8.43836609,2.70602423 6.790972,2.34373424 4.93808088,2.2078755 L4.93808088,0.347721486 L4.01270339,0.347721486 L4.01270339,2.20103984 C2.10811758,2.32194558 0.409028813,2.69235291 0.409028813,3.71941085 L0.409028813,4.94213955 C0.409028813,4.93744004 0.409883271,4.93316775 0.409883271,4.928041 C0.429963022,5.77224503 2.21876983,6.4536749 4.42327022,6.4536749" id="Fill-37"></path>
                        <path d="M4.47505035,4.06491074 C5.01549473,4.06491074 5.45383144,4.18068974 5.45383144,4.3242386 C5.45383144,4.46821469 5.01549473,4.58484814 4.47505035,4.58484814 C3.93417874,4.58484814 3.49669649,4.46821469 3.49669649,4.3242386 C3.49669649,4.18068974 3.93417874,4.06491074 4.47505035,4.06491074" id="Fill-39"></path>
                        <path d="M4.47505035,5.19766507 C5.01549473,5.19766507 5.45383144,5.31344407 5.45383144,5.45699293 C5.45383144,5.60096902 5.01549473,5.71717524 4.47505035,5.71717524 C3.93417874,5.71717524 3.49669649,5.60096902 3.49669649,5.45699293 C3.49669649,5.31344407 3.93417874,5.19766507 4.47505035,5.19766507" id="Fill-41"></path>
                        <path d="M2.97432389,4.6686277 C3.51476827,4.6686277 3.95267775,4.78526115 3.95267775,4.92881001 C3.95267775,5.07235888 3.51476827,5.1885651 2.97432389,5.1885651 C2.43345228,5.1885651 1.99597004,5.07235888 1.99597004,4.92881001 C1.99597004,4.78526115 2.43345228,4.6686277 2.97432389,4.6686277" id="Fill-43"></path>
                        <path d="M6.02294286,4.6686277 C6.56296001,4.6686277 7.00129672,4.78526115 7.00129672,4.92838279 C7.00129672,5.07150442 6.56296001,5.1885651 6.02294286,5.1885651 C5.48207126,5.1885651 5.04416178,5.07150442 5.04416178,4.92838279 C5.04416178,4.78526115 5.48207126,4.6686277 6.02294286,4.6686277" id="Fill-45"></path>
                    </g>
                </g>
            </g>
        </g>
    </g>
</svg>