<?xml version="1.0" encoding="UTF-8"?>
<svg width="156px" height="123px" viewBox="0 0 156 123" version="1.1" xmlns="http://www.w3.org/2000/svg" xmlns:xlink="http://www.w3.org/1999/xlink">
    <title>血液隔离</title>
    <defs>
        <path d="M141.787333,119.462097 L26.8333333,119.462097 C20.93,119.462097 16.1,114.632097 16.1,108.728764 L16.1,26.8334303 C16.1,20.9300969 20.93,16.1000969 26.8333333,16.1000969 L141.787333,16.1000969 C147.690667,16.1000969 152.520667,20.9300969 152.520667,26.8334303 L152.520667,108.78243 C152.520667,114.685764 147.74487,119.462097 141.787333,119.462097" id="path-1"></path>
        <filter x="-11.4%" y="-14.0%" width="122.7%" height="130.0%" filterUnits="objectBoundingBox" id="filter-2">
            <feOffset dx="0" dy="1" in="SourceAlpha" result="shadowOffsetOuter1"></feOffset>
            <feGaussianBlur stdDeviation="5" in="shadowOffsetOuter1" result="shadowBlurOuter1"></feGaussianBlur>
            <feColorMatrix values="0 0 0 0 0   0 0 0 0 0   0 0 0 0 0  0 0 0 0.1 0" type="matrix" in="shadowBlurOuter1"></feColorMatrix>
        </filter>
        <path d="M130.785667,70.0887636 L90.6966667,70.0887636 C86.8326667,70.0887636 83.72,66.9760969 83.72,63.1120969 L83.72,23.0767636 C83.72,19.2127636 86.8326667,16.1000969 90.6966667,16.1000969 L130.785667,16.1000969 C134.649667,16.1000969 137.762333,19.2127636 137.762333,23.0767636 L137.762333,63.1657636 C137.762333,66.9760969 134.596,70.0887636 130.785667,70.0887636" id="path-3"></path>
        <filter x="-14.8%" y="-13.0%" width="129.6%" height="129.6%" filterUnits="objectBoundingBox" id="filter-4">
            <feOffset dx="0" dy="1" in="SourceAlpha" result="shadowOffsetOuter1"></feOffset>
            <feGaussianBlur stdDeviation="2.5" in="shadowOffsetOuter1" result="shadowBlurOuter1"></feGaussianBlur>
            <feColorMatrix values="0 0 0 0 0.196078431   0 0 0 0 0.450980392   0 0 0 0 0.250980392  0 0 0 0.5 0" type="matrix" in="shadowBlurOuter1"></feColorMatrix>
        </filter>
    </defs>
    <g id="页面-1" stroke="none" stroke-width="1" fill="none" fill-rule="evenodd">
        <g id="padCard-床头卡" transform="translate(-384.000000, -475.000000)">
            <g id="血液隔离" transform="translate(382.000000, 471.000000)">
                <g id="编组" transform="translate(-4.293333, -3.440097)">
                    <g id="Fill-2">
                        <use fill="black" fill-opacity="1" filter="url(#filter-2)" xlink:href="#path-1"></use>
                        <use fill="#FFFFFF" fill-rule="evenodd" xlink:href="#path-1"></use>
                    </g>
                    <g id="Fill-5">
                        <use fill="black" fill-opacity="1" filter="url(#filter-4)" xlink:href="#path-3"></use>
                        <use fill="#275F60" fill-rule="evenodd" xlink:href="#path-3"></use>
                    </g>
                </g>
                <g id="图标位置" transform="translate(90.160000, 22.856667)">
                    <g id="编组" transform="translate(0.000000, 0.000000)" fill="#FFB400" opacity="0">
                        <g id="图标背景底板60*60px" transform="translate(0.000000, 0.000000)">
                            <rect x="3.55271368e-15" y="3.55271368e-15" width="32.2" height="32.2"></rect>
                        </g>
                    </g>
                    <path d="M20.9876428,13.7285163 C18.6478138,13.7285163 16.7519524,11.8637098 16.7519524,9.56059398 C16.7519524,7.32123225 20.0157139,3.53981894 20.9876428,2.1252755 C21.9595718,3.53981894 25.2233333,7.32123225 25.2233333,9.56059398 C25.2233333,11.8637098 23.3274719,13.7285163 20.9876428,13.7285163 Z M14.3881251,11.6206474 C12.7002484,14.0433021 6.97666667,20.5940328 6.97666667,24.4670926 C6.97666667,28.4397681 10.2964241,31.6633333 14.3881251,31.6633333 C18.4798261,31.6633333 21.7995835,28.4437528 21.7995835,24.4670926 C21.7995835,20.5940328 16.0760018,14.0433021 14.3881251,11.6206474 Z M8.4405597,24.4670926 C8.4405597,24.0287834 8.79653368,23.6741514 9.23650153,23.6741514 C9.67646938,23.6741514 10.0324434,24.0287834 10.0324434,24.4670926 C10.0324434,25.6306044 10.516408,26.6785619 11.3003507,27.4396262 C12.0882931,28.204675 13.1842131,28.6788459 14.3921248,28.6788459 C14.8320926,28.6788459 15.1880666,29.0334779 15.1880666,29.4717872 C15.1880666,29.9100964 14.8320926,30.2647284 14.3921248,30.2647284 C12.7562443,30.2647284 11.2723528,29.6192184 10.1964314,28.5752455 C9.11251059,27.5193187 8.4405597,26.0689136 8.4405597,24.4670926 L8.4405597,24.4670926 Z M11.7283195,8.45685163 C13.1962122,8.45685163 14.3881251,7.26943207 14.3881251,5.80707308 C14.3881251,4.38057575 12.3442744,1.98182884 11.7283195,1.07333333 C11.1123645,1.98182884 9.06851381,4.38057575 9.06851381,5.80707308 C9.06851381,7.26943207 10.2604267,8.45685163 11.7283195,8.45685163 Z" id="形状" fill="#FFFFFF" fill-rule="nonzero"></path>
                </g>
            </g>
        </g>
    </g>
</svg>