<?xml version="1.0" encoding="UTF-8"?>
<svg width="156px" height="123px" viewBox="0 0 156 123" version="1.1" xmlns="http://www.w3.org/2000/svg" xmlns:xlink="http://www.w3.org/1999/xlink">
    <title>观察心率</title>
    <defs>
        <path d="M141.787333,119.462097 L26.8333333,119.462097 C20.93,119.462097 16.1,114.632097 16.1,108.728764 L16.1,26.8334303 C16.1,20.9300969 20.93,16.1000969 26.8333333,16.1000969 L141.787333,16.1000969 C147.690667,16.1000969 152.520667,20.9300969 152.520667,26.8334303 L152.520667,108.78243 C152.520667,114.685764 147.74487,119.462097 141.787333,119.462097" id="path-1"></path>
        <filter x="-11.4%" y="-14.0%" width="122.7%" height="130.0%" filterUnits="objectBoundingBox" id="filter-2">
            <feOffset dx="0" dy="1" in="SourceAlpha" result="shadowOffsetOuter1"></feOffset>
            <feGaussianBlur stdDeviation="5" in="shadowOffsetOuter1" result="shadowBlurOuter1"></feGaussianBlur>
            <feColorMatrix values="0 0 0 0 0   0 0 0 0 0   0 0 0 0 0  0 0 0 0.1 0" type="matrix" in="shadowBlurOuter1"></feColorMatrix>
        </filter>
        <path d="M130.785667,70.0887636 L90.6966667,70.0887636 C86.8326667,70.0887636 83.72,66.9760969 83.72,63.1120969 L83.72,23.0767636 C83.72,19.2127636 86.8326667,16.1000969 90.6966667,16.1000969 L130.785667,16.1000969 C134.649667,16.1000969 137.762333,19.2127636 137.762333,23.0767636 L137.762333,63.1657636 C137.762333,66.9760969 134.596,70.0887636 130.785667,70.0887636" id="path-3"></path>
        <filter x="-14.8%" y="-13.0%" width="129.6%" height="129.6%" filterUnits="objectBoundingBox" id="filter-4">
            <feOffset dx="0" dy="1" in="SourceAlpha" result="shadowOffsetOuter1"></feOffset>
            <feGaussianBlur stdDeviation="2.5" in="shadowOffsetOuter1" result="shadowBlurOuter1"></feGaussianBlur>
            <feColorMatrix values="0 0 0 0 0.196078431   0 0 0 0 0.450980392   0 0 0 0 0.250980392  0 0 0 0.5 0" type="matrix" in="shadowBlurOuter1"></feColorMatrix>
        </filter>
    </defs>
    <g id="页面-1" stroke="none" stroke-width="1" fill="none" fill-rule="evenodd">
        <g id="padCard-床头卡" transform="translate(-927.000000, -177.000000)">
            <g id="观察心率" transform="translate(925.000000, 173.000000)">
                <g id="编组" transform="translate(-4.293333, -3.440097)">
                    <g id="Fill-2">
                        <use fill="black" fill-opacity="1" filter="url(#filter-2)" xlink:href="#path-1"></use>
                        <use fill="#FFFFFF" fill-rule="evenodd" xlink:href="#path-1"></use>
                    </g>
                    <g id="Fill-5">
                        <use fill="black" fill-opacity="1" filter="url(#filter-4)" xlink:href="#path-3"></use>
                        <use fill="#275F60" fill-rule="evenodd" xlink:href="#path-3"></use>
                    </g>
                </g>
                <g id="图标位置" transform="translate(90.160000, 22.856667)">
                    <g id="编组" transform="translate(0.000000, 0.000000)" fill="#FFB400" opacity="0">
                        <g id="图标背景底板60*60px" transform="translate(0.000000, 0.000000)">
                            <rect x="3.55271368e-15" y="3.55271368e-15" width="32.2" height="32.2"></rect>
                        </g>
                    </g>
                    <g id="编组" transform="translate(1.610000, 0.536667)" fill="#FEFEFE">
                        <path d="M15.7367577,14.4969826 C12.3616505,15.2343794 10.6736697,13.663032 10.586515,13.578868 C10.1597135,13.1533481 9.47016627,13.1495031 9.03994691,13.5720323 C8.60673695,13.9971249 8.60032852,14.693935 9.0249939,15.127145 C9.10915797,15.213018 10.8001294,16.8911725 14.0090446,16.8911725 C14.6763759,16.8911725 15.4090732,16.8193981 16.2067093,16.6442343 C16.7992756,16.514784 17.1748097,15.9290534 17.0453594,15.3360598 C16.9159091,14.7417846 16.3297512,14.3675322 15.7367577,14.4969826" id="Fill-51"></path>
                        <path d="M5.76656289,9.1587165 C7.13241323,9.1587165 8.23979017,10.2656662 8.23979017,11.6315166 C8.23979017,12.9973669 7.13241323,14.1047438 5.76656289,14.1047438 C4.40113978,14.1047438 3.29376283,12.9973669 3.29376283,11.6315166 C3.29376283,10.2656662 4.40113978,9.1587165 5.76656289,9.1587165" id="Fill-53"></path>
                        <path d="M28.6341103,21.7590597 L24.0025234,19.888225 C23.8418854,19.8241407 23.6709939,19.7903896 23.4983934,19.7903896 L22.3179604,19.7903896 L22.3179604,19.5336251 C22.3179604,19.4028931 22.2837821,19.2807057 22.2273879,19.1713351 L26.5936658,20.3624489 C26.7085903,20.3944911 26.8247965,20.4098713 26.9392939,20.4098713 C27.5151982,20.4098713 28.0419713,20.0266471 28.2013276,19.4447615 C28.3918716,18.747097 27.9808776,18.0272165 27.283213,17.8366725 L21.5314322,16.267034 C21.4173622,16.2354191 21.3054282,16.2200389 21.1802502,16.2208933 L17.2591446,16.2401186 C17.0762907,16.6720469 16.6952027,17.0116938 16.2043168,17.1197826 C15.5570653,17.2611953 14.8987058,17.3329698 14.2459002,17.3329698 C11.0634732,17.3329698 8.89486002,15.6308904 8.80428753,15.5578343 C8.4919833,15.3096144 8.29631253,14.9545873 8.25145351,14.558119 C8.20659449,14.1616507 8.31852843,13.7711636 8.56760279,13.4588594 C8.85256438,13.1004145 9.27893868,12.8957719 9.73735513,12.8957719 C10.071448,12.8957719 10.3995597,13.009842 10.6627326,13.2170479 C10.7071644,13.2516535 11.5582041,13.9014684 12.9112376,14.1979652 L10.4965406,12.6402891 C9.64507372,12.0908729 8.59238206,12.4702521 7.97418205,13.054701 C7.97418205,13.054701 7.76740333,13.2311465 7.62214555,13.467404 C7.48415066,13.6938352 7.37520733,13.975379 7.37520733,13.975379 L7.3717895,13.9822146 C7.09238189,14.7913859 7.18209993,15.9030351 8.03655745,16.4550147 L12.6241399,19.4131466 C12.6788251,19.4486066 12.7347921,19.4793671 12.7899046,19.5075642 C12.7899046,19.516536 12.7873412,19.5250805 12.7873412,19.5336251 L12.7873412,19.7903896 L11.4825846,19.7903896 L5.3796218,15.5548437 C5.40995504,15.5215198 5.43857937,15.4864871 5.46335864,15.447182 C5.68765373,15.0891643 5.57913763,14.6166493 5.2206927,14.3927815 L3.14350648,13.0918699 C2.79488781,12.8727015 2.33946196,12.9718186 2.1083312,13.3089021 C1.52046443,13.0213772 0.79716614,13.1926959 0.412660258,13.7468116 C-0.0115778993,14.3577487 0.14008831,15.1972532 0.751452663,15.6210641 L10.2927525,22.2439644 C10.5187565,22.4011845 10.7870562,22.4849214 11.0609098,22.4849214 L12.8398904,22.4849214 C12.953106,22.7899627 13.2449032,23.0087038 13.5883952,23.0087038 L15.2810755,23.0087038 L15.2810755,29.3321167 L14.456524,29.3321167 C14.1002152,29.3321167 13.8118358,29.6213506 13.8118358,29.9776593 C13.8118358,30.3348226 14.1006424,30.623202 14.456524,30.623202 L20.7214065,30.623202 C21.0777153,30.623202 21.3673764,30.3348226 21.3673764,29.9776593 C21.3673764,29.6213506 21.0777153,29.3321167 20.7214065,29.3321167 L19.8242261,29.3321167 L19.8242261,23.0087038 L21.5164792,23.0087038 C21.8603984,23.0087038 22.1521956,22.7899627 22.2658385,22.4849214 L23.236075,22.4849214 L27.6254232,24.2574935 C27.7903335,24.3237139 27.961225,24.3553289 28.1286987,24.3553289 C28.6627347,24.3553289 29.1668646,24.0366162 29.3783428,23.5128338 C29.6577504,22.8224321 29.3236576,22.0376129 28.6341103,21.7590597" id="Fill-55"></path>
                        <path d="M10.1777853,11.0758201 C10.1777853,11.6542878 10.6468824,12.1238123 11.2244957,12.1238123 C13.6742254,12.1238123 15.031104,11.4688706 15.9163219,10.6930231 L15.9163219,12.3908302 C15.8372846,12.7317588 15.6920268,13.3644846 15.5211353,14.125379 C15.5869286,14.1117077 15.6518673,14.1014542 15.7168061,14.0869284 C15.8231861,14.063858 15.9317022,14.0523229 16.0380821,14.0523229 C16.7374556,14.0523229 17.3539467,14.5483355 17.5034768,15.2323287 C17.5470541,15.4314173 17.5479086,15.6309331 17.513303,15.8206227 L21.2438646,15.8022519 C21.4079204,15.8022519 21.5514693,15.8214772 21.7031355,15.8620639 L22.2491338,16.0120212 C21.9389657,14.4953591 21.5856476,13.0021946 21.4399626,12.3985203 L21.4399626,10.3802917 C21.8407031,11.2142422 22.090632,12.4096283 22.0649982,14.2415852 C22.0568809,14.8200529 22.5195696,15.2959858 23.0976101,15.3036759 L23.1129904,15.3036759 C23.683768,15.3036759 24.1520107,14.8439778 24.1592736,14.2706368 C24.2293391,9.29043113 21.6112813,6.61726079 19.3362881,6.06741738 C19.3337248,6.06656292 19.3315886,6.06656292 19.3294525,6.06613569 L18.6775014,6.75012893 L18.0054706,6.07382581 C17.6312182,6.16525276 16.2435792,6.78302555 15.3724597,8.13904963 C14.6226733,9.15286347 13.9754217,10.027828 11.2244957,10.027828 C10.6468824,10.027828 10.1777853,10.4973524 10.1777853,11.0758201" id="Fill-57"></path>
                        <path d="M18.7186008,0.880304856 C19.0975527,0.880304856 19.4055847,1.18833679 19.4055847,1.56771593 C19.4055847,1.94624061 19.0975527,2.25427254 18.7186008,2.25427254 C18.3400761,2.25427254 18.0324714,1.94624061 18.0324714,1.56771593 C18.0324714,1.18833679 18.3400761,0.880304856 18.7186008,0.880304856 M18.7177464,5.86093772 C20.1143572,5.86093772 21.2473678,4.7300632 21.2473678,3.33259793 C21.2473678,2.74857622 21.0440069,2.2149675 20.7103413,1.78773874 L19.8926254,1.78773874 L19.8926254,1.40451454 L20.3424973,1.40451454 C20.1848499,1.2716464 20.0139584,1.15586741 19.8276867,1.06486768 C19.635861,0.642338438 19.21205,0.347550595 18.7186008,0.347550595 C18.2264333,0.347550595 17.8026224,0.64148398 17.6103694,1.06358599 C17.4232432,1.15458572 17.2514973,1.2716464 17.0938498,1.40451454 L17.6073788,1.40451454 L17.6073788,1.78773874 L16.7255787,1.78773874 C16.3931947,2.2149675 16.1898338,2.74857622 16.1898338,3.33259793 C16.190261,4.7300632 17.3215628,5.86093772 18.7177464,5.86093772" id="Fill-59"></path>
                        <path d="M2.74050159,7.24746593 L2.74050159,5.28691316 L4.72156134,5.28691316 C4.77710108,5.28691316 4.82537793,5.2518804 4.84374877,5.19975849 L5.45682204,3.36523821 L6.07160422,5.19975849 C6.0891206,5.2518804 6.13782468,5.28691316 6.19250996,5.28691316 L6.67314231,5.28691316 L7.12557757,6.823655 C7.14138503,6.87791305 7.19094357,6.91508196 7.24861945,6.91508196 C7.30544087,6.91508196 7.35499941,6.87791305 7.3712341,6.823655 L7.82324213,5.28648593 L10.1640285,5.28477702 L10.1640285,7.24661147 L2.74050159,7.24661147 L2.74050159,7.24746593 Z M10.163174,2.46250384 L10.163174,5.02972145 L7.72711566,5.03143036 C7.67029423,5.03143036 7.6207357,5.06859926 7.60492823,5.12328455 L7.24819222,6.33533253 L6.89102898,5.12328455 C6.87522151,5.06859926 6.82566298,5.03143036 6.7679871,5.03143036 L6.2852186,5.03143036 L5.57858223,2.92220198 C5.5439767,2.81795817 5.37094906,2.81795817 5.3359163,2.92220198 L4.62927993,5.03143036 L2.74050159,5.03143036 L2.74050159,2.46250384 L10.163174,2.46250384 Z M11.5943904,7.4965403 L10.9086882,7.4965403 L10.9086882,1.71656243 L1.99413295,1.71656243 L1.99413295,7.4965403 L1.37166065,7.4965403 L1.37166065,8.82479451 L11.5943904,8.82479451 L11.5943904,7.4965403 Z" id="Fill-61"></path>
                    </g>
                </g>
            </g>
        </g>
    </g>
</svg>