<?xml version="1.0" encoding="UTF-8"?>
<svg width="156px" height="123px" viewBox="0 0 156 123" version="1.1" xmlns="http://www.w3.org/2000/svg" xmlns:xlink="http://www.w3.org/1999/xlink">
    <title>记24小时尿量</title>
    <defs>
        <path d="M141.787333,119.462097 L26.8333333,119.462097 C20.93,119.462097 16.1,114.632097 16.1,108.728764 L16.1,26.8334303 C16.1,20.9300969 20.93,16.1000969 26.8333333,16.1000969 L141.787333,16.1000969 C147.690667,16.1000969 152.520667,20.9300969 152.520667,26.8334303 L152.520667,108.78243 C152.520667,114.685764 147.74487,119.462097 141.787333,119.462097" id="path-1"></path>
        <filter x="-11.4%" y="-14.0%" width="122.7%" height="130.0%" filterUnits="objectBoundingBox" id="filter-2">
            <feOffset dx="0" dy="1" in="SourceAlpha" result="shadowOffsetOuter1"></feOffset>
            <feGaussianBlur stdDeviation="5" in="shadowOffsetOuter1" result="shadowBlurOuter1"></feGaussianBlur>
            <feColorMatrix values="0 0 0 0 0   0 0 0 0 0   0 0 0 0 0  0 0 0 0.1 0" type="matrix" in="shadowBlurOuter1"></feColorMatrix>
        </filter>
        <path d="M130.785667,70.0887636 L90.6966667,70.0887636 C86.8326667,70.0887636 83.72,66.9760969 83.72,63.1120969 L83.72,23.0767636 C83.72,19.2127636 86.8326667,16.1000969 90.6966667,16.1000969 L130.785667,16.1000969 C134.649667,16.1000969 137.762333,19.2127636 137.762333,23.0767636 L137.762333,63.1657636 C137.762333,66.9760969 134.596,70.0887636 130.785667,70.0887636" id="path-3"></path>
        <filter x="-14.8%" y="-13.0%" width="129.6%" height="129.6%" filterUnits="objectBoundingBox" id="filter-4">
            <feOffset dx="0" dy="1" in="SourceAlpha" result="shadowOffsetOuter1"></feOffset>
            <feGaussianBlur stdDeviation="2.5" in="shadowOffsetOuter1" result="shadowBlurOuter1"></feGaussianBlur>
            <feColorMatrix values="0 0 0 0 0.196078431   0 0 0 0 0.450980392   0 0 0 0 0.250980392  0 0 0 0.5 0" type="matrix" in="shadowBlurOuter1"></feColorMatrix>
        </filter>
        <polygon id="path-5" points="0 0 26.9372043 0 26.9372043 21.4665974 0 21.4665974"></polygon>
    </defs>
    <g id="页面-1" stroke="none" stroke-width="1" fill="none" fill-rule="evenodd">
        <g id="padCard-床头卡" transform="translate(-1108.000000, -177.000000)">
            <g id="记24小时尿量" transform="translate(1106.000000, 173.000000)">
                <g id="编组" transform="translate(-4.293333, -3.440097)">
                    <g id="Fill-2">
                        <use fill="black" fill-opacity="1" filter="url(#filter-2)" xlink:href="#path-1"></use>
                        <use fill="#FFFFFF" fill-rule="evenodd" xlink:href="#path-1"></use>
                    </g>
                    <g id="Fill-5">
                        <use fill="black" fill-opacity="1" filter="url(#filter-4)" xlink:href="#path-3"></use>
                        <use fill="#275F60" fill-rule="evenodd" xlink:href="#path-3"></use>
                    </g>
                </g>
                <g id="图标位置" transform="translate(90.160000, 22.856667)">
                    <g id="编组" transform="translate(0.000000, 0.000000)" fill="#FFB400" opacity="0">
                        <g id="图标背景底板60*60px" transform="translate(0.000000, 0.000000)">
                            <rect x="3.55271368e-15" y="3.55271368e-15" width="32.2" height="32.2"></rect>
                        </g>
                    </g>
                    <g id="编组" transform="translate(2.683333, 5.366667)">
                        <mask id="mask-6" fill="white">
                            <use xlink:href="#path-5"></use>
                        </mask>
                        <g id="Clip-2"></g>
                        <path d="M4.91628215,11.6334791 L20.5668671,11.6334791 L20.5668671,2.70057591 L24.3754692,2.70057591 L24.3754692,11.8412211 C24.3754692,12.048963 24.4440241,12.2567049 24.5825187,12.3951996 C24.7217058,12.5336942 24.9287553,12.6029415 25.1364972,12.6029415 C25.3442391,12.6029415 25.5526735,12.5336942 25.6904757,12.3951996 C25.8289703,12.2567049 25.8989101,12.048963 25.8989101,11.8412211 L25.8989101,1.93885548 C25.8989101,1.73111355 25.8289703,1.52337161 25.6904757,1.38487699 C25.5526735,1.24638237 25.3442391,1.17713505 25.1364972,1.17713505 L2.56256602,1.17713505 L4.98622194,4.29326409 L4.98622194,11.6334791 L4.91628215,11.6334791 Z M21.7440714,3.87778022 L21.7440714,18.6967049 C21.7440714,19.4584254 21.4663897,20.1508985 20.9131037,20.6356297 C20.42768,21.1203609 19.7352069,21.4665974 18.9741789,21.4665974 L6.37116817,21.4665974 C5.60875527,21.4665974 4.91628215,21.1896082 4.43224344,20.6356297 C3.94751226,20.1508985 3.6012757,19.4584254 3.6012757,18.6967049 L3.6012757,4.70874796 L-0.000276989247,-6.92473118e-05 L24.9980026,-6.92473118e-05 C25.5526735,-6.92473118e-05 26.0367123,0.207672688 26.3829488,0.553909247 C26.7291854,0.900145806 26.9376198,1.38487699 26.9376198,1.93885548 L26.9376198,11.8412211 C26.9376198,12.3951996 26.7291854,12.8799308 26.3829488,13.2261673 C26.0367123,13.5724039 25.5526735,13.7801458 24.9980026,13.7801458 C24.4440241,13.7801458 23.9592929,13.5724039 23.6130563,13.2261673 C23.2668198,12.8799308 23.0590778,12.3951996 23.0590778,11.8412211 L23.0590778,3.87778022 L21.7440714,3.87778022 Z" id="Fill-1" fill="#FFFFFF" mask="url(#mask-6)"></path>
                    </g>
                </g>
            </g>
        </g>
    </g>
</svg>