<?xml version="1.0" encoding="UTF-8"?>
<svg width="156px" height="123px" viewBox="0 0 156 123" version="1.1" xmlns="http://www.w3.org/2000/svg" xmlns:xlink="http://www.w3.org/1999/xlink">
    <title>记出入量</title>
    <defs>
        <path d="M141.787333,119.462097 L26.8333333,119.462097 C20.93,119.462097 16.1,114.632097 16.1,108.728764 L16.1,26.8334303 C16.1,20.9300969 20.93,16.1000969 26.8333333,16.1000969 L141.787333,16.1000969 C147.690667,16.1000969 152.520667,20.9300969 152.520667,26.8334303 L152.520667,108.78243 C152.520667,114.685764 147.74487,119.462097 141.787333,119.462097" id="path-1"></path>
        <filter x="-11.4%" y="-14.0%" width="122.7%" height="130.0%" filterUnits="objectBoundingBox" id="filter-2">
            <feOffset dx="0" dy="1" in="SourceAlpha" result="shadowOffsetOuter1"></feOffset>
            <feGaussianBlur stdDeviation="5" in="shadowOffsetOuter1" result="shadowBlurOuter1"></feGaussianBlur>
            <feColorMatrix values="0 0 0 0 0   0 0 0 0 0   0 0 0 0 0  0 0 0 0.1 0" type="matrix" in="shadowBlurOuter1"></feColorMatrix>
        </filter>
        <path d="M130.785667,70.0887636 L90.6966667,70.0887636 C86.8326667,70.0887636 83.72,66.9760969 83.72,63.1120969 L83.72,23.0767636 C83.72,19.2127636 86.8326667,16.1000969 90.6966667,16.1000969 L130.785667,16.1000969 C134.649667,16.1000969 137.762333,19.2127636 137.762333,23.0767636 L137.762333,63.1657636 C137.762333,66.9760969 134.596,70.0887636 130.785667,70.0887636" id="path-3"></path>
        <filter x="-14.8%" y="-13.0%" width="129.6%" height="129.6%" filterUnits="objectBoundingBox" id="filter-4">
            <feOffset dx="0" dy="1" in="SourceAlpha" result="shadowOffsetOuter1"></feOffset>
            <feGaussianBlur stdDeviation="2.5" in="shadowOffsetOuter1" result="shadowBlurOuter1"></feGaussianBlur>
            <feColorMatrix values="0 0 0 0 0.196078431   0 0 0 0 0.450980392   0 0 0 0 0.250980392  0 0 0 0.5 0" type="matrix" in="shadowBlurOuter1"></feColorMatrix>
        </filter>
        <polygon id="path-5" points="0.152332833 0.0740063333 9.83514117 0.0740063333 9.83514117 17.4699651 0.152332833 17.4699651"></polygon>
    </defs>
    <g id="页面-1" stroke="none" stroke-width="1" fill="none" fill-rule="evenodd">
        <g id="padCard-床头卡" transform="translate(-1289.000000, -177.000000)">
            <g id="记出入量" transform="translate(1287.000000, 173.000000)">
                <g id="编组" transform="translate(-4.293333, -3.440097)">
                    <g id="Fill-2">
                        <use fill="black" fill-opacity="1" filter="url(#filter-2)" xlink:href="#path-1"></use>
                        <use fill="#FFFFFF" fill-rule="evenodd" xlink:href="#path-1"></use>
                    </g>
                    <g id="Fill-5">
                        <use fill="black" fill-opacity="1" filter="url(#filter-4)" xlink:href="#path-3"></use>
                        <use fill="#275F60" fill-rule="evenodd" xlink:href="#path-3"></use>
                    </g>
                </g>
                <g id="图标位置" transform="translate(90.160000, 22.856667)">
                    <g id="编组" transform="translate(0.000000, 0.000000)" fill="#FFB400" opacity="0">
                        <g id="图标背景底板60*60px" transform="translate(0.000000, 0.000000)">
                            <rect x="3.55271368e-15" y="3.55271368e-15" width="32.2" height="32.2"></rect>
                        </g>
                    </g>
                    <g id="编组-7" transform="translate(1.073333, 2.683333)">
                        <path d="M12.6993741,21.3682581 L12.6993741,20.4985898 L12.6944904,20.4576421 L12.6824691,20.4196998 L12.6655641,20.3836358 L12.6347594,20.3550851 L12.0656244,19.8314058 L12.0299361,19.8077388 L11.9916181,19.7908338 L11.9439084,19.7859501 L11.8984528,19.7859501 L11.8578808,19.7953418 L11.8169331,19.8193844 L11.7883824,19.8554484 L11.7647154,19.8888828 L11.7478104,19.9294548 L11.7429268,19.9749104 L11.7429268,21.8919374 L11.7478104,21.9396471 L11.7647154,21.9802191 L11.7883824,22.0136534 L11.8169331,22.0474634 L11.8578808,22.0711304 L11.8984528,22.0827761 L11.9439084,22.0827761 L11.9916181,22.0760141 L12.0299361,22.0591091 L12.0656244,22.0376961 L12.6347594,21.5117628 L12.6655641,21.4832121 L12.6824691,21.4497778 L12.6944904,21.4088301 L12.6993741,21.3682581 Z M12.6993741,24.4089041 L12.6993741,23.5339764 L12.6944904,23.4930288 L12.6824691,23.4595944 L12.6655641,23.4239061 L12.6347594,23.3953554 L12.0656244,22.8716761 L12.0299361,22.8431254 L11.9916181,22.8265961 L11.9439084,22.8190828 L11.8984528,22.8265961 L11.8578808,22.8359878 L11.8169331,22.8600304 L11.7883824,22.8885811 L11.7647154,22.9246451 L11.7478104,22.9701008 L11.7429268,23.0102971 L11.7429268,24.9322078 L11.7478104,24.9727798 L11.7647154,25.0133518 L11.7883824,25.0542994 L11.8169331,25.0828501 L11.8578808,25.1065171 L11.8984528,25.1162844 L11.9439084,25.1234221 L11.9916181,25.1114008 L12.0299361,25.0997551 L12.0656244,25.0704531 L12.6347594,24.5475251 L12.6655641,24.5189744 L12.6824691,24.4829104 L12.6944904,24.4494761 L12.6993741,24.4089041 Z M15.2159651,19.3411608 L15.2159651,19.3009644 L15.1990601,19.2555088 L15.1753931,19.2220744 L15.1468424,19.1860104 L15.1134081,19.1623434 L15.0724604,19.1529518 L15.0270048,19.1454384 L12.4627041,19.1454384 L12.4172484,19.1529518 L12.3766764,19.1623434 L12.3406124,19.1860104 L12.3071781,19.2220744 L12.2835111,19.2555088 L12.2737438,19.3009644 L12.2737438,19.3411608 L12.2786274,19.3869921 L12.2951568,19.4275641 L12.3191994,19.4636281 L12.8425031,20.0395251 L12.8714294,20.0613138 L12.9071178,20.0849808 L12.9476898,20.0966264 L12.9811241,20.1015101 L14.5014471,20.1015101 L14.5420191,20.0966264 L14.5829668,20.0849808 L14.6182794,20.0613138 L14.6475814,20.0395251 L15.1656258,19.4636281 L15.1945521,19.4275641 L15.2114571,19.3869921 L15.2159651,19.3411608 Z M15.2159651,25.6061538 L15.2159651,25.5606981 L15.2114571,25.5152424 L15.1945521,25.4750461 L15.1656258,25.4389821 L14.6475814,24.8698471 L14.6182794,24.8412964 L14.5829668,24.8243914 L14.5420191,24.8127458 L14.5014471,24.8052324 L12.9811241,24.8052324 L12.9476898,24.8127458 L12.9071178,24.8243914 L12.8714294,24.8412964 L12.8425031,24.8698471 L12.3191994,25.4389821 L12.2951568,25.4750461 L12.2786274,25.5152424 L12.2737438,25.5606981 L12.2737438,25.6061538 L12.2835111,25.6471014 L12.3071781,25.6872978 L12.3406124,25.7162241 L12.3766764,25.7402668 L12.4172484,25.7567961 L12.4627041,25.7613041 L15.0270048,25.7613041 L15.0724604,25.7567961 L15.1134081,25.7402668 L15.1468424,25.7162241 L15.1753931,25.6872978 L15.1990601,25.6471014 L15.2159651,25.6061538 Z M15.7418984,21.9396471 L15.7418984,21.8919374 L15.7418984,19.9749104 L15.7418984,19.9294548 L15.7227394,19.8888828 L15.7013264,19.8554484 L15.6656381,19.8193844 L15.6322038,19.7953418 L15.5867481,19.7859501 L15.5458004,19.7859501 L15.4980908,19.7908338 L15.4601484,19.8077388 L15.4240844,19.8314058 L14.8526954,20.3550851 L14.8241448,20.3836358 L14.8072398,20.4196998 L14.7903348,20.4576421 L14.7903348,20.4985898 L14.7903348,21.3682581 L14.7903348,21.4088301 L14.8072398,21.4497778 L14.8241448,21.4832121 L14.8526954,21.5117628 L15.4240844,22.0376961 L15.4601484,22.0591091 L15.4980908,22.0760141 L15.5458004,22.0827761 L15.5867481,22.0827761 L15.6322038,22.0711304 L15.6656381,22.0474634 L15.7013264,22.0136534 L15.7227394,21.9802191 L15.7418984,21.9396471 Z M15.7418984,24.9727798 L15.7418984,24.9322078 L15.7418984,23.0102971 L15.7418984,22.9701008 L15.7227394,22.9246451 L15.7013264,22.8885811 L15.6656381,22.8600304 L15.6322038,22.8359878 L15.5867481,22.8265961 L15.5458004,22.8190828 L15.4980908,22.8265961 L15.4601484,22.8431254 L15.4240844,22.8716761 L14.8526954,23.3953554 L14.8241448,23.4239061 L14.8072398,23.4595944 L14.7903348,23.4930288 L14.7903348,23.5339764 L14.7903348,24.4089041 L14.7903348,24.4494761 L14.8072398,24.4829104 L14.8241448,24.5189744 L14.8526954,24.5475251 L15.4240844,25.0704531 L15.4601484,25.0997551 L15.4980908,25.1114008 L15.5458004,25.1234221 L15.5867481,25.1162844 L15.6322038,25.1065171 L15.6656381,25.0828501 L15.7013264,25.0542994 L15.7227394,25.0133518 L15.7418984,24.9727798 Z M18.0747884,20.8329331 L18.0747884,20.7758318 L18.0747884,20.7183548 L18.0627671,20.6608778 L18.0458621,20.6082844 L18.0221951,20.5556911 L17.9936444,20.5053518 L17.9526968,20.4576421 L17.9121248,20.4196998 L17.8719284,20.3836358 L17.8215891,20.3550851 L17.7686201,20.3310424 L17.7160268,20.3141374 L17.6589254,20.3024918 L17.6014484,20.3024918 L17.5439714,20.3024918 L17.4868701,20.3141374 L17.4342768,20.3310424 L17.3839374,20.3550851 L17.3313441,20.3836358 L17.2858884,20.4196998 L17.2456921,20.4576421 L17.2096281,20.5053518 L17.1810774,20.5556911 L17.1592888,20.6082844 L17.1401298,20.6608778 L17.1307381,20.7183548 L17.1232248,20.7758318 L17.1307381,20.8329331 L17.1401298,20.8904101 L17.1592888,20.9430034 L17.1810774,20.9955968 L17.2096281,21.0459361 L17.2456921,21.0913918 L17.2858884,21.1315881 L17.3313441,21.1676521 L17.3839374,21.1962028 L17.4342768,21.2179914 L17.4868701,21.2367748 L17.5439714,21.2465421 L17.6014484,21.2536798 L17.6589254,21.2465421 L17.7160268,21.2367748 L17.7686201,21.2179914 L17.8215891,21.1962028 L17.8719284,21.1676521 L17.9121248,21.1315881 L17.9526968,21.0913918 L17.9936444,21.0459361 L18.0221951,20.9955968 L18.0458621,20.9430034 L18.0627671,20.8904101 L18.0747884,20.8329331 Z M18.0747884,24.1838798 L18.0747884,24.1267784 L18.0747884,24.0693014 L18.0627671,24.0118244 L18.0458621,23.9592311 L18.0221951,23.9092674 L17.9936444,23.8566741 L17.9526968,23.8161021 L17.9121248,23.7751544 L17.8719284,23.7349581 L17.8215891,23.7060318 L17.7686201,23.6846188 L17.7160268,23.6650841 L17.6589254,23.6534384 L17.6014484,23.6534384 L17.5439714,23.6534384 L17.4868701,23.6650841 L17.4342768,23.6846188 L17.3839374,23.7060318 L17.3313441,23.7349581 L17.2858884,23.7751544 L17.2456921,23.8161021 L17.2096281,23.8566741 L17.1810774,23.9092674 L17.1592888,23.9592311 L17.1401298,24.0118244 L17.1307381,24.0693014 L17.1232248,24.1267784 L17.1307381,24.1838798 L17.1401298,24.2413568 L17.1592888,24.2939501 L17.1810774,24.3510514 L17.2096281,24.3968828 L17.2456921,24.4442168 L17.2858884,24.4829104 L17.3313441,24.5189744 L17.3839374,24.5475251 L17.4342768,24.5711921 L17.4868701,24.5877214 L17.5439714,24.6001184 L17.6014484,24.6046264 L17.6589254,24.6001184 L17.7160268,24.5877214 L17.7686201,24.5711921 L17.8215891,24.5475251 L17.8719284,24.5189744 L17.9121248,24.4829104 L17.9526968,24.4442168 L17.9936444,24.3968828 L18.0221951,24.3510514 L18.0458621,24.2939501 L18.0627671,24.2413568 L18.0747884,24.1838798 Z M20.0800971,21.3682581 L20.0800971,20.4985898 L20.0729594,20.4576421 L20.0613138,20.4196998 L20.0444088,20.3836358 L20.0158581,20.3550851 L19.4467231,19.8314058 L19.4061511,19.8077388 L19.3655791,19.7908338 L19.3250071,19.7859501 L19.2795514,19.7859501 L19.2386038,19.7953418 L19.1984074,19.8193844 L19.1694811,19.8554484 L19.1405548,19.8888828 L19.1289091,19.9294548 L19.1244011,19.9749104 L19.1244011,21.8919374 L19.1289091,21.9396471 L19.1405548,21.9802191 L19.1694811,22.0136534 L19.1984074,22.0474634 L19.2386038,22.0711304 L19.2795514,22.0827761 L19.3250071,22.0827761 L19.3655791,22.0760141 L19.4061511,22.0591091 L19.4467231,22.0376961 L20.0158581,21.5117628 L20.0444088,21.4832121 L20.0613138,21.4497778 L20.0729594,21.4088301 L20.0800971,21.3682581 Z M20.0800971,24.4089041 L20.0800971,23.5339764 L20.0729594,23.4930288 L20.0613138,23.4595944 L20.0444088,23.4239061 L20.0158581,23.3953554 L19.4467231,22.8716761 L19.4061511,22.8431254 L19.3655791,22.8265961 L19.3250071,22.8190828 L19.2795514,22.8265961 L19.2386038,22.8359878 L19.1984074,22.8600304 L19.1694811,22.8885811 L19.1405548,22.9246451 L19.1289091,22.9701008 L19.1244011,23.0102971 L19.1244011,24.9322078 L19.1289091,24.9727798 L19.1405548,25.0133518 L19.1694811,25.0542994 L19.1984074,25.0828501 L19.2386038,25.1065171 L19.2795514,25.1162844 L19.3250071,25.1234221 L19.3655791,25.1114008 L19.4061511,25.0997551 L19.4467231,25.0704531 L20.0158581,24.5475251 L20.0444088,24.5189744 L20.0613138,24.4829104 L20.0729594,24.4494761 L20.0800971,24.4089041 Z M22.5970638,25.5606981 L22.5921801,25.5152424 L22.5730211,25.4750461 L22.5444704,25.4389821 L22.0207911,24.8698471 L21.9922404,24.8412964 L21.9565521,24.8243914 L21.9231178,24.8127458 L21.8821701,24.8052324 L20.3618471,24.8052324 L20.3216508,24.8127458 L20.2855868,24.8243914 L20.2521524,24.8412964 L20.2236018,24.8698471 L19.7002981,25.4389821 L19.6762554,25.4750461 L19.6593504,25.5152424 L19.6473291,25.5606981 L19.6522128,25.6061538 L19.6642341,25.6471014 L19.6882768,25.6872978 L19.7168274,25.7162241 L19.7573994,25.7402668 L19.7979714,25.7567961 L19.8362894,25.7613041 L22.4058494,25.7613041 L22.4464214,25.7567961 L22.4941311,25.7402668 L22.5275654,25.7162241 L22.5561161,25.6872978 L22.5805344,25.6471014 L22.5921801,25.6061538 L22.5970638,25.5606981 Z M22.5970638,19.3411608 L22.5921801,19.3009644 L22.5805344,19.2555088 L22.5561161,19.2220744 L22.5275654,19.1860104 L22.4941311,19.1623434 L22.4464214,19.1529518 L22.4058494,19.1454384 L19.8362894,19.1454384 L19.7979714,19.1529518 L19.7573994,19.1623434 L19.7168274,19.1860104 L19.6882768,19.2220744 L19.6642341,19.2555088 L19.6522128,19.3009644 L19.6473291,19.3411608 L19.6593504,19.3869921 L19.6762554,19.4275641 L19.7002981,19.4636281 L20.2236018,20.0395251 L20.2521524,20.0613138 L20.2855868,20.0849808 L20.3216508,20.0966264 L20.3618471,20.1015101 L21.8821701,20.1015101 L21.9231178,20.0966264 L21.9565521,20.0849808 L21.9922404,20.0613138 L22.0207911,20.0395251 L22.5444704,19.4636281 L22.5730211,19.4275641 L22.5921801,19.3869921 L22.5970638,19.3411608 Z M23.1203674,21.8919374 L23.1203674,19.9749104 L23.1158594,19.9294548 L23.1034624,19.8888828 L23.0824251,19.8554484 L23.0463611,19.8193844 L23.0057891,19.7953418 L22.9652171,19.7859501 L22.9197614,19.7859501 L22.8791894,19.7908338 L22.8382418,19.8077388 L22.8048074,19.8314058 L22.2289104,20.3550851 L22.2052434,20.3836358 L22.1812008,20.4196998 L22.1718091,20.4576421 L22.1642958,20.4985898 L22.1642958,21.3682581 L22.1718091,21.4088301 L22.1812008,21.4497778 L22.2052434,21.4832121 L22.2289104,21.5117628 L22.8048074,22.0376961 L22.8382418,22.0591091 L22.8791894,22.0760141 L22.9197614,22.0827761 L22.9652171,22.0827761 L23.0057891,22.0711304 L23.0463611,22.0474634 L23.0824251,22.0136534 L23.1034624,21.9802191 L23.1158594,21.9396471 L23.1203674,21.8919374 Z M23.1203674,24.9322078 L23.1203674,23.0102971 L23.1158594,22.9701008 L23.1034624,22.9246451 L23.0824251,22.8885811 L23.0463611,22.8600304 L23.0057891,22.8359878 L22.9652171,22.8265961 L22.9197614,22.8190828 L22.8791894,22.8265961 L22.8382418,22.8431254 L22.8048074,22.8716761 L22.2289104,23.3953554 L22.2052434,23.4239061 L22.1812008,23.4595944 L22.1718091,23.4930288 L22.1642958,23.5339764 L22.1642958,24.4089041 L22.1718091,24.4494761 L22.1812008,24.4829104 L22.2052434,24.5189744 L22.2289104,24.5475251 L22.8048074,25.0704531 L22.8382418,25.0997551 L22.8791894,25.1114008 L22.9197614,25.1234221 L22.9652171,25.1162844 L23.0057891,25.1065171 L23.0463611,25.0828501 L23.0824251,25.0542994 L23.1034624,25.0133518 L23.1158594,24.9727798 L23.1203674,24.9322078 Z M25.1425811,21.4088301 L25.1425811,21.3682581 L25.1425811,20.4985898 L25.1425811,20.4576421 L25.1331894,20.4196998 L25.1091468,20.3836358 L25.0854798,20.3550851 L24.5092071,19.8314058 L24.4757728,19.8077388 L24.4348251,19.7908338 L24.3897451,19.7859501 L24.3491731,19.7859501 L24.3037174,19.7953418 L24.2676534,19.8193844 L24.2342191,19.8554484 L24.2105521,19.8888828 L24.1981551,19.9294548 L24.1936471,19.9749104 L24.1936471,21.8919374 L24.1981551,21.9396471 L24.2105521,21.9802191 L24.2342191,22.0136534 L24.2676534,22.0474634 L24.3037174,22.0711304 L24.3491731,22.0827761 L24.3897451,22.0827761 L24.4348251,22.0760141 L24.4757728,22.0591091 L24.5092071,22.0376961 L25.0854798,21.5117628 L25.1091468,21.4832121 L25.1331894,21.4497778 L25.1425811,21.4088301 Z M27.4300154,22.4678344 L27.4300154,22.4344001 L27.4179941,22.4058494 L27.4014648,22.3818068 L27.0092688,22.0256748 L26.9686968,21.9971241 L26.9303788,21.9802191 L26.8826691,21.9730814 L25.5009671,21.9730814 L25.4555114,21.9802191 L25.4078018,21.9971241 L25.3743674,22.0256748 L24.9821714,22.3818068 L24.9585044,22.4058494 L24.9536208,22.4344001 L24.9536208,22.4678344 L24.9585044,22.4967608 L24.9821714,22.5204278 L25.3743674,22.8769354 L25.4078018,22.9054861 L25.4555114,22.9246451 L25.5009671,22.9291531 L26.8826691,22.9291531 L26.9303788,22.9246451 L26.9686968,22.9054861 L27.0092688,22.8769354 L27.4014648,22.5204278 L27.4179941,22.4967608 L27.4300154,22.4678344 Z M27.6666854,19.3411608 L27.6618018,19.3009644 L27.6497804,19.2555088 L27.6257378,19.2220744 L27.5971871,19.1860104 L27.5566151,19.1623434 L27.5160431,19.1529518 L27.4705874,19.1454384 L24.9081651,19.1454384 L24.8679688,19.1529518 L24.8198834,19.1623434 L24.7864491,19.1860104 L24.7578984,19.2220744 L24.7338558,19.2555088 L24.7218344,19.3009644 L24.7169508,19.3411608 L24.7218344,19.3869921 L24.7409934,19.4275641 L24.7699198,19.4636281 L25.2883398,20.0395251 L25.3221498,20.0613138 L25.3574624,20.0849808 L25.3912724,20.0966264 L25.4318444,20.1015101 L26.9517918,20.1015101 L26.9927394,20.0966264 L27.0284278,20.0849808 L27.0618621,20.0613138 L27.0907884,20.0395251 L27.6140921,19.4636281 L27.6381348,19.4275641 L27.6550398,19.3869921 L27.6666854,19.3411608 Z M28.1899891,21.8919374 L28.1899891,19.9749104 L28.1854811,19.9294548 L28.1685761,19.8888828 L28.1445334,19.8554484 L28.1159828,19.8193844 L28.0754108,19.7953418 L28.0344631,19.7859501 L27.9893831,19.7859501 L27.9488111,19.7908338 L27.9078634,19.8077388 L27.8672914,19.8314058 L27.2985321,20.3550851 L27.2699814,20.3836358 L27.2530764,20.4196998 L27.2410551,20.4576421 L27.2339174,20.4985898 L27.2339174,21.3682581 L27.2410551,21.4088301 L27.2530764,21.4497778 L27.2699814,21.4832121 L27.2985321,21.5117628 L27.8672914,22.0376961 L27.9078634,22.0591091 L27.9488111,22.0760141 L27.9893831,22.0827761 L28.0344631,22.0827761 L28.0754108,22.0711304 L28.1159828,22.0474634 L28.1445334,22.0136534 L28.1685761,21.9802191 L28.1854811,21.9396471 L28.1899891,21.8919374 Z M28.1899891,24.9322078 L28.1899891,23.0102971 L28.1854811,22.9701008 L28.1685761,22.9246451 L28.1445334,22.8885811 L28.1159828,22.8600304 L28.0754108,22.8359878 L28.0344631,22.8265961 L27.9893831,22.8190828 L27.9488111,22.8265961 L27.9078634,22.8431254 L27.8672914,22.8716761 L27.2985321,23.3953554 L27.2699814,23.4239061 L27.2530764,23.4595944 L27.2410551,23.4930288 L27.2339174,23.5339764 L27.2339174,24.4089041 L27.2410551,24.4494761 L27.2530764,24.4829104 L27.2699814,24.5189744 L27.2985321,24.5475251 L27.8672914,25.0704531 L27.9078634,25.0997551 L27.9488111,25.1114008 L27.9893831,25.1234221 L28.0344631,25.1162844 L28.0754108,25.1065171 L28.1159828,25.0828501 L28.1445334,25.0542994 L28.1685761,25.0133518 L28.1854811,24.9727798 L28.1899891,24.9322078 Z M30.2238484,20.1469658 L30.2238484,24.7841951 L30.2193404,24.9322078 L30.1952978,25.0828501 L30.1667471,25.2263548 L30.1261751,25.3694838 L30.0758358,25.5152424 L30.0115968,25.6538634 L29.9420984,25.7782091 L29.8560708,25.9048088 L29.7651594,26.0223924 L29.6599728,26.1365951 L29.5499024,26.2346441 L29.4353241,26.3255554 L29.3087244,26.4142128 L29.1821248,26.4882191 L29.0435038,26.5453204 L28.9048828,26.5982894 L28.7564944,26.6437451 L28.6107358,26.6722958 L28.4627231,26.6888251 L28.3120808,26.6963384 L11.9795968,26.6963384 L11.8293301,26.6888251 L11.6786878,26.6722958 L11.5306751,26.6437451 L11.3845408,26.5982894 L11.2485494,26.5453204 L11.1099284,26.4882191 L10.9758154,26.4142128 L10.8563534,26.3255554 L10.7346374,26.2346441 L10.6245671,26.1365951 L10.5216344,26.0223924 L10.4284691,25.9048088 L10.3495791,25.7782091 L10.2733188,25.6538634 L10.2109581,25.5152424 L10.1583648,25.3694838 L10.1177928,25.2263548 L10.0892421,25.0828501 L10.0723371,24.9322078 L10.0651994,24.7841951 L10.0651994,20.1469658 L10.0723371,19.9985774 L10.0892421,19.8483108 L10.1177928,19.7002981 L10.1583648,19.5541638 L10.2109581,19.4155428 L10.2733188,19.2791758 L10.3495791,19.1454384 L10.4284691,19.0259764 L10.5216344,18.9038848 L10.6245671,18.7938144 L10.7346374,18.6912574 L10.8563534,18.5980921 L10.9758154,18.5192021 L11.1099284,18.4429418 L11.2485494,18.3805811 L11.3845408,18.3279878 L11.5306751,18.2874158 L11.6786878,18.2588651 L11.8293301,18.2419601 L11.9795968,18.2370764 L28.3120808,18.2370764 L28.4627231,18.2419601 L28.6107358,18.2588651 L28.7564944,18.2874158 L28.9048828,18.3279878 L29.0435038,18.3805811 L29.1821248,18.4429418 L29.3087244,18.5192021 L29.4353241,18.5980921 L29.5499024,18.6912574 L29.6599728,18.7938144 L29.7651594,18.9038848 L29.8560708,19.0259764 L29.9420984,19.1454384 L30.0115968,19.2791758 L30.0758358,19.4155428 L30.1261751,19.5541638 L30.1667471,19.7002981 L30.1952978,19.8483108 L30.2193404,19.9985774 L30.2238484,20.1469658 Z M24.9081651,25.7613041 L27.4705874,25.7613041 L27.5160431,25.7567961 L27.5566151,25.7402668 L27.5971871,25.7162241 L27.6257378,25.6872978 L27.6497804,25.6471014 L27.6618018,25.6061538 L27.6666854,25.5606981 L27.6550398,25.5152424 L27.6381348,25.4750461 L27.6140921,25.4389821 L27.0907884,24.8698471 L27.0618621,24.8412964 L27.0284278,24.8243914 L26.9927394,24.8127458 L26.9517918,24.8052324 L25.4318444,24.8052324 L25.3912724,24.8127458 L25.3574624,24.8243914 L25.3221498,24.8412964 L25.2883398,24.8698471 L24.7699198,25.4389821 L24.7409934,25.4750461 L24.7218344,25.5152424 L24.7169508,25.5606981 L24.7218344,25.6061538 L24.7338558,25.6471014 L24.7578984,25.6872978 L24.7864491,25.7162241 L24.8198834,25.7402668 L24.8679688,25.7567961 L24.9081651,25.7613041 Z M24.1936471,24.9322078 L24.1981551,24.9727798 L24.2105521,25.0133518 L24.2342191,25.0542994 L24.2676534,25.0828501 L24.3037174,25.1065171 L24.3491731,25.1162844 L24.3897451,25.1234221 L24.4348251,25.1114008 L24.4757728,25.0997551 L24.5092071,25.0704531 L25.0854798,24.5475251 L25.1091468,24.5189744 L25.1331894,24.4829104 L25.1425811,24.4494761 L25.1425811,24.4089041 L25.1425811,23.5339764 L25.1425811,23.4930288 L25.1331894,23.4595944 L25.1091468,23.4239061 L25.0854798,23.3953554 L24.5092071,22.8716761 L24.4757728,22.8431254 L24.4348251,22.8265961 L24.3897451,22.8190828 L24.3491731,22.8265961 L24.3037174,22.8359878 L24.2676534,22.8600304 L24.2342191,22.8885811 L24.2105521,22.9246451 L24.1981551,22.9701008 L24.1936471,23.0102971 L24.1936471,24.9322078 Z" id="Fill-105" fill="#FEFEFE"></path>
                        <g id="编组" transform="translate(14.662270, 0.000000)">
                            <mask id="mask-6" fill="white">
                                <use xlink:href="#path-5"></use>
                            </mask>
                            <g id="Clip-108"></g>
                            <polygon id="Fill-107" fill="#FEFEFE" mask="url(#mask-6)" points="9.8302575 0.628452767 9.83514117 0.707342767 9.8302575 0.793370433 9.8133525 0.8748901 9.7896855 0.9560341 9.74873783 1.03004043 9.70328217 1.09953877 9.65068883 1.16415343 9.58870383 1.21449277 9.51958117 1.26220243 9.44557483 1.30014477 9.36405517 1.32418743 9.28291117 1.34071677 9.2013915 1.3482301 9.03421983 1.3482301 8.93128717 1.35311377 8.82873017 1.3696431 8.73068117 1.39819377 8.63263217 1.43876577 8.5466045 1.4913591 8.45832283 1.5488361 8.38394083 1.61833443 8.31481817 1.69234077 8.25283317 1.77836843 8.20474783 1.87153377 8.16417583 1.9624451 8.13562517 2.0604941 8.11872017 2.16568077 8.11421217 2.26823777 8.11421217 17.4699651 6.4481305 17.4699651 6.4481305 1.95267777 6.44324683 1.9241271 6.4312255 1.9004601 6.4075585 1.87604177 6.37863217 1.8643961 6.3500815 1.85951243 3.6204875 1.85951243 3.59193683 1.8643961 3.5630105 1.87604177 3.5393435 1.9004601 3.52732217 1.9241271 3.5224385 1.95267777 3.5224385 8.26275077 3.52732217 8.29130143 3.5393435 8.32060343 3.5630105 8.33713277 3.59193683 8.3559161 3.6204875 8.36079977 5.45148683 8.36079977 5.4800375 8.36079977 5.5037045 8.37770477 5.52549317 8.39460977 5.53713883 8.42316043 5.54465217 8.4517111 5.54465217 9.5584251 5.53713883 9.58735143 5.52549317 9.6159021 5.5037045 9.63243143 5.4800375 9.6519661 5.45148683 9.6519661 3.6204875 9.6519661 3.59193683 9.6564741 3.5630105 9.67300343 3.5393435 9.68990843 3.52732217 9.7184591 3.5224385 9.74963943 3.5224385 10.5670901 3.52732217 10.5956408 3.5393435 10.6241914 3.5630105 10.6410964 3.59193683 10.6576258 3.6204875 10.6651391 4.3733235 10.6651391 4.40224983 10.6651391 4.42591683 10.6820441 4.4499595 10.6985734 4.46198083 10.7271241 4.4668645 10.7560504 4.4668645 11.7455564 4.46198083 11.7767368 4.4499595 11.8052874 4.42591683 11.8218168 4.40224983 11.8387218 4.3733235 11.8436054 3.6204875 11.8436054 3.59193683 11.8436054 3.5630105 11.8623888 3.5393435 11.8841774 3.52732217 11.9078444 3.5224385 11.9367708 3.5224385 12.7301788 3.52732217 12.7587294 3.5393435 12.7899098 3.5630105 12.8116984 3.59193683 12.8233441 3.6204875 12.8282278 5.3605755 12.8282278 5.38912617 12.8282278 5.41053917 12.8470111 5.43458183 12.8687998 5.44660317 12.8924668 5.45148683 12.9217688 5.45148683 13.8320091 5.44660317 13.8609354 5.43458183 13.8894861 5.41053917 13.9108991 5.38912617 13.9229204 5.3605755 13.9300581 3.6204875 13.9300581 3.59193683 13.9349418 3.5630105 13.9469631 3.5393435 13.9683761 3.52732217 13.9920431 3.5224385 14.0205938 3.5224385 14.8500658 3.52732217 14.8789921 3.5393435 14.9079184 3.5630105 14.9244478 3.59193683 14.9432311 3.6204875 14.9481148 4.46198083 14.9481148 4.4905315 14.9481148 4.5119445 14.9650198 4.53598717 14.9819248 4.54763283 15.0104754 4.5525165 15.0390261 4.5525165 16.0476911 4.54763283 16.0766174 4.53598717 16.1006601 4.5119445 16.1216974 4.4905315 16.1337188 4.46198083 16.1408564 3.6204875 16.1408564 3.59193683 16.1457401 3.5630105 16.1577614 3.5393435 16.1814284 3.52732217 16.2103548 3.5224385 16.2392811 3.5224385 16.9105974 3.52732217 16.9417778 3.5393435 16.9631908 3.5630105 16.9872334 3.59193683 16.9992548 3.6204875 17.0041384 5.36996717 17.0041384 5.3988935 17.0090221 5.42744417 17.0206678 5.45148683 17.0443348 5.4631325 17.0728854 5.46801617 17.1021874 5.46801617 17.3790538 5.4631325 17.4079801 5.45148683 17.4293931 5.42744417 17.4530601 5.3988935 17.4650814 5.36996717 17.4699651 1.8803995 17.4699651 1.8803995 2.26823777 1.87326183 2.16568077 1.85635683 2.0604941 1.82780617 1.9624451 1.78723417 1.87153377 1.73464083 1.77836843 1.67716383 1.69234077 1.6076655 1.61833443 1.5287755 1.5488361 1.44800717 1.4913591 1.35446617 1.43876577 1.25679283 1.39819377 1.15836817 1.3696431 1.06031917 1.35311377 0.957762167 1.3482301 0.7905905 1.3482301 0.704562833 1.34071677 0.623043167 1.32418743 0.549036833 1.30014477 0.4750305 1.26220243 0.405532167 1.21449277 0.3409175 1.16415343 0.283816167 1.09953877 0.2383605 1.03004043 0.2022965 0.9560341 0.173745833 0.8748901 0.1572165 0.793370433 0.152332833 0.707342767 0.1572165 0.628452767 0.173745833 0.547308767 0.2022965 0.4657891 0.2383605 0.391782767 0.283816167 0.323035767 0.3409175 0.2584211 0.405532167 0.208081767 0.4750305 0.1603721 0.549036833 0.121678433 0.623043167 0.0980114333 0.704562833 0.0811064333 0.7905905 0.0739687667 9.2013915 0.0739687667 9.28291117 0.0811064333 9.36405517 0.0980114333 9.44557483 0.121678433 9.51958117 0.1603721 9.58870383 0.208081767 9.65068883 0.2584211 9.70328217 0.323035767 9.74873783 0.391782767 9.7896855 0.4657891 9.8133525 0.547308767"></polygon>
                        </g>
                        <polygon id="Fill-109" fill="#FEFEFE" points="12.9646323 13.5955269 15.447789 17.4697773 13.406792 17.4697773 11.3627897 14.2743566 11.3627897 6.62803727 10.8278403 6.62803727 10.7012407 8.15324393 7.87585167 8.15324393 7.74887633 6.62803727 7.21355133 6.62803727 7.21355133 14.2814943 1.78066 22.7738149 1.74760133 22.8312919 1.73069633 22.9007903 1.71829933 22.9699129 1.723183 23.0318979 1.740088 23.1013963 1.76413067 23.1660109 1.80470267 23.2159746 1.85015833 23.2685679 1.90725967 23.3091399 1.96511233 23.3380663 2.03385933 23.3549713 2.098474 23.3617333 9.28835833 23.3617333 9.28835833 25.0826623 2.098474 25.0826623 1.94820733 25.0777786 1.79268133 25.0589953 1.637531 25.0300689 1.486513 24.9894969 1.343384 24.9391576 1.200255 24.8820563 1.06125833 24.8054203 0.929775 24.7265303 0.808059 24.6333649 0.685967333 24.5353159 0.578526667 24.4252456 0.47334 24.3106673 0.382428667 24.1840676 0.293771333 24.0574679 0.219765 23.9184713 0.15778 23.7824799 0.105562333 23.6318376 0.059731 23.4811953 0.0311803333 23.3331826 0.00713766667 23.1776566 2.13541777e-14 23.0225063 2.13541777e-14 22.8647263 0.019159 22.7163379 0.0409476667 22.5608119 0.0762603333 22.4105453 0.126599667 22.2599029 0.186330667 22.1167739 0.255829 21.9800313 0.329835333 21.8462939 5.61246 13.5955269 5.61246 6.62803727 5.42349967 6.62803727 5.32545067 6.6208996 5.22740167 6.60437027 5.13423633 6.57544393 5.043325 6.53487193 4.95504333 6.4845326 4.88066133 6.4248016 4.806655 6.35079527 4.74955367 6.27678893 4.69658467 6.1903856 4.65638833 6.09722027 4.627462 6.0066846 4.61093267 5.9086356 4.60341933 5.8105866 4.61093267 5.7125376 4.627462 5.6144886 4.65638833 5.5164396 4.69658467 5.4307876 4.74955367 5.34438427 4.806655 5.26324027 4.88066133 5.1941176 4.95504333 5.13626493 5.043325 5.08404727 5.13423633 5.0430996 5.22740167 5.01004093 5.32545067 4.99313593 5.42349967 4.98599827 7.612885 4.98599827 7.491169 3.46567527 11.090807 3.46567527 10.9638317 4.98599827 13.153217 4.98599827 13.2516417 4.99313593 13.349315 5.01004093 13.447364 5.0430996 13.5333917 5.08404727 13.6216733 5.13626493 13.7005633 5.1941176 13.7700617 5.26324027 13.8275387 5.34438427 13.880132 5.4307876 13.920704 5.5164396 13.9492547 5.6144886 13.9732973 5.7125376 13.9778053 5.8105866 13.9732973 5.9086356 13.9492547 6.0066846 13.920704 6.09722027 13.880132 6.1903856 13.8275387 6.27678893 13.7700617 6.35079527 13.7005633 6.4248016 13.6216733 6.4845326 13.5333917 6.53487193 13.447364 6.57544393 13.349315 6.60437027 13.2516417 6.6208996 13.153217 6.62803727 12.9646323 6.62803727"></polygon>
                        <path d="M9.2765624,18.4667215 L9.27167873,18.3641645 L9.25477373,18.2540941 L9.2235934,18.1485318 L9.19053473,18.0508585 L9.1379414,17.9554391 L9.0804644,17.8667818 L9.0184794,17.7807541 L8.93695973,17.7067478 L8.85581573,17.6421331 L8.7694124,17.5846561 L8.67173907,17.5346925 L8.57369007,17.4937448 L8.4707574,17.4700778 L8.36068707,17.4531728 L8.25813007,17.4460351 L8.14805973,17.4531728 L8.04324873,17.4700778 L7.94031607,17.4937448 L7.84264273,17.5346925 L7.74421807,17.5846561 L7.6581904,17.6421331 L7.57216273,17.7067478 L7.4959024,17.7807541 L7.43354173,17.8667818 L7.36892707,17.9554391 L7.32384707,18.0508585 L7.2828994,18.1485318 L7.2614864,18.2540941 L7.2423274,18.3641645 L7.23744373,18.4667215 L7.2423274,18.5767918 L7.2614864,18.6793488 L7.2828994,18.7822815 L7.32384707,18.8803305 L7.36892707,18.9780038 L7.43354173,19.0644071 L7.4959024,19.1526888 L7.57216273,19.2266951 L7.6581904,19.2961935 L7.74421807,19.3532948 L7.84264273,19.3987505 L7.94031607,19.4396981 L8.04324873,19.4682488 L8.14805973,19.4847781 L8.25813007,19.4847781 L8.36068707,19.4847781 L8.4707574,19.4682488 L8.57369007,19.4396981 L8.67173907,19.3987505 L8.7694124,19.3532948 L8.85581573,19.2961935 L8.93695973,19.2266951 L9.0184794,19.1526888 L9.0804644,19.0644071 L9.1379414,18.9780038 L9.19053473,18.8803305 L9.2235934,18.7822815 L9.25477373,18.6793488 L9.27167873,18.5767918 L9.2765624,18.4667215 Z M11.5805261,16.3941685 L12.2740067,17.4700778 L11.9794841,17.4700778 L11.8006667,17.4772155 L11.6286114,17.4937448 L11.4539264,17.5222955 L11.2818711,17.5632431 L11.1146994,17.6135825 L10.9542897,17.6778215 L10.7916261,17.7473198 L10.6364757,17.8284638 L10.4929711,17.9242588 L10.3494664,18.0219321 L10.2157291,18.1320025 L10.0842457,18.2540941 L9.9674134,18.3806938 L9.8524594,18.5193148 L9.7544104,18.6624438 L9.66349907,18.8059485 L9.57784707,18.9610988 L9.50834873,19.1241381 L9.44373407,19.2841721 L9.39114073,19.4513438 L9.35282273,19.6233991 L9.32427207,19.7954545 L9.30511307,19.9701395 L9.3002294,20.1470785 L9.3002294,22.4055865 L6.7881464,22.4055865 L6.77650073,22.3195588 L6.75245807,22.2263935 L6.71864807,22.1452495 L6.67356807,22.0663595 L6.61609107,21.9968611 L6.5514764,21.9326221 L6.47747007,21.8751451 L6.39632607,21.8296895 L6.3148064,21.7936255 L6.2291544,21.7722125 L6.13824307,21.7605668 L6.04470207,21.7605668 L5.95153673,21.7722125 L5.86550907,21.7936255 L5.78436507,21.8296895 L5.70547507,21.8751451 L5.62883907,21.9326221 L5.56685407,21.9968611 L5.50975273,22.0663595 L5.46429707,22.1452495 L5.42823307,22.2263935 L5.4041904,22.3195588 L5.39479873,22.4055865 L3.14831207,22.4055865 L6.99626573,16.3941685 L11.5805261,16.3941685 Z" id="Fill-111" fill="#FEFEFE"></path>
                        <polygon id="Fill-113" fill="#FEFEFE" points="10.5789236 14.8670835 10.5838073 14.9651325 10.5789236 15.0628058 10.5623943 15.1608548 10.5338436 15.2589038 10.4928959 15.3449315 10.4406783 15.4309591 10.3783176 15.5124788 10.3088193 15.5816015 10.2276753 15.6390785 10.1465313 15.6916718 10.0556199 15.7322438 9.95757093 15.7660538 9.85952193 15.7825831 9.76147293 15.7897208 9.66342393 15.7825831 9.5657506 15.7660538 9.47258527 15.7322438 9.38129827 15.6916718 9.2930166 15.6390785 9.21901027 15.5816015 9.14500393 15.5124788 9.08752693 15.4309591 9.03530927 15.3449315 8.9943616 15.2589038 8.96581093 15.1608548 8.94890593 15.0628058 8.94214393 14.9651325 8.94890593 14.8670835 8.96581093 14.7690345 8.9943616 14.6713611 9.03530927 14.5849578 9.08752693 14.4989301 9.14500393 14.4177861 9.21901027 14.3482878 9.2930166 14.2863028 9.38129827 14.2408471 9.47258527 14.1931375 9.5657506 14.1642111 9.66342393 14.1476818 9.76147293 14.1427981 9.85952193 14.1476818 9.95757093 14.1642111 10.0556199 14.1931375 10.1465313 14.2408471 10.2276753 14.2863028 10.3088193 14.3482878 10.3783176 14.4177861 10.4406783 14.4989301 10.4928959 14.5849578 10.5338436 14.6713611 10.5623943 14.7690345"></polygon>
                        <polygon id="Fill-115" fill="#FEFEFE" points="10.5433104 9.611056 10.5504481 9.689946 10.5433104 9.77109 10.5264054 9.85260967 10.4978547 9.926616 10.4572827 10.0028763 10.4114514 10.065237 10.3543501 10.1223383 10.2852274 10.1749317 10.2157291 10.2087417 10.1417227 10.2372923 10.0605787 10.2564513 9.97905907 10.2609593 9.90016907 10.2564513 9.81902507 10.2372923 9.74238907 10.2087417 9.66838273 10.1749317 9.60639773 10.1223383 9.54666673 10.065237 9.4963274 10.0028763 9.4602634 9.926616 9.43171273 9.85260967 9.4151834 9.77109 9.41029973 9.689946 9.4151834 9.611056 9.43171273 9.52953633 9.4602634 9.45553 9.4963274 9.37926967 9.54666673 9.316909 9.60639773 9.259432 9.66838273 9.212098 9.74238907 9.17378 9.81902507 9.14485367 9.90016907 9.12569467 9.97905907 9.120811 10.0605787 9.12569467 10.1417227 9.14485367 10.2157291 9.17378 10.2852274 9.212098 10.3543501 9.259432 10.4114514 9.316909 10.4572827 9.37926967 10.4978547 9.45553 10.5264054 9.52953633"></polygon>
                        <polygon id="Fill-117" fill="#FEFEFE" points="9.4031245 11.4416797 9.41063783 11.5231993 9.4031245 11.609227 9.3862195 11.6952547 9.35766883 11.7767743 9.3242345 11.8507807 9.27164117 11.9199033 9.21904783 11.9818883 9.15706283 12.0393653 9.08042683 12.0874507 9.00604483 12.127647 8.9252765 12.1565733 8.84375683 12.1731027 8.75772917 12.1779863 8.6717015 12.1731027 8.5905575 12.1565733 8.5116675 12.127647 8.43014783 12.0874507 8.36102517 12.0393653 8.2964105 11.9818883 8.2389335 11.9199033 8.19347783 11.8507807 8.15290583 11.7767743 8.13149283 11.6952547 8.11233383 11.609227 8.10782583 11.5231993 8.11233383 11.4416797 8.13149283 11.355652 8.15290583 11.274508 8.19347783 11.200126 8.2389335 11.131379 8.2964105 11.0667643 8.36102517 11.0092873 8.43014783 10.9638317 8.5116675 10.9232597 8.5905575 10.894709 8.6717015 10.877804 8.75772917 10.8702907 8.84375683 10.877804 8.9252765 10.894709 9.00604483 10.9232597 9.08042683 10.9638317 9.15706283 11.0092873 9.21904783 11.0667643 9.27164117 11.131379 9.3242345 11.200126 9.35766883 11.274508 9.3862195 11.355652"></polygon>
                    </g>
                </g>
            </g>
        </g>
    </g>
</svg>