<?xml version="1.0" encoding="UTF-8"?>
<svg width="156px" height="123px" viewBox="0 0 156 123" version="1.1" xmlns="http://www.w3.org/2000/svg" xmlns:xlink="http://www.w3.org/1999/xlink">
    <title>防坠床</title>
    <defs>
        <path d="M141.787333,119.462097 L26.8333333,119.462097 C20.93,119.462097 16.1,114.632097 16.1,108.728764 L16.1,26.8334303 C16.1,20.9300969 20.93,16.1000969 26.8333333,16.1000969 L141.787333,16.1000969 C147.690667,16.1000969 152.520667,20.9300969 152.520667,26.8334303 L152.520667,108.78243 C152.520667,114.685764 147.74487,119.462097 141.787333,119.462097" id="path-1"></path>
        <filter x="-11.4%" y="-14.0%" width="122.7%" height="130.0%" filterUnits="objectBoundingBox" id="filter-2">
            <feOffset dx="0" dy="1" in="SourceAlpha" result="shadowOffsetOuter1"></feOffset>
            <feGaussianBlur stdDeviation="5" in="shadowOffsetOuter1" result="shadowBlurOuter1"></feGaussianBlur>
            <feColorMatrix values="0 0 0 0 0   0 0 0 0 0   0 0 0 0 0  0 0 0 0.1 0" type="matrix" in="shadowBlurOuter1"></feColorMatrix>
        </filter>
        <path d="M130.785667,70.0887636 L90.6966667,70.0887636 C86.8326667,70.0887636 83.72,66.9760969 83.72,63.1120969 L83.72,23.0767636 C83.72,19.2127636 86.8326667,16.1000969 90.6966667,16.1000969 L130.785667,16.1000969 C134.649667,16.1000969 137.762333,19.2127636 137.762333,23.0767636 L137.762333,63.1657636 C137.762333,66.9760969 134.596,70.0887636 130.785667,70.0887636" id="path-3"></path>
        <filter x="-14.8%" y="-13.0%" width="129.6%" height="129.6%" filterUnits="objectBoundingBox" id="filter-4">
            <feOffset dx="0" dy="1" in="SourceAlpha" result="shadowOffsetOuter1"></feOffset>
            <feGaussianBlur stdDeviation="2.5" in="shadowOffsetOuter1" result="shadowBlurOuter1"></feGaussianBlur>
            <feColorMatrix values="0 0 0 0 0.196078431   0 0 0 0 0.450980392   0 0 0 0 0.250980392  0 0 0 0.5 0" type="matrix" in="shadowBlurOuter1"></feColorMatrix>
        </filter>
    </defs>
    <g id="页面-1" stroke="none" stroke-width="1" fill="none" fill-rule="evenodd">
        <g id="padCard-床头卡" transform="translate(-203.000000, -177.000000)">
            <g id="防坠床" transform="translate(201.000000, 173.000000)">
                <g id="编组" transform="translate(-4.293333, -3.440097)">
                    <g id="Fill-2">
                        <use fill="black" fill-opacity="1" filter="url(#filter-2)" xlink:href="#path-1"></use>
                        <use fill="#FFFFFF" fill-rule="evenodd" xlink:href="#path-1"></use>
                    </g>
                    <g id="Fill-5">
                        <use fill="black" fill-opacity="1" filter="url(#filter-4)" xlink:href="#path-3"></use>
                        <use fill="#275F60" fill-rule="evenodd" xlink:href="#path-3"></use>
                    </g>
                </g>
                <g id="图标位置" transform="translate(90.160000, 22.856667)">
                    <g id="编组" transform="translate(0.000000, 0.000000)" fill="#FFB400" opacity="0">
                        <g id="图标背景底板60*60px" transform="translate(0.000000, 0.000000)">
                            <rect x="3.55271368e-15" y="3.55271368e-15" width="32.2" height="32.2"></rect>
                        </g>
                    </g>
                    <g id="编组-5" transform="translate(1.073333, 2.683333)" fill="#FEFEFE">
                        <polygon id="Fill-91" points="30.115694 16.7920746 30.115694 23.7858609 30.107805 23.9150903 30.0822597 24.0552139 30.0409363 24.1780569 29.992851 24.3076619 29.9259823 24.4226159 29.8444627 24.5371943 29.7546783 24.6352433 29.6566293 24.7250276 29.542051 24.8065473 29.427097 24.8734159 29.2956137 24.9211256 29.174649 24.9628246 29.034901 24.9879943 28.903042 24.9962589 28.765548 24.9879943 28.6340647 24.9628246 28.5025813 24.9211256 28.371098 24.8734159 28.258398 24.8065473 28.1438197 24.7250276 28.045395 24.6352433 27.9559863 24.5371943 27.8722127 24.4226159 27.807598 24.3076619 27.7576343 24.1780569 27.7178137 24.0552139 27.6930197 23.9150903 27.6843793 23.7858609 27.6843793 18.2552963 10.564498 18.2552963 10.0344323 16.8987639 10.0096383 16.8172443 9.98446867 16.7338463 9.95967467 16.6523266 9.95103433 16.5708069 9.93412933 16.4813983 9.93412933 16.3998786 9.92624033 16.3100943 9.93412933 16.2285746 9.94276967 16.1369119 9.95967467 16.0553923 9.976204 15.9738726 10.000998 15.8927286 10.0261677 15.8115846 10.2057363 15.3209639 10.6313667 15.3209639 12.2760353 16.1951403 12.382349 16.2432256 12.4886627 16.2935649 12.6036167 16.3352639 12.718195 16.3750846 12.830895 16.4164079 12.945849 16.4396993 13.060803 16.4644933 13.1753813 16.4892873 13.2986 16.5061923 13.413554 16.5148326 13.536397 16.5230973 13.651351 16.5230973 13.7723157 16.5148326 13.8872697 16.5061923 14.0104883 16.4892873 14.1254423 16.4727579 14.2482853 16.4479639 14.3628637 16.4246726 14.4778177 16.3916139 14.5841313 16.3495393 14.6968313 16.3100943 14.803145 16.2601306 16.8422637 15.3209639 28.6423293 15.3209639 28.7967283 15.3273503 28.9533813 15.3521443 29.0995157 15.3938433 29.2392637 15.4501933 29.3790117 15.5170619 29.5086167 15.5982059 29.623195 15.6966306 29.738149 15.8115846 29.8275577 15.9261629 29.9177177 16.0553923 29.9842107 16.1951403 30.0409363 16.3352639 30.0822597 16.4813983 30.107805 16.6376756"></polygon>
                        <polygon id="Fill-93" points="27.4882062 13.8076283 27.4882062 13.8974127 27.4799415 13.9875727 27.4634122 14.0769813 27.4382425 14.1667657 27.4066865 14.2482853 27.3653632 14.329805 27.3255425 14.4128273 27.2755789 14.494347 27.2252395 14.5672263 27.1606249 14.631841 27.1042749 14.6987097 27.0291415 14.7637 26.9562622 14.8136637 26.8830072 14.861749 26.8018632 14.903448 26.7180895 14.942893 26.6283052 14.9763273 26.5471612 15.001497 26.4573769 15.018402 26.3675925 15.0266667 26.2695435 15.033053 26.1797592 15.0266667 26.0899749 15.018402 25.9979365 15.001497 25.9085279 14.9763273 25.8270082 14.9515333 21.5466622 13.3316587 21.4170572 13.2835733 21.2855739 13.24225 21.1544662 13.2088157 21.0226072 13.1859 20.8851132 13.1693707 20.7532542 13.1524657 20.6135062 13.1524657 20.4760122 13.1524657 20.3441532 13.1607303 20.2044052 13.1772597 20.0751759 13.1941647 19.9354279 13.225345 19.8039445 13.2587793 19.6724612 13.3004783 19.5514965 13.3485637 19.4196375 13.4071677 14.5344682 15.6547813 14.3796935 15.72165 14.2147759 15.778 14.0517365 15.8193233 13.8871945 15.8426147 13.7241552 15.8595197 13.5532269 15.8595197 13.3800445 15.8508793 13.2173809 15.8279637 13.0520875 15.7862647 12.8897995 15.736301 12.7331465 15.6795753 12.5870122 15.606696 10.4663739 14.494347 10.4100239 14.4609127 10.3454092 14.4440077 10.2785405 14.4274783 10.2143015 14.4274783 10.1387925 14.4274783 10.0745535 14.4440077 10.0178279 14.4609127 9.9509592 14.494347 9.8946092 14.5255273 9.84464553 14.5672263 9.7965602 14.6175657 9.7548612 14.6652753 9.72368087 14.7302657 9.69888687 14.788494 9.40398853 15.581902 9.35440053 15.736301 9.31232587 15.892954 9.2894102 16.047353 9.27288087 16.2036303 9.27288087 16.3580293 9.28114553 16.5233227 9.29767487 16.677346 9.32923087 16.833999 9.3705542 16.988398 9.41863953 17.1364107 11.1947915 21.690242 11.2364905 21.805196 11.2616602 21.92015 11.2785652 22.0433687 11.2845759 22.1662117 11.2785652 22.2811657 11.2616602 22.4021303 11.2364905 22.5170843 11.1947915 22.6316627 11.1549709 22.7466167 11.0884779 22.8529303 11.0238632 22.9509793 10.9509839 23.0407637 10.8672102 23.1301723 10.7691612 23.203803 10.6711122 23.2785607 10.5644229 23.3349107 10.4581092 23.38525 10.3454092 23.4250707 10.2308309 23.4498647 10.1076122 23.4746587 9.98439353 23.4746587 9.8698152 23.4746587 9.74622087 23.4581293 9.63164253 23.4329597 9.51894253 23.3935147 9.40398853 23.343551 9.29767487 23.2868253 9.19962587 23.2203323 9.10157687 23.1470773 9.01817887 23.0659333 8.9366592 22.9678843 8.87204453 22.8694597 8.81344053 22.7714107 8.7574662 22.6568323 6.3592102 16.7025157 6.30924653 16.579297 6.27769053 16.456454 6.2442562 16.3354893 6.2194622 16.2036303 6.20293287 16.0807873 6.19654653 15.9489283 6.19654653 15.8279637 6.20293287 15.6964803 6.2194622 15.564997 6.2363672 15.442154 6.26980153 15.3208137 6.3028602 15.197595 6.35094553 15.0743763 9.21427687 7.730093 9.23944653 7.62377933 9.25635153 7.51746567 9.26424053 7.411152 9.25635153 7.30446267 9.23944653 7.198149 9.21427687 7.09183533 9.18272087 6.985146 6.98957887 1.69463233 6.95614453 1.58831867 6.9249642 1.48162933 6.90843487 1.367051 6.89979453 1.252097 6.89979453 1.14578333 6.91632387 1.03082933 6.9396152 0.924515667 6.97304953 0.809561667 7.01474853 0.711888333 7.06283387 0.605199 7.12970253 0.515414667 7.1943172 0.426006 7.2754612 0.344486333 7.35698087 0.271231333 7.44864353 0.204738333 7.54669253 0.148388333 7.6428632 0.098049 7.75143087 0.0582283333 7.85549053 0.0251696667 7.97044453 0.00864033333 8.08539853 0 8.1917122 0 8.30629053 0.00864033333 8.41297987 0.0334343333 8.5275582 0.0668686667 8.6256072 0.106313667 8.73229653 0.156653 8.82208087 0.213003 8.9118652 0.279496 8.99488753 0.361015667 9.0764072 0.442535333 9.14139753 0.532319667 9.19962587 0.630368667 9.2477112 0.728417667 12.3240455 7.69665867 12.3657445 7.79508333 12.3909142 7.89313233 12.4157082 7.991557 12.4224702 8.09787067 12.4224702 8.19591967 12.4074435 8.30223333 12.3909142 8.40028233 12.3574799 8.49833133 12.3240455 8.59638033 12.1531172 8.96566067 12.1444769 8.99721667 12.1362122 9.03891567 12.1362122 9.07836067 12.1444769 9.12005967 12.1610062 9.153494 12.1779112 9.18505 12.2090915 9.21848433 12.2425259 9.243654 12.2759602 9.26018333 15.1727259 10.412353 15.2121709 10.4288823 15.2542455 10.4288823 15.2873042 10.4288823 15.3271249 10.420242 15.3605592 10.4037127 15.3939935 10.380797 15.4169092 10.356003 15.4420789 10.3308333 15.4589839 10.2891343 16.9406132 6.568156 16.9965875 6.44681567 17.0702182 6.33223733 17.1618809 6.225548 17.2595542 6.13576367 17.3745082 6.05236567 17.4872082 5.987751 23.8378532 2.93658633 23.9445425 2.888501 24.0512319 2.85506667 24.1658102 2.829897 24.2721239 2.815246 24.3870779 2.80698133 24.5020319 2.80698133 24.6162345 2.82163233 24.7232995 2.84642633 24.8375022 2.88023633 24.9359269 2.92155967 25.0422405 2.969645 25.1402895 3.02637067 25.2300739 3.09323933 25.3115935 3.17438333 25.3931132 3.255903 25.4599819 3.337047 25.5242209 3.43547167 25.5809465 3.533145 25.6222699 3.63983433 25.6643445 3.746148 25.6872602 3.85283733 25.7037895 3.96741567 25.7120542 4.081994 25.7120542 4.196948 25.6955249 4.311902 25.6789955 4.41821567 25.6478152 4.53316967 25.6057405 4.62896467 25.5576552 4.735654 25.4994269 4.83332733 25.4265475 4.92536567 25.3532925 5.01515 25.2698945 5.08802933 25.1883749 5.16090867 25.0903259 5.228153 24.9919012 5.27586267 19.7953042 7.89313233 19.7058955 7.94347167 19.6243759 7.999446 19.5514965 8.06443633 19.4763632 8.139194 19.4113729 8.22071367 19.3553985 8.30223333 19.3050592 8.39201767 17.8316945 11.3785677 19.4763632 10.535196 19.5514965 10.5017617 19.6161112 10.4705813 19.6889905 10.4457873 19.7641239 10.412353 19.8373789 10.3871833 19.9188985 10.3721567 19.9917779 10.3473627 20.0669112 10.339098 20.1484309 10.3225687 20.2213102 10.3139283 20.3028299 10.3060393 20.3862279 10.297399 20.4591072 10.297399 20.5406269 10.297399 20.6135062 10.297399 20.6972799 10.3060393 20.7701592 10.3139283 20.8516789 10.3308333 20.9245582 10.3473627 21.0079562 10.3642677 21.0812112 10.380797 21.1544662 10.4037127 21.2273455 10.4288823 21.3024789 10.4623167 26.7267299 12.661845 26.8078739 12.7016657 26.8912719 12.7433647 26.9641512 12.793704 27.0374062 12.8496783 27.1042749 12.906404 27.1688895 12.972897 27.2252395 13.046152 27.2838435 13.1190313 27.3319289 13.1941647 27.3732522 13.2756843 27.4066865 13.357204 27.4382425 13.4466127 27.4634122 13.536397 27.4799415 13.6261813 27.4882062 13.7159657"></polygon>
                        <polygon id="Fill-95" points="23.7649363 19.4907137 23.7649363 19.541053 23.7570473 19.5887627 23.748407 19.6304617 23.7401423 19.678547 23.723613 19.7288863 23.706708 19.7683313 23.692057 19.810406 23.594008 19.9982393 23.4955833 20.1774323 23.3975343 20.359255 23.2889666 20.538448 23.182653 20.7093763 23.0785933 20.8893207 22.9636393 21.062503 22.849061 21.2334313 22.734107 21.396095 22.6108883 21.5692773 22.4880453 21.7323167 22.3561863 21.8949803 22.2352216 22.059898 22.1037383 22.214297 21.9639903 22.37095 21.8343853 22.525349 21.6946373 22.6816263 21.5548893 22.8281363 21.4091306 22.9844137 21.2607423 23.1222833 21.112354 23.2706717 20.9665953 23.4081657 20.8099423 23.5479137 20.6555433 23.6876617 20.4988903 23.8172667 20.3444913 23.94875 20.1818276 24.0802333 20.0165343 24.2098383 19.8542463 24.3326813 19.688953 24.4559 19.5180246 24.5704783 19.3467206 24.6854323 19.1735383 24.8003863 19.0022343 24.9067 18.8230413 25.0107597 18.649859 25.117449 18.4702903 25.2237627 18.282457 25.3218117 18.103264 25.41385 17.9214413 25.509645 17.733608 25.6016833 17.5457746 25.6828273 17.3579413 25.7729873 17.170108 25.8458667 16.9800206 25.9273863 16.7839226 26.002144 16.5878246 26.0750233 16.3999913 26.1400137 16.2038933 26.2068823 16.0077953 26.271497 15.8113216 26.327847 15.606959 26.3860753 15.410861 26.4341607 15.2061226 26.4841243 15.0077706 26.5322097 14.803408 26.5739087 14.60731 26.6159833 14.55096 26.621994 14.492356 26.621994 14.436006 26.621994 14.3800316 26.6159833 14.321052 26.607343 14.2650776 26.5908137 14.2064736 26.565644 14.158764 26.54085 14.1084246 26.5096697 14.068604 26.4762353 14.0186403 26.4341607 13.9769413 26.3947157 13.9453853 26.3530167 13.911951 26.3049313 13.887157 26.2549677 13.8642413 26.198242 13.847712 26.1400137 13.830807 26.0919283 13.8225423 26.0337 13.8225423 25.97735 13.8225423 25.918746 13.830807 25.862396 13.847712 25.8064217 13.8642413 25.747442 13.8788923 25.6914677 13.904062 25.6411283 13.9374963 25.593043 13.9709306 25.5430793 14.0103756 25.5036343 14.0520746 25.4619353 14.0997843 25.428501 14.1501236 25.3973207 14.198209 25.3717753 14.2481726 25.3469813 14.3045226 25.3300763 14.3631266 25.313547 14.55096 25.2823667 14.747058 25.2406677 14.9348913 25.1925823 15.1227246 25.1505077 15.312812 25.0945333 15.5006453 25.044194 15.688103 24.9882197 15.8680473 24.9209753 16.0558806 24.865001 16.2373276 24.8003863 16.425161 24.725253 16.604354 24.651998 16.7839226 24.578743 16.9653696 24.497599 17.1449383 24.4138253 17.3162423 24.3326813 17.4871706 24.242897 17.6686176 24.1531127 17.831657 24.0633283 18.0048393 23.9652793 18.1761433 23.8672303 18.338807 23.7609167 18.5037246 23.662492 18.666764 23.5479137 18.831306 23.4416 18.985705 23.326646 19.1487443 23.211692 19.3050216 23.0971137 19.4530343 22.9757733 19.607809 22.8529303 19.7558216 22.721447 19.901956 22.5899637 20.0499686 22.4603587 20.188214 22.329251 20.327962 22.189503 20.46771 22.059898 20.605204 21.9115097 20.7366873 21.7740157 20.8681706 21.626003 21.0000296 21.4776147 21.1209943 21.3314803 21.2438373 21.1770813 21.367056 21.0290687 21.48201 20.8746697 21.596964 20.7093763 21.7115423 20.5549773 21.8261206 20.3904353 21.9324343 20.227396 22.030859 20.0643567 22.1371726 19.8911743 22.2352216 19.7288863 22.3332706 19.5575823 22.423055 19.3844 22.5128393 19.213096 22.5376333 19.171397 22.5631786 19.131952 22.594359 19.090253 22.619153 19.0590727 22.6525873 19.0252627 22.692408 18.9918283 22.7254666 18.9666587 22.7675413 18.9441187 22.8069863 18.918949 22.8573256 18.9024197 22.8967706 18.8855147 22.9467343 18.8689853 22.986555 18.860345 23.0368943 18.8543343 23.0864823 18.8543343 23.1266786 18.8543343 23.1766423 18.8543343 23.2247276 18.860345 23.2664266 18.87725 23.314512 18.8855147 23.3558353 18.9024197 23.4039206 18.9272137 23.4456196 18.9441187 23.479054 18.975299 23.5188746 19.000093 23.552309 19.0335273 23.5853676 19.0650833 23.616548 19.0985177 23.6499823 19.139841 23.6755276 19.1796617 23.692057 19.2213607 23.7149726 19.2611813 23.731502 19.311145 23.7401423 19.3532197 23.748407 19.4009293 23.7570473 19.4512687"></polygon>
                        <polygon id="Fill-97" points="21.2691572 19.7849358 21.2691572 19.8518045 21.2608926 19.9246838 21.2439876 19.9896741 21.2188179 20.0565428 21.1876376 20.1211575 21.1542032 20.1775075 21.1125042 20.2357358 21.0730592 20.2924615 21.0309846 20.3506898 20.9828992 20.4066641 20.9412002 20.4716545 20.9013796 20.5298828 20.8596806 20.5866085 20.8097169 20.6448368 20.7702719 20.7011868 20.7199326 20.7511505 20.6804876 20.8078761 20.6305239 20.8661045 20.5907032 20.9224545 20.5407396 20.9788045 20.4926542 21.0291438 20.4426906 21.0851181 20.4006159 21.1437221 20.3529062 21.1914318 20.3029426 21.2500358 20.2548572 21.3063858 20.2045179 21.3567251 20.1564326 21.4048105 20.1064689 21.4630388 20.0583836 21.5111241 20.0084199 21.5693525 19.9607102 21.6174378 19.9017306 21.6677771 19.8540209 21.7154868 19.8040572 21.7740908 19.7473316 21.8221761 19.6973679 21.8721398 19.6492826 21.9202251 19.5910542 21.9698131 19.5429689 22.0178985 19.4847406 22.0682378 19.4366552 22.1080585 19.3780512 22.1576465 19.3217012 22.2057318 19.2717376 22.2560711 19.2153876 22.3041565 19.1567836 22.3454798 19.1008092 22.3935651 19.0422052 22.4356398 18.9858552 22.4856035 18.9377699 22.5254241 18.8795416 22.5753878 18.8228159 22.6148328 18.7645876 22.6569075 18.7082376 22.7046171 18.6413689 22.7466918 18.5850189 22.7861368 18.5286689 22.8282115 18.4704406 22.8695348 18.4137149 22.9089798 18.3472219 22.9510545 18.2908719 22.9904995 18.2322679 23.0325741 18.1676532 23.0742731 18.1113032 23.1137181 18.0526992 23.1557928 17.9884602 23.1892271 17.9294806 23.2286721 17.8648659 23.2703711 17.8066376 23.3015515 17.7416472 23.3436261 17.6770326 23.3770605 17.6188042 23.4082408 17.5538139 23.4499398 17.4873209 23.4833741 17.4309709 23.5145545 17.3659806 23.5562535 17.2994876 23.5896878 17.2348729 23.6208681 17.1702582 23.6543025 17.1116542 23.6877368 17.0470396 23.7192928 16.9801709 23.7527271 16.9155562 23.7775211 16.8505659 23.8087015 16.7840729 23.8421358 16.7194582 23.8755701 16.6548436 23.9007398 16.5875992 23.9319201 16.5229846 23.9567141 16.4583699 23.9901485 16.3832366 24.0134398 16.3186219 24.0468741 16.2517532 24.0716681 16.1871386 24.0968378 16.1225239 24.1197535 16.0473906 24.1445475 15.9827759 24.1697171 15.9177856 24.1948868 15.8509169 24.2178025 15.7780376 24.2429721 15.7134229 24.2681418 15.6465542 24.2929358 15.5736749 24.3162271 15.5086846 24.3323808 15.4339269 24.3575505 15.3689366 24.3827201 15.3043219 24.3992495 15.2291886 24.4139005 15.1645739 24.4225408 15.0995836 24.4225408 15.0244502 24.4225408 14.9598356 24.4078898 14.8952209 24.3909848 14.8283522 24.3658151 14.7720022 24.3241161 14.7137739 24.2929358 14.6570482 24.2429721 14.6074602 24.1948868 14.5676396 24.1366585 14.5342052 24.0803085 14.5007709 24.0217045 14.4778552 23.9567141 14.4609502 23.8838348 14.4526856 23.8169661 14.4526856 23.7440868 14.4609502 23.6794721 14.4692149 23.6126035 14.4925062 23.5479888 14.5173002 23.4833741 14.5507346 23.4165055 14.5905552 23.3601555 14.6322542 23.3101918 14.6825936 23.2621065 14.7385679 23.2204075 14.7952936 23.1892271 14.8617866 23.1557928 14.9264012 23.1302475 15.0079209 23.1054535 15.0916946 23.0825378 15.1724629 23.0573681 15.2539826 23.0325741 15.3272376 22.9991398 15.4106356 22.9758485 15.4921552 22.9510545 15.5736749 22.9176201 15.6551946 22.8864398 15.7299522 22.8612701 15.8114719 22.8282115 15.8926159 22.7947771 15.9658709 22.7632211 16.0473906 22.7297868 16.1225239 22.6899661 16.2040436 22.6569075 16.2769229 22.6234731 16.3520562 22.5836525 16.4332002 22.5502181 16.5064552 22.5085191 16.5797102 22.4690741 16.6608542 22.4356398 16.7359876 22.3935651 16.8088669 22.3541201 16.8821219 22.3124211 16.9568796 22.2726005 17.0301346 22.2226368 17.1033896 22.1831918 17.1762689 22.1411171 17.2514022 22.0911535 17.3246572 22.0513328 17.3915259 22.0013691 17.4644052 21.9619241 17.5372846 21.9115848 17.6018992 21.8634995 17.6770326 21.8135358 17.7502876 21.7654505 17.8149022 21.7154868 17.8817709 21.6677771 17.9550259 21.6174378 18.0196406 21.5693525 18.0861336 21.5111241 18.1507482 21.4630388 18.2258816 21.4048105 18.2908719 21.3567251 18.3554866 21.2981211 18.4223552 21.2417711 18.4787052 21.1914318 18.5433199 21.1354575 18.6101886 21.0768535 18.6748032 21.0205035 18.7311532 20.9641535 18.7980219 20.9055495 18.8543719 20.8495751 18.9212406 20.7823308 18.9772149 20.7263565 19.0422052 20.6696308 19.1008092 20.6031378 19.1567836 20.5467878 19.2153876 20.4802948 19.2717376 20.4153045 19.3303416 20.3589545 19.3863159 20.2924615 19.4449199 20.2274711 19.5012699 20.1628565 19.5516092 20.0959878 19.6075836 20.0313731 19.6643092 19.9645045 19.7138972 19.8998898 19.7728769 19.8352751 19.8205866 19.7684065 19.8682962 19.6955271 19.9186356 19.6305368 19.9772396 19.5636681 20.0249492 19.4907888 20.0749129 19.4261741 20.1151092 19.3675701 20.1650729 19.3198605 20.2127826 19.2695211 20.2713866 19.2383408 20.3277366 19.2049065 20.3946052 19.1714721 20.4592199 19.1568211 20.5320992 19.1485565 20.5989679 19.1399161 20.6718472 19.1399161 20.7368376 19.1485565 20.8014522 19.1632075 20.8683209 19.1880015 20.9329356 19.2214358 20.9915396 19.2548701 21.0396249 19.3029555 21.0978532 19.3446545 21.1372982 19.4010045 21.1793729 19.4596085 21.2128072 19.5155828 21.2353472 19.5805731 21.2522522 19.6474418 21.2691572 19.7203211"></polygon>
                        <polygon id="Fill-99" points="7.89741493 9.24350373 7.89741493 9.3667224 7.8808856 9.4794224 7.87262093 9.6022654 7.8493296 9.7172194 7.81589527 9.83179773 7.78246093 9.94675173 7.74301593 10.0617057 7.69305227 10.1762841 7.64271293 10.2829734 7.57809827 10.3806467 7.52174827 10.4873361 7.44886893 10.5853851 7.37335993 10.6751694 7.29221593 10.7649537 7.21069627 10.8464734 7.1212876 10.9276174 7.0311276 11.0008724 6.93120027 11.0760057 6.8248866 11.1319801 6.7268376 11.1969704 6.62014827 11.2469341 6.50744827 11.2950194 6.4011346 11.3367184 6.2861806 11.3701527 6.1633376 11.4013331 6.0483836 11.4265027 5.9334296 11.4430321 5.81021093 11.4516724 5.68736793 11.4516724 5.5727896 11.4516724 5.45144927 11.4430321 5.33687093 11.4265027 5.2132766 11.4013331 5.09869827 11.3701527 4.98374427 11.3367184 4.8774306 11.2950194 4.7624766 11.2469341 4.65616293 11.1969704 4.54984927 11.1319801 4.45180027 11.0760057 4.3533756 11.0008724 4.26396693 10.9276174 4.1741826 10.8464734 4.09266293 10.7649537 4.01114327 10.6751694 3.9363856 10.5853851 3.86350627 10.4873361 3.79851593 10.3806467 3.7402876 10.2829734 3.69220227 10.1762841 3.64186293 10.0617057 3.60204227 9.94675173 3.5689836 9.83179773 3.53554927 9.7172194 3.5103796 9.6022654 3.4957286 9.4794224 3.4878396 9.3667224 3.4878396 9.24350373 3.4878396 9.12854973 3.4957286 9.00533107 3.5103796 8.89075273 3.53554927 8.7694124 3.5689836 8.65520973 3.60204227 8.54025573 3.64186293 8.42530173 3.69220227 8.31898807 3.7402876 8.2126744 3.79851593 8.10598507 3.86350627 8.00793607 3.9363856 7.90988707 4.01114327 7.82010273 4.09266293 7.7303184 4.1741826 7.64053407 4.26396693 7.56540073 4.3533756 7.48388107 4.45180027 7.41964207 4.54984927 7.35465173 4.65616293 7.29604773 4.7624766 7.2400734 4.8774306 7.1983744 4.98374427 7.15629973 5.09869827 7.11685473 5.2132766 7.09168507 5.33687093 7.0665154 5.45144927 7.05224007 5.5727896 7.0439754 5.68736793 7.03533507 5.81021093 7.0439754 5.9334296 7.05224007 6.0483836 7.0665154 6.1633376 7.09168507 6.2861806 7.11685473 6.4011346 7.15629973 6.50744827 7.1983744 6.62014827 7.2400734 6.7268376 7.29604773 6.8248866 7.35465173 6.93120027 7.41964207 7.0311276 7.48388107 7.1212876 7.56540073 7.21069627 7.64053407 7.29221593 7.7303184 7.37335993 7.82010273 7.44886893 7.90988707 7.52174827 8.00793607 7.57809827 8.10598507 7.64271293 8.2126744 7.69305227 8.31898807 7.74301593 8.42530173 7.78246093 8.54025573 7.81589527 8.65520973 7.8493296 8.7694124 7.87262093 8.89075273 7.8808856 9.00533107 7.89741493 9.12854973"></polygon>
                        <polygon id="Fill-101" points="5.7457841 16.9465112 6.2777281 18.2549582 2.6442801 18.2549582 2.6442801 15.3210015 5.5891311 15.3210015 5.57260177 15.4337015 5.55795077 15.5569202 5.54104577 15.6714985 5.54104577 15.7947172 5.54104577 15.9092955 5.54104577 16.0242495 5.5496861 16.1452142 5.56621543 16.2601682 5.58086643 16.3830112 5.6060361 16.4979652 5.6308301 16.6125435 5.66426443 16.7274975 5.7040851 16.8338112"></polygon>
                        <polygon id="Fill-103" points="2.64431767 18.2551084 2.64431767 23.6710948 2.63642867 23.8172291 2.61088333 23.9652418 2.57143833 24.1113761 2.51283433 24.2428594 2.439955 24.3743428 2.35843533 24.4975614 2.260762 24.6038751 2.145808 24.7083104 2.02258933 24.7917084 1.89937067 24.8649634 1.75962267 24.9209378 1.61348833 24.9626368 1.47374033 24.9881821 1.327606 24.9960711 1.17959333 24.9881821 1.031205 24.9626368 0.885070667 24.9209378 0.753587333 24.8649634 0.622104 24.7917084 0.501139333 24.7083104 0.394825667 24.6038751 0.294522667 24.4975614 0.204738333 24.3743428 0.131859 24.2428594 0.0751333333 24.1113761 0.0334343333 23.9652418 0.00826466667 23.8172291 0 23.6710948 0 8.6466821 0.00826466667 8.49829377 0.0334343333 8.3604241 0.0751333333 8.2127871 0.131859 8.07266343 0.204738333 7.9513231 0.294522667 7.8284801 0.394825667 7.7135261 0.501139333 7.61585277 0.622104 7.5343331 0.753587333 7.46145377 0.885070667 7.4024741 1.031205 7.3607751 1.17959333 7.33785943 1.327606 7.32959477 1.47374033 7.33785943 1.61348833 7.3607751 1.75962267 7.4024741 1.89937067 7.46145377 2.02258933 7.5343331 2.145808 7.61585277 2.260762 7.7135261 2.35843533 7.8284801 2.439955 7.9513231 2.51283433 8.07266343 2.57143833 8.2127871 2.61088333 8.3604241 2.63642867 8.49829377 2.64431767 8.6466821 2.64431767 15.3207761"></polygon>
                    </g>
                </g>
            </g>
        </g>
    </g>
</svg>