<?xml version="1.0" encoding="UTF-8"?>
<svg width="156px" height="123px" viewBox="0 0 156 123" version="1.1" xmlns="http://www.w3.org/2000/svg" xmlns:xlink="http://www.w3.org/1999/xlink">
    <title>防导管脱落</title>
    <defs>
        <path d="M141.787333,119.462097 L26.8333333,119.462097 C20.93,119.462097 16.1,114.632097 16.1,108.728764 L16.1,26.8334303 C16.1,20.9300969 20.93,16.1000969 26.8333333,16.1000969 L141.787333,16.1000969 C147.690667,16.1000969 152.520667,20.9300969 152.520667,26.8334303 L152.520667,108.78243 C152.520667,114.685764 147.74487,119.462097 141.787333,119.462097" id="path-1"></path>
        <filter x="-11.4%" y="-14.0%" width="122.7%" height="130.0%" filterUnits="objectBoundingBox" id="filter-2">
            <feOffset dx="0" dy="1" in="SourceAlpha" result="shadowOffsetOuter1"></feOffset>
            <feGaussianBlur stdDeviation="5" in="shadowOffsetOuter1" result="shadowBlurOuter1"></feGaussianBlur>
            <feColorMatrix values="0 0 0 0 0   0 0 0 0 0   0 0 0 0 0  0 0 0 0.1 0" type="matrix" in="shadowBlurOuter1"></feColorMatrix>
        </filter>
        <path d="M130.785667,70.0887636 L90.6966667,70.0887636 C86.8326667,70.0887636 83.72,66.9760969 83.72,63.1120969 L83.72,23.0767636 C83.72,19.2127636 86.8326667,16.1000969 90.6966667,16.1000969 L130.785667,16.1000969 C134.649667,16.1000969 137.762333,19.2127636 137.762333,23.0767636 L137.762333,63.1657636 C137.762333,66.9760969 134.596,70.0887636 130.785667,70.0887636" id="path-3"></path>
        <filter x="-14.8%" y="-13.0%" width="129.6%" height="129.6%" filterUnits="objectBoundingBox" id="filter-4">
            <feOffset dx="0" dy="1" in="SourceAlpha" result="shadowOffsetOuter1"></feOffset>
            <feGaussianBlur stdDeviation="2.5" in="shadowOffsetOuter1" result="shadowBlurOuter1"></feGaussianBlur>
            <feColorMatrix values="0 0 0 0 0.196078431   0 0 0 0 0.450980392   0 0 0 0 0.250980392  0 0 0 0.5 0" type="matrix" in="shadowBlurOuter1"></feColorMatrix>
        </filter>
    </defs>
    <g id="页面-1" stroke="none" stroke-width="1" fill="none" fill-rule="evenodd">
        <g id="padCard-床头卡" transform="translate(-203.000000, -28.000000)">
            <g id="编组" transform="translate(201.000000, 24.000000)">
                <g transform="translate(-4.293333, -3.440097)">
                    <g id="Fill-2">
                        <use fill="black" fill-opacity="1" filter="url(#filter-2)" xlink:href="#path-1"></use>
                        <use fill="#FFFFFF" fill-rule="evenodd" xlink:href="#path-1"></use>
                    </g>
                    <g id="Fill-5">
                        <use fill="black" fill-opacity="1" filter="url(#filter-4)" xlink:href="#path-3"></use>
                        <use fill="#275F60" fill-rule="evenodd" xlink:href="#path-3"></use>
                    </g>
                </g>
                <g transform="translate(90.160000, 22.856667)" id="图标位置">
                    <g id="编组" transform="translate(0.000000, 0.000000)" fill="#FFB400" opacity="0">
                        <g id="图标背景底板60*60px" transform="translate(0.000000, 0.000000)">
                            <rect x="3.55271368e-15" y="3.55271368e-15" width="32.2" height="32.2"></rect>
                        </g>
                    </g>
                    <g id="编组-2" transform="translate(0.000000, 2.683333)" fill="#FEFEFE">
                        <path d="M28.8129571,10.1899583 L28.8069465,10.1512647 L28.8009358,10.1084387 L28.7817768,10.0716233 L28.7641205,10.040443 L28.7389508,10.0096383 L28.7077705,9.984093 L28.6709551,9.95892333 L28.6326371,9.93976433 L28.5954461,9.93375367 L28.5582551,9.92811867 L28.5139265,9.92811867 L28.4767355,9.93976433 L28.4399201,9.95291267 L28.4031048,9.97094467 L28.2340548,10.0772583 L28.0668831,10.17681 L27.8921981,10.2699753 L27.7175131,10.35713 L27.5428281,10.4386497 L27.3625081,10.512656 L27.1758018,10.588165 L26.9951061,10.6505257 L26.8087755,10.7125107 L26.6220691,10.7688607 L26.4282251,10.8116867 L26.2358838,10.8560153 L26.0435425,10.8928307 L25.8493228,10.924011 L25.6569815,10.9491807 L25.4631375,10.966837 L25.2647855,10.9728477 L25.0724441,10.980361 L24.8725895,10.980361 L24.6802481,10.9728477 L24.4803935,10.961202 L24.2880521,10.942043 L24.0938325,10.9180003 L23.9014911,10.88682 L23.7076471,10.848502 L23.5149301,10.805676 L23.3285995,10.7553367 L23.1422688,10.7065 L22.9555625,10.644515 L22.7677291,10.574641 L22.5870335,10.5006347 L22.4063378,10.4251257 L22.2260178,10.339098 L22.0528355,10.2519433 L21.8841611,10.158778 L21.7166138,10.0580993 L21.5479395,9.95291267 L21.5111241,9.93375367 L21.4724305,9.922108 L21.4356151,9.908584 L21.3924135,9.908584 L21.3555981,9.91609733 L21.3169045,9.922108 L21.2800891,9.93976433 L21.2428981,9.95892333 L21.2120935,9.99010367 L21.1869238,10.021284 L21.1673891,10.0524643 L21.1497328,10.0892797 L21.1437221,10.133984 L21.1362088,10.1707993 L21.1437221,10.2132497 L21.1497328,10.2519433 L21.1617541,10.2891343 L21.2368875,10.432639 L21.3112695,10.574641 L21.3984241,10.7125107 L21.4859545,10.848502 L21.5791198,10.980361 L21.6722851,11.1047067 L21.7789745,11.2290523 L21.8841611,11.353398 L21.9964855,11.4657223 L22.1148205,11.5769197 L22.2331555,11.683609 L22.3575011,11.7887957 L22.4878575,11.881961 L22.6182138,11.9751263 L22.7496971,12.062281 L22.8935775,12.1498113 L23.0295688,12.2253203 L23.1790841,12.293316 L23.3225888,12.3613117 L23.4721041,12.4236723 L23.6216195,12.4740117 L23.7771455,12.524351 L23.9326715,12.567177 L24.0878218,12.604368 L24.2493585,12.6355483 L24.4063871,12.6603423 L24.5675481,12.679877 L24.7290848,12.6915227 L24.8842351,12.6975333 L25.0472745,12.6975333 L25.2084355,12.6915227 L25.3699721,12.679877 L25.5326358,12.666353 L25.6881618,12.6411833 L25.8493228,12.610003 L26.0048488,12.5731877 L26.1618775,12.529986 L26.3113928,12.4856573 L26.4665431,12.429683 L26.6164341,12.3673223 L26.7659495,12.3053373 L26.9079515,12.236966 L27.0514561,12.1554463 L27.1893258,12.075805 L27.3253171,11.9882747 L27.4556735,11.90112 L27.5871568,11.801944 L27.7115025,11.7008897 L27.8302131,11.5960787 L27.9485481,11.4833787 L28.0597455,11.3654193 L28.1660591,11.2482113 L28.2712458,11.122363 L28.3719245,10.9980173 L28.4650898,10.8680367 L28.5526201,10.730167 L28.6326371,10.5938 L28.7137811,10.4502953 L28.7817768,10.3082933 L28.8009358,10.2699753 L28.8069465,10.2327843 L28.8129571,10.1899583 Z M29.9023905,2.02935133 L29.9023905,1.97938767 L29.9023905,1.936186 L29.8907448,1.88584667 L29.8787235,1.842645 L29.8595645,1.79831633 L29.8343948,1.76112533 L29.8032145,1.72468567 L29.7720341,1.685992 L29.7352188,1.662325 L29.6905145,1.63715533 L29.6476885,1.61198567 L29.6048625,1.60034 L29.5545231,1.592451 L29.5101945,1.586816 L20.5828518,1.586816 L20.5400258,1.592451 L20.4896865,1.60034 L20.4464848,1.61198567 L20.4021561,1.63114467 L20.3653408,1.65481167 L20.3281498,1.685992 L20.2898318,1.71679667 L20.2661648,1.75549033 L20.2409951,1.79230567 L20.2158255,1.83550733 L20.2038041,1.879836 L20.1906558,1.92867267 L20.1906558,1.97300133 L20.1906558,2.02371633 L20.6020108,6.98364333 L20.6140321,7.070798 L20.6331911,7.158704 L20.6508475,7.23834533 L20.6760171,7.3255 L20.7128325,7.40701967 L20.7515261,7.48853933 L20.7943521,7.56254567 L20.8386808,7.63805467 L20.9438675,7.78005667 L21.0565675,7.91755067 L21.1673891,8.05391767 L21.2857241,8.18577667 L21.4100698,8.31012233 L21.5359181,8.434468 L21.6722851,8.552803 L21.8026415,8.66400033 L21.9461461,8.77632467 L22.0896508,8.87550067 L22.2331555,8.97617933 L22.3886815,9.06972033 L22.5381968,9.156875 L22.6937228,9.24290267 L22.8548838,9.318036 L23.0179231,9.39204233 L23.1790841,9.454403 L23.3466315,9.516388 L23.5149301,9.57236233 L23.6839801,9.61706667 L23.8586651,9.65989267 L24.0318475,9.69708367 L24.2065325,9.728264 L24.3812175,9.75343367 L24.5543998,9.77259267 L24.7350955,9.78423833 L24.9094048,9.790249 L25.0840898,9.790249 L25.2647855,9.78423833 L25.4394705,9.766582 L25.6141555,9.74704733 L25.7933485,9.72225333 L25.9680335,9.691073 L26.1367078,9.65989267 L26.3113928,9.61706667 L26.4785645,9.56672733 L26.6472388,9.51037733 L26.8147861,9.44801667 L26.9774498,9.38039667 L27.1386108,9.31202533 L27.3001475,9.23050567 L27.4556735,9.148986 L27.6051888,9.063334 L27.7618418,8.96265533 L27.9042195,8.86949 L28.0477241,8.76430333 L28.1852181,8.651979 L28.3215851,8.539279 L28.4519415,8.420944 L28.5834248,8.29659833 L28.7021355,8.17225267 L28.8204705,8.03626133 L28.9373028,7.90440233 L29.0439921,7.76240033 L29.1491788,7.61852 L29.1991425,7.53700033 L29.2434711,7.45773467 L29.2866728,7.36982867 L29.3178531,7.27666333 L29.3430228,7.18950867 L29.3681925,7.09634333 L29.3798381,7.003178 L29.9023905,2.02935133 Z M31.5722288,1.28778533 L31.5722288,1.37494 L31.5647155,1.46247033 L30.7491431,9.16288567 L30.7254761,9.34921633 L30.7003065,9.54155767 L30.6616128,9.728264 L30.6187868,9.91609733 L30.5759608,10.096793 L30.5196108,10.2831237 L30.4572501,10.4638193 L30.3952651,10.644515 L30.3197561,10.8176973 L30.2457498,10.9923823 L30.1585951,11.1670673 L30.0710648,11.334239 L29.9778995,11.5029133 L29.8787235,11.66445 L29.7720341,11.8271137 L29.6597098,11.982264 L29.5485125,12.1381657 L29.4230398,12.2812947 L29.2983185,12.429683 L29.1739728,12.567177 L29.0379815,12.704671 L28.9001118,12.8350273 L28.7581098,12.9653837 L28.6085945,13.0837187 L28.4590791,13.2024293 L28.3024261,13.314378 L28.1408895,13.4199403 L27.9797285,13.5247513 L27.8166891,13.619795 L27.6495175,13.7129603 L27.4748325,13.7929773 L27.3061581,13.874497 L27.1269651,13.9481277 L26.9522801,14.017626 L26.7715845,14.0799867 L26.5852538,14.1363367 L26.4045581,14.1851733 L26.2167248,14.229502 L26.0300185,14.266693 L25.8376771,14.2978733 L25.8376771,18.7604177 L25.8376771,18.890774 L25.8316665,19.028268 L25.8125075,19.164635 L25.7933485,19.2961183 L25.7696815,19.4264747 L25.7385011,19.5643443 L25.7073208,19.6947007 L25.6509708,19.8618723 L25.5949965,20.0365573 L25.5326358,20.2112423 L25.4706508,20.378414 L25.4022795,20.5470883 L25.3271461,20.7161383 L25.2516371,20.88331 L25.1776308,21.0448467 L25.0901005,21.2071347 L25.0029458,21.3686713 L24.9154155,21.5241973 L24.8222501,21.6793477 L24.7230741,21.8348737 L24.6238981,21.984389 L24.5232195,22.1339043 L24.4180328,22.2834197 L24.3057085,22.4269243 L24.1945111,22.570429 L24.0761761,22.706796 L23.9578411,22.8446657 L23.8334955,22.980657 L23.7076471,23.1110133 L23.5833015,23.2424967 L23.4469345,23.3668423 L23.3154511,23.491188 L23.1790841,23.6098987 L23.0415901,23.7282337 L22.8992125,23.8469443 L22.7557078,23.9517553 L22.6065681,24.0644553 L22.4570528,24.1632557 L22.3075375,24.2695693 L22.1576465,24.363486 L22.0024961,24.4622863 L21.8409595,24.5498167 L21.6854335,24.6369713 L21.5227698,24.722999 L21.3616088,24.804143 L21.1925588,24.8800277 L21.0253871,24.954034 L20.8567128,25.021654 L20.6891655,25.0840147 L20.5204911,25.1463753 L20.3458061,25.2023497 L20.1726238,25.2586997 L19.9983145,25.309039 L19.8236295,25.3578757 L19.6429338,25.4022043 L19.4682488,25.4393953 L19.2875531,25.4705757 L19.1072331,25.501756 L18.9340508,25.5325607 L18.7518525,25.5520953 L18.5726595,25.569376 L18.3848261,25.5889107 L18.2041305,25.5949213 L18.0234348,25.6005563 L17.8427391,25.6080697 L17.6639218,25.6080697 L17.4817235,25.6005563 L17.2953928,25.5889107 L17.1146971,25.5768893 L16.9340015,25.5577303 L16.7533058,25.5396983 L16.5726101,25.5149043 L16.3922901,25.483724 L16.2191078,25.451041 L16.0384121,25.41385 L15.8637271,25.371024 L15.6834071,25.328198 L15.5083465,25.2778587 L15.3340371,25.2275193 L15.1664898,25.171545 L14.9918048,25.1091843 L14.8246331,25.0471993 L14.6559588,24.978828 L14.4872845,24.9048217 L14.3197371,24.8296883 L14.1585761,24.7481687 L13.9959125,24.6681517 L13.8343758,24.580997 L13.6788498,24.4934667 L13.5236995,24.4003013 L13.3666708,24.3067603 L13.2171555,24.2004467 L13.0616295,24.1012707 L12.9196275,23.996084 L12.7761228,23.883384 L12.6326181,23.7710597 L12.4887378,23.6527247 L12.3527465,23.534014 L12.2148768,23.415679 L12.0848961,23.2913333 L11.9545398,23.160977 L11.8301941,23.0309963 L11.7043458,22.8991373 L11.5875135,22.763146 L11.4691785,22.6196413 L11.3564785,22.4832743 L11.2441541,22.333759 L11.1389675,22.1898787 L11.0322781,22.040739 L10.9270915,21.890848 L10.8339261,21.7356977 L10.7392581,21.5801717 L10.6460928,21.4246457 L10.5600651,21.2623577 L10.4729105,21.1068317 L10.3913908,20.9392843 L10.3173845,20.7781233 L10.2418755,20.6090733 L10.1738798,20.440399 L10.0923601,20.4227427 L10.0052055,20.403208 L9.92518847,20.378414 L9.8436688,20.354747 L9.7681598,20.3239423 L9.6881428,20.2852487 L9.61300947,20.2480577 L9.53862747,20.2052317 L9.46912913,20.1548923 L9.40113347,20.104553 L9.3331378,20.0557163 L9.27077713,19.9993663 L9.20879213,19.9370057 L9.14643147,19.8750207 L9.09609213,19.8130357 L9.0401178,19.7435373 L8.99090547,19.675166 L8.9465768,19.6015353 L8.9037508,19.5260263 L8.86505713,19.4516443 L8.8282418,19.3761353 L8.79706147,19.2961183 L8.7718918,19.2149743 L8.7482248,19.1338303 L8.7290658,19.0538133 L8.7099068,18.966283 L8.70389613,18.885139 L8.6918748,18.7976087 L8.6918748,18.710454 L8.6918748,18.630437 L8.69826113,18.5429067 L8.70389613,18.455752 L8.71742013,18.3742323 L8.73507647,18.2870777 L8.75423547,18.2070607 L8.77940513,18.125541 L8.81058547,18.0440213 L8.84139013,17.9640043 L8.87257047,17.8884953 L8.91577213,17.814489 L8.9601008,17.7393557 L9.0029268,17.6709843 L9.05326613,17.596978 L9.10961613,17.534993 L9.1640878,17.4666217 L9.2204378,17.4106473 L9.28279847,17.346784 L9.3522968,17.2919367 L9.4142818,17.2415973 L9.4886638,17.1916337 L9.55665947,17.148432 L9.63216847,17.1041033 L9.7061748,17.067288 L9.7873188,17.030097 L9.86883847,16.9989167 L9.9428448,16.9741227 L10.0299995,16.9485773 L10.1115191,16.930921 L10.1915361,16.917397 L10.2790665,16.9057513 L10.3662211,16.8997407 L10.4477408,16.892603 L10.5348955,16.892603 L10.6224258,16.8997407 L10.7024428,16.9057513 L10.7895975,16.917397 L10.8711171,16.9369317 L10.9526368,16.954588 L11.0322781,16.9797577 L11.1137978,17.010938 L11.1953175,17.0417427 L11.2693238,17.0804363 L11.3508435,17.1172517 L11.4188391,17.1604533 L11.4928455,17.210417 L11.5623438,17.2607563 L11.6243288,17.3099687 L11.6927001,17.3663187 L11.7546851,17.4283037 L11.8110351,17.4906643 L11.8673851,17.5526493 L11.9158461,17.620645 L11.9661855,17.690519 L12.0093871,17.7641497 L12.0537158,17.8396587 L12.0905311,17.9140407 L12.1277221,17.9951847 L12.1589025,18.0695667 L12.1840721,18.150335 L12.2092418,18.2378653 L12.2268981,18.3178823 L12.2400465,18.399402 L12.2520678,18.4865567 L12.2595811,18.5737113 L12.2655918,18.655231 L12.2655918,18.7412587 L12.2595811,18.8284133 L12.2460571,18.909933 L12.2344115,18.9970877 L12.2223901,19.0771047 L12.1972205,19.1586243 L12.1720508,19.240144 L12.1468811,19.3216637 L12.1100658,19.4016807 L12.0788855,19.4771897 L12.0345568,19.5508203 L11.9917308,19.6263293 L11.9470265,19.7003357 L11.8981898,19.7683313 L11.8422155,19.830692 L11.7858655,19.900566 L11.7235048,19.9550377 L11.6615198,20.0185253 L11.5991591,20.0737483 L11.6671548,20.222888 L11.7355261,20.3667683 L11.8110351,20.515908 L11.8850415,20.6597883 L11.9661855,20.8017903 L12.0537158,20.9392843 L12.1412461,21.0756513 L12.2268981,21.2131453 L12.3275768,21.3435017 L12.4207421,21.473858 L12.5199181,21.605717 L12.6266075,21.7300627 L12.7314185,21.8544083 L12.8441185,21.978754 L12.9568185,22.0967133 L13.0691428,22.2094133 L13.1859751,22.328124 L13.3118235,22.432935 L13.4286558,22.5396243 L13.5605148,22.6444353 L13.6848605,22.743987 L13.8152168,22.8446657 L13.9527108,22.937831 L14.0830671,23.0309963 L14.2209368,23.118151 L14.3629388,23.2041787 L14.5004328,23.2853227 L14.6443131,23.3612073 L14.7938285,23.4352137 L14.9358305,23.5107227 L15.0853458,23.5787183 L15.2344855,23.641079 L15.3903871,23.703064 L15.5395268,23.7590383 L15.6950528,23.8082507 L15.8520815,23.85859 L16.0076075,23.901416 L16.1687685,23.9457447 L16.3242945,23.9829357 L16.4869581,24.019751 L16.6484948,24.0449207 L16.8096558,24.076101 L16.9723195,24.09526 L17.1338561,24.113292 L17.2953928,24.1264403 L17.4580565,24.138086 L17.6195931,24.1455993 L17.7807541,24.15161 L17.9494285,24.1455993 L18.1109651,24.138086 L18.2736288,24.1320753 L18.4351655,24.1204297 L18.5963265,24.1012707 L18.7589901,24.081736 L18.9205268,24.0584447 L19.0820635,24.0272643 L19.2447271,23.996084 L19.4002531,23.9573903 L19.5614141,23.920575 L19.7169401,23.8702357 L19.8739688,23.8274097 L20.0291191,23.7710597 L20.1786345,23.722223 L20.3341605,23.6587353 L20.4836758,23.5967503 L20.6331911,23.528379 L20.7827065,23.4600077 L20.9247085,23.3848743 L21.0682131,23.310868 L21.2120935,23.2293483 L21.3555981,23.1493313 L21.4915895,23.0621767 L21.5111241,23.0486527 L21.6294591,22.9690113 L21.7598155,22.875846 L21.8897961,22.7747917 L22.0216551,22.6756157 L22.1460008,22.5768153 L22.2703465,22.4697503 L22.3946921,22.3589287 L22.5130271,22.2466043 L22.6257271,22.1339043 L22.7440621,22.0155693 L22.8492488,21.8972343 L22.9615731,21.7728887 L23.0607491,21.648543 L23.1674385,21.5181867 L23.2666145,21.388206 L23.3597798,21.256347 L23.4529451,21.11998 L23.5404755,20.982486 L23.6276301,20.846119 L23.7076471,20.7022387 L23.7831561,20.5591097 L23.8586651,20.415605 L23.9326715,20.2672167 L23.9890215,20.1357333 L24.0449958,19.9993663 L24.0938325,19.8618723 L24.1310235,19.7194947 L24.1693415,19.57599 L24.2005218,19.432861 L24.2185538,19.2904833 L24.2373371,19.1469787 L24.2433478,18.9970877 L24.2478558,18.8757473 L24.2493585,18.853583 L24.2493585,14.3166567 L24.0626521,14.291487 L23.8763215,14.2606823 L23.6899908,14.2219887 L23.5092951,14.1791627 L23.3285995,14.1288233 L23.1479038,14.073976 L22.9675838,14.011991 L22.7928988,13.942117 L22.6182138,13.8684863 L22.4506665,13.7869667 L22.2819921,13.705447 L22.1148205,13.611906 L21.9521568,13.5187407 L21.7906201,13.4199403 L21.6354698,13.314378 L21.4859545,13.2024293 L21.3364391,13.0837187 L21.1869238,12.9653837 L21.0505568,12.841038 L20.9130628,12.7106817 L20.7751931,12.5731877 L20.6508475,12.4368207 L20.5265018,12.293316 L20.4081668,12.1498113 L20.2898318,12.000296 L20.1846451,11.84477 L20.0783315,11.689244 L19.9787798,11.528083 L19.8856145,11.3654193 L19.7980841,11.1982477 L19.7109295,11.0291977 L19.6369231,10.8560153 L19.5614141,10.681706 L19.4994291,10.5066453 L19.4370685,10.3259497 L19.3810941,10.1456297 L19.3318818,9.964934 L19.2875531,9.77822767 L19.2567485,9.59790767 L19.2255681,9.411577 L19.2003985,9.22487067 L19.1823665,9.03854 L18.5474898,1.43730067 L18.5414791,1.34413533 L18.5414791,1.25059433 L18.5474898,1.16343967 L18.5651461,1.07027433 L18.5843051,0.982744 L18.6094748,0.895589333 L18.6466658,0.809561667 L18.6838568,0.728042 L18.7281855,0.646898 L18.7770221,0.572516 L18.8273615,0.497382667 L18.8893465,0.429387 L18.9517071,0.361391333 L19.0197028,0.299030667 L19.0952118,0.242680667 L19.1692181,0.192717 L19.2507378,0.149139667 L19.3318818,0.1127 L19.4194121,0.0740063333 L19.5054398,0.0503393333 L19.5925945,0.0251696667 L19.6797491,0.0116456667 L19.7732901,0 L19.8664555,0 L30.2457498,0 L30.3332801,0 L30.4204348,0.0116456667 L30.5064625,0.0251696667 L30.5936171,0.042826 L30.6811475,0.0740063333 L30.7622915,0.104811 L30.8438111,0.143504667 L30.9238281,0.186330667 L30.9993371,0.229156667 L31.0673328,0.285882333 L31.1353285,0.341856667 L31.1976891,0.403841667 L31.2596741,0.472213 L31.3160241,0.541711333 L31.3663635,0.615717667 L31.4091895,0.691226667 L31.4463805,0.771243667 L31.4846985,0.852763333 L31.5098681,0.933907333 L31.5335351,1.02143767 L31.5526941,1.10708967 L31.5647155,1.19462 L31.5722288,1.28778533 Z" id="Fill-145"></path>
                        <polygon id="Fill-146" points="25.7503722 24.3559727 25.7563829 24.4622863 25.7503722 24.5670973 25.7443615 24.6741623 25.7252025 24.7789733 25.7075462 24.8856627 25.6763659 24.9908493 25.6451855 25.091528 25.6008569 25.190704 25.5580309 25.2838693 25.5076915 25.3830453 25.4513415 25.4705757 25.3893565 25.5577303 25.3209852 25.63925 25.2454762 25.719267 25.1714699 25.7944003 25.0903259 25.8684067 25.0103089 25.9307673 24.9227785 25.9927523 24.8296132 26.0491023 24.7349452 26.0998173 24.6357692 26.1426433 24.5365932 26.1809613 24.4374172 26.211766 24.3307279 26.2358087 24.2255412 26.2606027 24.1192275 26.2741267 24.0140409 26.2801373 23.9073515 26.2801373 23.8021649 26.2801373 23.6958512 26.266989 23.5906645 26.248957 23.4839752 26.2237873 23.3847992 26.1986177 23.2844962 26.1618023 23.1849445 26.117098 23.0857685 26.074272 22.9926032 26.0239327 22.9054485 25.961572 22.8179182 25.899587 22.7367742 25.8315913 22.6567572 25.7635957 22.5808725 25.682076 22.5128769 25.6005563 22.4508919 25.520915 22.3885312 25.4277497 22.3381919 25.3342087 22.2897309 25.2395407 22.2450265 25.1403647 22.2082112 25.0411887 22.2067085 25.0411887 22.1830415 24.9656797 22.3828962 24.8488473 22.5808725 24.722999 22.7811029 24.5926427 22.9674335 24.4566513 23.1597749 24.312771 23.3404705 24.1632557 23.5211662 24.0137403 23.7014862 23.85859 23.8705362 23.6970533 24.0377079 23.534014 24.2063822 23.3612073 24.3619082 23.1865223 24.5174342 23.0118373 24.6669495 22.825131 24.8104542 22.6444353 24.9464455 22.4524697 25.0843152 22.25825 25.6451855 23.8330447 25.6763659 23.9401097 25.7075462 24.03891 25.7252025 24.1455993 25.7443615 24.250786"></polygon>
                        <polygon id="Fill-147" points="22.1710953 14.0918953 23.8702357 18.859481 23.820272 19.0537006 23.763922 19.246042 23.7015613 19.4327483 23.6335657 19.619079 23.5595593 19.799399 23.4780397 19.9861053 23.390885 20.1607903 23.3033547 20.341486 23.2041787 20.5101603 23.1050027 20.6833426 22.9926783 20.852017 22.880354 21.0135536 22.7616433 21.168704 22.6372977 21.3257326 22.512952 21.4812586 22.375458 21.6232606 22.239091 21.767141 22.101597 21.91027 21.9520817 22.0406263 21.8025663 22.1709826 21.6470403 22.2953283 21.4915143 22.4136633 21.3303533 22.532374 19.5125023 17.3406606 19.5125023 23.3791266 19.3558493 23.4234553 19.2003233 23.459895 19.0447973 23.491451 18.889647 23.5226313 18.7281103 23.547801 18.5725843 23.572595 18.4099207 23.590627 18.2543947 23.6037753 18.0932337 23.609786 17.9301943 23.6157966 17.7746683 23.6157966 17.6135073 23.6157966 17.4508437 23.609786 17.2953177 23.5966376 17.133781 23.5786056 16.978255 23.5594466 16.817094 23.5414146 16.660441 23.51061 16.504915 23.4794296 16.349389 23.4411116 16.193863 23.4039206 16.038337 23.3610946 15.8888217 23.316766 15.7336713 23.260416 15.584156 23.204066 15.4346407 23.1492186 15.291136 23.0872336 15.1416207 23.0177353 14.9977403 22.949364 14.861749 22.8757333 14.7182443 22.8002243 14.5818773 22.7187046 14.4443833 22.632677 14.314027 22.5455223 14.182168 22.452357 14.0521873 22.358816 13.9278417 22.2581373 13.803496 22.159337 13.6791503 22.0537746 13.5608153 21.947461 13.4481153 21.834761 13.3297803 21.7235636 13.4481153 21.611615 13.5608153 21.4929043 13.6656263 21.3685586 13.7723157 21.244213 13.8714917 21.112354 13.9586463 20.9763626 14.0461767 20.8403713 14.125818 20.696491 14.2073377 20.5529863 14.276836 20.403471 14.3391967 20.2539556 14.4011817 20.1044403 14.4500183 19.94929 14.5007333 19.793764 14.5375487 19.638238 14.574364 19.477077 14.5999093 19.3140376 14.625079 19.1528766 14.6367247 18.99134 14.649873 18.8283006 14.649873 18.6675153 14.644238 18.5059786 14.6367247 18.3373043 14.6186927 18.1757676 14.5938987 18.013104 14.568729 17.8572023 14.531538 17.696417 14.4872093 17.540891 14.4443833 17.385365 14.3880333 17.2302146 14.3316833 17.074313 14.2636877 16.9236706 14.195692 16.781293 14.1141723 16.6377883 14.0326527 16.4942836 13.9470007 16.3579166 13.851957 16.227936 13.7531567 16.096077 13.64797 15.9717313 13.5412807 15.8473856 13.4289563 15.728675 13.3117483 15.6167263 13.1862757 15.505529 13.0615543 15.406353 12.9315737 15.3052986 12.8012173 15.2121333 12.6633477 15.1249786 12.5202187 15.0449616 12.377841 14.963442 12.2343363 14.895822 12.084821 14.825948 11.929295 14.7714763 11.7797797 14.7151263 11.6242537 14.6644113 11.46159 14.627596 11.306064 14.5907806 11.144903 14.5596003 10.9833663 14.5344306 10.8207027 14.5212823 10.659166 14.509261 10.4965023 14.509261 10.3293307 14.509261 10.167794 14.5152716 10.0051303 14.5344306 9.84359367 14.5524626 9.68093 14.5832673 9.525404 14.6144476 9.364243 14.6587763 9.208717 14.7016023 9.05920167 14.7575766 8.90367567 14.8143023 8.75416033 14.8762873 8.604645 14.9517963 8.46114033 15.0258026 8.325149 15.1073223 8.18126867 15.1948526 8.04978533 15.288018 7.919429 15.3811833 7.78907267 15.48637 7.67073767 15.5926836 7.55240267 15.703881 7.43406767 15.822216 7.328881 15.940551 7.22219167 16.0648966 7.12301567 16.1967556 7.02985033 16.3331226 6.94232 16.4631033 6.85516533 16.606608 6.77965633 16.7501126 6.70565 16.8924903 6.63765433 17.0420056 6.57529367 17.1990343 6.52495433 17.3466713 6.52495433 17.3406606 3.442985 25.3280853 3.40616967 25.4201236 3.361841 25.5147916 3.31300433 25.607957 3.25665433 25.6939846 3.19429367 25.7811393 3.13230867 25.862659 3.064313 25.9366653 2.988804 26.0121743 2.90728433 26.08017 2.82726733 26.1425306 2.74612333 26.1988806 2.65258233 26.254855 2.56542767 26.3051943 2.47188667 26.3420096 2.37308633 26.3792006 2.27240767 26.4163916 2.17323167 26.4415613 2.07368 26.4607203 1.96736633 26.472366 1.86819033 26.48589 1.76300367 26.48589 1.662325 26.4787523 1.55713833 26.472366 1.45645967 26.4547096 1.35164867 26.4355506 1.25247267 26.4043703 1.15893167 26.37319 1.05862867 26.3288613 0.965087667 26.2860353 0.877933 26.235696 0.790402667 26.1812243 0.704750667 26.1244986 0.623231 26.055376 0.547722 25.9870046 0.473715667 25.9129983 0.40572 25.8374893 0.343359333 25.7574723 0.279871667 25.6703176 0.231035 25.5827873 0.180695667 25.489622 0.137869667 25.3964566 0.100678667 25.295778 0.0683713333 25.202237 0.0447043333 25.097426 0.0251696667 24.9967473 0.00601066667 24.8975713 3.20312665e-14 24.7923846 3.20312665e-14 24.6856953 3.20312665e-14 24.586895 0.013524 24.4813326 0.0311803333 24.3810296 0.0503393333 24.275843 0.0758846667 24.176667 0.1127 24.081999 4.29574833 12.8837513 4.340077 12.7361143 4.38928933 12.5862233 4.44526367 12.4427186 4.50161367 12.2995896 4.56960933 12.1557093 4.64511833 12.0193423 4.726638 11.8893616 4.80627933 11.7575026 4.89982033 11.6271463 4.99298567 11.5028006 5.09366433 11.3844656 5.198851 11.2661306 5.30516467 11.1538063 5.416362 11.048244 5.534697 10.9494436 5.65904267 10.8483893 5.784891 10.755224 5.91524733 10.6680693 6.04560367 10.5880523 6.18309767 10.512919 6.31946467 10.4445476 6.46296933 10.3761763 6.606474 10.320202 6.75598933 10.2642276 6.90550467 10.221026 7.05502 10.1766973 18.9768017 10.1766973 19.032776 10.3705413 19.0951367 10.5628826 19.1631323 10.749589 19.2386413 10.9359196 19.3186583 11.1166153 19.400178 11.297311 19.4933433 11.477631 19.5925193 11.652316 19.693198 11.8273766 19.8043953 11.9941726 19.9167197 12.1557093 20.0350547 12.318373 20.1594003 12.473899 20.283746 12.6290493 20.4216157 12.7789403 20.557607 12.922445 20.7011117 13.058812 20.850627 13.196306 21.0001423 13.3266623 21.1556683 13.451008 21.317205 13.5753536 21.4798687 13.687678 21.6470403 13.800378 21.8157147 13.8991783 21.9907753 13.99873"></polygon>
                        <polygon id="Fill-148" points="19.512615 25.9694234 19.512615 26.6219564 6.52506703 26.6219564 6.52506703 20.0113501 6.57540637 20.1608654 6.63776703 20.3160158 6.7057627 20.4598961 6.77375837 20.6090358 6.85527803 20.7529161 6.93642203 20.8892831 7.02395237 21.0267771 7.1171177 21.1567578 7.2162937 21.2871141 7.32148037 21.4129624 7.4281697 21.5301704 7.54612903 21.6485054 7.65882903 21.7608298 7.7831747 21.8660164 7.90752037 21.9723301 8.0378767 22.0658711 8.1753707 22.1590364 8.30572703 22.2465668 8.4492317 22.3280864 8.59160937 22.4020928 8.73511403 22.4757234 8.8842537 22.5395868 9.04015537 22.6015718 9.1896707 22.6504084 9.34482103 22.7011234 9.50034703 22.7375631 9.6630107 22.7747541 9.82454737 22.7999238 9.98007337 22.8250934 10.142737 22.8446281 10.303898 22.8502631 10.4654347 22.8562738 10.6280984 22.8502631 10.789635 22.8446281 10.9522987 22.8250934 11.1003114 23.0057891 11.25734 23.1864848 11.4124904 23.3611698 11.574027 23.5283414 11.7427014 23.6898781 11.9102487 23.8525418 12.0849337 24.0076921 12.2652537 24.1575831 12.4459494 24.3010878 12.6326557 24.4434654 12.8264997 24.5809594 13.018841 24.7109401 13.217193 24.8352858 13.4170477 24.9539964 13.6225374 25.0719558 13.8284027 25.1775181 14.0402787 25.2838318 14.251779 25.3830078 14.463655 25.4705381 14.6796634 25.5576928 14.898677 25.6392124 15.1221987 25.7128431 15.347223 25.7812144 15.5707447 25.8435751 15.8017797 25.8995494 16.0253014 25.9558994 16.2563364 26.0002281 16.4869957 26.0374191 16.716528 26.0685994 16.953198 26.0933934 17.184233 26.1114254 17.4194004 26.1305844 17.6504354 26.1365951 17.8871054 26.1365951 18.1166377 26.1305844 18.3536834 26.1174361 18.5843427 26.1054148 18.8213884 26.0802451 19.0509207 26.0490648 19.28158 26.0122494"></polygon>
                        <polygon id="Fill-149" points="17.388483 5.27251923 17.388483 5.4396909 17.3764617 5.6087409 17.364816 5.77591257 17.3396463 5.93857623 17.308466 6.10612357 17.2776613 6.26728457 17.232957 6.42994823 17.1841203 6.5914849 17.133781 6.7526459 17.071796 6.90967457 17.0094353 7.0648249 16.9339263 7.2147159 16.85992 7.36385557 16.7784003 7.50623323 16.685235 7.6497379 16.5920697 7.78572923 16.4928937 7.92397457 16.392215 8.05395523 16.2813933 8.18581423 16.1686933 8.30414923 16.0503583 8.42811923 15.9260127 8.53931657 15.801667 8.6460059 15.6713107 8.75119257 15.5338167 8.85149557 15.3974497 8.94503657 15.253945 9.03106423 15.1044297 9.1182189 14.9549143 9.1937279 14.805399 9.26172357 14.649873 9.3300949 14.494347 9.3920799 14.3391967 9.44241923 14.176533 9.4923829 14.0149963 9.53596023 13.846322 9.5667649 13.6847853 9.59794523 13.516111 9.61672857 13.3489393 9.63476057 13.1859 9.6422739 13.0187283 9.6479089 12.850054 9.6422739 12.6828823 9.63476057 12.5138323 9.61672857 12.3466607 9.59794523 12.183997 9.5667649 12.0224603 9.53596023 11.8612993 9.4923829 11.6986357 9.44241923 11.537099 9.3920799 11.381573 9.3300949 11.2264227 9.26172357 11.0769073 9.1937279 10.9270163 9.1182189 10.7835117 9.03106423 10.640007 8.94503657 10.5040157 8.85149557 10.366146 8.75119257 10.2357897 8.6460059 10.1043063 8.53931657 9.98709833 8.42811923 9.86876333 8.30414923 9.75042833 8.18581423 9.643739 8.05395523 9.53855233 7.92397457 9.43787367 7.78572923 9.34470833 7.6497379 9.25755367 7.50623323 9.17753667 7.36385557 9.096017 7.2147159 9.02802133 7.0648249 8.96002567 6.90967457 8.90367567 6.7526459 8.84770133 6.5914849 8.79698633 6.42994823 8.760171 6.26728457 8.72335567 6.10612357 8.69217533 5.93857623 8.67264067 5.77591257 8.65348167 5.6087409 8.647471 5.4396909 8.641836 5.27251923 8.647471 5.1038449 8.65348167 4.93629757 8.67264067 4.76762323 8.69217533 4.60646223 8.72335567 4.43741223 8.760171 4.2766269 8.79698633 4.11358757 8.84770133 3.9520509 8.90367567 3.7908899 8.96002567 3.63573957 9.02802133 3.48021357 9.096017 3.33032257 9.17753667 3.1811829 9.25755367 3.03730257 9.34470833 2.8937979 9.43787367 2.75780657 9.53855233 2.6199369 9.643739 2.48995623 9.75042833 2.3595999 9.86876333 2.2412649 9.98709833 2.12255423 10.1043063 2.00421923 10.2357897 1.89790557 10.366146 1.79234323 10.5040157 1.6935429 10.640007 1.60037757 10.7835117 1.51284723 10.9270163 1.42569257 11.0769073 1.35018357 11.2264227 1.28181223 11.381573 1.21381657 11.537099 1.1514559 11.6986357 1.10111657 11.8612993 1.05265557 12.0224603 1.0139619 12.183997 0.9767709 12.3466607 0.945590567 12.5138323 0.926807233 12.6828823 0.908775233 12.850054 0.902764567 13.0187283 0.8956269 13.1859 0.902764567 13.3489393 0.908775233 13.516111 0.926807233 13.6847853 0.945590567 13.846322 0.9767709 14.0149963 1.0139619 14.176533 1.05265557 14.3391967 1.10111657 14.494347 1.1514559 14.649873 1.21381657 14.805399 1.28181223 14.9549143 1.35018357 15.1044297 1.42569257 15.253945 1.51284723 15.3974497 1.60037757 15.5338167 1.6935429 15.6713107 1.79234323 15.801667 1.89790557 15.9260127 2.00421923 16.0503583 2.12255423 16.1686933 2.2412649 16.2813933 2.3595999 16.392215 2.48995623 16.4928937 2.6199369 16.5920697 2.75780657 16.685235 2.8937979 16.7784003 3.03730257 16.85992 3.1811829 16.9339263 3.33032257 17.0094353 3.48021357 17.071796 3.63573957 17.133781 3.7908899 17.1841203 3.9520509 17.232957 4.11358757 17.2776613 4.2766269 17.308466 4.43741223 17.3396463 4.60646223 17.364816 4.76762323 17.3764617 4.93629757 17.388483 5.1038449"></polygon>
                        <polygon id="Fill-150" points="13.983816 18.6611665 13.983816 18.7795015 13.9778053 18.8982122 13.9706677 19.0150445 13.9586463 19.1337552 13.9394873 19.2460795 13.9214553 19.3644145 13.8966613 19.4771145 13.865481 19.5950739 13.8346763 19.7062712 13.7974853 19.8189712 13.7587917 19.9312955 13.7159657 20.0364822 13.6656263 20.1427959 13.6167897 20.2483582 13.5608153 20.3546719 13.5044653 20.4598585 13.4421047 20.5590345 13.3801197 20.6597132 13.3489393 20.6965285 13.317759 20.7277089 13.2869543 20.7588892 13.2482607 20.7900695 13.2110697 20.8148635 13.1682437 20.8328955 13.1310527 20.8520545 13.081089 20.8712135 13.0367603 20.8772242 12.9935587 20.8832349 12.9432193 20.8892455 12.9003933 20.8892455 12.8560647 20.8832349 12.807228 20.8712135 12.7628993 20.8580652 12.7196977 20.8404089 12.6828823 20.8208742 12.638178 20.7960802 12.6013627 20.7705349 12.5701823 20.7393545 12.539002 20.7025392 12.5081973 20.6657239 12.4830277 20.6285329 12.4653713 20.5902149 12.4458367 20.5473889 12.4266777 20.5041872 12.420667 20.4598585 12.415032 20.4095192 12.4090213 20.3666932 12.4090213 20.3159782 12.415032 20.2731522 12.4266777 20.2303262 12.4402017 20.1859975 12.457858 20.1427959 12.477017 20.0984672 12.5021867 20.0616519 12.5585367 19.9741215 12.6073733 19.8926019 12.651702 19.8069499 12.694528 19.7122819 12.7392323 19.6262542 12.7760477 19.5330889 12.807228 19.4384209 12.8323977 19.3452555 12.8560647 19.2460795 12.8812343 19.1529142 12.9003933 19.0537382 12.912039 18.9526839 12.9195523 18.8595185 12.925563 18.7607182 12.925563 18.6611665 12.925563 18.5604879 12.9195523 18.4616875 12.906404 18.3621359 12.8943827 18.2689705 12.8752237 18.1697945 12.850054 18.0694915 12.826387 17.9759505 12.793704 17.8827852 12.7568887 17.7896199 12.7196977 17.6964545 12.6828823 17.6089242 12.632543 17.5217695 12.589717 17.4342392 12.533367 17.3467089 12.477017 17.2670675 12.420667 17.1855479 12.358682 17.1115415 12.2906863 17.0360325 12.226823 16.9620262 12.1528167 16.8925279 12.0788103 16.8316699 12.0033013 16.7621715 11.929295 16.7058215 11.8477753 16.6509742 11.7606207 16.5949999 11.673466 16.5446605 11.5874383 16.4939455 11.499908 16.4511195 11.4127533 16.4143042 11.319588 16.3774889 11.2264227 16.3463085 11.131379 16.3211389 11.0325787 16.2959692 10.9390377 16.2707995 10.8398617 16.2576512 10.739183 16.2456299 10.640007 16.2336085 10.540831 16.2336085 10.4476657 16.2275979 10.3484897 16.2336085 10.247811 16.2396192 10.148635 16.2516405 10.049459 16.2647889 9.95629367 16.2899585 9.855615 16.3076149 9.76244967 16.3387952 9.66890867 16.3695999 9.57574333 16.4007802 9.482578 16.4394739 9.39504767 16.4822999 9.307893 16.5251259 9.22036267 16.5754652 9.133208 16.6321909 9.053191 16.6881652 8.977682 16.7441395 8.896538 16.8065002 8.822156 16.8744959 8.75416033 16.9428672 8.68616467 17.0108629 8.61666633 17.0863719 8.55430567 17.1603782 8.49232067 17.2418979 8.43597067 17.3230419 8.387134 17.4030589 8.33679467 17.4905892 8.28645533 17.5777439 8.24926433 17.6652742 8.20643833 17.7584395 8.17563367 17.8516049 8.13694 17.9451459 8.113273 18.0383112 8.08810333 18.1386142 8.06894433 18.2317795 8.04978533 18.3313312 8.037764 18.4305072 8.03175333 18.5293075 8.02611833 18.6243512 8.02611833 18.7235272 8.03175333 18.8227032 8.037764 18.9218792 8.04978533 19.0225579 8.06894433 19.1217339 8.08810333 19.2152749 8.113273 19.3140752 8.13694 19.4072405 8.16812033 19.5019085 8.20643833 19.5950739 8.24362933 19.6886149 8.28645533 19.7746425 8.330784 19.8617972 8.37999633 19.9493275 8.43597067 20.0308472 8.49232067 20.1119912 8.54867067 20.1916325 8.61065567 20.2671415 8.67865133 20.3415235 8.74814967 20.4155299 8.816521 20.4846525 8.89052733 20.5473889 8.97167133 20.6093739 9.04567767 20.6717345 9.12719733 20.7277089 9.21472767 20.7780482 9.30188233 20.8268849 9.38941267 20.8772242 9.47656733 20.9140395 9.56973267 20.9572412 9.66327367 20.9895485 9.756439 21.0192262 9.84960433 21.0504065 9.94276967 21.0695655 9.993109 21.0812112 10.0303 21.1007459 10.073126 21.1199049 10.1174547 21.1450745 10.1546457 21.1687415 10.185826 21.2014245 10.2226413 21.2311022 10.247811 21.2694202 10.2789913 21.3066112 10.2981503 21.3438022 10.32332 21.3881309 10.3353413 21.4309569 10.3484897 21.4737829 10.3541247 21.5241222 10.3601353 21.5684509 10.3601353 21.6116525 10.3541247 21.6616162 10.3484897 21.7048179 10.3353413 21.7476439 10.3173093 21.7919725 10.2981503 21.8347985 10.2789913 21.8734922 10.247811 21.9103075 10.2226413 21.9474985 10.185826 21.9786789 10.1546457 22.0094835 10.1174547 22.0346532 10.073126 22.0598229 10.0303 22.0778549 9.98709833 22.0970139 9.94276967 22.1090352 9.89994367 22.1161729 9.84960433 22.1221835 9.80677833 22.1221835 9.76244967 22.1161729 9.71323733 22.1090352 9.600913 22.0778549 9.48858867 22.0466745 9.37588867 22.0154942 9.26469133 21.9722925 9.152367 21.9358529 9.04567767 21.8851379 8.94086667 21.8347985 8.83568 21.7859619 8.72899067 21.7299875 8.62981467 21.6676269 8.529136 21.6056419 8.43597067 21.5372705 8.34280533 21.4681479 8.24926433 21.3937659 8.156099 21.3182569 8.074955 21.2382399 7.98742467 21.1570959 7.90740767 21.0695655 7.825888 20.9824109 7.75225733 20.8963832 7.67674833 20.8017152 7.608377 20.7085499 7.546392 20.6093739 7.48403133 20.5101979 7.42204633 20.4095192 7.36569633 20.3043325 7.315357 20.1995215 7.26652033 20.0928322 7.216181 19.9861429 7.17936567 19.8749455 7.140672 19.7626212 7.10385667 19.6502969 7.07267633 19.5390995 7.04750667 19.4203889 7.02383967 19.3084402 7.00468067 19.1897295 6.99265933 19.0713945 6.979511 18.9601972 6.97350033 18.8418622 6.96748967 18.7235272 6.96748967 18.6051922 6.97350033 18.4864815 6.979511 18.3685222 6.99265933 18.2558222 7.01069133 18.1386142 7.02985033 18.0202792 7.05502 17.9079549 7.078687 17.7896199 7.10986733 17.6769199 7.14818533 17.5660982 7.18500067 17.4533982 7.22820233 17.3467089 7.27854167 17.2358872 7.328881 17.1291979 7.37771767 17.0243869 7.43970267 16.9237082 7.49605267 16.8241565 7.56404833 16.7253562 7.62791167 16.6261802 7.701918 16.5326392 7.76991367 16.4394739 7.85143333 16.3523192 7.93257733 16.2647889 8.01259433 16.1832692 8.094114 16.1032522 8.18126867 16.0221082 8.27480967 15.9465992 8.367975 15.8725929 8.46114033 15.8045972 8.56031633 15.7422365 8.660995 15.6798759 8.760171 15.6167639 8.86535767 15.5615409 8.97167133 15.5112015 9.07836067 15.4608622 9.18354733 15.4180362 9.29587167 15.3752102 9.407069 15.3365165 9.51939333 15.2997012 9.63209333 15.2745315 9.74441767 15.2433512 9.86125 15.2256949 9.97996067 15.2065359 10.092285 15.1873769 10.2109957 15.1813662 10.328955 15.1753555 10.4476657 15.1693449 10.5660007 15.1693449 10.6843357 15.1753555 10.795533 15.1813662 10.913868 15.1945145 11.0325787 15.2121709 11.150538 15.2317055 11.263238 15.2564995 11.3744353 15.2880555 11.4927703 15.3192359 11.6050947 15.3560512 11.711784 15.3928665 11.8229813 15.4371952 11.929295 15.4864075 12.0344817 15.5367469 12.141171 15.5852079 12.2399713 15.6486955 12.3466607 15.7039185 12.4402017 15.7734169 12.539002 15.8414125 12.632543 15.9097839 12.7257083 15.9849172 12.812863 16.0589235 12.9003933 16.1404432 12.981913 16.2204602 13.0615543 16.3076149 13.143074 16.3951452 13.2170803 16.4883105 13.2869543 16.5814759 13.35495 16.6750169 13.4229457 16.7753199 13.4849307 16.8744959 13.5412807 16.9740475 13.5976307 17.0803612 13.6539807 17.1855479 13.6968067 17.2918615 13.747146 17.3974239 13.7839613 17.5097482 13.8211523 17.6205699 13.8594703 17.7332699 13.8831373 17.8455942 13.9158203 17.9643049 13.9334767 18.0751265 13.9526357 18.1934615 13.964657 18.3117965 13.9778053 18.4244965 13.983816 18.5432072"></polygon>
                    </g>
                </g>
            </g>
        </g>
    </g>
</svg>