<?xml version="1.0" encoding="UTF-8"?>
<svg width="156px" height="123px" viewBox="0 0 156 123" version="1.1" xmlns="http://www.w3.org/2000/svg" xmlns:xlink="http://www.w3.org/1999/xlink">
    <title>防压疮</title>
    <defs>
        <path d="M141.787333,119.462097 L26.8333333,119.462097 C20.93,119.462097 16.1,114.632097 16.1,108.728764 L16.1,26.8334303 C16.1,20.9300969 20.93,16.1000969 26.8333333,16.1000969 L141.787333,16.1000969 C147.690667,16.1000969 152.520667,20.9300969 152.520667,26.8334303 L152.520667,108.78243 C152.520667,114.685764 147.74487,119.462097 141.787333,119.462097" id="path-1"></path>
        <filter x="-11.4%" y="-14.0%" width="122.7%" height="130.0%" filterUnits="objectBoundingBox" id="filter-2">
            <feOffset dx="0" dy="1" in="SourceAlpha" result="shadowOffsetOuter1"></feOffset>
            <feGaussianBlur stdDeviation="5" in="shadowOffsetOuter1" result="shadowBlurOuter1"></feGaussianBlur>
            <feColorMatrix values="0 0 0 0 0   0 0 0 0 0   0 0 0 0 0  0 0 0 0.1 0" type="matrix" in="shadowBlurOuter1"></feColorMatrix>
        </filter>
        <path d="M130.785667,70.0887636 L90.6966667,70.0887636 C86.8326667,70.0887636 83.72,66.9760969 83.72,63.1120969 L83.72,23.0767636 C83.72,19.2127636 86.8326667,16.1000969 90.6966667,16.1000969 L130.785667,16.1000969 C134.649667,16.1000969 137.762333,19.2127636 137.762333,23.0767636 L137.762333,63.1657636 C137.762333,66.9760969 134.596,70.0887636 130.785667,70.0887636" id="path-3"></path>
        <filter x="-14.8%" y="-13.0%" width="129.6%" height="129.6%" filterUnits="objectBoundingBox" id="filter-4">
            <feOffset dx="0" dy="1" in="SourceAlpha" result="shadowOffsetOuter1"></feOffset>
            <feGaussianBlur stdDeviation="2.5" in="shadowOffsetOuter1" result="shadowBlurOuter1"></feGaussianBlur>
            <feColorMatrix values="0 0 0 0 0.196078431   0 0 0 0 0.450980392   0 0 0 0 0.250980392  0 0 0 0.5 0" type="matrix" in="shadowBlurOuter1"></feColorMatrix>
        </filter>
    </defs>
    <g id="页面-1" stroke="none" stroke-width="1" fill="none" fill-rule="evenodd">
        <g id="padCard-床头卡" transform="translate(-1289.000000, -28.000000)">
            <g id="防压疮" transform="translate(1287.000000, 24.000000)">
                <g id="编组" transform="translate(-4.293333, -3.440097)">
                    <g id="Fill-2">
                        <use fill="black" fill-opacity="1" filter="url(#filter-2)" xlink:href="#path-1"></use>
                        <use fill="#FFFFFF" fill-rule="evenodd" xlink:href="#path-1"></use>
                    </g>
                    <g id="Fill-5">
                        <use fill="black" fill-opacity="1" filter="url(#filter-4)" xlink:href="#path-3"></use>
                        <use fill="#275F60" fill-rule="evenodd" xlink:href="#path-3"></use>
                    </g>
                </g>
                <g id="图标位置" transform="translate(90.160000, 22.856667)">
                    <g id="编组" transform="translate(0.000000, 0.000000)" fill="#FFB400" opacity="0">
                        <g id="图标背景底板60*60px" transform="translate(0.000000, 0.000000)">
                            <rect x="3.55271368e-15" y="3.55271368e-15" width="32.2" height="32.2"></rect>
                        </g>
                    </g>
                    <g id="编组-10" transform="translate(0.536667, 3.756667)" fill="#FEFEFE">
                        <polygon id="Fill-133" points="20.5268217 19.1492508 20.5096016 19.1369508 20.4537243 19.0919677 20.4315842 19.0743962 20.4122555 19.0589333 20.3932783 19.0413618 20.3757068 19.022736 20.3567296 19.0069217 20.3412666 18.9879444 20.321938 18.9703729 20.3047179 18.9513957 20.289255 18.9324185 20.2751978 18.9130898 20.2597348 18.8927069 20.2439205 18.8733782 20.2302147 18.8540496 20.2144004 18.8319095 20.2006946 18.8125808 20.188746 18.791495 20.1746888 18.7693549 20.1623887 18.7465119 20.1521972 18.7275347 20.1363829 18.7050432 20.1261914 18.6825517 20.1174056 18.6597087 20.1068627 18.6340543 20.0949141 18.6115628 20.0878855 18.5887198 20.077694 18.5679854 20.0689083 18.5419796 20.0618797 18.5194881 20.0548511 18.4969966 20.0464168 18.4706393 20.0393882 18.4484992 20.0358739 18.4224934 20.0288453 18.3996504 20.0235738 18.3736446 20.0204109 18.3511531 20.0168966 18.3251472 20.0133823 18.2991414 20.009868 18.2766499 20.009868 18.2506441 20.0063537 18.2246382 20.0063537 18.2021467 20.0028394 18.1757894 20.0028394 18.1497836 20.0028394 18.1241292 20.0063537 18.1016377 20.0063537 18.0752804 20.0063537 18.0492746 20.009868 18.0271345 20.0133823 18.0007773 20.0168966 17.9747714 20.0204109 17.9522799 20.0235738 17.9262741 20.0288453 17.9037825 20.0323596 17.8777767 20.0393882 17.8517709 20.0464168 17.8289279 20.0513368 17.8032735 20.0583654 17.7804306 20.065394 17.757939 20.077694 17.7319332 20.0843712 17.7094417 20.0913998 17.6869502 20.1033484 17.6658644 20.1138913 17.6398585 20.1261914 17.6177184 20.1328686 17.5948755 20.1469258 17.572384 20.1592258 17.5534067 20.1694173 17.5309152 20.1848802 17.5080722 20.1954231 17.4859321 20.2112375 17.4683606 20.2267004 17.4455177 20.2372433 17.4268919 20.2527062 17.4040489 20.2702777 17.3850717 20.2857407 17.3678516 20.3012036 17.348523 20.3187751 17.3295457 20.334238 17.3105685 20.3532152 17.2933484 20.3672725 17.2740198 20.3862497 17.2585569 20.4052269 17.2409854 20.4242041 17.2255224 20.4417756 17.2065452 20.4642672 17.1928394 20.4832444 17.1770251 20.502573 17.1615622 20.5250646 17.147505 20.5422846 17.132042 20.5647762 17.1179848 20.5841048 17.1060362 20.6065964 17.091979 20.6290879 17.0796789 20.6515794 17.0694875 20.6740709 17.0571874 20.6951567 17.0469959 20.7172968 17.0346959 20.7401398 17.024153 20.7626313 17.0174758 20.7851229 17.0051758 20.8111287 16.9981472 20.8339716 16.9911186 20.8561117 16.9791699 20.882469 16.9756556 20.9049605 16.9689785 20.9309663 16.9601927 20.9534579 16.9531641 20.9794637 16.9496498 21.0019552 16.9461355 21.0279611 16.9429726 21.0539669 16.9377012 21.0764584 16.9338354 21.1028157 16.9306726 21.1284701 16.9271583 21.151313 16.9271583 21.1773189 16.9271583 21.2033247 16.923644 21.2258162 16.923644 21.251822 16.923644 21.2778279 16.9271583 21.3003194 16.9271583 21.3263252 16.9271583 21.352331 16.9306726 21.375174 16.9338354 21.4008284 16.9377012 21.4271857 16.9429726 21.4493258 16.9461355 21.475683 16.9496498 21.4981745 16.9566784 21.5241804 16.9601927 21.5449147 16.9689785 21.5726777 16.9756556 21.5934121 16.9826842 21.6211751 16.9911186 21.6419095 16.9981472 21.6647524 17.0051758 21.6872439 17.0174758 21.7132498 17.0276673 21.7357413 17.0346959 21.7582328 17.0469959 21.7807243 17.0571874 21.8032159 17.0694875 21.8260588 17.0796789 21.9525737 17.1872166 22.0826028 17.2898341 22.2126319 17.3903432 22.3479325 17.4859321 22.481476 17.5794126 22.6202909 17.6732444 22.7573486 17.7614533 22.8996778 17.8482566 23.0398984 17.9333027 23.1857419 18.0162402 23.3315854 18.0946091 23.4774289 18.1691123 23.6264353 18.2401012 23.7754416 18.3093329 23.9283137 18.3775103 24.0808344 18.4411192 24.2333551 18.5036737 24.3862272 18.5591997 24.5440193 18.6164828 24.7000542 18.6688459 24.8596035 18.7173432 25.0173956 18.7605691 25.1769449 18.8023893 25.3368456 18.8438581 25.498152 18.8800554 25.6608642 18.9130898 25.8221706 18.9443671 25.9869913 18.9703729 26.1500549 18.9932159 26.3148756 19.015356 26.4779392 19.0329275 26.6427599 19.0448761 26.8058235 19.055419 26.9741585 19.0642048 27.1386278 19.0708819 27.3016913 19.0708819 27.4963836 19.0642048 27.690373 19.0522561 27.8847139 19.0364418 28.0772976 19.0192217 28.2716384 18.999893 28.4656279 18.9738872 28.6599687 18.9478814 28.8490381 18.9130898 29.0398646 18.8800554 29.2342055 18.8438581 29.4232749 18.798875 29.6105871 18.7535405 29.7996565 18.7050432 29.9869688 18.6565458 30.1725239 18.6006684 30.3598361 18.5419796 30.5453912 18.4815336 30.7291892 18.4154648 30.9115814 18.3479902 31.0901079 18.2766499 31.0901079 20.7363092 30.9565645 20.7742637 30.8212639 20.8072981 30.6877204 20.8368182 30.554177 20.8712584 30.4153621 20.9007785 30.2818186 20.9302986 30.1465181 20.9566559 30.0094603 20.9826617 29.8706454 21.0086675 29.737102 21.0308076 29.5982871 21.0536506 29.4612293 21.0761421 29.3262802 21.0951193 29.188871 21.1126909 29.0500561 21.1316681 28.9133498 21.1474824 28.7745349 21.1611882 28.6374772 21.1770026 28.4986623 21.187194 28.3616045 21.1994941 28.2227896 21.2096856 28.0857319 21.2184713 27.9434027 21.2251485 27.8049392 21.2325285 27.6678815 21.2356914 27.5290666 21.2392057 27.3920089 21.2444771 27.2496797 21.2444771 27.1129734 21.2444771 26.9741585 21.2392057 26.8371007 21.2392057 26.6982858 21.2356914 26.5594709 21.2286628 26.4188989 21.2216342 26.2804354 21.2131999 26.1430263 21.2065227 26.0042114 21.1956284 25.8675051 21.1836797 25.7286902 21.169974 25.5916324 21.1576739 25.4461404 21.1386967 25.3038112 21.1211252 25.161482 21.0986337 25.0209099 21.0761421 24.8754179 21.0501363 24.7330887 21.0241305 24.5925166 20.9946103 24.4537017 20.9633331 24.311724 20.9302986 24.1711519 20.8941013 24.032337 20.8557954 23.8952793 20.8195981 23.7529501 20.777778 23.6194067 20.7363092 23.4805918 20.6930833 23.343534 20.6442345 23.2082334 20.5957372 23.0711757 20.5472398 22.9358751 20.4952282 22.8026831 20.4397022 22.6687882 20.3824191 22.5370019 20.3268931 22.4069728 20.2682043 22.2769437 20.2035412 22.1469145 20.141338 22.0147768 20.0773778 21.8886134 20.0092003 21.7617471 19.9434829 21.6352323 19.872494 21.508366 19.8011537 21.3853655 19.7270019 21.2620135 19.6521473 21.139013 19.5741298 21.0191753 19.4957609 20.9014462 19.4128234 20.78196 19.3312916 20.6621223 19.2497599 20.5457989 19.1647138"></polygon>
                        <polygon id="Fill-135" points="-1.99764888e-14 24.9040946 31.0119498 24.9040946 31.0119498 22.088788 -1.99764888e-14 22.088788"></polygon>
                        <polygon id="Fill-137" points="30.8820261 16.3271617 30.8855404 16.4571908 30.8820261 16.5924914 30.8785118 16.7225205 30.8630489 16.856064 30.8472345 16.9860931 30.824743 17.1178794 30.7987372 17.2479085 30.7657028 17.3744234 30.729154 17.5048039 30.6876853 17.6278045 30.6391879 17.7546707 30.5906906 17.874157 30.5316503 17.9939947 30.4708529 18.1117237 30.4082983 18.2280471 30.1724887 18.3025503 29.9419506 18.3735392 29.7026267 18.4360937 29.4682228 18.4968911 29.2306561 18.5524171 28.9913321 18.6009144 28.7520082 18.6427346 28.5109272 18.6824462 28.268089 18.7119664 28.0252508 18.7379722 27.7841697 18.7604637 27.5378172 18.7762781 27.3016562 18.7864695 27.294979 18.7864695 27.0971239 18.7829552 26.8890772 18.7762781 26.6827878 18.7657352 26.477904 18.7467579 26.2733717 18.723915 26.0684879 18.6943949 25.8639556 18.6599547 25.6611805 18.623406 25.459811 18.5819372 25.258793 18.5330884 25.2517644 18.5313313 25.0574235 18.4779139 24.8595684 18.4188737 24.6669847 18.3549134 24.5959958 18.24351 24.5281698 18.1310524 24.4642095 18.0112147 24.4086835 17.8931342 24.3566719 17.7701337 24.3081745 17.6471331 24.2681115 17.5237812 24.2301571 17.393752 24.1971226 17.2672372 24.1676025 17.1354509 24.145111 17.0054218 24.1292966 16.8753926 24.1138337 16.745012 24.1068051 16.6097115 24.1068051 16.476168 24.1103194 16.3461389 24.1191051 16.2108383 24.1292966 16.0808091 24.1486253 15.95078 24.1746311 15.8207509 24.2041512 15.6903703 24.2368342 15.5620983 24.2751401 15.4355835 24.3201232 15.3090686 24.3686205 15.1857167 24.4209836 15.0676361 24.4796724 14.9481499 24.5404698 14.8283122 24.6065387 14.7172603 24.6810419 14.6048027 24.7555451 14.4969137 24.8370768 14.389376 24.9203658 14.288867 25.0089262 14.1866009 25.0988923 14.0945262 25.1962384 14.0010458 25.2967474 13.9124854 25.3972564 13.8295479 25.5012798 13.7476647 25.6140888 13.6731615 25.7216264 13.6021726 25.8361926 13.5343466 25.952516 13.4721435 26.0720022 13.4131032 26.1953542 13.3593344 26.3183548 13.3125942 26.445221 13.270774 26.5717359 13.2293053 26.6982507 13.1962708 26.8282798 13.1667507 26.9600661 13.1439077 27.0900953 13.1252819 27.2204758 13.1143876 27.3540193 13.102439 27.4858056 13.102439 27.619349 13.102439 27.7493781 13.1094676 27.8846787 13.1252819 28.0147079 13.1407449 28.144737 13.1632364 28.2716033 13.1927565 28.4016324 13.225791 28.5281473 13.2637454 28.6550135 13.303457 28.7780141 13.3523058 28.8978517 13.4043174 29.017338 13.4647634 29.1371756 13.5238037 29.2513904 13.5916297 29.3641995 13.6608614 29.4717371 13.7374732 29.5757604 13.8186535 29.6815409 13.9005368 29.7824013 13.9852314 29.8741246 14.0790633 29.9679564 14.1725437 30.0579225 14.2730527 30.1429686 14.3739131 30.2213375 14.4779364 30.2990036 14.585474 30.3703439 14.6982831 30.4378185 14.814255 30.5021302 14.9288213 30.5611704 15.0486589 30.6166964 15.1681452 30.6651938 15.2914971 30.7101768 15.418012 30.7467255 15.5445268 30.7850314 15.6713931 30.8145515 15.8014222 30.8370431 15.9314514 30.8560203 16.0614805 30.8697261 16.1932668"></polygon>
                        <polygon id="Fill-138" points="24.5924815 13.7930343 24.6135673 14.1015899 24.5439841 14.186636 24.4761581 14.2769535 24.4121978 14.3669197 24.3496433 14.4589943 24.2891973 14.5559891 24.2336714 14.6498209 24.1816597 14.7503299 24.1292966 14.8473246 24.0843136 14.9516994 24.0410877 15.0522084 23.9992675 15.1562317 23.9577987 15.260255 23.9247643 15.3663869 23.8952442 15.4735731 23.8639669 15.5811107 23.8379611 15.6904054 23.8172267 15.8014574 23.7982495 15.908995 23.7824351 16.021804 23.7806779 16.0358612 23.7687293 16.1289902 23.7599436 16.2421507 23.752915 16.3528512 23.752915 16.4656603 23.752915 16.5767122 23.7564293 16.6877641 23.7634579 16.8005731 23.7634579 16.8230647 23.7599436 16.8459076 23.7564293 16.8645334 23.7462378 16.8821049 23.7339377 16.9014336 23.7149605 16.9168965 23.7009033 16.9306023 23.6819261 16.9429023 23.6594346 16.9495795 23.636943 16.9530938 23.6193715 16.9530938 23.59688 16.9495795 23.5743885 16.9464166 23.5554112 16.9341166 23.5360826 16.9235737 23.5223768 16.9081108 23.5069139 16.8940536 23.496371 16.871562 23.4478736 16.7742159 23.395862 16.6775726 23.3385789 16.5802265 23.2830529 16.4863946 23.2240127 16.3946714 23.1632152 16.301191 23.0974978 16.2108734 23.0296718 16.1258273 23.0001517 16.0843586 22.9741458 16.0407813 22.9516543 15.9957982 22.9291628 15.9508151 22.9098341 15.9019664 22.8996427 15.853469 22.8873426 15.8049717 22.8806654 15.75296 22.8771511 15.7041112 22.8701225 15.4616244 22.8546596 15.2205434 22.835331 14.9773538 22.8093251 14.7366241 22.779805 14.4969488 22.7418505 14.2576249 22.7017875 14.0200581 22.6532902 13.7807342 22.6012785 13.5466818 22.5404811 13.3126293 22.4779265 13.0764683 22.4069377 12.8459301 22.3324345 12.6150406 22.254417 12.3880167 22.1676138 12.1592357 22.0790534 11.9371319 21.9820587 11.7132709 21.8815496 11.4929242 21.7775263 11.2725776 21.6647173 11.0610166 21.6506601 11.0329022 21.6316828 11.0160336 21.6091913 11.0002192 21.5831855 10.9896763 21.5536654 10.9865135 21.5276595 10.9865135 21.5016537 10.9896763 21.4756479 11.0002192 21.449642 11.0160336 21.4303134 11.0385251 21.4148505 11.0610166 21.404659 11.0870225 21.4007933 11.1130283 21.4007933 11.1425484 21.4443706 11.529473 21.5016537 11.9178032 21.5571797 12.3078907 21.6246542 12.6930581 21.693886 13.0799826 21.774012 13.4647986 21.8551924 13.8482088 21.9455099 14.2316191 22.0410989 14.6132722 22.1416079 14.9896538 22.1468794 15.0191739 22.1468794 15.0486941 22.1380936 15.0743485 22.1275507 15.1007057 22.1085735 15.1231972 22.086082 15.1425259 22.0635904 15.1562317 22.0375846 15.1681803 22.0080645 15.172046 21.9785444 15.1681803 21.9525385 15.159746 21.6995088 15.059237 21.4443706 14.9671623 21.1878266 14.8768447 20.9309312 14.7956644 20.6743872 14.7172955 20.4122204 14.6463066 20.1468906 14.5784806 19.99437 14.5422833 19.8868324 14.5162775 19.6211512 14.4589943 19.3540643 14.4069827 19.0887346 14.3634054 18.8198905 14.3219366 18.5510465 14.2889022 18.2807968 14.2576249 18.0116013 14.2316191 17.7427573 14.214399 17.4703989 14.2020989 17.1980406 14.1954218 16.9309537 14.1919075 16.6568382 14.1985846 16.3862371 14.2056132 16.1177445 14.2214276 15.8453861 14.2404048 15.5765421 14.2664106 15.3076981 14.2990936 15.2486578 14.2730878 15.1931318 14.2474334 15.1376059 14.2214276 15.0803228 14.1954218 15.0247968 14.1659016 14.9727852 14.1346244 14.9172592 14.1015899 14.8652475 14.0685555 14.8132359 14.0341153 14.7612242 14.0010809 14.7127269 13.9645322 14.6607152 13.9265777 14.6104607 13.8847575 14.5633691 13.8482088 14.518386 13.8067401 14.4698887 13.7635142 14.4245542 13.721694 14.3795711 13.6767109 14.3398595 13.6313764 14.2980394 13.5881505 14.2530563 13.5396532 14.2165076 13.4911558 14.1746874 13.4426585 14.1384901 13.3938097 14.1005356 13.341798 14.0675012 13.2933007 14.0291953 13.241289 13.9996752 13.1840059 13.9666408 13.1319943 13.9374721 13.0799826 13.9061948 13.0244566 13.8766747 12.9689307 13.8506688 12.9134047 13.80182 12.8009471 13.7603513 12.6895438 13.7202883 12.5732204 13.6823338 12.4572485 13.6492994 12.3426822 13.6197792 12.223196 13.5937734 12.1068726 13.5712819 11.9887921 13.5487904 11.8689545 13.532976 11.7498196 13.5227845 11.6264677 13.5104845 11.50663 13.5073216 11.3885495 13.5073216 11.2659004 13.5073216 11.1460627 13.5104845 11.0227108 13.5227845 10.9028731 13.532976 10.7837383 13.5523047 10.6621435 13.5712819 10.5423058 13.5937734 10.4259824 13.6180221 10.3184448 13.6303221 10.2769761 13.6492994 10.2179358 13.6717909 10.1571384 13.6753052 10.1539755 13.6753052 10.1469469 13.6788195 10.1399183 13.6823338 10.1311326 13.6823338 10.1244554 13.6858481 10.1209411 13.6858481 10.1139125 13.6907681 10.1054782 13.6907681 10.0980981 13.6907681 10.091421 13.6942824 10.0879067 13.6942824 10.0794723 13.6942824 10.0720923 13.6942824 10.0654151 13.6981482 10.0566294 13.6981482 10.0499522 13.6981482 10.0429236 13.6981482 10.0390579 13.6981482 10.0306236 13.6981482 10.023595 13.6981482 10.0169178 13.6981482 10.0095378 13.6981482 10.0011034 13.6981482 9.99407483 13.6942824 9.99091196 13.6942824 9.9821262 13.6942824 9.9750976 13.6942824 9.968069 13.6907681 9.96139183 13.6907681 9.95260607 13.6907681 9.9459289 13.6858481 9.94206317 13.6858481 9.93503457 13.6823338 9.92660025 13.6823338 9.91992307 13.6788195 9.91640877 13.6753052 9.90902874 13.6753052 9.90059442 13.6717909 9.89356582 13.668628 9.89040295 13.668628 9.88161719 13.6651137 9.87458859 13.6598423 9.86755999 13.656328 9.86404569 13.6528137 9.85561136 13.6492994 9.85209706 13.6457851 9.84506846 13.6422708 9.83803986 13.6373508 9.83276841 13.6338365 9.82609124 13.6303221 9.82257693 13.6268078 9.81554833 13.6232935 9.81203403 13.6197792 9.80324828 13.6109935 9.80008541 13.6078306 9.79657111 13.6043163 9.7895425 13.600802 9.78637963 13.5937734 9.77724245 13.5902591 9.77372815 13.5853391 9.77056528 13.5783105 9.76705098 13.5747962 9.75861665 13.5677676 9.75475092 13.5624961 9.75123662 13.555819 9.74772232 13.5523047 9.74420802 13.5452761 9.74104515 13.5417618 9.73753085 13.532976 9.7322594 13.5298131 9.72909653 13.5227845 9.72558222 13.5157559 9.72206792 13.5104845 9.71820219 13.5038073 9.71503932 13.4967787 9.71152502 13.4932644 9.71152502 13.4844787 9.70625357 13.4778015 9.70273927 13.4742872 9.70273927 13.4672586 9.6995764 13.4584728 9.6960621 13.4514442 9.6960621 13.4447671 9.69254779 13.4412528 9.69254779 13.432467 9.68868206 13.4257898 9.68868206 13.4187612 9.68551919 13.4099755 9.68551919 13.4064612 9.68551919 13.3994326 9.68551919 13.3927554 9.68024774 13.3839696 9.68024774 13.376941 9.68024774 13.3699124 9.68024774 13.3614781 9.68024774 13.3579638 9.68024774 13.3509352 9.68024774 13.344258 9.68024774 13.3354723 9.68024774 13.3284437 9.68024774 13.3214151 9.68024774 13.3147379 9.68024774 13.3094665 9.68024774 13.3024379 9.68551919 13.2954093 9.68551919 13.2883807 9.68551919 13.2799463 9.68868206 13.2729177 9.68868206 13.2694034 9.68868206 13.2606177 9.69254779 13.2539405 9.69254779 13.2469119 9.6960621 13.2398833 9.6995764 13.2349633 9.6995764 13.2279347 9.70273927 13.2209061 9.70273927 13.2138775 9.70625357 13.208606 9.71152502 13.2019288 9.71503932 13.1949002 9.71820219 13.1913859 9.71820219 13.1829516 9.72206792 13.175923 9.72558222 13.1724087 9.72909653 13.1653801 9.7322594 13.1601087 9.73753085 13.1534315 9.74104515 13.1495658 9.74420802 13.1428886 9.74772232 13.1376171 9.75475092 13.1305885 9.75861665 13.1270742 9.76353668 13.1203971 9.76705098 13.1168828 9.77056528 13.1116113 9.77724245 13.1049341 9.78075675 13.1010684 9.78637963 13.0979055 9.79305681 13.0908769 9.79657111 13.0856055 9.80008541 13.0820912 9.80676258 13.0785769 9.81203403 13.075414 9.81906263 13.0718997 9.82257693 13.0648711 9.82960554 13.0595997 9.83276841 13.0234024 9.92660025 13.0040737 9.9715833 12.9850965 10.0169178 12.967525 10.0619008 12.9485477 10.1054782 12.9330848 10.1504612 12.9225419 10.1729528 12.9141076 10.1986071 12.907079 10.2214501 12.9000504 10.2439416 12.8877503 10.2667846 12.8810732 10.2889247 12.8740446 10.3117676 12.867016 10.332502 12.8582302 10.3585078 12.851553 10.3809994 12.8445244 10.4034909 12.839253 10.4259824 12.8325758 10.4519883 12.8255472 10.4748312 12.8220329 10.4973227 12.8132471 10.5229771 12.8097328 10.5458201 12.8030557 10.5683116 12.7995414 10.5943175 12.7960271 10.616809 12.7872413 10.6393005 12.783727 10.6656578 12.7802127 10.6881493 12.7766984 10.7138037 12.7735355 10.7366466 12.7700212 10.7626525 12.7700212 10.7837383 12.7665069 10.8115013 12.7612355 10.8318842 12.7612355 10.85789 12.7577212 10.880733 12.7577212 10.9063874 12.7542069 10.9292303 12.7542069 10.9552362 12.7542069 10.9777277 12.7542069 11.0037335 12.751044 11.0297394 12.751044 11.0522309 12.751044 11.0782367 12.751044 11.1007282 12.751044 11.1267341 12.7542069 11.149577 12.7542069 11.1755828 12.7542069 11.1980744 12.7542069 11.2237288 12.7577212 11.2465717 12.7577212 11.2725776 12.7612355 11.2985834 12.7612355 11.3210749 12.7665069 11.3470807 12.7700212 11.3695723 12.7700212 11.3959295 12.7735355 11.4180696 12.7766984 11.4409126 12.7802127 11.4669184 12.783727 11.4894099 12.7872413 11.5154158 12.7925128 11.5379073 12.7960271 11.5639131 12.7995414 11.5867561 12.8030557 11.6124105 12.8062185 11.6331448 12.8097328 11.6559878 12.8185186 11.6819936 12.8220329 11.7044852 12.8255472 11.730491 12.8357387 11.7758255 12.8480387 11.8239714 12.8550673 11.8728202 12.867016 11.9213175 12.8775589 11.966652 12.8930218 12.0147979 12.9035647 12.0636467 12.9141076 12.1068726 12.9295705 12.15537 12.9415191 12.2042188 12.9555763 12.2488504 12.9626049 12.2716934 12.9710393 12.2976992 12.9780679 12.3205421 12.9850965 12.3426822 12.9938822 12.3655252 13.0005594 12.391531 13.007588 12.4136711 13.0163738 12.4365141 13.0234024 12.4572485 13.0300795 12.4800914 13.0423796 12.5022315 13.0490568 12.5250745 13.0560854 12.5510803 13.0648711 12.5732204 13.075414 12.5960633 13.0820912 12.6185549 13.0943912 12.6413978 13.1010684 12.6635379 13.1116113 12.6846237 13.1203971 12.7071153 13.1305885 12.7296068 13.1376171 12.7520983 13.1495658 12.7749413 13.1601087 12.7970814 13.1688944 12.8195729 13.1790859 12.8424158 13.1913859 12.8596359 13.2019288 12.8821275 13.2138775 12.9049704 13.2244204 12.9274619 13.2349633 12.9499535 13.2469119 12.972445 13.2574548 12.9917736 13.2694034 13.0139137 13.2799463 13.0367567 13.291895 13.0574911 13.3024379 13.0764683 13.3147379 13.0989598 13.3249294 13.1218028 13.3403923 13.14078 13.3509352 13.1632715 13.3614781 13.1840059 13.3892411 13.2258261 13.4152469 13.2672948 13.4412528 13.3070065 13.4672586 13.3488266 13.4932644 13.3902954 13.5192702 13.4303584 13.5452761 13.4721786 13.5747962 13.5136474 13.600802 13.553359 13.6268078 13.5916648 13.656328 13.6313764 13.6858481 13.6731966 13.7136111 13.7097454 13.7427798 13.7512141 13.7722999 13.7891686 13.80182 13.829583 13.8281773 13.8675375 13.857346 13.9072491 13.8886233 13.945555 13.9181434 13.9817523 13.9476635 14.0235724 13.9771837 14.0601212 14.0067038 14.0980756 14.0379811 14.1346244 14.0675012 14.1725788 14.1005356 14.214399 14.1592245 14.2889022 14.2200219 14.3634054 14.2825764 14.43826 14.3465367 14.5127631 14.405577 14.5907806 14.5285775 14.739787 14.6554438 14.8891448 14.7784443 15.036394 15.0283111 15.3351096 15.0732942 15.3730641 15.1186287 15.4145328 15.1600974 15.4577587 15.1966461 15.5030932 15.2293291 15.5515905 15.2641207 15.6004393 15.2936408 15.652451 15.3161324 15.7076255 15.3386239 15.7599886 15.3611154 15.8172717 15.3751726 15.876312 15.3874727 15.9314865 15.3941499 15.9922839 15.4011785 16.0513242 15.4011785 16.1103644 15.4011785 16.1711618 15.3941499 16.2302021 15.3874727 16.2853766 15.3716583 16.346174 15.3561954 16.4017 15.3386239 16.4572259 15.3126181 16.5141576 15.2869637 16.5665207 15.2556864 16.6185324 15.2261663 16.670544 15.1896175 16.7155271 15.1513117 16.758753 15.1098429 16.803736 15.066617 16.8459076 15.0212825 16.8821049 14.9727852 16.9168965 14.9242878 16.9495795 14.8722761 16.9790996 14.8167502 17.0019426 14.7647385 17.0240827 14.7074554 17.0469257 14.6484152 17.0606314 14.5928892 17.0729315 14.5324432 17.0799601 14.473403 17.0866373 14.4143627 17.0866373 14.3535653 17.083123 14.2945251 17.0799601 14.2389991 17.0694172 14.1785531 17.0571171 14.1226757 17.0398971 14.0675012 17.0209198 14.0119752 16.9980769 13.9582064 16.9724225 13.9061948 16.9429023 13.857346 16.9081108 13.8088486 16.871562 13.7656227 16.8332561 13.7202883 16.7935445 13.6823338 16.7485615 13.6457851 16.703227 13.4742872 16.4951804 13.3059522 16.2853766 13.1376171 16.0738157 12.9780679 15.8569833 12.8185186 15.6419081 12.6607265 15.4250757 12.5046915 15.2012147 12.3553337 14.9812195 12.2063274 14.7534928 12.0639982 14.5264689 11.9114775 14.3184223 11.7709055 14.1015899 11.6320906 13.8777289 11.5055757 13.6507051 11.3892524 13.4198155 11.2782004 13.1840059 11.1776914 12.9464392 11.0838596 12.703601 11.0023278 12.4572485 10.9278246 12.2073816 10.86035 11.9575148 10.8048241 11.7044852 10.7594896 11.4475898 10.7232923 11.1910458 10.696935 10.9341504 10.6779578 10.6723349 10.6660092 10.415791 10.692015 10.2316416 10.7264552 10.0531151 10.7717897 9.87458859 10.820287 9.6995764 10.8793273 9.52737564 10.9468018 9.35587775 11.0251708 9.19281418 11.1063511 9.02799346 11.200183 8.87195849 11.2971777 8.7190864 11.4047153 8.57043146 11.5157672 8.42458797 11.6356049 8.28753022 11.7621197 8.15574393 11.8974203 8.03414912 12.034478 7.91431145 12.1803215 7.80185382 12.3293279 7.69747907 12.4853629 7.60048436 12.6466693 7.51227541 12.8062185 7.42898647 12.9745536 7.35448329 13.1464029 7.29192873 13.3179008 7.23113132 13.4967787 7.18403969 13.6717909 7.14608524 13.8538317 7.11305081 14.0327096 7.09055928 14.2165076 7.07509635 14.3985484 7.07158205 14.5809406 7.07509635 14.7612242 7.31090596 14.9362364 7.54847271 15.1028143 7.78779661 15.2711493 8.03414912 15.4271843 8.27874447 15.5849764 8.52861128 15.7325771 8.78164096 15.8784205 9.04029352 16.016884 9.29683749 16.1507789 9.55689577 16.280808 9.82257693 16.4038086 10.091421 16.4227858 10.1244554 16.4487916 10.1571384 16.4747974 10.1884157 16.509589 10.2112586 16.5426235 10.2316416 16.5788208 10.2439416 16.6171266 10.2544845 16.6568382 10.2576474 16.6986584 10.2544845 16.7366129 10.2474559 16.7766759 10.2372645 16.8114675 10.2179358 16.8445019 10.1954443 16.874022 10.1659241 16.8965136 10.136404 16.9190051 10.1016124 16.934468 10.0654151 16.9414966 10.023595 16.9485252 9.98739765 16.989994 8.83576119 16.9935083 8.80448391 16.9970226 8.77144948 17.0040512 8.73841505 17.0124855 8.70889492 17.0265427 8.67761764 17.0384913 8.64809752 17.0525485 8.61857739 17.0715258 8.59257156 17.0943687 8.56656573 17.1133459 8.54091133 17.1393518 8.51806838 17.1618433 8.49909115 17.1878491 8.47659962 17.2173693 8.46254242 17.2433751 8.44707949 17.2728952 8.43126514 17.3076868 8.42107367 17.3368555 8.41404506 17.3698899 8.40525931 17.3994101 8.40174501 17.4342016 8.39823071 17.4672361 8.39823071 17.4999191 8.40174501 17.5311963 8.41088219 17.5642308 8.41755936 17.5937509 8.42458797 17.6229196 8.43653659 17.6541969 8.45059379 17.683717 8.46957102 17.7100743 8.48503395 17.7360801 8.50611975 17.7585716 8.52861128 17.7810631 8.55110281 17.8017975 8.57710863 17.8207748 8.60311446 17.8401034 8.62912029 17.8555663 8.66039757 17.8661092 8.6899177 17.8763007 8.7190864 17.8850865 8.75212083 17.8921151 8.78691241 17.8952779 8.81643254 17.8952779 8.84946697 17.907578 10.0531151 17.9110923 10.091421 17.9181209 10.1311326 17.9335838 10.169087 17.9511553 10.2021215 17.9736468 10.2316416 18.003167 10.2629189 18.0340928 10.2840047 18.0671273 10.3029819 18.103676 10.3184448 18.1451447 10.3289877 18.1834506 10.332502 18.2231622 10.3289877 18.2614681 10.3254734 18.2980168 10.3117676 18.3359713 10.292439 18.3654914 10.2734618 18.3950115 10.2439416 18.4210174 10.2144215 18.4399946 10.1799814 18.5633466 9.9645547 18.6898614 9.75123662 18.8269191 9.54319 18.9727626 9.34217198 19.1270405 9.14783113 19.2865897 8.95700458 19.4549248 8.77496378 19.6264226 8.59608586 19.8088149 8.42775084 19.9978843 8.2650387 20.1922251 8.1121666 20.3897288 7.96316024 20.5995326 7.82434534 20.8075792 7.6943162 21.024763 7.57096424 21.0939948 7.54179554 21.168498 7.51578971 21.2430011 7.49646105 21.3227758 7.48943245 21.4007933 7.48943245 21.4791622 7.49646105 21.5536654 7.51578971 21.6281685 7.53792981 21.693886 7.57096424 21.761712 7.61278442 21.8260237 7.66128177 21.8815496 7.71329343 22.086082 7.94383158 22.2871 8.17788403 22.4779265 8.41755936 22.6638331 8.66356044 22.8388453 8.91694155 23.0106946 9.17348553 23.172001 9.43600382 23.328036 9.70273927 23.4738795 9.9750976 23.6109372 10.2474559 23.7427235 10.5268429 23.8604526 10.8115013 23.9732616 11.0972139 24.077285 11.3885495 24.1746311 11.6819936 24.2596772 11.9768435 24.3376947 12.2752077 24.4051692 12.5770861 24.4642095 12.8786131 24.5179783 13.1804916 24.5576899 13.4876415"></polygon>
                        <polygon id="Fill-139" points="23.2637945 17.3069839 23.2637945 17.3484527 23.2602802 17.3853528 23.2536031 17.4233073 23.241303 17.459856 23.2272458 17.4978105 23.2117829 17.5308449 23.2015914 17.5498221 23.1857771 17.5687994 23.168557 17.5828566 23.1460655 17.5948052 23.1235739 17.6018338 23.100731 17.6053481 23.0782394 17.6053481 23.0557479 17.6053481 23.0332564 17.5983195 23.0107649 17.5863709 22.8614071 17.4942962 22.7124007 17.3973015 22.5683144 17.2967925 22.4259852 17.1927691 22.283656 17.0866373 22.1416782 16.9759368 22.0046205 16.8645334 21.9663146 16.8423933 21.9301173 16.8195504 21.8882971 16.8005731 21.8485855 16.7815959 21.8067653 16.7640244 21.7652966 16.7450472 21.725585 16.7292328 21.6837648 16.7155271 21.6419446 16.703227 21.5987187 16.6930355 21.5537356 16.6810869 21.5119155 16.6701926 21.4669324 16.6635154 21.4237065 16.658244 21.378372 16.6515668 21.3369033 16.6480525 21.2915688 16.6441868 21.2483429 16.6441868 21.2033598 16.6441868 21.1580253 16.6441868 21.1130423 16.6480525 21.0680592 16.6515668 21.0244819 16.6550811 20.9830131 16.6635154 20.9376787 16.6701926 20.8926956 16.6810869 20.852984 16.6877641 20.8076495 16.703227 20.7661808 16.7155271 20.7211977 16.7292328 20.6811347 16.7450472 20.6396659 16.758753 20.5996029 16.7780816 20.5581341 16.7970588 20.5198283 16.8195504 20.4801167 16.8367705 20.4418108 16.8596134 20.405262 16.8856192 20.3673076 16.9081108 20.3307589 16.9337652 20.2959673 16.9632853 20.2629329 16.9913997 20.2267356 17.0209198 20.1954583 17.05044 20.1624238 17.0799601 20.1329037 17.1144002 20.1033836 17.1439204 20.0721063 17.1804691 20.0429376 17.2149092 20.0169318 17.2479437 19.990926 17.2844924 19.9649201 17.3227983 19.9420772 17.3589956 19.9195856 17.3973015 19.8970941 17.4334988 19.879874 17.475319 19.8573825 17.5171391 19.8415682 17.5568507 19.8225909 17.5983195 19.8085337 17.6397882 19.7930708 17.6802027 19.7790136 17.7248343 19.767065 17.7666545 19.7568735 17.8102318 19.7494935 17.8517006 19.7410591 17.8970351 19.7340305 17.9420181 19.7273534 17.985244 19.7217305 18.0305785 19.7217305 18.0755616 19.7185676 18.1170303 19.7185676 18.1606077 19.7185676 18.2055907 19.7217305 18.2509252 19.7273534 18.2955568 19.7305162 18.3405399 19.7375448 18.3841172 19.7445734 18.4291003 19.7568735 18.4709205 19.7635507 18.5159035 19.7758507 18.5559665 19.7895565 18.6009496 19.8053709 18.6427698 19.8190766 18.6824814 19.8345396 18.7239501 19.8538682 18.7657703 19.8710883 18.8058333 19.8900655 18.8473021 19.912557 18.8834994 19.9354 18.9253196 19.9578915 18.9618683 19.9838973 18.9998228 20.0099032 19.0328572 20.035909 19.0711631 20.0619148 19.1038461 20.091435 19.1368805 20.1209551 19.1716721 20.1522324 19.2043551 20.1849154 19.2338752 20.2179498 19.2633953 20.2527414 19.2946726 20.2857758 19.3241928 20.3188102 19.3501986 20.3567647 19.3765558 20.3933134 19.4025617 20.8719612 19.7195516 21.4409266 20.0962847 21.4669324 20.1135048 21.4894239 20.1359963 21.5084012 20.1584878 21.5242155 20.1813308 21.5379213 20.2073366 21.5537356 20.2368567 21.5604128 20.268134 21.5639271 20.2973027 21.5674414 20.3268228 21.5674414 20.356343 21.5639271 20.3858631 21.5572499 20.4171404 21.5449499 20.4431462 21.5308927 20.4726663 21.5154298 20.4986722 21.4982097 20.5211637 21.478881 20.5436552 21.4532266 20.5612267 21.4303837 20.5766897 21.4008635 20.592504 21.3748577 20.6026955 21.3439319 20.6093727 21.3144117 20.612887 21.2848916 20.6181584 11.5991264 20.5991812 11.2712421 20.6181584 10.9380864 20.6388928 10.6137164 20.6771987 10.2861835 20.7190188 9.96146211 20.7706791 9.63744355 20.8297193 9.31623644 20.9010596 9.21256455 20.9200369 9.10467551 20.9305798 9.00100363 20.9337426 0.000175715054 20.9337426 0.000175715054 17.1214288 8.86886591 17.1214288 8.91384896 17.1179145 8.95918345 17.1179145 9.0041665 17.1144002 9.05266385 17.1059659 9.09624119 17.1024516 9.14122424 17.0950716 9.1862073 17.083123 9.23154178 17.0729315 9.27301053 17.0606314 9.31623644 17.0469257 9.35805662 17.0311113 9.4033911 17.0174055 9.4431027 16.9980769 9.48492289 16.9790996 9.52639164 16.9566081 9.56610324 16.9337652 9.60440912 16.9116251 9.64447216 16.8905393 9.68242661 16.8645334 9.71897534 16.8367705 9.75376692 16.8076018 9.78996422 16.7780816 9.8247558 16.7485615 9.85779023 16.7190414 9.88731036 16.6846012 9.96532784 16.6062323 10.0486168 16.5282148 10.1266343 16.4501973 10.208166 16.3721798 10.2896978 16.2976767 10.3726353 16.2228221 10.4576814 16.1518332 10.5427275 16.07733 10.6295307 16.0063411 10.7145768 15.9399208 10.8045429 15.8689319 10.8948605 15.8049717 10.9834209 15.7389028 11.073387 15.6745911 11.1654617 15.6106308 11.2589421 15.5480762 11.3527739 15.489036 11.4466057 15.42859 11.5436005 15.3695498 11.638838 15.3140238 11.7361842 15.2567407 11.8331789 15.2012147 11.9301736 15.1492031 12.031034 15.0971914 12.5652078 15.8274632 13.3439769 16.8940536 13.38896 16.9495795 13.4325373 17.0019426 13.4810346 17.0536028 13.529532 17.1024516 13.585058 17.1474347 13.6370696 17.1871463 13.697867 17.2258036 13.7569073 17.263758 13.8177047 17.2967925 13.8799078 17.3263126 13.9442195 17.3523184 14.0067741 17.3744585 14.0742487 17.3973015 14.1417232 17.4110072 14.2130636 17.4233073 14.2791324 17.4334988 14.3501213 17.4370131 14.4175959 17.4422845 14.4889362 17.4422845 14.5546536 17.4334988 14.6256425 17.4268216 14.6934685 17.4162787 14.7612945 17.3973015 14.827012 17.3779728 14.894838 17.3558327 14.9570411 17.3294755 15.0213528 17.2999553 15.0803931 17.2672723 15.1411905 17.2324808 15.196365 17.1927691 15.2522424 17.150949 15.3074169 17.1059659 15.3562657 17.0571171 15.404763 17.0086198 15.4497461 16.9566081 15.4950806 16.9014336 15.5312779 16.8459076 15.5692323 16.7851102 15.6022668 16.72607 15.6370583 16.6635154 15.6630642 16.5992037 15.6859071 16.5352434 15.7066415 16.4691746 15.7221044 16.4017 15.7375674 16.333874 15.7481103 16.2646422 15.7516246 16.1971677 15.7551389 16.1258273 15.7551389 16.0548385 15.7516246 15.9870125 15.744596 15.9177807 15.7326473 15.8499547 15.7185901 15.7824801 15.6996129 15.7167627 15.6771214 15.6485853 15.6507641 15.584625 15.2972254 14.7468156 15.2901968 14.7313527 15.2901968 14.7172955 15.2937111 14.7018325 15.3007397 14.6860182 15.3074169 14.6723124 15.3232313 14.6603638 15.3386942 14.6529838 15.3527514 14.6494695 15.5572837 14.6273294 15.7670875 14.6048378 15.9754855 14.5855092 16.1852893 14.5718034 16.3898216 14.5595034 16.5982197 14.5524748 16.8080235 14.5489605 17.0160701 14.5489605 17.2241167 14.5489605 17.4342719 14.5559891 17.6423185 14.5647748 17.8503652 14.5753177 18.0601689 14.5939435 18.2647013 14.6132722 18.4730993 14.634358 18.6829031 14.6603638 18.8874354 14.6912896 19.0923192 14.7208098 19.2968515 14.7573585 19.5034924 14.7956644 19.7080247 14.840296 19.912557 14.8838733 20.1139265 14.9323707 20.3152959 14.9847338 20.516314 15.0416655 20.717332 15.1007057 20.9151871 15.159746 21.1130423 15.2272206 21.310546 15.2946951 21.5084012 15.3695498 21.702742 15.4440529 21.8225797 15.5101218 21.9371459 15.5898964 22.0496035 15.6679139 22.1606554 15.7494457 22.2646787 15.8394118 22.3704592 15.9279722 22.4660482 16.0253183 22.5630429 16.122313 22.6568747 16.2263364 22.7419208 16.3307111 22.8283726 16.4431687 22.9063901 16.5542206 22.9812447 16.6701926 23.0522336 16.7900302 23.1197082 16.9081108 23.1787485 17.0311113 23.2346258 17.1576261 23.2465745 17.1962835 23.2567659 17.2324808 23.2602802 17.2704352"></polygon>
                        <polygon id="Fill-140" points="21.6125299 4.83567828 21.6160442 5.0402106 21.6125299 5.24158005 21.5900384 5.44611238 21.5605182 5.64748183 21.5155352 5.84533698 21.4600092 6.04319213 21.3886689 6.23401868 21.3071371 6.41922234 21.217171 6.60126314 21.1131477 6.77662676 20.9985815 6.94496178 20.8752295 7.10451105 20.7402804 7.2591403 20.5944369 7.40287522 20.4415648 7.53782438 20.2820155 7.66469065 20.1140319 7.77574256 19.9386683 7.87976587 19.7566275 7.97359771 19.5693153 8.05477806 19.3749744 8.12295551 19.1823907 8.18164433 18.9845356 8.22346452 18.7835175 8.25614752 18.5789852 8.27512474 18.3758586 8.28250477 18.1713263 8.27512474 17.9699568 8.25614752 17.7689388 8.22346452 17.5675694 8.18164433 17.3732285 8.12295551 17.1841591 8.05477806 16.9933326 7.97359771 16.8148061 7.87976587 16.6397939 7.77574256 16.4714589 7.66469065 16.3083953 7.53782438 16.1541175 7.40287522 16.0135454 7.2591403 15.8782448 7.10451105 15.75173 6.94496178 15.6371638 6.77662676 15.5363033 6.60126314 15.4428229 6.41922234 15.3612911 6.23401868 15.2938166 6.04319213 15.2330192 5.84533698 15.1897933 5.64748183 15.1602731 5.44611238 15.1409445 5.24158005 15.1325101 5.0402106 15.1409445 4.83567828 15.1602731 4.63466026 15.1897933 4.43329081 15.2330192 4.23192135 15.2938166 4.03758051 15.3612911 3.84359109 15.4428229 3.65768456 15.5363033 3.47775234 15.6371638 3.30238872 15.75173 3.13229655 15.8782448 2.97099013 16.0135454 2.81846946 16.1541175 2.6729774 16.3083953 2.53908253 16.4714589 2.41608199 16.6397939 2.29975862 16.8148061 2.19573531 16.9933326 2.1022549 17.1841591 2.02388599 17.3732285 1.95289711 17.5675694 1.89737115 17.7689388 1.8523881 17.9699568 1.81935367 18.1713263 1.80002501 18.3758586 1.79686214 18.5789852 1.80002501 18.7835175 1.81935367 18.9845356 1.8523881 19.1823907 1.89737115 19.3749744 1.95289711 19.5693153 2.02388599 19.7566275 2.1022549 19.9386683 2.19573531 20.1140319 2.29975862 20.2820155 2.41608199 20.4415648 2.53908253 20.5944369 2.6729774 20.7402804 2.81846946 20.8752295 2.97099013 20.9985815 3.13229655 21.1131477 3.30238872 21.217171 3.47775234 21.3071371 3.65768456 21.3886689 3.84359109 21.4600092 4.03758051 21.5155352 4.23192135 21.5605182 4.43329081 21.5900384 4.63466026"></polygon>
                        <polygon id="Fill-141" points="10.2895573 10.2111181 5.36356144 15.860357 0.435457046 10.2111181 3.02373979 10.2111181 3.02373979 5.88677059 7.7033831 5.88677059 7.7033831 10.2111181"></polygon>
                        <polygon id="Fill-142" points="3.02370465 5.17410547 7.70334796 5.17410547 7.70334796 4.04109481 3.02370465 4.04109481"></polygon>
                        <polygon id="Fill-143" points="3.02370465 3.61621581 7.70334796 3.61621581 7.70334796 2.19924961 3.02370465 2.19924961"></polygon>
                        <polygon id="Fill-144" points="3.02370465 1.55929539 7.70334796 1.55929539 7.70334796 0 3.02370465 0"></polygon>
                    </g>
                </g>
            </g>
        </g>
    </g>
</svg>