<?xml version="1.0" encoding="UTF-8"?>
<svg width="156px" height="123px" viewBox="0 0 156 123" version="1.1" xmlns="http://www.w3.org/2000/svg" xmlns:xlink="http://www.w3.org/1999/xlink">
    <title>防深静脉血栓</title>
    <defs>
        <path d="M141.787333,119.462097 L26.8333333,119.462097 C20.93,119.462097 16.1,114.632097 16.1,108.728764 L16.1,26.8334303 C16.1,20.9300969 20.93,16.1000969 26.8333333,16.1000969 L141.787333,16.1000969 C147.690667,16.1000969 152.520667,20.9300969 152.520667,26.8334303 L152.520667,108.78243 C152.520667,114.685764 147.74487,119.462097 141.787333,119.462097" id="path-1"></path>
        <filter x="-11.4%" y="-14.0%" width="122.7%" height="130.0%" filterUnits="objectBoundingBox" id="filter-2">
            <feOffset dx="0" dy="1" in="SourceAlpha" result="shadowOffsetOuter1"></feOffset>
            <feGaussianBlur stdDeviation="5" in="shadowOffsetOuter1" result="shadowBlurOuter1"></feGaussianBlur>
            <feColorMatrix values="0 0 0 0 0   0 0 0 0 0   0 0 0 0 0  0 0 0 0.1 0" type="matrix" in="shadowBlurOuter1"></feColorMatrix>
        </filter>
        <path d="M130.785667,70.0887636 L90.6966667,70.0887636 C86.8326667,70.0887636 83.72,66.9760969 83.72,63.1120969 L83.72,23.0767636 C83.72,19.2127636 86.8326667,16.1000969 90.6966667,16.1000969 L130.785667,16.1000969 C134.649667,16.1000969 137.762333,19.2127636 137.762333,23.0767636 L137.762333,63.1657636 C137.762333,66.9760969 134.596,70.0887636 130.785667,70.0887636" id="path-3"></path>
        <filter x="-14.8%" y="-13.0%" width="129.6%" height="129.6%" filterUnits="objectBoundingBox" id="filter-4">
            <feOffset dx="0" dy="1" in="SourceAlpha" result="shadowOffsetOuter1"></feOffset>
            <feGaussianBlur stdDeviation="2.5" in="shadowOffsetOuter1" result="shadowBlurOuter1"></feGaussianBlur>
            <feColorMatrix values="0 0 0 0 0.196078431   0 0 0 0 0.450980392   0 0 0 0 0.250980392  0 0 0 0.5 0" type="matrix" in="shadowBlurOuter1"></feColorMatrix>
        </filter>
    </defs>
    <g id="页面-1" stroke="none" stroke-width="1" fill="none" fill-rule="evenodd">
        <g id="padCard-床头卡" transform="translate(-565.000000, -28.000000)">
            <g id="防深静脉血栓" transform="translate(563.000000, 24.000000)">
                <g id="编组" transform="translate(-4.293333, -3.440097)">
                    <g id="Fill-2">
                        <use fill="black" fill-opacity="1" filter="url(#filter-2)" xlink:href="#path-1"></use>
                        <use fill="#FFFFFF" fill-rule="evenodd" xlink:href="#path-1"></use>
                    </g>
                    <g id="Fill-5">
                        <use fill="black" fill-opacity="1" filter="url(#filter-4)" xlink:href="#path-3"></use>
                        <use fill="#275F60" fill-rule="evenodd" xlink:href="#path-3"></use>
                    </g>
                </g>
                <g id="图标位置" transform="translate(90.160000, 22.856667)">
                    <g id="编组" transform="translate(0.000000, 0.000000)" fill="#FFB400" opacity="0">
                        <g id="图标背景底板60*60px" transform="translate(0.000000, 0.000000)">
                            <rect x="3.55271368e-15" y="3.55271368e-15" width="32.2" height="32.2"></rect>
                        </g>
                    </g>
                    <g id="Fill-132" transform="translate(7.513333, 0.000000)" fill="#FEFEFE">
                        <path d="M7.0649376,6.3936964 L7.0649376,6.3693532 L7.0649376,6.3468132 L7.0545692,6.3170604 L7.0473564,6.2927172 L7.0387912,6.2701772 L7.0320292,6.2476372 L7.0162512,6.2250972 L7.0004732,6.2003032 L6.9869492,6.1777632 L6.9711712,6.155674 L6.9571964,6.1326832 L6.9170752,6.0853492 L6.8787572,6.04072 L6.8422424,5.986624 L6.8021212,5.93929 L6.777778,5.91675 L6.7656064,5.8946608 L6.748476,5.87167 L6.732698,5.84913 L6.701142,5.795034 L6.678602,5.7481508 L6.6474968,5.6940548 L6.624506,5.6399588 L6.6091788,5.5881168 L6.586188,5.5407828 L6.5496732,5.4330416 L6.5100028,5.3271036 L6.4716848,5.2193624 L6.4248016,5.1111704 L6.3882868,5.0034292 L6.3414036,4.9038024 L6.2940696,4.7960612 L6.2507928,4.6901232 L6.2034588,4.589144 L6.1565756,4.483206 L6.1029304,4.3822268 L6.0731776,4.3371468 L6.0488344,4.2826 L6.0190816,4.23752 L5.9879764,4.1838748 L5.9564204,4.1365408 L5.9271184,4.0914608 L5.8955624,4.0445776 L5.8658096,3.9990468 L5.8365076,3.9521636 L5.7963864,3.9066328 L5.7652812,3.8602004 L5.7287664,3.8146696 L5.6954072,3.7763516 L5.6570892,3.7294684 L5.6205744,3.6839376 L5.580904,3.6456196 L5.504268,3.5626724 L5.4294352,3.4842332 L5.3424308,3.4003844 L5.258582,3.3237484 L5.1733808,3.2475632 L5.0899828,3.1776892 L5.0047816,3.1010532 L4.9141708,3.0244172 L4.8289696,2.954994 L4.7365556,2.878358 L4.5539816,2.740864 L4.5296384,2.7322988 L4.5070984,2.7322988 L4.4823044,2.725086 L4.4597644,2.7322988 L4.4390276,2.7322988 L4.4164876,2.7322988 L4.3921444,2.740864 L4.3678012,2.7480768 L4.3452612,2.7552896 L4.3312864,2.7706168 L4.3087464,2.7863948 L4.2911652,2.7954108 L4.2686252,2.8089348 L4.2546504,2.8337288 L4.23752,2.8472528 L4.2303072,2.871596 L4.2145292,2.8855708 L4.205964,2.9094632 L4.2005544,2.932454 L4.1937924,2.954994 L4.1829732,2.9779848 L4.1829732,3.002328 L4.1829732,3.0244172 L4.1829732,3.047408 L4.1829732,3.069948 L4.1829732,3.0942912 L4.1937924,3.1168312 L4.2005544,3.1393712 L4.205964,3.162362 L4.221742,3.1776892 L4.23752,3.20068 L4.2474376,3.2160072 L4.2596092,3.2385472 L4.2844032,3.2543252 L4.2979272,3.2701032 L4.3227212,3.2854304 L4.3380484,3.2926432 L4.3623916,3.3016592 L4.4755424,3.3782952 L4.5837344,3.4459152 L4.6914756,3.5153384 L4.7523336,3.5536564 L4.7992168,3.5919744 L4.8533128,3.6302924 L4.906958,3.6686104 L4.961054,3.7069284 L5.0047816,3.7452464 L5.0584268,3.7921296 L5.1057608,3.8299968 L5.1508408,3.8755276 L5.197724,3.9138456 L5.242804,3.9611796 L5.2914904,4.0062596 L5.328456,4.0531428 L5.3681264,4.1072388 L5.4046412,4.1523188 L5.4429592,4.205964 L5.472712,4.2605108 L5.5128332,4.3055908 L5.542586,4.3664488 L5.5736912,4.420094 L5.603444,4.47419 L5.6277872,4.5368512 L5.6570892,4.589144 L5.6814324,4.6518052 L5.7111852,4.7126632 L5.7337252,4.7735212 L5.7580684,4.8361824 L5.7824116,4.8974912 L5.8189264,5.0187564 L5.8658096,5.1427264 L5.9023244,5.2644424 L5.9442488,5.3947236 L5.9654364,5.4573848 L5.9807636,5.5186936 L5.9879764,5.5497988 L5.9947384,5.5791008 L5.9947384,5.6174188 L5.9947384,5.6489748 L5.9947384,5.68008 L5.9947384,5.6940548 L5.9947384,5.7098328 L5.9947384,5.7256108 L5.9879764,5.7481508 L5.9879764,5.7639288 L5.9807636,5.7797068 L5.9740016,5.795034 L5.9654364,5.810812 L5.9564204,5.824336 L5.9496584,5.840114 L5.9442488,5.84913 L5.9338804,5.8563428 L5.9199056,5.87167 L5.9113404,5.87167 L5.8955624,5.878432 L5.8906036,5.887448 L5.8730224,5.887448 L5.8572444,5.887448 L5.8504824,5.887448 L5.8365076,5.878432 L5.8189264,5.878432 L5.8035992,5.87167 L5.7878212,5.87167 L5.7720432,5.862654 L5.7580684,5.8563428 L5.7422904,5.84913 L5.7039724,5.833352 L5.6746704,5.810812 L5.603444,5.7706908 L5.5669292,5.7481508 L5.5371764,5.7256108 L5.504268,5.7098328 L5.46595,5.6872928 L5.434394,5.6715148 L5.4046412,5.6557368 L5.3681264,5.6399588 L5.335218,5.6331968 L5.3041128,5.6174188 L5.27436,5.6106568 L5.242804,5.5953296 L5.213502,5.5881168 L5.1837492,5.5791008 L5.1508408,5.5723388 L5.1197356,5.5637736 L5.0899828,5.5637736 L5.0291248,5.5570116 L4.9682668,5.5497988 L4.906958,5.5407828 L4.8447476,5.5407828 L4.7820864,5.5340208 L4.7207776,5.5340208 L4.6617228,5.5340208 L4.5972584,5.5340208 L4.5364004,5.5340208 L4.4755424,5.5340208 L4.4061192,5.5340208 L4.3452612,5.5407828 L4.2753872,5.5407828 L4.2145292,5.5497988 L4.1469092,5.5570116 L4.0860512,5.5637736 L4.0229392,5.5723388 L3.953516,5.5791008 L3.8944612,5.5953296 L3.8232348,5.6020916 L3.761926,5.6174188 L3.6997156,5.6331968 L3.6384068,5.6557368 L3.5775488,5.6715148 L3.5166908,5.6940548 L3.4540296,5.718398 L3.3931716,5.7413888 L3.3323136,5.7639288 L3.2714556,5.7864688 L3.2105976,5.810812 L3.1565016,5.840114 L3.0938404,5.862654 L3.0397444,5.8946608 L2.9860992,5.925766 L2.9320032,5.948306 L2.8711452,5.9794112 L2.8170492,6.0177292 L2.763404,6.0470312 L2.731848,6.06326 L2.702546,6.0853492 L2.6782028,6.101578 L2.64845,6.1236672 L2.616894,6.1484612 L2.594354,6.1710012 L2.571814,6.193992 L2.5578392,6.2093192 L2.5474708,6.2160812 L2.5407088,6.2318592 L2.533496,6.2476372 L2.5249308,6.2634152 L2.5181688,6.2787424 L2.5091528,6.2859552 L2.5091528,6.3017332 L2.5091528,6.3170604 L2.5037432,6.3310352 L2.5037432,6.3553784 L2.5037432,6.3693532 L2.5091528,6.3846804 L2.5091528,6.4009092 L2.5181688,6.4162364 L2.5249308,6.4320144 L2.5249308,6.4477924 L2.533496,6.4613164 L2.5474708,6.4775452 L2.5578392,6.4928724 L2.5632488,6.4996344 L2.578576,6.5158632 L2.587592,6.5244284 L2.6015668,6.5379524 L2.616894,6.5469684 L2.62591,6.5537304 L2.6398848,6.5627464 L2.655212,6.5627464 L2.67099,6.5695084 L2.686768,6.5695084 L2.702546,6.5762704 L2.725086,6.5762704 L2.7561912,6.5762704 L2.785944,6.5762704 L2.824262,6.5762704 L2.8571704,6.5762704 L2.8936852,6.5695084 L2.9252412,6.5695084 L2.9545432,6.5627464 L2.9860992,6.5537304 L3.0190076,6.5469684 L3.0487604,6.5379524 L3.0798656,6.5311904 L3.1393712,6.5158632 L3.2020324,6.4928724 L3.2624396,6.4703324 L3.3255516,6.4477924 L3.4387024,6.4009092 L3.5532056,6.3468132 L3.678528,6.3017332 L3.732624,6.2701772 L3.793482,6.2476372 L3.85434,6.2250972 L3.915198,6.2093192 L3.9846212,6.1867792 L4.04593,6.1710012 L4.106788,6.155674 L4.167646,6.139896 L4.23752,6.1236672 L4.2979272,6.117356 L4.3623916,6.10834 L4.4286592,6.101578 L4.4913204,6.0943652 L4.5539816,6.0853492 L4.6130364,6.0853492 L4.6756976,6.0853492 L4.7365556,6.0853492 L4.8064296,6.0943652 L4.8600748,6.0943652 L4.9213836,6.101578 L4.9817908,6.117356 L5.0430996,6.1236672 L5.1057608,6.139896 L5.1666188,6.155674 L5.2274768,6.1710012 L5.2914904,6.1867792 L5.357758,6.2003032 L5.4222224,6.2250972 L5.4830804,6.2386212 L5.5511512,6.2634152 L5.6138124,6.2859552 L5.6814324,6.3084952 L5.7495032,6.3396004 L5.7824116,6.3468132 L5.8121644,6.3625912 L5.8419172,6.3783692 L5.8572444,6.3846804 L5.8730224,6.3936964 L5.8802352,6.4094744 L5.8955624,6.4162364 L5.9023244,6.4229984 L5.9113404,6.4392272 L5.9271184,6.4477924 L5.9271184,6.4613164 L5.9338804,6.4775452 L5.9442488,6.4861104 L5.9442488,6.4996344 L5.9496584,6.5158632 L5.9496584,6.5311904 L5.9496584,6.5469684 L5.9496584,6.5627464 L5.9496584,6.5762704 L5.9496584,6.6145884 L5.9442488,6.6461444 L5.9338804,6.6844624 L5.9271184,6.7538856 L5.9113404,6.8151944 L5.9023244,6.8846176 L5.8906036,6.9454756 L5.8730224,7.0058828 L5.8658096,7.0689948 L5.8504824,7.1298528 L5.8365076,7.1907108 L5.8189264,7.2515688 L5.8035992,7.31423 L5.7878212,7.3755388 L5.7652812,7.4363968 L5.7495032,7.4986072 L5.7287664,7.559916 L5.7039724,7.620774 L5.6746704,7.6901972 L5.6503272,7.7510552 L5.6345492,7.7821604 L5.6205744,7.8119132 L5.5962312,7.8434692 L5.580904,7.8660092 L5.5669292,7.8971144 L5.542586,7.9282196 L5.526808,7.9512104 L5.504268,7.9737504 L5.4830804,7.9967412 L5.46595,8.0188304 L5.4429592,8.0431736 L5.411854,8.0589516 L5.389314,8.0733772 L5.3681264,8.0887044 L5.335218,8.1044824 L5.3041128,8.1116952 L5.281122,8.1270224 L5.2500168,8.1355876 L5.220264,8.1355876 L5.1891588,8.1428004 L5.1508408,8.1500132 L5.1197356,8.1500132 L5.0584268,8.1581276 L4.9908068,8.1581276 L4.9213836,8.1653404 L4.8533128,8.1653404 L4.7906516,8.1811184 L4.7207776,8.1874296 L4.6617228,8.2036584 L4.5972584,8.2194364 L4.5364004,8.2347636 L4.4755424,8.2577544 L4.4164876,8.2802944 L4.3520232,8.3041868 L4.2979272,8.3343904 L4.23752,8.3564796 L4.1829732,8.3880356 L4.122566,8.4191408 L4.06847,8.4488936 L4.014374,8.4872116 L3.953516,8.5187676 L3.9012232,8.5498728 L3.847578,8.5881908 L3.793482,8.6265088 L3.7398368,8.6562616 L3.6925028,8.695932 L3.5847616,8.772568 L3.486938,8.849204 L3.3846064,8.92584 L3.2854304,9.009238 L3.1876068,9.0944392 L3.0852752,9.178288 L2.9928612,9.2702512 L2.9477812,9.3085692 L2.900898,9.3554524 L2.8571704,9.4009832 L2.8102872,9.4546284 L2.763404,9.5001592 L2.725086,9.5542552 L2.686768,9.6006876 L2.67099,9.6304404 L2.64845,9.6547836 L2.632672,9.6845364 L2.616894,9.7156416 L2.6015668,9.7386324 L2.587592,9.7697376 L2.571814,9.8012936 L2.5578392,9.8305956 L2.5474708,9.8617008 L2.533496,9.8914536 L2.5249308,9.9230096 L2.5181688,9.9541148 L2.5091528,9.9924328 L2.5037432,10.0221856 L2.495178,10.0532908 L2.495178,10.0916088 L2.4866128,10.122714 L2.4866128,10.161032 L2.495178,10.1907848 L2.495178,10.2065628 L2.495178,10.22189 L2.5037432,10.237668 L2.5037432,10.2538968 L2.5091528,10.2674208 L2.5181688,10.2831988 L2.5249308,10.298526 L2.533496,10.314304 L2.5407088,10.3215168 L2.5578392,10.336844 L2.5632488,10.34586 L2.578576,10.3598348 L2.594354,10.3679492 L2.6119352,10.384178 L2.62591,10.39094 L2.6398848,10.3981528 L2.655212,10.4062672 L2.67099,10.41348 L2.686768,10.422496 L2.702546,10.429258 L2.725086,10.429258 L2.740864,10.438274 L2.7561912,10.438274 L2.7787312,10.4445852 L2.7945092,10.4445852 L2.8102872,10.4445852 L2.824262,10.4445852 L2.8486052,10.4445852 L2.8643832,10.4445852 L2.8779072,10.4445852 L2.8936852,10.438274 L2.9112664,10.438274 L2.9252412,10.429258 L2.9320032,10.422496 L2.9477812,10.41348 L2.9653624,10.4062672 L2.9721244,10.3981528 L2.9793372,10.384178 L2.9860992,10.375162 L3.0014264,10.3598348 L3.0086392,10.352622 L3.0190076,10.336844 L3.0190076,10.3215168 L3.0262204,10.307542 L3.0397444,10.275986 L3.0487604,10.2448808 L3.0555224,10.2065628 L3.0798656,10.1371396 L3.0852752,10.1073868 L3.0938404,10.0690688 L3.1096184,10.0375128 L3.1163804,10.0064076 L3.1339616,9.9698928 L3.1479364,9.9383368 L3.1565016,9.9072316 L3.1704764,9.8846916 L3.1930164,9.8531356 L3.2105976,9.8233828 L3.2241216,9.7922776 L3.2471124,9.7697376 L3.2624396,9.7386324 L3.2854304,9.7156416 L3.3079704,9.6931016 L3.3255516,9.6705616 L3.3462884,9.6390056 L3.3706316,9.6164656 L3.4157116,9.5695824 L3.4698076,9.5312644 L3.5166908,9.4857336 L3.5707868,9.4474156 L3.6248828,9.4090976 L3.678528,9.3707796 L3.732624,9.3396744 L3.78672,9.3013564 L3.838562,9.2702512 L3.8944612,9.2404984 L3.9449508,9.2093932 L3.998596,9.178288 L4.052692,9.1485352 L4.106788,9.1169792 L4.160884,9.0944392 L4.221742,9.063334 L4.2753872,9.0403432 L4.3312864,9.0178032 L4.3921444,8.9939108 L4.4530024,8.97092 L4.5138604,8.94838 L4.5747184,8.932602 L4.6445924,8.910062 L4.7158188,8.894284 L4.7820864,8.8789568 L4.8533128,8.8631788 L4.8898276,8.8631788 L4.9281456,8.855966 L4.9682668,8.849204 L4.9975688,8.849204 L5.0358868,8.849204 L5.0516648,8.849204 L5.0674428,8.849204 L5.0814176,8.849204 L5.0967448,8.849204 L5.1125228,8.855966 L5.130104,8.855966 L5.1440788,8.8631788 L5.1508408,8.871744 L5.1666188,8.8789568 L5.1733808,8.887522 L5.1837492,8.894284 L5.1891588,8.9028492 L5.197724,8.9172748 L5.2049368,8.92584 L5.213502,8.9411672 L5.213502,8.9555928 L5.220264,8.97092 L5.220264,8.986698 L5.220264,9.0020252 L5.220264,9.0178032 L5.2274768,9.047556 L5.2274768,9.085874 L5.220264,9.124192 L5.213502,9.2021804 L5.2049368,9.2702512 L5.197724,9.3468872 L5.1891588,9.4163104 L5.1837492,9.4857336 L5.1837492,9.5470424 L5.1733808,9.6164656 L5.1666188,9.6773236 L5.1666188,9.7386324 L5.159406,9.8012936 L5.159406,9.8617008 L5.159406,9.9230096 L5.159406,9.9838676 L5.1666188,10.0375128 L5.1733808,10.0988216 L5.1837492,10.1682448 L5.1891588,10.2291028 L5.2049368,10.2913132 L5.2274768,10.422496 L5.2500168,10.5527772 L5.267598,10.620848 L5.27436,10.6902712 L5.281122,10.7511292 L5.2914904,10.8205524 L5.2914904,10.8521084 L5.2914904,10.8818612 L5.2914904,10.9129664 L5.2914904,10.9445224 L5.2914904,10.9738244 L5.2914904,11.0121424 L5.2914904,11.0432476 L5.281122,11.0730004 L5.27436,11.1045564 L5.267598,11.1361124 L5.258582,11.1654144 L5.2500168,11.1965196 L5.242804,11.2190596 L5.2274768,11.2506156 L5.220264,11.2821716 L5.2049368,11.3114736 L5.1891588,11.3340136 L5.1666188,11.3651188 L5.1508408,11.3881096 L5.1350628,11.4192148 L5.1125228,11.4417548 L5.0967448,11.4733108 L5.0516648,11.5183908 L5.0133468,11.5724868 L4.9682668,11.6198208 L4.9213836,11.66445 L4.8672876,11.7099808 L4.8204044,11.7482988 L4.7748736,11.78842 L4.7207776,11.826738 L4.6671324,11.871818 L4.6130364,11.903374 L4.5679564,11.941692 L4.4597644,12.018328 L4.3520232,12.0877512 L4.2474376,12.1553712 L4.1396964,12.2320072 L4.030152,12.3014304 L3.976056,12.3329864 L3.9224108,12.3622884 L3.8683148,12.3942952 L3.8074568,12.4326132 L3.7533608,12.4547024 L3.6925028,12.4862584 L3.6316448,12.5155604 L3.5707868,12.5403544 L3.5081256,12.5628944 L3.4770204,12.5786724 L3.4472676,12.5849836 L3.4157116,12.5939996 L3.3846064,12.6012124 L3.3548536,12.6079744 L3.3255516,12.6169904 L3.2939956,12.6233016 L3.2538744,12.6233016 L3.2241216,12.6233016 L3.1930164,12.6323176 L3.1637144,12.6323176 L3.1235932,12.6323176 L3.0938404,12.6233016 L3.0627352,12.6233016 L3.0262204,12.6169904 L2.9928612,12.6079744 L2.9653624,12.6012124 L2.9252412,12.5849836 L2.8936852,12.5786724 L2.8643832,12.5628944 L2.7945092,12.5313384 L2.763404,12.5155604 L2.725086,12.5087984 L2.69353,12.5020364 L2.6782028,12.4930204 L2.6660312,12.4930204 L2.64845,12.4862584 L2.632672,12.4862584 L2.616894,12.4862584 L2.6015668,12.4930204 L2.594354,12.4930204 L2.578576,12.4930204 L2.5632488,12.5020364 L2.5474708,12.5087984 L2.5407088,12.5245764 L2.5249308,12.5313384 L2.5181688,12.5403544 L2.5037432,12.5556816 L2.495178,12.5696564 L2.4866128,12.5849836 L2.4798508,12.6012124 L2.4708348,12.6169904 L2.4708348,12.6323176 L2.4640728,12.6462924 L2.4640728,12.6616196 L2.4640728,12.6773976 L2.4640728,12.6936264 L2.4640728,12.7089536 L2.4640728,12.7247316 L2.4708348,12.7382556 L2.4708348,12.7630496 L2.4798508,12.7765736 L2.4866128,12.7923516 L2.495178,12.8013676 L2.5091528,12.8306696 L2.533496,12.8622256 L2.5578392,12.8915276 L2.578576,12.9158708 L2.6015668,12.9388616 L2.62591,12.9609508 L2.64845,12.9839416 L2.6782028,13.0082848 L2.702546,13.0308248 L2.731848,13.0466028 L2.7561912,13.06193 L2.785944,13.0759048 L2.8170492,13.0916828 L2.8486052,13.1074608 L2.8779072,13.1232388 L2.9112664,13.1300008 L2.939216,13.1457788 L2.9721244,13.1525408 L3.0014264,13.1615568 L3.0311792,13.1683188 L3.0627352,13.176884 L3.0938404,13.176884 L3.1235932,13.1840968 L3.1565016,13.1840968 L3.1930164,13.192662 L3.2241216,13.192662 L3.2854304,13.192662 L3.3548536,13.192662 L3.4157116,13.1840968 L3.486938,13.176884 L3.5464436,13.1683188 L3.6073016,13.1615568 L3.6699628,13.1525408 L3.7398368,13.1457788 L3.793482,13.138566 L3.85434,13.1300008 L3.915198,13.1232388 L3.976056,13.1074608 L4.030152,13.1006988 L4.0928132,13.0849208 L4.1469092,13.0691428 L4.1762112,13.06193 L4.205964,13.0466028 L4.23752,13.0375868 L4.2686252,13.0222596 L4.2979272,13.0150468 L4.3227212,12.9992688 L4.3520232,12.9839416 L4.3853824,12.9699668 L4.4164876,12.9541888 L4.4457896,12.9316488 L4.4755424,12.9158708 L4.5070984,12.8915276 L4.5454164,12.8689876 L4.5747184,12.8459968 L4.6076268,12.8239076 L4.6373796,12.8013676 L4.6671324,12.7698116 L4.7054504,12.7382556 L4.7365556,12.7089536 L4.7748736,12.6773976 L4.8357316,12.6169904 L4.906958,12.5466656 L4.9750288,12.4862584 L5.0047816,12.4547024 L5.0358868,12.4163844 L5.0674428,12.3942952 L5.0967448,12.3622884 L5.130104,12.3329864 L5.159406,12.3086432 L5.1837492,12.2861032 L5.213502,12.2635632 L5.2378452,12.2410232 L5.258582,12.2252452 L5.281122,12.2094672 L5.2969,12.2027052 L5.3041128,12.1936892 L5.312678,12.1869272 L5.328456,12.1869272 L5.335218,12.1797144 L5.3424308,12.1797144 L5.350996,12.1711492 L5.357758,12.1711492 L5.3681264,12.1711492 L5.3753392,12.1711492 L5.3807488,12.1711492 L5.389314,12.1797144 L5.396076,12.1797144 L5.4046412,12.1869272 L5.4046412,12.1936892 L5.411854,12.1936892 L5.411854,12.2027052 L5.4222224,12.2162292 L5.4222224,12.2252452 L5.4294352,12.2320072 L5.4294352,12.2477852 L5.4294352,12.2635632 L5.4294352,12.2703252 L5.4294352,12.2861032 L5.4294352,12.3176592 L5.4294352,12.3559772 L5.4294352,12.3852792 L5.4222224,12.4637184 L5.4222224,12.5313384 L5.411854,12.6079744 L5.4046412,12.6706356 L5.4046412,12.7382556 L5.396076,12.8013676 L5.389314,12.8622256 L5.3807488,12.9839416 L5.3681264,13.1074608 L5.357758,13.1683188 L5.350996,13.23098 L5.3424308,13.291838 L5.335218,13.3531468 L5.3212432,13.413554 L5.312678,13.483428 L5.2969,13.5438352 L5.2914904,13.6069472 L5.27436,13.6678052 L5.258582,13.7372284 L5.242804,13.7985372 L5.2274768,13.8593952 L5.213502,13.9198024 L5.1891588,13.9896764 L5.1733808,14.0505344 L5.1508408,14.1131956 L5.130104,14.1740536 L5.1057608,14.2353624 L5.0814176,14.2975728 L5.0516648,14.3584308 L5.0291248,14.4125268 L4.9975688,14.4733848 L4.9750288,14.5346936 L4.9434728,14.5883388 L4.8830656,14.711858 L4.8204044,14.817796 L4.7590956,14.9345532 L4.7054504,15.040942 L4.6445924,15.1486832 L4.5904964,15.2564244 L4.5589404,15.3105204 L4.5364004,15.3713784 L4.5070984,15.4322364 L4.4913204,15.4633416 L4.4755424,15.4935452 L4.4669772,15.5246504 L4.4530024,15.5629684 L4.4390276,15.5940736 L4.4218972,15.6323916 L4.4164876,15.6621444 L4.3989064,15.7004624 L4.3921444,15.7401328 L4.3853824,15.7698856 L4.3853824,15.7856636 L4.3853824,15.8009908 L4.3853824,15.8167688 L4.3853824,15.8311944 L4.3853824,15.8465216 L4.3853824,15.8550868 L4.3921444,15.8695124 L4.3921444,15.8776268 L4.3989064,15.8934048 L4.4061192,15.9006176 L4.4164876,15.9073796 L4.4218972,15.9159448 L4.4286592,15.9231576 L4.4457896,15.9317228 L4.4530024,15.9389356 L4.4669772,15.9389356 L4.4823044,15.94705 L4.4998856,15.94705 L4.5138604,15.9542628 L4.5296384,15.9542628 L4.5454164,15.9542628 L4.5589404,15.9542628 L4.5972584,15.9614756 L4.6373796,15.9614756 L4.6756976,15.9542628 L4.7158188,15.9542628 L4.7590956,15.9542628 L4.7699148,15.9542628 L4.7748736,15.94705 L4.7820864,15.9389356 L4.7906516,15.9317228 L4.906958,15.7315676 L5.0133468,15.5399776 L5.076008,15.4408016 L5.130104,15.3402732 L5.1837492,15.2406464 L5.2274768,15.1329052 L5.281122,15.0337292 L5.335218,14.9345532 L5.3807488,14.833574 L5.4294352,14.725382 L5.472712,14.619444 L5.5195952,14.5184648 L5.5597164,14.4125268 L5.603444,14.3047856 L5.6413112,14.1970444 L5.6746704,14.0888524 L5.7111852,13.9829144 L5.7422904,13.8679604 L5.7720432,13.7602192 L5.8035992,13.6452652 L5.8261392,13.537524 L5.8504824,13.429332 L5.8730224,13.3148288 L5.8955624,13.1998748 L5.9113404,13.0916828 L5.9271184,12.9771796 L5.9338804,12.8622256 L5.9442488,12.7540336 L5.9496584,12.6390796 L5.9496584,12.5245764 L5.9564204,12.4096224 L5.9564204,12.2946684 L5.9496584,12.1869272 L5.9496584,12.0719732 L5.9442488,11.9570192 L5.9338804,11.8407128 L5.9271184,11.6108048 L5.9023244,11.3881096 L5.8906036,11.1582016 L5.8730224,10.9355064 L5.8572444,10.7055984 L5.8504824,10.5978572 L5.8504824,10.4829032 L5.8419172,10.3679492 L5.8419172,10.2538968 L5.8365076,10.1457048 L5.8365076,10.0307508 L5.8365076,9.9157968 L5.8365076,9.8012936 L5.8419172,9.6845364 L5.8419172,9.5695824 L5.8504824,9.4546284 L5.8572444,9.3396744 L5.8658096,9.2247204 L5.8802352,9.1097664 L5.8955624,8.9939108 L5.9113404,8.8789568 L5.9271184,8.7640028 L5.9496584,8.6490488 L5.9740016,8.5413076 L6.0037544,8.4263536 L6.0190816,8.3722576 L6.0348596,8.3186124 L6.0488344,8.2640656 L6.0646124,8.2122236 L6.0817428,8.1500132 L6.0957176,8.1044824 L6.1182576,8.0503864 L6.1358388,7.9967412 L6.1565756,7.9426452 L6.1723536,7.8885492 L6.1966968,7.8434692 L6.2192368,7.7893732 L6.2417768,7.7442932 L6.2647676,7.6901972 L6.2868568,7.6428632 L6.3098476,7.5977832 L6.3414036,7.544138 L6.3634928,7.4986072 L6.3950488,7.451724 L6.4248016,7.406644 L6.4491448,7.3597608 L6.4784468,7.31423 L6.5100028,7.266896 L6.541108,7.2222668 L6.579426,7.1749328 L6.6091788,7.1298528 L6.640284,7.0762076 L6.678602,7.0306768 L6.7115104,6.9837936 L6.748476,6.9296976 L6.7863432,6.8846176 L6.8246612,6.8372836 L6.8945352,6.7313456 L6.9328532,6.6772496 L6.946828,6.6547096 L6.9711712,6.6303664 L6.9869492,6.6006136 L7.0004732,6.5762704 L7.0108416,6.5469684 L7.0252672,6.5244284 L7.0320292,6.4996344 L7.0473564,6.4703324 L7.0473564,6.4477924 L7.0545692,6.4162364 L7.0649376,6.3936964 Z M14.3025316,12.6773976 L14.3025316,12.6390796 L14.3025316,12.6079744 L14.2957696,12.5786724 L14.2817948,12.5466656 L14.2574516,12.5155604 L14.2416736,12.4930204 L14.2101176,12.4772424 L14.1875776,12.4637184 L14.1560216,12.4547024 L14.1339324,12.4547024 L14.1023764,12.4547024 L14.0726236,12.4637184 L14.0415184,12.4700296 L13.9716444,12.5020364 L13.9040244,12.5313384 L13.8431664,12.5556816 L13.7732924,12.5786724 L13.7056724,12.5849836 L13.634446,12.5939996 L13.573588,12.5939996 L13.503714,12.5939996 L13.442856,12.5849836 L13.381998,12.5696564 L13.3193368,12.5556816 L13.190408,12.5087984 L13.0741016,12.4547024 L12.9523856,12.4006064 L12.8441936,12.3397484 L12.6214984,12.2027052 L12.4055652,12.063408 L12.198648,11.919152 L12.090456,11.8407128 L11.9917308,11.7640768 L11.892104,11.6874408 L11.7915756,11.5950268 L11.7077268,11.5030636 L11.6626468,11.4507708 L11.6225256,11.3971256 L11.5842076,11.3430296 L11.5544548,11.2884828 L11.5305624,11.2348376 L11.5075716,11.1739796 L11.4850316,11.1131216 L11.4764664,11.0504604 L11.4710568,10.9896024 L11.4642948,10.9287444 L11.4642948,10.8588704 L11.4710568,10.7984632 L11.4764664,10.6672804 L11.5008096,10.5369992 L11.5251528,10.4062672 L11.5476928,10.275986 L11.5688804,10.1457048 L11.5842076,10.0221856 L11.5927728,9.9000188 L11.5842076,9.7764996 L11.5792488,9.6547836 L11.5688804,9.5312644 L11.5544548,9.3937704 L11.5391276,9.254924 L11.5251528,9.101652 L11.51794,9.0335812 L11.5251528,8.9637072 L11.5305624,8.932602 L11.5391276,8.910062 L11.5544548,8.887522 L11.5688804,8.8631788 L11.5927728,8.849204 L11.6157636,8.8406388 L11.6383036,8.833426 L11.6766216,8.8248608 L11.741086,8.8248608 L11.8159188,8.833426 L11.961978,8.855966 L12.099472,8.887522 L12.2315564,8.92584 L12.35192,8.97092 L12.4682264,9.0178032 L12.5849836,9.063334 L12.6927248,9.1169792 L12.7973104,9.178288 L12.9050516,9.2404984 L13.0127928,9.3085692 L13.1209848,9.3779924 L13.228726,9.4546284 L13.327902,9.5398296 L13.420316,9.6304404 L13.465396,9.6845364 L13.503714,9.7386324 L13.542032,9.7922776 L13.573588,9.8463736 L13.6046932,9.9072316 L13.634446,9.9698928 L13.6583384,10.0375128 L13.672764,10.1073868 L13.6966564,10.1772608 L13.7124344,10.2448808 L13.7349744,10.298526 L13.7507524,10.330082 L13.7732924,10.352622 L13.7962832,10.3679492 L13.8206264,10.384178 L13.8431664,10.3981528 L13.8742716,10.4062672 L13.9112372,10.41348 L13.9423424,10.41348 L13.9824636,10.4062672 L14.0117656,10.3981528 L14.0798364,10.375162 L14.1195068,10.3598348 L14.1443008,10.34586 L14.1736028,10.3215168 L14.1943396,10.298526 L14.2191336,10.275986 L14.2326576,10.2448808 L14.2484356,10.2155788 L14.2574516,10.183572 L14.2642136,10.122714 L14.2574516,10.0532908 L14.2484356,9.9838676 L14.2326576,9.9157968 L14.2101176,9.8531356 L14.1875776,9.7922776 L14.1650376,9.7314196 L14.1339324,9.6773236 L14.0956144,9.6236784 L14.0189784,9.5159372 L13.9333264,9.4163104 L13.8499284,9.3243472 L13.7507524,9.2319332 L13.6583384,9.1485352 L13.4604372,8.9794852 L13.2584788,8.817648 L13.052914,8.6648268 L12.8374316,8.5255296 L12.7292396,8.4574588 L12.6147364,8.3947976 L12.4979792,8.3343904 L12.3830252,8.2802944 L12.2613092,8.2347636 L12.13779,8.1964456 L12.0156232,8.1653404 L11.8835388,8.1428004 L11.6157636,8.1270224 L11.5544548,8.1198096 L11.4940476,8.1116952 L11.4313864,8.0972696 L11.3772904,8.0733772 L11.3231944,8.0431736 L11.2781144,8.0048556 L11.2312312,7.9584232 L11.1947164,7.9043272 L11.1545952,7.8502312 L11.1162772,7.7979384 L11.0621812,7.6676572 L11.008536,7.544138 L10.970218,7.4219712 L10.9319,7.2989028 L10.9021472,7.1749328 L10.8705912,7.0532168 L10.8412892,6.9296976 L10.816946,6.7989656 L10.794406,6.6686844 L10.778628,6.6006136 L10.778628,6.5311904 L10.778628,6.4996344 L10.7871932,6.4703324 L10.794406,6.4477924 L10.8119872,6.4229984 L10.8322732,6.4009092 L10.855264,6.3783692 L10.9089092,6.3468132 L10.9787832,6.3170604 L11.046854,6.2927172 L11.1771352,6.2476372 L11.3096704,6.2003032 L11.4313864,6.1619852 L11.5544548,6.1326832 L11.6766216,6.101578 L11.8001408,6.0853492 L11.9218568,6.070022 L12.045376,6.06326 L12.1706984,6.06326 L12.2996272,6.070022 L12.4299084,6.0853492 L12.5516244,6.10834 L12.6823564,6.139896 L12.8076788,6.1777632 L12.9275916,6.2250972 L13.052914,6.2701772 L13.289584,6.3693532 L13.4063412,6.4162364 L13.5280572,6.4613164 L13.6430112,6.4996344 L13.7124344,6.5158632 L13.7732924,6.5311904 L13.8346012,6.5379524 L13.9040244,6.5469684 L13.9716444,6.5469684 L14.0415184,6.5379524 L14.0726236,6.5311904 L14.1023764,6.5158632 L14.1267196,6.4996344 L14.1492596,6.4775452 L14.1736028,6.4545544 L14.1875776,6.4229984 L14.2033556,6.3936964 L14.2191336,6.3625912 L14.2191336,6.3310352 L14.2191336,6.3017332 L14.2191336,6.2701772 L14.2101176,6.2386212 L14.1943396,6.2093192 L14.1736028,6.1867792 L14.1339324,6.1326832 L14.0798364,6.0853492 L14.0189784,6.0470312 L13.9648824,6.0087132 L13.9040244,5.9794112 L13.7962832,5.91675 L13.6813292,5.862654 L13.5681784,5.8022468 L13.4500688,5.756716 L13.3351148,5.7030708 L13.2147512,5.6647528 L13.0894288,5.6264348 L12.9591476,5.5881168 L12.8284156,5.5637736 L12.7048964,5.5407828 L12.5746152,5.5254556 L12.4438832,5.5186936 L12.313602,5.5096776 L12.18287,5.5096776 L12.061154,5.5096776 L11.9376348,5.5186936 L11.8159188,5.5186936 L11.6923996,5.5340208 L11.5688804,5.5570116 L11.5075716,5.5723388 L11.4467136,5.5881168 L11.3858556,5.6106568 L11.3231944,5.6399588 L11.2551236,5.6715148 L11.1857004,5.7098328 L11.046854,5.795034 L10.9855452,5.833352 L10.95444,5.84913 L10.9246872,5.8563428 L10.8953852,5.862654 L10.8656324,5.87167 L10.8412892,5.87167 L10.816946,5.8563428 L10.794406,5.840114 L10.771866,5.824336 L10.7574404,5.795034 L10.74031,5.7639288 L10.733548,5.7323728 L10.724532,5.6940548 L10.724532,5.6331968 L10.733548,5.5637736 L10.74031,5.5024648 L10.816946,5.2504676 L10.8953852,5.0034292 L10.9855452,4.7509812 L11.0328792,4.636478 L11.0847212,4.512508 L11.1406204,4.40657 L11.2014784,4.2898128 L11.2695492,4.1838748 L11.3457344,4.0828956 L11.4241736,3.9904816 L11.51794,3.9003216 L11.6085508,3.8079076 L11.6991616,3.7294684 L11.8001408,3.6456196 L11.907882,3.5694344 L12.1238152,3.4233752 L12.3447072,3.2768652 L12.3988032,3.2475632 L12.4438832,3.2092452 L12.4840044,3.162362 L12.5065444,3.108266 L12.5223224,3.05417 L12.5308876,2.993312 L12.5133064,2.932454 L12.4979792,2.878358 L12.4682264,2.8247128 L12.4299084,2.779182 L12.3762632,2.7480768 L12.3221672,2.7169716 L12.2680712,2.7097588 L12.2072132,2.702546 L12.144552,2.7169716 L11.7915756,3.00909 L11.6157636,3.1551492 L11.4467136,3.3084212 L11.2848764,3.4612424 L11.1248424,3.6302924 L11.0567716,3.7159444 L10.9787832,3.7988916 L10.9089092,3.8913056 L10.8480512,3.9832688 L10.7871932,4.0756828 L10.724532,4.1680968 L10.663674,4.2672728 L10.6100288,4.3664488 L10.5108528,4.5751692 L10.4184388,4.7825372 L10.3332376,4.9962164 L10.2493888,5.2121496 L10.1714004,5.4190668 L10.1330824,5.5254556 L10.0947644,5.6331968 L10.0496844,5.7323728 L9.9901788,5.833352 L9.9572704,5.887448 L9.9257144,5.9329788 L9.8513324,6.024942 L9.7746964,6.1236672 L9.7345752,6.1710012 L9.70347,6.2160812 L9.6804792,6.2634152 L9.6737172,6.3084952 L9.6665044,6.3625912 L9.6737172,6.4094744 L9.6804792,6.4613164 L9.70347,6.5158632 L9.7273624,6.5695084 L9.7571152,6.6145884 L9.8337512,6.7223296 L9.9117396,6.8233088 L9.9798104,6.9229356 L10.0564464,7.0221116 L10.1276728,7.1145256 L10.1867276,7.2064888 L10.3106976,7.390866 L10.3643428,7.490042 L10.4184388,7.582456 L10.4725348,7.6744192 L10.5176148,7.774046 L10.5626948,7.8745744 L10.602816,7.9809632 L10.6429372,8.0887044 L10.679452,8.1964456 L10.74031,8.4105756 L10.7871932,8.6332708 L10.8322732,8.8631788 L10.8656324,9.0944392 L10.8881724,9.3243472 L10.9021472,9.5542552 L10.9089092,9.7850648 L10.916122,10.0149728 L10.9089092,10.237668 L10.9089092,10.467576 L10.8953852,10.6902712 L10.8705912,11.1424236 L10.8412892,11.5950268 L10.823708,11.826738 L10.816946,12.056646 L10.8119872,12.2793412 L10.8119872,12.5087984 L10.823708,12.7382556 L10.8480512,12.9609508 L10.877804,13.1840968 L10.916122,13.406792 L10.970218,13.6294872 L11.0328792,13.8521824 L11.1004992,14.0663124 L11.1771352,14.2890076 L11.2623364,14.4963756 L11.3457344,14.711858 L11.4467136,14.91021 L11.5544548,15.117578 L11.6626468,15.3172824 L11.770388,15.5174376 L11.9917308,15.9073796 L12.0300488,15.9317228 L12.1170532,15.9317228 L12.191886,15.9317228 L12.2613092,15.9317228 L12.2906112,15.9231576 L12.3221672,15.9159448 L12.3447072,15.9073796 L12.3690504,15.8934048 L12.3830252,15.8776268 L12.3933936,15.8550868 L12.3988032,15.8311944 L12.4055652,15.8082036 L12.4055652,15.7766476 L12.3988032,15.7473456 L12.3830252,15.6779224 L12.3604852,15.6012864 L12.3289292,15.5318632 L12.3063892,15.4705544 L12.275284,15.4006804 L12.2522932,15.3488384 L12.191886,15.2320812 L12.076932,15.018402 L11.9534128,14.7957068 L11.8384588,14.5730116 L11.7776008,14.4508448 L11.7235048,14.3358908 L11.6694088,14.2123716 L11.6225256,14.0888524 L11.5842076,13.9671364 L11.5476928,13.8368552 L11.51794,13.7128852 L11.4850316,13.5911692 L11.4642948,13.460888 L11.4399516,13.336918 L11.4174116,13.2066368 L11.3998304,13.0916828 L11.3772904,12.8459968 L11.3633156,12.7157156 L11.3565536,12.5849836 L11.3389724,12.4479404 L11.3389724,12.3713044 L11.3317596,12.3014304 L11.3317596,12.2703252 L11.3389724,12.2410232 L11.3389724,12.2162292 L11.3457344,12.1936892 L11.3565536,12.1797144 L11.3633156,12.1643872 L11.3772904,12.1553712 L11.3858556,12.1553712 L11.3998304,12.1553712 L11.4241736,12.1553712 L11.4399516,12.1643872 L11.4642948,12.1711492 L11.5008096,12.2027052 L11.5544548,12.2410232 L11.6085508,12.2861032 L11.6694088,12.3397484 L11.7307176,12.4006064 L11.7915756,12.4637184 L11.9322252,12.5939996 L12.061154,12.7157156 L12.1305772,12.7765736 L12.191886,12.8239076 L12.2613092,12.8689876 L12.3221672,12.9073056 L12.3830252,12.9456236 L12.4438832,12.9771796 L12.5065444,12.9992688 L12.5606404,13.0222596 L12.6823564,13.0533648 L12.7973104,13.0849208 L12.9158708,13.1006988 L13.0357836,13.1142228 L13.1606552,13.1300008 L13.289584,13.1457788 L13.420316,13.1615568 L13.542032,13.1615568 L13.6114552,13.1525408 L13.672764,13.1457788 L13.7421872,13.138566 L13.8030452,13.1142228 L13.8675096,13.1006988 L13.9283676,13.0759048 L13.9824636,13.0466028 L14.0415184,13.0082848 L14.0956144,12.9699668 L14.1443008,12.9316488 L14.1875776,12.8775528 L14.2326576,12.8239076 L14.2727788,12.7698116 L14.2867536,12.7382556 L14.2957696,12.7089536 L14.3025316,12.6773976 Z M17.1966676,31.4315792 L17.1966676,31.4626844 L17.1894548,31.5010024 L17.1894548,31.5307552 L17.1736768,31.6006292 L17.15294,31.6700524 L17.1200316,31.7309104 L17.0902788,31.7917684 L17.0519608,31.8458644 L17.0136428,31.8995096 L16.9735216,31.9468436 L12.4979792,31.9468436 L12.3447072,31.8544296 L12.275284,31.8003336 L12.2072132,31.7466884 L12.13779,31.6925924 L12.099472,31.6614872 L12.0697192,31.6384964 L12.0404172,31.6091944 L12.007058,31.5690732 L11.9759528,31.5393204 L11.9534128,31.5082152 L11.9218568,31.4698972 L11.8993168,31.4315792 L11.87858,31.3932612 L11.8542368,31.3549432 L11.8384588,31.3166252 L11.824484,31.2783072 L11.8073536,31.2399892 L11.7915756,31.1935568 L11.7843628,31.148026 L11.7776008,31.109708 L11.770388,31.0628248 L11.770388,31.017294 L11.7618228,30.9325436 L11.7618228,30.841482 L11.7618228,30.7495188 L11.7528068,30.6571048 L11.7528068,30.6187868 L11.7528068,30.5719036 L11.7460448,30.5268236 L11.741086,30.4885056 L11.7307176,30.4416224 L11.7167428,30.4033044 L11.6991616,30.3649864 L11.68699,30.3266684 L11.6626468,30.2883504 L11.6383036,30.2500324 L11.6157636,30.2117144 L11.5842076,30.1806092 L11.5544548,30.1508564 L11.51794,30.1197512 L11.4764664,30.0967604 L11.4399516,30.0742204 L11.3998304,30.0498772 L11.3633156,30.0340992 L11.2781144,29.9957812 L11.2397964,29.973692 L11.2014784,29.9507012 L11.1649636,29.9281612 L11.1473824,29.9123832 L11.1316044,29.897056 L11.1162772,29.881278 L11.1108676,29.8668524 L11.0937372,29.8515252 L11.0847212,29.8289852 L11.0707464,29.8132072 L11.0621812,29.788864 L11.0621812,29.766324 L11.0567716,29.743784 L11.0567716,29.7207932 L11.046854,29.6982532 L11.046854,29.6743608 L11.046854,29.65137 L11.0567716,29.62883 L11.0567716,29.60629 L11.0621812,29.5819468 L11.0707464,29.567972 L11.0779592,29.5436288 L11.0847212,29.5210888 L11.0937372,29.5053108 L11.1108676,29.4895328 L11.1406204,29.4512148 L11.1699224,29.4219128 L11.2312312,29.3520388 L11.2623364,29.3204828 L11.2934416,29.2911808 L11.3024576,29.2754028 L11.3164324,29.2528628 L11.3231944,29.2375356 L11.3389724,29.2217576 L11.3457344,29.1992176 L11.3565536,29.1834396 L11.3633156,29.1379088 L11.3700776,29.0995908 L11.3772904,29.0527076 L11.3772904,29.0076276 L11.3772904,28.9607444 L11.3858556,28.7759164 L11.3858556,28.5933424 L11.3930684,28.4089652 L11.3930684,28.23135 L11.3998304,28.0559888 L11.4101988,27.8779228 L11.4174116,27.7025616 L11.4241736,27.3576996 L11.4399516,27.0114852 L11.4467136,26.667074 L11.4642948,26.3204088 L11.4642948,26.1518096 L11.4642948,25.9759976 L11.4642948,25.7988332 L11.4642948,25.6225704 L11.4642948,25.4539712 L11.4642948,25.3615572 L11.4539264,25.27861 L11.4539264,25.186196 L11.4467136,25.100544 L11.4399516,25.0085808 L11.4241736,24.924732 L11.4101988,24.8399816 L11.3930684,24.7475676 L11.3700776,24.6637188 L11.3457344,24.5870828 L11.3164324,24.5023324 L11.2848764,24.4184836 L11.2551236,24.3418476 L11.2154532,24.2566464 L11.1771352,24.1800104 L11.1316044,24.1038252 L11.0937372,24.018624 L11.046854,23.941988 L11.0031264,23.865352 L10.95444,23.7959288 L10.9089092,23.7192928 L10.855264,23.6426568 L10.7574404,23.49795 L10.6551088,23.3518908 L10.5491708,23.2058316 L10.4409788,23.0597724 L10.2250456,22.7690064 L10.1276728,22.6229472 L10.0266936,22.4831992 L9.9257144,22.3308288 L9.8824376,22.2623072 L9.8337512,22.1856712 L9.7886712,22.116248 L9.7413372,22.039612 L9.70347,21.962976 L9.6665044,21.8867908 L9.626834,21.8101548 L9.588516,21.7317156 L9.5587632,21.6550796 L9.5290104,21.5788944 L9.496102,21.4950456 L9.4753652,21.4184096 L9.442006,21.3336592 L9.4280312,21.2498104 L9.403688,21.1713712 L9.3883608,21.0879732 L9.374386,21.002772 L9.358608,20.910358 L9.3500428,20.82696 L9.34283,20.743562 L9.336068,20.651148 L9.3275028,20.565496 L9.32029,20.4735328 L9.32029,20.3901348 L9.32029,20.2981716 L9.32029,20.2057576 L9.32029,20.0209296 L9.32029,19.9289664 L9.32029,19.8365524 L9.3275028,19.7445892 L9.336068,19.6521752 L9.34283,19.5687772 L9.3500428,19.4763632 L9.3671732,19.391162 L9.381148,19.3456312 L9.3883608,19.3073132 L9.403688,19.2608808 L9.4140564,19.2225628 L9.4280312,19.1842448 L9.442006,19.138714 L9.457784,19.100396 L9.480324,19.0625288 L9.496102,19.0309728 L9.518642,18.9926548 L9.5429852,18.9543368 L9.5655252,18.9232316 L9.5970812,18.8849136 L9.6196212,18.8556116 L9.6737172,18.7924996 L9.7345752,18.7248796 L9.8580944,18.6009096 L9.9189524,18.5400516 L9.9798104,18.4706284 L10.0406684,18.4030084 L10.0735768,18.3714524 L10.0947644,18.3331344 L10.1191076,18.2948164 L10.1484096,18.2637112 L10.1714004,18.2253932 L10.1957436,18.1803132 L10.2110708,18.1419952 L10.2358648,18.1036772 L10.2493888,18.0563432 L10.2651668,18.0112632 L10.2723796,17.96438 L10.2791416,17.9188492 L10.28951,17.871966 L10.28951,17.833648 L10.28951,17.811108 L10.28951,17.788568 L10.28951,17.766028 L10.2791416,17.7416848 L10.2723796,17.72771 L10.2723796,17.7033668 L10.2651668,17.689392 L10.2493888,17.6650488 L10.2408236,17.6492708 L10.2358648,17.635296 L10.2025056,17.60374 L10.1714004,17.5658728 L10.1416476,17.542882 L10.1105424,17.5117768 L10.0735768,17.4806716 L10.0023504,17.4283788 L9.9658356,17.3968228 L9.9365336,17.3657176 L9.8964124,17.3359648 L9.8720692,17.2976468 L9.8423164,17.2665416 L9.8215796,17.2282236 L9.8039984,17.1899056 L9.7886712,17.1515876 L9.7746964,17.1047044 L9.7571152,17.0663864 L9.7503532,17.0208556 L9.7503532,16.9744232 L9.7413372,16.9288924 L9.7413372,16.8820092 L9.7413372,16.8364784 L9.7413372,16.7913984 L9.7503532,16.7445152 L9.7503532,16.6989844 L9.7571152,16.6521012 L9.7674836,16.6065704 L9.7746964,16.560138 L9.7886712,16.5146072 L9.8112112,16.4221932 L9.8337512,16.3374428 L9.8580944,16.253594 L9.8648564,16.215276 L9.8720692,16.1683928 L9.8720692,16.1300748 L9.8824376,16.0849948 L9.8824376,16.0466768 L9.8720692,15.9997936 L9.8720692,15.9542628 L9.8648564,15.9159448 L9.8580944,15.8695124 L9.8423164,15.8311944 L9.8215796,15.7401328 L9.7954332,15.6549316 L9.7746964,15.5715336 L9.7133876,15.4006804 L9.6597424,15.2320812 L9.5970812,15.0720472 L9.5655252,14.986846 L9.53442,14.91021 L9.5046672,14.826812 L9.4681524,14.750176 L9.3275028,14.4283048 L9.2891848,14.3431036 L9.259432,14.2574516 L9.227876,14.1808156 L9.1967708,14.0978684 L9.1688212,14.0122164 L9.144478,13.9355804 L9.1201348,13.8521824 L9.1043568,13.7665304 L9.0818168,13.6835832 L9.074604,13.5979312 L9.06108,13.5145332 L9.0507116,13.429332 L9.0434988,13.336918 L9.0367368,13.25352 L9.0277208,13.1683188 L9.0277208,13.0849208 L9.0277208,12.9925068 L9.0277208,12.9073056 L9.0277208,12.8148916 L9.0367368,12.7314936 L9.0367368,12.6390796 L9.0434988,12.5556816 L9.0507116,12.4637184 L9.06108,12.3780664 L9.0818168,12.1936892 L9.1043568,12.018328 L9.1359128,11.8335 L9.1688212,11.6581388 L9.227876,11.2956956 L9.227876,8.6332708 L9.2193108,8.5652 L9.2125488,8.4957768 L9.1967708,8.4191408 L9.1809928,8.3564796 L9.15124,8.2888596 L9.1201348,8.2275508 L9.0908328,8.1653404 L9.0434988,8.1044824 L8.9966156,8.0503864 L8.952888,8.0048556 L8.8992428,7.9584232 L8.8365816,7.9201052 L8.7757236,7.8817872 L8.7130624,7.8502312 L8.6449916,7.8204784 L8.5823304,7.8051512 L8.5165136,7.7893732 L8.4452872,7.7821604 L8.3686512,7.774046 L8.3005804,7.7821604 L8.229354,7.7893732 L8.1612832,7.8051512 L8.09186,7.8204784 L8.031002,7.8502312 L7.961128,7.8817872 L7.90027,7.9201052 L7.846174,7.9584232 L7.7925288,8.0048556 L7.7384328,8.0503864 L7.6915496,8.1044824 L7.6532316,8.1653404 L7.6167168,8.2275508 L7.586964,8.2888596 L7.5626208,8.3564796 L7.5382776,8.4191408 L7.5229504,8.4957768 L7.5157376,8.5652 L7.5157376,8.6332708 L7.5157376,11.2956956 L7.4999596,11.6423608 L7.4792228,11.986772 L7.4702068,12.1553712 L7.4616416,12.3329864 L7.4548796,12.5087984 L7.4548796,12.6773976 L7.4481176,12.8550128 L7.4391016,13.0308248 L7.4391016,13.2066368 L7.4391016,13.384252 L7.4391016,13.5596132 L7.4305364,13.6520272 L7.4305364,13.7372284 L7.4305364,13.8296424 L7.4251268,13.9130404 L7.4251268,13.9581204 L7.4165616,14.0054544 L7.4165616,14.0505344 L7.4079964,14.0888524 L7.4079964,14.1357356 L7.4007836,14.1740536 L7.3940216,14.2191336 L7.3850056,14.2664676 L7.3782436,14.3047856 L7.3714816,14.3498656 L7.3642688,14.3881836 L7.3539004,14.4350668 L7.3399256,14.4733848 L7.3313604,14.5117028 L7.3173856,14.5567828 L7.2998044,14.5951008 L7.2858296,14.6334188 L7.2705024,14.67354 L7.2565276,14.7190708 L7.2321844,14.7573888 L7.2164064,14.7957068 L7.2024316,14.833574 L7.1555484,14.91021 L7.0771092,15.0630312 L7.0320292,15.1414704 L6.9937112,15.2253192 L6.9779332,15.2636372 L6.9571964,15.3019552 L6.9396152,15.3402732 L6.924288,15.3785912 L6.90851,15.4250236 L6.8945352,15.4633416 L6.8787572,15.5016596 L6.8629792,15.5471904 L6.8562172,15.5855084 L6.8422424,15.6238264 L6.831874,15.6707096 L6.816096,15.7090276 L6.8021212,15.7928764 L6.777778,15.8776268 L6.7656064,15.9700408 L6.7412632,16.0538896 L6.725936,16.0917568 L6.71692,16.13864 L6.701142,16.176958 L6.69438,16.2224888 L6.678602,16.2608068 L6.662824,16.2991248 L6.6474968,16.346008 L6.633522,16.384326 L6.617744,16.429406 L6.595204,16.467724 L6.5640988,16.5529252 L6.4874628,16.7152132 L6.4559068,16.7913984 L6.4333668,16.8364784 L6.4175888,16.8747964 L6.4018108,16.9131144 L6.3882868,16.9599976 L6.3725088,16.9983156 L6.358534,17.0366336 L6.3481656,17.0821644 L6.3341908,17.1204824 L6.3184128,17.1669148 L6.3098476,17.2052328 L6.304438,17.2435508 L6.2940696,17.2890816 L6.2868568,17.3359648 L6.2868568,17.3742828 L6.2800948,17.4193628 L6.2800948,17.4351408 L6.2800948,17.4576808 L6.2800948,17.4806716 L6.2800948,17.504564 L6.2800948,17.5275548 L6.2800948,17.5500948 L6.2868568,17.5658728 L6.2868568,17.5884128 L6.2868568,17.6109528 L6.2940696,17.635296 L6.2940696,17.657836 L6.304438,17.680376 L6.304438,17.696154 L6.3098476,17.718694 L6.3184128,17.7416848 L6.3184128,17.766028 L6.3256256,17.7800028 L6.3341908,17.804346 L6.3414036,17.8264352 L6.3481656,17.8422132 L6.358534,17.8647532 L6.3725088,17.8805312 L6.3792708,17.9030712 L6.3882868,17.9188492 L6.3950488,17.9413892 L6.41263,17.9571672 L6.4333668,17.9954852 L6.4559068,18.0338032 L6.4784468,18.0653592 L6.5100028,18.1036772 L6.5325428,18.1329792 L6.5640988,18.1640844 L6.586188,18.2024024 L6.617744,18.2339584 L6.6474968,18.2637112 L6.678602,18.3020292 L6.8021212,18.4250976 L6.8629792,18.4949716 L6.8945352,18.5247244 L6.924288,18.5558296 L6.9571964,18.5941476 L6.9779332,18.6239004 L7.0108416,18.6622184 L7.0320292,18.6933236 L7.0649376,18.7316416 L7.0856744,18.7627468 L7.1086652,18.8010648 L7.1312052,18.8393828 L7.1487864,18.8777008 L7.1695232,18.9160188 L7.1853012,18.9543368 L7.2096444,18.9926548 L7.2236192,19.0309728 L7.2389464,19.0783068 L7.2565276,19.1166248 L7.2705024,19.1549428 L7.2772644,19.199572 L7.2930424,19.23789 L7.2998044,19.285224 L7.3173856,19.323542 L7.3241476,19.368622 L7.3313604,19.4155052 L7.3399256,19.4538232 L7.3466876,19.4989032 L7.3539004,19.5462372 L7.3642688,19.5913172 L7.3642688,19.6296352 L7.3714816,19.6765184 L7.3782436,19.7215984 L7.3782436,19.7671292 L7.3782436,19.8144632 L7.3850056,19.8590924 L7.3850056,19.9064264 L7.3850056,19.9447444 L7.3850056,19.9898244 L7.3850056,20.0371584 L7.3850056,20.1291216 L7.3850056,20.2215356 L7.3782436,20.3134988 L7.3782436,20.3968968 L7.3714816,20.4893108 L7.3642688,20.5817248 L7.3539004,20.6651228 L7.3399256,20.757086 L7.3313604,20.842738 L7.3173856,20.926136 L7.2998044,21.0180992 L7.2858296,21.1037512 L7.2705024,21.1866984 L7.2479624,21.2723504 L7.2236192,21.3557484 L7.2164064,21.4030824 L7.2024316,21.4414004 L7.1938664,21.4860296 L7.1780884,21.5243476 L7.1695232,21.5626656 L7.1555484,21.6099996 L7.1397704,21.6483176 L7.1239924,21.6866356 L7.1086652,21.7317156 L7.0946904,21.7700336 L7.0771092,21.8101548 L7.0649376,21.8484728 L7.0473564,21.8935528 L7.0320292,21.9318708 L7.0162512,21.9701888 L7.0004732,22.0085068 L6.9779332,22.0468248 L6.9621552,22.0851428 L6.946828,22.1234608 L6.924288,22.1617788 L6.88597,22.237964 L6.8490044,22.3164032 L6.8021212,22.3930392 L6.7656064,22.4696752 L6.71692,22.537746 L6.67184,22.6139312 L6.624506,22.6838052 L6.579426,22.7604412 L6.5325428,22.8370772 L6.441932,22.9831364 L6.3414036,23.1291956 L6.2507928,23.2752548 L6.2034588,23.3518908 L6.1498136,23.4199616 L6.1114956,23.49795 L6.0646124,23.574586 L6.0190816,23.651222 L5.9740016,23.727858 L5.9338804,23.804494 L5.8906036,23.88113 L5.8504824,23.9573152 L5.8121644,24.0425164 L5.7720432,24.1191524 L5.7580684,24.1646832 L5.7422904,24.2030012 L5.7197504,24.2413192 L5.7039724,24.2796372 L5.6886452,24.3260696 L5.6746704,24.3643876 L5.6570892,24.4099184 L5.6413112,24.4482364 L5.6277872,24.4865544 L5.6138124,24.5334376 L5.603444,24.5717556 L5.5908216,24.6172864 L5.5736912,24.6556044 L5.5669292,24.6957256 L5.5511512,24.7403548 L5.542586,24.7786728 L5.5371764,24.8242036 L5.5195952,24.8625216 L5.5128332,24.9094048 L5.504268,24.9477228 L5.4970552,24.9928028 L5.48849,25.0311208 L5.4830804,25.078004 L5.4830804,25.116322 L5.472712,25.1618528 L5.46595,25.208736 L5.46595,25.247054 L5.4587372,25.292134 L5.4587372,25.3322552 L5.4587372,25.3773352 L5.450172,25.461184 L5.450172,25.5459344 L5.450172,25.6297832 L5.4429592,25.7149844 L5.4429592,25.8907964 L5.4429592,25.9759976 L5.4429592,26.0684116 L5.4429592,26.1518096 L5.4429592,26.2442236 L5.434394,26.3294248 L5.434394,26.4218388 L5.434394,26.4669188 L5.4294352,26.513802 L5.4294352,26.558882 L5.4222224,26.5972 L5.411854,26.6427308 L5.411854,26.6891632 L5.4046412,26.734694 L5.396076,26.782028 L5.3807488,26.874442 L5.3753392,26.9664052 L5.357758,27.0588192 L5.335218,27.1507824 L5.3041128,27.3333564 L5.2914904,27.4257704 L5.27436,27.5177336 L5.267598,27.6101476 L5.258582,27.6570308 L5.2500168,27.7025616 L5.242804,27.7408796 L5.242804,27.7859596 L5.2378452,27.8332936 L5.2378452,27.8779228 L5.2274768,27.9252568 L5.2274768,27.9703368 L5.2274768,28.0086548 L5.2274768,28.0559888 L5.2274768,28.100618 L5.2274768,28.138936 L5.2274768,28.18627 L5.2274768,28.224588 L5.2378452,28.269668 L5.2378452,28.307986 L5.242804,28.3548692 L5.2500168,28.3931872 L5.258582,28.4382672 L5.267598,28.4765852 L5.27436,28.5149032 L5.2914904,28.5622372 L5.3041128,28.6005552 L5.312678,28.6388732 L5.328456,28.6771912 L5.350996,28.7155092 L5.3681264,28.7538272 L5.389314,28.7921452 L5.4046412,28.8304632 L5.4294352,28.8678796 L5.4587372,28.8998864 L5.4830804,28.9382044 L5.5371764,29.0076276 L5.5597164,29.0459456 L5.5908216,29.0842636 L5.6138124,29.1225816 L5.6205744,29.1379088 L5.6345492,29.1518836 L5.6413112,29.1762268 L5.6503272,29.1902016 L5.6674576,29.2145448 L5.6746704,29.2303228 L5.6814324,29.2528628 L5.6814324,29.2754028 L5.6886452,29.2911808 L5.6954072,29.3137208 L5.6954072,29.3367116 L5.6954072,29.360604 L5.7039724,29.383144 L5.7039724,29.3971188 L5.7039724,29.4219128 L5.6954072,29.4444528 L5.6954072,29.4669928 L5.6954072,29.4895328 L5.6886452,29.513876 L5.6886452,29.536416 L5.6814324,29.552194 L5.6746704,29.574734 L5.6674576,29.5977248 L5.6570892,29.619814 L5.6503272,29.6360428 L5.6345492,29.658132 L5.6277872,29.6824752 L5.6138124,29.6982532 L5.603444,29.7207932 L5.5908216,29.7365712 L5.5669292,29.7748892 L5.542586,29.8132072 L5.5195952,29.8515252 L5.504268,29.8668524 L5.4970552,29.8898432 L5.4830804,29.9051704 L5.472712,29.919596 L5.46595,29.9434884 L5.450172,29.9592664 L5.4429592,29.9818064 L5.4429592,29.9957812 L5.434394,30.0201244 L5.4294352,30.0431152 L5.4294352,30.0584424 L5.4294352,30.0814332 L5.4222224,30.1039732 L5.4222224,30.1197512 L5.4294352,30.1422912 L5.4294352,30.1643804 L5.4294352,30.1891744 L5.434394,30.2117144 L5.434394,30.2347052 L5.4429592,30.2500324 L5.4429592,30.2725724 L5.450172,30.2955632 L5.46595,30.3424464 L5.4830804,30.3875264 L5.5128332,30.4727276 L5.5195952,30.5182584 L5.5371764,30.5565764 L5.542586,30.5804688 L5.542586,30.6034596 L5.5511512,30.6187868 L5.5597164,30.6413268 L5.5597164,30.6643176 L5.5669292,30.6796448 L5.5669292,30.7026356 L5.5669292,30.7179628 L5.5669292,30.7337408 L5.5669292,30.7562808 L5.5669292,30.7720588 L5.5669292,30.7878368 L5.5597164,30.8018116 L5.5597164,30.8175896 L5.5511512,30.841482 L5.5511512,30.8559076 L5.542586,30.8712348 L5.5371764,30.8870128 L5.526808,30.90234 L5.5195952,30.918118 L5.5128332,30.9325436 L5.504268,30.9478708 L5.4970552,30.956436 L5.48849,30.9717632 L5.472712,30.9861888 L5.46595,31.0019668 L5.450172,31.017294 L5.4429592,31.0245068 L5.4294352,31.0402848 L5.411854,31.055612 L5.396076,31.07139 L5.3807488,31.0786028 L5.3681264,31.09393 L5.350996,31.109708 L5.335218,31.1169208 L5.3212432,31.132248 L5.3041128,31.148026 L5.281122,31.1552388 L5.267598,31.170566 L5.242804,31.186344 L5.2274768,31.1935568 L5.2049368,31.208884 L5.1837492,31.224662 L5.1666188,31.231424 L5.1440788,31.247202 L5.1197356,31.26298 L5.0967448,31.269742 L5.076008,31.28552 L5.0516648,31.301298 L5.0291248,31.30806 L4.9975688,31.323838 L4.9750288,31.339616 L4.9506856,31.3477304 L4.9281456,31.362156 L4.8740496,31.3932612 L4.8204044,31.416252 L4.7590956,31.4473572 L4.7054504,31.4789132 L4.6445924,31.5082152 L4.5837344,31.5393204 L4.5206224,31.5690732 L4.4597644,31.6091944 L4.3989064,31.6384964 L4.2753872,31.7083704 L4.2145292,31.7466884 L4.1469092,31.7764412 L4.122566,31.7917684 L4.0928132,31.8075464 L4.0612572,31.8228736 L4.030152,31.8386516 L3.998596,31.8544296 L3.976056,31.8684044 L3.9449508,31.8841824 L3.9224108,31.8995096 L3.8944612,31.9152876 L3.8683148,31.9225004 L3.847578,31.9378276 L3.8232348,31.9468436 L0.3376492,31.9468436 L0.2763404,31.9067224 L0.2452352,31.8927476 L0.2226952,31.8684044 L0.1911392,31.8458644 L0.1685992,31.8228736 L0.1478624,31.8003336 L0.121716,31.7764412 L0.105938,31.7466884 L0.0937664,31.7236976 L0.076636,31.6925924 L0.060858,31.6614872 L0.0536452,31.6317344 L0.038318,31.5934164 L0.0297528,31.5623112 L0.0297528,31.5307552 L0.0171304,31.4541192 L0.006762,31.3860484 L-1.28125066e-14,31.3166252 L-1.28125066e-14,31.247202 L-1.28125066e-14,31.208884 L-1.28125066e-14,31.1777788 L0.006762,31.1394608 L0.006762,31.109708 L0.0171304,31.07139 L0.0171304,31.0402848 L0.02254,31.010532 L0.0297528,30.9717632 L0.0468832,30.940658 L0.0536452,30.918118 L0.06762,30.8870128 L0.076636,30.8559076 L0.0937664,30.8261548 L0.114954,30.8018116 L0.1302812,30.7792716 L0.1546244,30.7495188 L0.1685992,30.7251756 L0.1911392,30.7026356 L0.2136792,30.6796448 L0.23667,30.6571048 L0.2677752,30.6413268 L0.2903152,30.6187868 L0.3462144,30.5804688 L0.3998596,30.5335856 L0.4611684,30.5038328 L0.5220264,30.4655148 L0.5828844,30.4258444 L0.7131656,30.3577736 L0.7740236,30.3194556 L0.838488,30.2811376 L0.8975428,30.2428196 L0.9516388,30.2045016 L1.0124968,30.1643804 L1.0665928,30.1265132 L1.120238,30.0814332 L1.174334,30.0340992 L1.221668,29.9890192 L1.2753132,29.9434884 L1.3221964,29.897056 L1.365924,29.8515252 L1.4128072,29.7974292 L1.4578872,29.7509968 L1.5503012,29.65137 L1.6355024,29.5436288 L1.8113144,29.3367116 L1.9889296,29.1293436 L2.0723276,29.0301676 L2.1557256,28.9224264 L2.2413776,28.8142344 L2.3265788,28.7082964 L2.3667,28.6542004 L2.4032148,28.6005552 L2.4415328,28.5392464 L2.4798508,28.4856012 L2.5091528,28.42294 L2.5474708,28.3706472 L2.578576,28.307986 L2.6119352,28.247128 L2.632672,28.18627 L2.6660312,28.125412 L2.686768,28.0623 L2.709308,28.0018928 L2.731848,27.9320188 L2.7561912,27.8711608 L2.7787312,27.8012868 L2.7945092,27.7408796 L2.8102872,27.6710056 L2.824262,27.6033856 L2.8395892,27.5402736 L2.8571704,27.4726536 L2.8643832,27.4027796 L2.8711452,27.3333564 L2.8869232,27.2657364 L2.8936852,27.1963132 L2.900898,27.1264392 L2.900898,27.0651304 L2.9112664,26.9957072 L2.9112664,26.9280872 L2.9180284,26.8582132 L2.9180284,26.78879 L2.9180284,26.72117 L2.9180284,26.6517468 L2.9112664,26.513802 L2.900898,26.3835208 L2.8869232,26.2442236 L2.8711452,26.1134916 L2.8571704,25.9759976 L2.8328272,25.8452656 L2.8102872,25.7082224 L2.785944,25.5779412 L2.7561912,25.4472092 L2.731848,25.307912 L2.702546,25.17718 L2.67099,25.0468988 L2.632672,24.9161668 L2.6015668,24.7858856 L2.533496,24.5176596 L2.4640728,24.2566464 L2.3874368,23.9956332 L2.2341648,23.482172 L2.0790896,22.9601456 L2.0029044,22.7063452 L1.9348336,22.4466844 L1.8563944,22.1856712 L1.8270924,22.05539 L1.7973396,21.9251088 L1.7644312,21.7943768 L1.7364816,21.6640956 L1.7035732,21.5333636 L1.6828364,21.4030824 L1.6494772,21.2633344 L1.6287404,21.1330532 L1.6043972,21.002772 L1.5886192,20.865278 L1.5660792,20.734546 L1.5503012,20.597052 L1.5345232,20.4577548 L1.5277612,20.3207116 L1.5119832,20.1832176 L1.503418,20.0434696 L1.503418,19.9064264 L1.4962052,19.7671292 L1.4962052,19.6296352 L1.503418,19.483576 L1.503418,19.3456312 L1.519196,19.199572 L1.5277612,19.0535128 L1.5448916,18.9160188 L1.5660792,18.7699596 L1.5746444,18.7023396 L1.5886192,18.6324656 L1.6043972,18.5630424 L1.6111592,18.4949716 L1.6287404,18.4169832 L1.6494772,18.3489124 L1.6652552,18.2862512 L1.6828364,18.2181804 L1.7035732,18.1487572 L1.7261132,18.079334 L1.7504564,18.0180252 L1.7729964,17.948602 L1.7973396,17.887744 L1.8270924,17.820124 L1.8514356,17.757012 L1.8807376,17.696154 L1.9104904,17.635296 L1.9420464,17.5726348 L1.9731516,17.5189896 L2.0132728,17.4576808 L2.0497876,17.4040356 L2.0881056,17.3431776 L2.1264236,17.2890816 L2.1647416,17.2354364 L2.2098216,17.1831436 L2.2481396,17.1358096 L2.2950228,17.0821644 L2.3491188,17.0366336 L2.396002,16.9897504 L2.450098,16.9442196 L2.5578392,16.8594692 L2.6015668,16.8139384 L2.62591,16.7913984 L2.64845,16.7670552 L2.67099,16.7373024 L2.69353,16.7152132 L2.709308,16.6832064 L2.725086,16.6521012 L2.740864,16.6223484 L2.747626,16.5840304 L2.7561912,16.5529252 L2.763404,16.5146072 L2.763404,16.483502 L2.763404,16.445184 L2.7561912,16.4154312 L2.747626,16.384326 L2.740864,16.35277 L2.725086,16.33023 L2.702546,16.2991248 L2.686768,16.276134 L2.6660312,16.253594 L2.632672,16.231054 L2.6119352,16.2067108 L2.578576,16.1841708 L2.5181688,16.1458528 L2.45686,16.100322 L2.396002,16.062004 L2.341906,16.0151208 L2.2796956,15.9700408 L2.2255996,15.9231576 L2.1715036,15.8776268 L2.1174076,15.8311944 L2.0673688,15.7856636 L2.0186824,15.7315676 L1.9731516,15.6779224 L1.9280716,15.6323916 L1.8807376,15.5782956 L1.8442228,15.5246504 L1.7973396,15.4705544 L1.7576692,15.4169092 L1.7193512,15.3628132 L1.6828364,15.3019552 L1.6494772,15.2478592 L1.6111592,15.1870012 L1.5814064,15.1329052 L1.5448916,15.0720472 L1.5119832,15.0111892 L1.480878,14.9570932 L1.42002,14.833574 L1.365924,14.711858 L1.311828,14.5883388 L1.2581828,14.4580576 L1.212652,14.3358908 L1.158556,14.2056096 L1.113476,14.0820904 L1.0665928,13.9513584 L1.030078,13.8210772 L0.9813916,13.690796 L0.9430736,13.5596132 L0.9133208,13.429332 L0.8754536,13.2986 L0.8438976,13.1683188 L0.8073828,13.0375868 L0.7848428,12.9005436 L0.7532868,12.7698116 L0.7307468,12.6390796 L0.7064036,12.5020364 L0.6820604,12.3713044 L0.6595204,12.2320072 L0.6455456,12.101726 L0.6279644,11.9637812 L0.6157928,11.8335 L0.6054244,11.696006 L0.5986624,11.5567088 L0.5914496,11.4264276 L0.5828844,11.2884828 L0.5828844,11.1514396 L0.5828844,11.0211584 L0.5756716,10.8818612 L0.5756716,10.7439164 L0.5828844,10.6136352 L0.5828844,10.336844 L0.5914496,10.0690688 L0.5986624,9.8012936 L0.6225548,9.254924 L0.6225548,8.986698 L0.6279644,8.718472 L0.6369804,8.1811184 L0.6455456,7.9043272 L0.6523076,7.6361012 L0.6595204,7.368326 L0.6698888,7.2290288 L0.6766508,7.0982968 L0.6906256,6.9612536 L0.6991908,6.8305216 L0.7131656,6.6930276 L0.7203784,6.5537304 L0.7357056,6.4229984 L0.7604996,6.2859552 L0.7740236,6.1484612 L0.7988176,6.0087132 L0.8213576,5.878432 L0.8438976,5.7413888 L0.8754536,5.6020916 L0.9047556,5.4713596 L0.9358608,5.3338656 L0.975982,5.2031336 L1.0124968,5.0728524 L1.0354876,5.0034292 L1.0598308,4.9421204 L1.0837232,4.8726972 L1.1049108,4.8118392 L1.1274508,4.7509812 L1.158556,4.6811072 L1.1815468,4.6202492 L1.212652,4.559842 L1.2424048,4.49673 L1.2753132,4.444888 L1.305066,4.3822268 L1.3348188,4.320918 L1.365924,4.2672728 L1.404242,4.205964 L1.44256,4.1523188 L1.480878,4.0982228 L1.519196,4.0445776 L1.557514,3.9904816 L1.6355024,3.8845436 L1.7193512,3.7763516 L1.8045524,3.6686104 L1.8514356,3.6145144 L1.8879504,3.5626724 L1.9280716,3.4995604 L1.9591768,3.4459152 L1.9956916,3.3850572 L2.0254444,3.3151832 L2.0570004,3.2543252 L2.0790896,3.184902 L2.0966708,3.1551492 L2.1038836,3.124044 L2.1106456,3.085726 L2.1174076,3.05417 L2.1264236,3.0244172 L2.1336364,2.9860992 L2.1422016,2.954994 L2.1422016,2.925692 L2.1422016,2.8855708 L2.1422016,2.855818 L2.1422016,2.8247128 L2.1336364,2.7863948 L2.1336364,2.7552896 L2.1264236,2.725086 L2.1174076,2.6939808 L2.1038836,2.6556628 L2.0790896,2.5948048 L2.0570004,2.5339468 L2.0029044,2.4032148 L1.9488084,2.2729336 L1.8947124,2.1422016 L1.8442228,2.0119204 L1.8198796,1.9424972 L1.7973396,1.8811884 L1.7729964,1.8117652 L1.7576692,1.7509072 L1.7364816,1.681484 L1.7261132,1.6201752 L1.7121384,1.550752 L1.7035732,1.4813288 L1.6963604,1.4204708 L1.6895984,1.359162 L1.6895984,1.2897388 L1.6895984,1.2288808 L1.6963604,1.1594576 L1.7035732,1.0981488 L1.7193512,1.0372908 L1.7364816,0.9746296 L1.7504564,0.9137716 L1.7729964,0.8457008 L1.7973396,0.7834904 L1.8270924,0.7226324 L1.8514356,0.6613236 L1.8807376,0.5991132 L1.9190556,0.5382552 L1.9488084,0.4769464 L1.9889296,0.4233012 L2.0186824,0.3619924 L2.0966708,0.238924 L2.1805196,0.1167572 L2.258508,0 L14.4260508,0 L14.5951008,0.238924 L14.671286,0.353878 L14.7497252,0.4769464 L14.817796,0.5991132 L14.847098,0.6613236 L14.8800064,0.7226324 L14.9115624,0.7834904 L14.9341024,0.8457008 L14.9548392,0.9070096 L14.97783,0.9678676 L14.9949604,1.0287256 L15.0089352,1.0913868 L15.016148,1.1522448 L15.0247132,1.2131028 L15.0314752,1.275764 L15.0314752,1.336622 L15.0247132,1.39748 L15.016148,1.4587888 L15.0089352,1.528212 L14.9949604,1.58907 L14.97783,1.6512804 L14.9652076,1.7125892 L14.9165212,1.8428704 L14.8714412,1.9736024 L14.779478,2.2346156 L14.7429632,2.3648968 L14.725382,2.4262056 L14.709604,2.4960796 L14.6956292,2.5564868 L14.6888672,2.6245576 L14.6784988,2.686768 L14.6784988,2.7552896 L14.6784988,2.8175 L14.6784988,2.8855708 L14.6888672,2.954994 L14.6956292,3.0163028 L14.702842,3.085726 L14.7168168,3.146584 L14.732144,3.2160072 L14.7497252,3.2768652 L14.7966084,3.4075972 L14.840336,3.5378784 L14.8872192,3.6613976 L14.9480772,3.7921296 L15.0021732,3.9138456 L15.0630312,4.0445776 L15.1933124,4.2898128 L15.3190856,4.528286 L15.4475636,4.7667592 L15.5692796,5.0034292 L15.6301376,5.1264976 L15.6842336,5.2414516 L15.7383296,5.3654216 L15.7919748,5.4871376 L15.8460708,5.6020916 L15.8911508,5.7256108 L15.9294688,5.84913 L15.9713932,5.9712968 L16.007908,6.101578 L16.03721,6.2250972 L16.062004,6.3553784 L16.0863472,6.4861104 L16.107084,6.6145884 L16.122862,6.7538856 L16.1399924,6.8846176 L16.145402,7.0148988 L16.1629832,7.29169 L16.1765072,7.559916 L16.190482,8.0972696 L16.199498,8.6332708 L16.20626,9.1710752 L16.20626,9.7003144 L16.20626,10.237668 L16.190482,10.7669072 L16.1765072,11.2956956 L16.152164,11.826738 L16.122862,12.3559772 L16.107084,12.6169904 L16.0863472,12.8843148 L16.062004,13.1457788 L16.0322512,13.413554 L15.9993428,13.6835832 L15.9713932,13.9445964 L15.9294688,14.2123716 L15.9069288,14.3498656 L15.8843888,14.4801468 L15.8528328,14.6113296 L15.8235308,14.750176 L15.7919748,14.8804572 L15.7694348,14.941766 L15.7468948,15.002624 L15.7225516,15.0630312 L15.7018148,15.1261432 L15.6684556,15.1870012 L15.6391536,15.2478592 L15.6075976,15.3019552 L15.5778448,15.3628132 L15.5395268,15.4169092 L15.4998564,15.4705544 L15.4160076,15.5782956 L15.3240444,15.6779224 L15.2406464,15.7856636 L15.1622072,15.8934048 L15.1256924,15.94705 L15.0855712,15.9997936 L15.0562692,16.0538896 L15.0247132,16.1161 L15.0021732,16.176958 L14.97783,16.237816 L14.9652076,16.2991248 L14.9480772,16.3613352 L14.9413152,16.429406 L14.9255372,16.4920672 L14.9255372,16.560138 L14.9165212,16.6295612 L14.9165212,16.6989844 L14.9255372,16.7670552 L14.9341024,16.9059016 L14.9480772,17.0438464 L14.9652076,17.1831436 L14.9881984,17.3201868 L15.016148,17.4509188 L15.0490564,17.5812 L15.0697932,17.718694 L15.1324544,17.973396 L15.1933124,18.2339584 L15.2248684,18.3646904 L15.2474084,18.4864064 L15.2699484,18.6166876 L15.2942916,18.7474196 L15.3082664,18.8777008 L15.3240444,19.007982 L15.3308064,19.1459268 L15.3393716,19.276208 L15.3483876,19.40694 L15.3483876,19.5462372 L15.3551496,19.6765184 L15.3483876,19.8144632 L15.3483876,19.9447444 L15.3393716,20.0817876 L15.3308064,20.2125196 L15.3240444,20.3518168 L15.3082664,20.4825488 L15.3015044,20.6200428 L15.2857264,20.750324 L15.2699484,20.881056 L15.2474084,21.0113372 L15.2316304,21.1483804 L15.2108936,21.2795632 L15.1865504,21.4098444 L15.1567976,21.5405764 L15.1256924,21.6708576 L15.1031524,21.8015896 L15.0630312,21.9318708 L15.0314752,22.0626028 L14.9949604,22.1856712 L14.9652076,22.3164032 L14.9165212,22.4466844 L14.840336,22.6995832 L14.7497252,22.9533836 L14.655508,23.2058316 L14.472934,23.7048672 L14.3791676,23.9573152 L14.2957696,24.2115664 L14.2101176,24.4640144 L14.1736028,24.5870828 L14.1339324,24.7178148 L14.0956144,24.8399816 L14.0658616,24.9702628 L14.0361088,25.100544 L14.0117656,25.231276 L13.9824636,25.3615572 L13.9648824,25.4922892 L13.9423424,25.6225704 L13.9283676,25.7533024 L13.9112372,25.8907964 L13.9040244,26.0215284 L13.8968116,26.1518096 L13.8882464,26.2911068 L13.8882464,26.4218388 L13.8882464,26.558882 L13.8882464,26.696376 L13.8968116,26.827108 L13.9040244,26.9664052 L13.9211548,27.1034484 L13.9333264,27.2341804 L13.9648824,27.3649124 L13.9874224,27.4956444 L14.0257404,27.6259256 L14.0658616,27.7476416 L14.0902048,27.8103028 L14.1109416,27.8711608 L14.1443008,27.9320188 L14.1736028,27.99468 L14.2326576,28.109634 L14.2957696,28.224588 L14.3719548,28.3323292 L14.4485908,28.4382672 L14.52703,28.5464592 L14.610428,28.6542004 L14.6956292,28.7619416 L14.862876,28.9765224 L15.0314752,29.1834396 L15.1933124,29.4061348 L15.3551496,29.613052 L15.4389984,29.7207932 L15.5241996,29.82042 L15.617966,29.919596 L15.7018148,30.0201244 L15.7919748,30.1125384 L15.8911508,30.2045016 L15.99213,30.2811376 L16.091306,30.3649864 L16.199498,30.4416224 L16.3072392,30.5182584 L16.5299344,30.6710796 L16.6358724,30.7495188 L16.7440644,30.8329168 L16.8518056,30.918118 L16.9509816,31.010532 L17.0050776,31.055612 L17.0519608,31.109708 L17.098844,31.1552388 L17.1128188,31.186344 L17.1353588,31.2174492 L17.15294,31.2399892 L17.1583496,31.269742 L17.1736768,31.301298 L17.1826928,31.3324032 L17.1894548,31.362156 L17.1966676,31.400474 L17.1966676,31.4315792 Z" id="Fill-131"></path>
                    </g>
                </g>
            </g>
        </g>
    </g>
</svg>