<?xml version="1.0" encoding="UTF-8"?>
<svg width="156px" height="123px" viewBox="0 0 156 123" version="1.1" xmlns="http://www.w3.org/2000/svg" xmlns:xlink="http://www.w3.org/1999/xlink">
    <title>防烫伤</title>
    <defs>
        <path d="M141.787333,119.462 L26.8333333,119.462 C20.93,119.462 16.1,114.632 16.1,108.728667 L16.1,26.8333333 C16.1,20.93 20.93,16.1 26.8333333,16.1 L141.787333,16.1 C147.690667,16.1 152.520667,20.93 152.520667,26.8333333 L152.520667,108.782333 C152.520667,114.685667 147.74487,119.462 141.787333,119.462" id="path-1"></path>
        <filter x="-11.4%" y="-14.0%" width="122.7%" height="130.0%" filterUnits="objectBoundingBox" id="filter-2">
            <feOffset dx="0" dy="1" in="SourceAlpha" result="shadowOffsetOuter1"></feOffset>
            <feGaussianBlur stdDeviation="5" in="shadowOffsetOuter1" result="shadowBlurOuter1"></feGaussianBlur>
            <feColorMatrix values="0 0 0 0 0   0 0 0 0 0   0 0 0 0 0  0 0 0 0.1 0" type="matrix" in="shadowBlurOuter1"></feColorMatrix>
        </filter>
        <path d="M130.785667,70.0886667 L90.6966667,70.0886667 C86.8326667,70.0886667 83.72,66.976 83.72,63.112 L83.72,23.0766667 C83.72,19.2126667 86.8326667,16.1 90.6966667,16.1 L130.785667,16.1 C134.649667,16.1 137.762333,19.2126667 137.762333,23.0766667 L137.762333,63.1656667 C137.762333,66.976 134.596,70.0886667 130.785667,70.0886667" id="path-3"></path>
        <filter x="-14.8%" y="-13.0%" width="129.6%" height="129.6%" filterUnits="objectBoundingBox" id="filter-4">
            <feOffset dx="0" dy="1" in="SourceAlpha" result="shadowOffsetOuter1"></feOffset>
            <feGaussianBlur stdDeviation="2.5" in="shadowOffsetOuter1" result="shadowBlurOuter1"></feGaussianBlur>
            <feColorMatrix values="0 0 0 0 0.0117647059   0 0 0 0 0.654901961   0 0 0 0 0.941176471  0 0 0 0.5 0" type="matrix" in="shadowBlurOuter1"></feColorMatrix>
        </filter>
    </defs>
    <g id="padCard-床头卡" stroke="none" stroke-width="1" fill="none" fill-rule="evenodd">
        <g id="多重耐药备份" transform="translate(-927.000000, -28.000000)">
            <g id="防烫伤" transform="translate(925.000000, 24.000000)">
                <g id="编组" transform="translate(-4.293333, -3.440000)">
                    <g id="Fill-2">
                        <use fill="black" fill-opacity="1" filter="url(#filter-2)" xlink:href="#path-1"></use>
                        <use fill="#FFFFFF" fill-rule="evenodd" xlink:href="#path-1"></use>
                    </g>
                    <g id="Fill-5">
                        <use fill="black" fill-opacity="1" filter="url(#filter-4)" xlink:href="#path-3"></use>
                        <use fill="#03A7F0" fill-rule="evenodd" xlink:href="#path-3"></use>
                    </g>
                </g>
                <g id="图标位置" transform="translate(90.160000, 22.856667)">
                    <g id="编组" transform="translate(0.000000, 0.000000)" fill="#FFB400" opacity="0">
                        <g id="图标背景底板60*60px" transform="translate(0.000000, 0.000000)">
                            <rect x="3.55271368e-15" y="3.55271368e-15" width="32.2" height="32.2"></rect>
                        </g>
                    </g>
                    <g id="编组-8" transform="translate(4.293333, 2.683333)" fill="#FEFEFE">
                        <path d="M14.5672263,14.5677147 L14.629587,14.563958 L14.6423597,14.563958 L14.847098,14.6334564 L15.020656,14.7810934 L15.111943,14.9768157 L15.13561,15.196205 L14.66227,19.3924017 L14.6878153,19.494583 L14.7775997,19.553187 L14.8835377,19.52952 L14.9402633,19.4487517 L15.6656757,16.4261377 L15.735174,16.254458 L15.8610223,16.1154614 L16.0221833,16.0241744 L16.2047573,15.9892374 L16.3895853,16.01328 L16.5481167,16.0936727 L16.687489,16.219521 L16.7806543,16.3803064 L16.802443,16.563256 L16.6416577,17.677859 L16.5481167,18.2428617 L16.458708,18.794716 L16.250213,19.9096947 L16.21753,20.185434 L16.1716987,20.4611734 L16.135259,20.7372884 L16.111592,21.0242977 L16.0785333,21.576152 L16.0420937,22.1501707 L16.0221833,22.42591 L15.985368,22.713295 L15.9305207,22.9890344 L15.870414,23.2647737 L15.8373553,23.4037704 L15.7900213,23.5408887 L15.7569627,23.6671127 L15.6983587,23.8057337 L15.6420087,23.9319577 L15.585283,24.0581817 L15.4462863,24.2993597 L15.2963953,24.5405377 L15.1483827,24.7708214 L14.8140393,25.242283 L14.7317683,25.4030684 L15.353121,25.1382234 L15.9399123,24.816277 L16.5045393,24.4379807 L17.0105623,23.9905617 L17.4711297,23.5059517 L17.884363,22.96687 L18.2299763,22.3913487 L18.5275043,21.7827687 L18.7450153,21.150146 L18.907679,20.494232 L19.0008443,19.8165294 L19.010236,19.150848 L18.9644047,18.4731454 L18.8509533,17.8059614 L18.6556067,17.160566 L18.401656,16.5414674 L18.0800853,15.9437817 L17.699535,15.3806574 L17.275783,14.86374 L16.7930513,14.4031727 L16.250213,13.9771667 L15.6874643,13.620659 L15.0788843,13.323131 L14.4466373,13.0924717 L13.788845,12.932062 L13.1235393,12.8276267 L12.445461,12.805838 L11.7767743,12.8516694 L11.1114687,12.955729 L10.4660733,13.138303 L9.83382633,13.3922537 L9.234638,13.7010517 L8.673392,14.070332 L8.156099,14.4944597 L7.682759,14.9768157 L7.25712867,15.5068814 L6.88972667,16.06963 L6.591823,16.67821 L6.350645,17.3108327 L6.177087,17.953974 L6.07453,18.621158 L6.03809033,19.2992364 L6.07453,19.976939 L6.177087,20.644123 L6.350645,21.28764 L6.591823,21.9195114 L6.88972667,22.5299697 L7.25712867,23.093094 L7.682759,23.6212814 L8.156099,24.092743 L8.673392,24.5296434 L9.234638,24.8970454 L9.83382633,25.207346 L10.4660733,25.4616724 L10.372908,25.242283 L10.214001,25.0706034 L10.0532157,24.886151 L9.890552,24.7140957 L9.731645,24.5405377 L9.37513733,24.207697 L9.20157933,24.0360174 L9.03891567,23.8624594 L8.96040133,23.7711724 L8.890903,23.6798854 L8.83417733,23.58672 L8.77407067,23.484163 L8.72823933,23.3801034 L8.682408,23.2647737 L8.61290967,23.0363684 L8.51072833,22.575801 L8.44123,22.3455174 L8.37173167,22.1156094 L8.282323,21.8980984 L8.18915767,21.678709 L7.97164667,21.2545814 L7.75225733,20.8394697 L7.64970033,20.6223344 L7.556535,20.402945 L7.47463967,20.1726614 L7.417914,19.944256 L7.39612533,19.829302 L7.37208267,19.7139724 L7.36118833,19.5990184 L7.36118833,19.4727944 L7.34841567,19.2316164 L7.33939967,19.1162867 L7.30296,19.0013327 L7.25712867,18.8968974 L7.200403,18.794716 L7.13090467,18.7015507 L7.061782,18.5989937 L7.02872333,18.5189767 L7.015575,18.4731454 L7.00505633,18.4258114 L7.00505633,18.3927527 L7.015575,18.345043 L7.02872333,18.31236 L7.05239033,18.2646504 L7.074179,18.230089 L7.10723767,18.1970304 L7.176736,18.1279077 L7.25712867,18.0817007 L7.33939967,18.0471394 L7.417914,18.0234724 L7.51107933,18.0234724 L7.60424467,18.0234724 L7.694029,18.0234724 L7.785316,18.0347424 L7.87848133,18.0580337 L8.050161,18.1166377 L8.132432,18.138802 L8.21282467,18.1842577 L8.291339,18.2191947 L8.36083733,18.2646504 L8.432214,18.3232544 L8.499834,18.3796044 L8.55655967,18.4491027 L8.61290967,18.5189767 L8.658741,18.586221 L8.706075,18.6666137 L8.75190633,18.7488847 L8.77407067,18.829653 L8.808632,18.92094 L8.83417733,19.0013327 L8.85408767,19.1730124 L8.87813033,19.2661777 L8.90179733,19.3465704 L8.93861267,19.4273387 L8.98406833,19.494583 L9.08662533,19.644474 L9.13395933,19.7252424 L9.16513967,19.794365 L9.21247367,19.8747577 L9.234638,19.9551504 L9.29474467,20.1272057 L9.32780333,20.2075984 L9.37513733,20.287991 L9.42096867,20.3571137 L9.45365167,20.3920507 L9.49009133,20.4157177 L9.53592267,20.4375064 L9.57085967,20.4611734 L9.61631533,20.4724434 L9.66214667,20.4724434 L9.70760233,20.4724434 L9.75155533,20.4724434 L9.79738667,20.4484007 L9.83382633,20.4375064 L9.866885,20.402945 L9.90332467,20.368008 L9.949156,20.2988854 L9.98371733,20.2075984 L10.016776,20.1272057 L10.0295487,20.035543 L10.0423213,19.9551504 L10.0532157,19.770698 L10.0622317,19.5990184 L10.0750043,19.4273387 L9.61631533,15.748435 L9.63847967,15.5290457 L9.731645,15.3352017 L9.890552,15.196205 L10.0986713,15.1158124 L10.3180607,15.1158124 L10.513783,15.2070994 L10.6617957,15.357366 L10.7440667,15.5632314 L11.3965997,18.6793864 L11.4420553,18.7488847 L11.5243263,18.7706734 L11.5938247,18.7252177 L11.6174917,18.6557194 L11.5479933,14.828803 L11.5479933,14.8269247 L11.572036,14.5985194 L11.6742173,14.4031727 L11.8350027,14.2311174 L12.030725,14.1270577 L12.2501143,14.0812264 L12.478144,14.1161634 L12.686639,14.2183447 L12.845546,14.3686114 L12.9608757,14.5748524 L12.9973153,14.7942417 L12.9991937,14.7942417 L13.1107667,18.862336 L13.156598,18.9555014 L13.2497633,19.0013327 L13.3429287,18.9663957 L13.397776,18.886003 L14.0101127,15.0354197 L14.0901297,14.840073 L14.2253697,14.678912 L14.4229703,14.5748524 L14.5672263,14.5677147 Z M20.4464097,19.7815924 L20.4501663,19.7815924 L20.7811287,20.552836 L21.0459737,21.3458684 L21.2544687,22.1501707 L21.4024813,22.96687 L21.482874,23.8057337 L21.4956467,24.633703 L20.2180043,25.1618904 L18.907679,25.598415 L17.5736867,25.9661927 L16.226546,26.2547047 L14.859495,26.4613214 L13.4796713,26.576651 L12.1002233,26.6221067 L10.7203997,26.576651 L9.33869767,26.4613214 L7.97164667,26.2547047 L6.61361167,25.9661927 L5.27961933,25.598415 L3.98018833,25.1618904 L2.69165167,24.633703 L3.00044967,22.9086417 L3.37160833,21.185083 L3.80850867,19.4836887 L4.31453167,17.7931887 L4.336696,17.6324034 L4.301759,17.4843907 L4.20859367,17.3457697 L3.772069,16.8172067 L3.393397,16.2416854 L3.08309633,15.6331054 L2.82877,15.0004827 L2.63342333,14.346447 L2.51809367,13.6683687 L2.47451633,12.988412 L2.414034,12.3343764 L2.29870433,11.7017537 L2.093966,11.0695067 L1.829121,10.483091 L1.49477767,9.9199667 L1.09469267,9.4026737 L0.634125333,8.94210637 L0.127726667,8.54014303 L0.0217886667,8.4142947 L-2.13541777e-14,8.24223937 L0.0818953333,8.10361837 L0.217135333,8.01233137 L0.59731,7.95523003 L0.988379,7.96650003 L1.37982367,8.0468927 L1.73595567,8.1967837 L2.05752633,8.40340037 L2.346414,8.6791397 L3.381,10.391804 L4.37125733,12.1495484 L5.27961933,13.9426054 L5.383679,14.1033907 L5.53169167,14.2074504 L5.716144,14.2660544 L5.89909367,14.2423874 L6.07453,14.1619947 L6.200754,14.0121037 L6.809334,12.8516694 L7.52009533,11.7257964 L8.30411167,10.656649 L16.193863,10.656649 L16.5045393,11.391453 L16.584932,11.48274 L16.699886,11.530074 L16.8279883,11.506407 L16.9192753,11.4369087 L16.9651067,11.321579 L17.0545153,10.9196157 L17.217179,10.5525894 L17.458357,10.2178704 L17.7472447,9.93086103 L18.090604,9.71335003 L18.4711543,9.5638347 L18.874996,9.48344203 L19.275081,9.49433637 L19.6789227,9.57472903 L20.0463247,9.72424437 L20.3900597,9.9549037 L21.0132907,10.691586 L21.574161,11.48274 L22.0952107,12.2994394 L22.541127,13.1623457 L22.920926,14.046665 L23.2428723,14.9659214 L23.496823,15.8979504 L23.679397,16.851768 L23.794351,17.8059614 L23.8420607,18.7706734 L23.8183937,19.735761 L23.7857107,20.0009817 L23.679397,20.241784 L23.5077173,20.4375064 L23.3011007,20.5873974 L23.04715,20.67906 L22.7965803,20.702727 L22.5317353,20.6568957 L22.173725,20.5073804 L21.82999,20.311658 L21.5193137,20.0701044 L21.2431987,19.794365 L21.0132907,19.4727944 L21.0166717,19.4690377 L20.8960827,19.3574647 L20.74807,19.3229034 L20.5854063,19.3574647 L20.459558,19.4727944 L20.4137267,19.633204 L20.4464097,19.7815924 Z" id="Fill-119"></path>
                        <polygon id="Fill-121" points="15.9196639 4.71161133 14.5819149 2.71231333 14.4098596 2.390367 14.3185726 2.034235 14.2858896 1.67772733 14.3313452 1.31032533 14.4575692 0.965087667 14.6423972 0.643517 14.8925912 0.380174667 15.1923732 0.171679667 15.5248382 0.023667 15.6875019 6.67318053e-16 15.8467846 0.0458313333 15.9763896 0.149891 16.0567822 0.287009333 16.0676766 0.447794667 16.0312369 0.60858 15.9305582 0.736682333 15.7806672 0.817075 15.5612779 0.919256333 15.3659312 1.09281433 15.2288129 1.299431 15.1484202 1.52971467 15.1247532 1.781787 15.1683306 2.02334067 15.2836602 2.25362433 16.6544679 4.298378 16.8280259 4.60943 16.9287046 4.954292 16.9651442 5.29990533 16.9287046 5.64326467 16.8280259 5.988878 16.6544679 6.29993 16.4369569 6.564775 16.1570852 6.79318033 15.8467846 6.95396567 15.5158222 7.05802533 15.3531586 7.05802533 15.2051459 6.98890267 15.0883136 6.873573 15.0203179 6.72518467 15.0203179 6.564775 15.0883136 6.414884 15.2051459 6.29993 15.3531586 6.23043167 15.5853206 6.16055767 15.7900589 6.023815 15.9523469 5.85175967 16.0676766 5.632746 16.1116296 5.391568 16.1116296 5.15001433 16.0421312 4.92010633 15.9159072 4.71348967"></polygon>
                        <polygon id="Fill-123" points="12.8493778 4.71161133 11.5116288 2.71231333 11.3395735 2.390367 11.2464081 2.034235 11.2137251 1.67772733 11.2610591 1.31032533 11.3872831 0.965087667 11.5721111 0.643517 11.8223051 0.380174667 12.1239655 0.171679667 12.4545521 0.023667 12.6172158 -6.67318053e-16 12.7780011 0.0458313333 12.9061035 0.149891 12.9846178 0.287009333 12.9973905 0.447794667 12.9609508 0.60858 12.8583938 0.736682333 12.7103811 0.817075 12.4909918 0.919256333 12.2956451 1.09281433 12.1585268 1.299431 12.0743775 1.52971467 12.0544671 1.781787 12.0999228 2.02334067 12.2133741 2.25362433 13.5841818 4.298378 13.7449671 4.59816 13.8490268 4.92010633 13.8948581 5.24130133 13.8708155 5.57602033 13.7795285 5.908861 13.6390291 6.206389 13.4433068 6.47160967 13.2021288 6.70189333 13.2952941 6.747349 13.3647925 6.82774167 13.3884595 6.93180133 13.3884595 7.529487 13.3426281 7.655711 13.2385685 7.746998 12.9609508 7.86232767 12.9609508 8.16210967 13.5473665 8.34468367 14.0995965 8.58586167 14.6292865 8.89691367 15.1116425 9.27671267 15.5395268 9.71323733 15.9159448 10.1850747 8.48713647 10.1850747 8.8541628 9.71323733 9.2948198 9.28798267 9.76440313 8.920205 10.2816961 8.59901 10.8335505 8.34468367 11.4094475 8.16210967 11.4094475 7.86232767 11.1314541 7.746998 11.0288971 7.655711 10.9962141 7.529487 10.9962141 6.93180133 11.0198811 6.81684733 11.1115438 6.73645467 11.2246195 6.70189333 11.9485291 6.70189333 11.9631801 6.54073233 12.0180275 6.40211133 12.1348598 6.28678167 12.2828725 6.23043167 12.5150345 6.16055767 12.7193971 6.023815 12.8820608 5.85175967 12.9973905 5.632746 13.0432218 5.391568 13.0432218 5.15001433 12.9737235 4.92010633 12.8456211 4.71348967"></polygon>
                        <polygon id="Fill-125" points="9.69858633 4.71161133 8.36083733 2.71231333 8.18915767 2.390367 8.08660067 2.034235 8.06293367 1.67772733 8.10688667 1.31032533 8.22184067 0.965087667 8.417563 0.643517 8.658741 0.380174667 8.96040133 0.171679667 9.305639 0.023667 9.46642433 6.67318053e-16 9.61631533 0.0458313333 9.74253933 0.149891 9.82105367 0.287009333 9.84472067 0.447794667 9.79738667 0.60858 9.69482967 0.736682333 9.55620867 0.817075 9.32780333 0.919256333 9.14297533 1.09281433 8.99346 1.299431 8.91457 1.52971467 8.90179733 1.781787 8.94762867 2.02334067 9.04981 2.25362433 10.4333903 4.298378 10.5922973 4.60943 10.6944787 4.954292 10.731294 5.29990533 10.6944787 5.64326467 10.5922973 5.988878 10.4333903 6.29993 10.2012283 6.564775 9.93638333 6.79318033 9.625707 6.95396567 9.29474467 7.05802533 9.11930833 7.05802533 8.96941733 6.98890267 8.85408767 6.873573 8.79924033 6.72518467 8.79924033 6.564775 8.85408767 6.414884 8.96941733 6.29993 9.13395933 6.23043167 9.35147033 6.16055767 9.55620867 6.023815 9.71887233 5.85175967 9.83382633 5.632746 9.890552 5.391568 9.881536 5.15001433 9.81015933 4.92010633 9.69482967 4.71348967"></polygon>
                    </g>
                </g>
            </g>
        </g>
    </g>
</svg>