<?xml version="1.0" encoding="UTF-8"?>
<svg width="156px" height="123px" viewBox="0 0 156 123" version="1.1" xmlns="http://www.w3.org/2000/svg" xmlns:xlink="http://www.w3.org/1999/xlink">
    <title>防误吸窒息</title>
    <defs>
        <path d="M141.787333,119.462097 L26.8333333,119.462097 C20.93,119.462097 16.1,114.632097 16.1,108.728764 L16.1,26.8334303 C16.1,20.9300969 20.93,16.1000969 26.8333333,16.1000969 L141.787333,16.1000969 C147.690667,16.1000969 152.520667,20.9300969 152.520667,26.8334303 L152.520667,108.78243 C152.520667,114.685764 147.74487,119.462097 141.787333,119.462097" id="path-1"></path>
        <filter x="-11.4%" y="-14.0%" width="122.7%" height="130.0%" filterUnits="objectBoundingBox" id="filter-2">
            <feOffset dx="0" dy="1" in="SourceAlpha" result="shadowOffsetOuter1"></feOffset>
            <feGaussianBlur stdDeviation="5" in="shadowOffsetOuter1" result="shadowBlurOuter1"></feGaussianBlur>
            <feColorMatrix values="0 0 0 0 0   0 0 0 0 0   0 0 0 0 0  0 0 0 0.1 0" type="matrix" in="shadowBlurOuter1"></feColorMatrix>
        </filter>
        <path d="M130.785667,70.0887636 L90.6966667,70.0887636 C86.8326667,70.0887636 83.72,66.9760969 83.72,63.1120969 L83.72,23.0767636 C83.72,19.2127636 86.8326667,16.1000969 90.6966667,16.1000969 L130.785667,16.1000969 C134.649667,16.1000969 137.762333,19.2127636 137.762333,23.0767636 L137.762333,63.1657636 C137.762333,66.9760969 134.596,70.0887636 130.785667,70.0887636" id="path-3"></path>
        <filter x="-14.8%" y="-13.0%" width="129.6%" height="129.6%" filterUnits="objectBoundingBox" id="filter-4">
            <feOffset dx="0" dy="1" in="SourceAlpha" result="shadowOffsetOuter1"></feOffset>
            <feGaussianBlur stdDeviation="2.5" in="shadowOffsetOuter1" result="shadowBlurOuter1"></feGaussianBlur>
            <feColorMatrix values="0 0 0 0 0.196078431   0 0 0 0 0.450980392   0 0 0 0 0.250980392  0 0 0 0.5 0" type="matrix" in="shadowBlurOuter1"></feColorMatrix>
        </filter>
    </defs>
    <g id="页面-1" stroke="none" stroke-width="1" fill="none" fill-rule="evenodd">
        <g id="padCard-床头卡" transform="translate(-1108.000000, -28.000000)">
            <g id="防误吸窒息" transform="translate(1106.000000, 24.000000)">
                <g id="编组" transform="translate(-4.293333, -3.440097)">
                    <g id="Fill-2">
                        <use fill="black" fill-opacity="1" filter="url(#filter-2)" xlink:href="#path-1"></use>
                        <use fill="#FFFFFF" fill-rule="evenodd" xlink:href="#path-1"></use>
                    </g>
                    <g id="Fill-5">
                        <use fill="black" fill-opacity="1" filter="url(#filter-4)" xlink:href="#path-3"></use>
                        <use fill="#275F60" fill-rule="evenodd" xlink:href="#path-3"></use>
                    </g>
                </g>
                <g id="图标位置" transform="translate(90.160000, 22.856667)">
                    <g id="编组" transform="translate(0.000000, 0.000000)" fill="#FFB400" opacity="0">
                        <g id="图标背景底板60*60px" transform="translate(0.000000, 0.000000)">
                            <rect x="3.55271368e-15" y="3.55271368e-15" width="32.2" height="32.2"></rect>
                        </g>
                    </g>
                    <g id="编组-9" transform="translate(2.683333, 2.683333)" fill="#FEFEFE">
                        <path d="M7.20535905,15.6149607 C5.87437205,20.93966 3.69813505,21.5039113 3.45432738,21.5512453 C3.41939038,21.5576317 3.38407772,21.5621397 3.35026772,21.5621397 C3.08993072,21.5621397 2.85889572,21.3784387 2.80667805,21.1124667 C2.74882538,20.8130603 2.94454772,20.52267 3.24620805,20.4644417 C3.24620805,20.4636903 4.33338738,20.13949 5.35970872,17.7138103 C4.77179038,18.0537887 4.07492872,18.3445547 3.38107238,18.3445547 C2.85889572,18.3445547 2.33822172,18.1788857 1.86863838,17.7532553 C1.64549238,17.5477657 1.62858738,17.1987713 1.83407705,16.973747 C2.04219638,16.7445903 2.39306905,16.7310663 2.61659072,16.9384343 C3.64328772,17.875347 5.52349938,16.3073143 5.98369105,15.8948323 C6.03365472,15.7145123 6.08549672,15.5387003 6.13207938,15.3448563 C6.29587005,14.699461 6.54531272,14.1239397 6.85185672,13.6036413 C6.05957572,13.5202433 4.72445638,13.5807257 3.77627372,14.7257577 C3.66733038,14.859495 3.50842338,14.927115 3.35026772,14.927115 C3.22592205,14.927115 3.10044938,14.886543 2.99826805,14.8005153 C2.76197372,14.6051687 2.72853938,14.257677 2.92426172,14.022134 C4.48853772,12.12652 6.78912038,12.427429 7.57313672,12.598733 C7.94204138,12.164838 8.34701005,11.7824093 8.77001072,11.453701 C8.31320005,10.8477507 7.06335705,9.39880433 5.56519838,9.39880433 C5.25827872,9.39880433 5.00883605,9.15124 5.00883605,8.84544733 C5.00883605,8.53965467 5.25827872,8.29321733 5.56519838,8.29321733 C7.58816338,8.29321733 9.14492605,10.0971687 9.68814005,10.8274647 C10.2831961,10.4679517 10.8662307,10.190334 11.3854021,9.98108767 L11.7077241,9.76470367 C12.0153951,9.56071667 12.2021014,9.21472767 12.2021014,8.84544733 L12.2021014,1.10408433 C12.2021014,0.495128667 11.7054701,0 11.0950117,0 C10.4845534,0 9.99017605,0.495128667 9.99017605,1.10408433 L9.99017605,8.25489933 L9.28279572,8.72485833 C9.09308405,7.16509033 8.92440972,5.98587267 8.87219205,5.63650267 C8.82185272,5.31906433 8.64078138,5.03769 8.37030138,4.86450767 C8.10019705,4.69207667 7.76472672,4.64624533 7.45780705,4.73753233 C-0.11563295,7.00242667 -0.0607856163,13.2328583 0.014347717,21.858165 C0.0218610504,22.7717863 0.0297500504,23.7229743 0.0297500504,24.7064697 C0.0297500504,26.4818703 1.13533705,26.621994 1.47381272,26.621994 C2.25820472,26.621994 2.86603338,25.9991387 3.64103372,25.208736 C4.01632472,24.825556 4.48365405,24.349962 4.75450972,24.2042033 C5.30486138,23.9085537 5.83567838,23.7259797 6.34771205,23.5479137 C7.61408438,23.109135 9.04950672,22.612128 9.62277405,20.5065163 C10.0807117,18.818646 9.93345038,15.364391 9.64719238,12.1960183 C8.57241005,12.9777807 7.58816338,14.081865 7.20535905,15.6149607" id="Fill-127"></path>
                        <path d="M19.4135866,15.6149607 C20.7483302,20.93966 22.9238159,21.5039113 23.1661209,21.5512453 C23.2025606,21.5576317 23.2390002,21.5621397 23.2716832,21.5621397 C23.5316446,21.5621397 23.7641822,21.3784387 23.8122676,21.1124667 C23.8731256,20.8130603 23.6777789,20.52267 23.3757429,20.4644417 C23.3757429,20.4636903 22.2878122,20.13949 21.2629936,17.7138103 C21.8501606,18.0537887 22.5440169,18.3445547 23.2408786,18.3445547 C23.7641822,18.3445547 24.2837292,18.1788857 24.7521856,17.7532553 C24.9779612,17.5477657 24.9914852,17.1987713 24.7848686,16.973747 C24.5805059,16.7445903 24.2288819,16.7310663 24.0034819,16.9384343 C22.9790389,17.875347 21.0984516,16.3073143 20.6386356,15.8948323 C20.5875449,15.7145123 20.5375812,15.5387003 20.4883689,15.3448563 C20.3272079,14.699461 20.0777652,14.1239397 19.7712212,13.6036413 C20.5635022,13.5202433 21.8971189,13.5807257 22.8456772,14.7257577 C22.9546206,14.859495 23.1139032,14.927115 23.2716832,14.927115 C23.3952776,14.927115 23.5215016,14.886543 23.6236829,14.8005153 C23.8596016,14.6051687 23.8907819,14.257677 23.6988162,14.022134 C22.1311592,12.12652 19.8324549,12.427429 19.0503169,12.598733 C18.6810366,12.164838 18.2753166,11.7824093 17.8493106,11.453701 C18.3098779,10.8477507 19.5600966,9.39880433 21.0567526,9.39880433 C21.3632966,9.39880433 21.6112366,9.15124 21.6112366,8.84544733 C21.6112366,8.53965467 21.3632966,8.29321733 21.0567526,8.29321733 C19.0326606,8.29321733 17.4770249,10.0971687 16.9315569,10.8274647 C16.3406332,10.4679517 15.7564716,10.190334 15.2335436,9.98108767 L14.9112216,9.76470367 C14.6043019,9.56071667 14.4198496,9.21472767 14.4198496,8.84544733 L14.4198496,1.10408433 C14.4198496,0.495128667 14.9161052,0 15.5243096,0 C16.1381489,0 16.6321506,0.495128667 16.6321506,1.10408433 L16.6321506,8.25489933 L17.3395309,8.72485833 C17.5292426,7.16509033 17.6979169,5.98587267 17.7501346,5.63650267 C17.7970929,5.31906433 17.9792912,5.03769 18.2520252,4.86450767 C18.5251349,4.69207667 18.8575999,4.64624533 19.1648952,4.73753233 C26.7349542,7.00242667 26.6804826,13.2328583 26.6083546,21.858165 C26.5982116,22.7717863 26.5891956,23.7229743 26.5891956,24.7064697 C26.5891956,26.4818703 25.4877409,26.621994 25.1473869,26.621994 C24.3637462,26.621994 23.7536636,25.9991387 22.9809172,25.208736 C22.6067532,24.825556 22.1382969,24.349962 21.8685682,24.2042033 C21.3167139,23.9085537 20.7870239,23.7259797 20.2723606,23.5479137 C19.0086179,23.109135 17.5739469,22.612128 16.9991769,20.5065163 C16.5382339,18.818646 16.6900032,15.364391 16.9751342,12.1960183 C18.0499166,12.9777807 19.0326606,14.081865 19.4135866,15.6149607" id="Fill-129"></path>
                    </g>
                </g>
            </g>
        </g>
    </g>
</svg>