<?xml version="1.0" encoding="UTF-8"?>
<svg width="156px" height="123px" viewBox="0 0 156 123" version="1.1" xmlns="http://www.w3.org/2000/svg" xmlns:xlink="http://www.w3.org/1999/xlink">
    <title>防跌倒</title>
    <defs>
        <path d="M141.787333,119.462097 L26.8333333,119.462097 C20.93,119.462097 16.1,114.632097 16.1,108.728764 L16.1,26.8334303 C16.1,20.9300969 20.93,16.1000969 26.8333333,16.1000969 L141.787333,16.1000969 C147.690667,16.1000969 152.520667,20.9300969 152.520667,26.8334303 L152.520667,108.78243 C152.520667,114.685764 147.74487,119.462097 141.787333,119.462097" id="path-1"></path>
        <filter x="-11.4%" y="-14.0%" width="122.7%" height="130.0%" filterUnits="objectBoundingBox" id="filter-2">
            <feOffset dx="0" dy="1" in="SourceAlpha" result="shadowOffsetOuter1"></feOffset>
            <feGaussianBlur stdDeviation="5" in="shadowOffsetOuter1" result="shadowBlurOuter1"></feGaussianBlur>
            <feColorMatrix values="0 0 0 0 0   0 0 0 0 0   0 0 0 0 0  0 0 0 0.1 0" type="matrix" in="shadowBlurOuter1"></feColorMatrix>
        </filter>
        <path d="M130.785667,70.0887636 L90.6966667,70.0887636 C86.8326667,70.0887636 83.72,66.9760969 83.72,63.1120969 L83.72,23.0767636 C83.72,19.2127636 86.8326667,16.1000969 90.6966667,16.1000969 L130.785667,16.1000969 C134.649667,16.1000969 137.762333,19.2127636 137.762333,23.0767636 L137.762333,63.1657636 C137.762333,66.9760969 134.596,70.0887636 130.785667,70.0887636" id="path-3"></path>
        <filter x="-14.8%" y="-13.0%" width="129.6%" height="129.6%" filterUnits="objectBoundingBox" id="filter-4">
            <feOffset dx="0" dy="1" in="SourceAlpha" result="shadowOffsetOuter1"></feOffset>
            <feGaussianBlur stdDeviation="2.5" in="shadowOffsetOuter1" result="shadowBlurOuter1"></feGaussianBlur>
            <feColorMatrix values="0 0 0 0 0.196078431   0 0 0 0 0.450980392   0 0 0 0 0.250980392  0 0 0 0.5 0" type="matrix" in="shadowBlurOuter1"></feColorMatrix>
        </filter>
    </defs>
    <g id="页面-1" stroke="none" stroke-width="1" fill="none" fill-rule="evenodd">
        <g id="padCard-床头卡" transform="translate(-384.000000, -28.000000)">
            <g id="防跌倒" transform="translate(382.000000, 24.000000)">
                <g id="编组" transform="translate(-4.293333, -3.440097)">
                    <g id="Fill-2">
                        <use fill="black" fill-opacity="1" filter="url(#filter-2)" xlink:href="#path-1"></use>
                        <use fill="#FFFFFF" fill-rule="evenodd" xlink:href="#path-1"></use>
                    </g>
                    <g id="Fill-5">
                        <use fill="black" fill-opacity="1" filter="url(#filter-4)" xlink:href="#path-3"></use>
                        <use fill="#275F60" fill-rule="evenodd" xlink:href="#path-3"></use>
                    </g>
                </g>
                <g id="图标位置" transform="translate(90.160000, 22.856667)">
                    <g id="编组" transform="translate(0.000000, 0.000000)" fill="#FFB400" opacity="0">
                        <g id="图标背景底板60*60px" transform="translate(0.000000, 0.000000)">
                            <rect x="3.55271368e-15" y="3.55271368e-15" width="32.2" height="32.2"></rect>
                        </g>
                    </g>
                    <g id="编组" transform="translate(3.220000, 0.000000)" fill="#FEFEFE">
                        <polygon id="Fill-63" points="19.6756522 30.465064 22.3415596 30.4217518 25.2850184 30.1216605 25.3990443 31.0351934 22.4851969 31.4532883 19.8095663 31.6636616 17.1352616 31.6795722 14.4609569 31.5142789 11.608542 31.1390542 11.3747447 29.1626056 14.3730067 29.8816758 17.0150482 30.2865118"></polygon>
                        <polygon id="Fill-65" points="6.82816153 24.5711192 9.7203529 25.643758 12.2961004 26.3548729 14.9266509 26.8423556 17.5770898 27.1115098 20.5364592 27.1570317 20.5364592 28.0763102 17.5930004 28.1585149 14.9266509 28.0391855 12.2585337 27.7479333 9.6301929 27.2688478 6.82816153 26.5634784"></polygon>
                        <polygon id="Fill-67" points="8.22913302 0.359535098 8.37851576 0.367490392 8.52966635 0.381191176 8.7241291 0.665813922 8.9190338 0.950878627 9.10509929 1.24389863 9.27834792 1.52896333 9.44319929 1.81933157 9.59258204 2.11235157 9.728264 2.41111706 9.84803537 2.71120843 9.97576204 3.00997392 10.0796228 3.31050725 10.1759703 3.60927275 10.2586169 3.90980608 10.4102095 4.51485039 10.5140703 5.11414922 10.5808064 5.71344804 10.6126275 6.31274686 10.6126275 6.89038961 10.5671056 7.4742198 10.4924142 8.02799667 10.3863436 8.58177353 10.2528715 9.11477824 10.0796228 9.63894373 9.88516008 10.1401273 9.66727341 10.6059539 9.41402988 11.0616155 9.12896518 11.4801524 9.0542738 11.5782676 9.01670714 11.6313029 9.00123851 11.652959 8.98532792 11.6688696 8.98532792 11.6763829 9.06001929 11.788199 9.21161184 11.9968045 9.50242204 12.4325778 10.0796228 13.3010308 10.3805981 13.7058669 10.6948322 14.087279 10.8579158 14.2737865 11.0152538 14.4386378 11.1880605 14.6039312 11.3608671 14.7533139 11.5394193 14.8889959 11.7281365 15.000812 11.9225993 15.1046727 12.117504 15.1952747 12.2213648 15.2323994 12.2744001 15.2562653 12.2960562 15.2624527 12.3115248 15.2699661 12.3353907 15.2562653 12.7380169 14.9928567 13.142853 14.7453586 13.5476891 14.5212845 13.9520832 14.3272637 14.3569193 14.1540151 14.7617554 14.0125876 15.1665915 13.884861 15.5555169 13.7885135 15.960353 13.7195676 16.3572338 13.6528316 16.738204 13.6157069 17.1293393 13.5997963 17.5023542 13.5997963 17.8859762 13.6294076 18.2589911 13.6665324 18.6187471 13.7195676 18.9780613 13.794259 19.329862 13.884861 19.6834307 13.9891637 20.0113656 14.1084931 20.0944542 14.1403143 20.1390922 14.1540151 20.1550028 14.1615284 20.1691456 14.1694837 20.2451628 14.1990951 20.5655844 14.3272637 21.1962624 14.5822751 21.5029832 14.7082339 21.7796507 14.8514292 22.0567601 14.9928567 22.2967448 15.1422394 22.5146315 15.3017873 22.7011389 15.4723841 22.7758303 15.5625441 22.8505216 15.6668469 22.9336103 15.8184394 23.0078597 15.9598669 23.0688503 16.1008524 23.1218856 16.2524449 23.1651977 16.3938724 23.1886216 16.5352998 23.2098358 16.6789371 23.2098358 16.8124092 23.2098358 16.9476492 23.1965769 17.0753759 23.1651977 17.1955892 23.1355864 17.3074053 23.0905064 17.4196633 23.0312836 17.5257339 22.970293 17.6141261 22.9035569 17.7042861 22.8133969 17.7869327 22.7250048 17.8536688 22.6348448 17.9146594 22.5283322 17.9597394 22.4770648 17.9813955 22.4478954 17.9893508 22.3793915 18.0048194 22.2300087 18.0105649 22.0651573 17.9968641 21.8919087 17.9597394 21.7208699 17.9146594 21.3615558 17.7869327 21.0075452 17.6450633 20.8449036 17.5845147 20.7993816 17.5686041 20.7834711 17.5628586 20.7702122 17.5628586 20.738833 17.54739 20.5068036 17.4647433 20.0197628 17.29945 19.5265346 17.1580225 19.0310965 17.0307378 18.5223997 16.9321806 18.2669464 16.8946139 18.0057475 16.8729578 17.7343836 16.8654445 17.4652295 16.8654445 17.2040307 16.8888684 16.9273632 16.9259931 16.6418565 16.9777025 16.3572338 17.0462065 16.0646558 17.1284112 15.7716358 17.2486245 15.4653569 17.3741414 15.3906656 17.411708 15.3530989 17.435132 15.374755 17.4488327 15.4202769 17.5098233 15.5316511 17.6220814 15.6456769 17.728152 15.9073177 17.9146594 16.1923824 18.0795108 16.4849605 18.2209382 16.8071499 18.3566202 17.1350848 18.4843469 17.8112848 18.7375904 18.146733 18.8812276 18.4693644 19.0443112 18.7698977 19.2091625 19.0766185 19.3903665 19.3828973 19.5843873 19.6834307 19.7868053 19.9897095 20.0029241 20.288475 20.2349535 20.581495 20.4687508 20.8506491 20.7082935 21.1215711 20.939881 21.3673013 21.187821 21.4282918 21.2545571 21.5029832 21.3292484 21.6461785 21.4865865 21.9232879 21.8242445 22.2003973 22.1840006 22.4695515 22.5804394 22.7095362 22.9914629 22.9274228 23.4179551 23.015815 23.6437971 23.105975 23.8753845 23.1806664 24.0994586 23.2416569 24.3257425 23.2929244 24.5710308 23.3300491 24.7968727 23.353915 25.0368575 23.3614283 25.2764002 23.353915 25.3886582 23.353915 25.447439 23.3459597 25.4633496 23.3300491 25.4788182 23.2929244 25.5079876 23.1435416 25.6127324 23.0021142 25.7028924 22.8664322 25.7696284 22.7387056 25.830619 22.6030236 25.875699 22.4695515 25.9053104 22.3418248 25.9269665 22.2220534 25.9344798 22.0943267 25.9269665 21.9820687 25.9128237 21.8627393 25.8893998 21.7579946 25.8522751 21.5325946 25.7559276 21.3160338 25.6127324 21.1061024 25.4549524 20.9036844 25.2609316 20.7092216 25.0505582 20.5222722 24.8264841 20.3339969 24.5864994 19.9605401 24.0994586 19.5932707 23.6066724 19.4125087 23.3746429 19.2260013 23.1642696 19.0390518 22.9698069 18.9409365 22.8792049 18.8582899 22.8045135 18.6797377 22.6476175 18.4932303 22.4902794 18.0883942 22.1760453 17.6464334 21.875512 17.1726515 21.5904473 16.9273632 21.4649304 16.6719099 21.3447171 16.4160146 21.2386465 16.1627711 21.142299 15.8914071 21.0676076 15.622695 20.9991037 15.3530989 20.9540237 15.0843867 20.939881 14.8147907 20.939881 14.5359134 20.9540237 14.2667593 20.9915904 14.1253318 21.0229696 14.0643413 21.0362284 14.0506405 21.0446257 13.9445699 21.0737951 13.7580624 21.1639551 13.5773005 21.2686998 13.3983064 21.3663731 13.233013 21.4569751 13.1583216 21.4940998 13.1353397 21.4940998 13.0389922 21.5396218 12.8206636 21.6063578 12.6125001 21.6730939 12.410082 21.7181739 12.207664 21.7636959 12.0132013 21.7928653 11.8324393 21.8167312 11.6454899 21.830432 11.2861758 21.8383873 10.9405624 21.8008206 10.6263283 21.7420398 10.3116522 21.6434825 10.0128867 21.5157559 9.728264 21.3588598 9.45115459 21.1798657 9.17448714 20.9774476 8.9190338 20.7458602 8.66313851 20.5058755 8.40989498 20.2349535 8.16239694 19.9441433 7.9148989 19.6374225 7.6749142 19.3209786 7.42785812 18.9855304 7.17991812 18.6337296 7.05440125 18.4525257 7.02302204 18.415401 7.00887929 18.3941869 7.00136596 18.3782763 6.97750008 18.3566202 6.910764 18.2448041 6.76138125 18.0105649 6.59652988 17.749808 6.25224243 17.2172453 6.07192243 16.9777025 5.88497302 16.7611418 5.79481302 16.6705398 5.69846557 16.5883351 5.6158189 16.5295543 5.5256589 16.476519 5.42710165 16.4389524 5.34489694 16.4309971 5.25606282 16.4309971 5.23308086 16.4389524 5.1955142 16.4469076 5.12877812 16.476519 5.02270753 16.5432551 4.94006086 16.6334151 4.87332478 16.7452312 4.83575812 16.8813551 4.81410204 17.0307378 4.81410204 17.1955892 4.82205733 17.3741414 4.85166871 17.5549033 4.88879341 17.749808 4.94006086 17.9597394 5.05983224 18.3782763 5.20302753 18.7906257 5.35241027 19.2016492 5.41958831 19.3903665 5.4885342 19.576432 5.54112753 19.7417253 5.5786942 19.8164167 5.5786942 19.8380727 5.59239498 19.869452 5.6158189 19.9520986 5.85580361 20.5942676 6.10904714 21.2311331 6.22926047 21.5471351 6.34107655 21.8538559 6.43919184 22.1526214 6.52183851 22.4451994 6.58106125 22.7223088 6.63409655 22.9914629 6.64956518 23.2469163 6.63409655 23.4789457 6.58106125 23.7025778 6.54349459 23.8090904 6.50018243 23.9049959 6.43919184 24.0031112 6.37245576 24.0937131 6.2898091 24.17415 6.19920714 24.2510512 6.09534635 24.3257425 5.98353027 24.3924786 5.85580361 24.4534692 5.72012165 24.5042947 5.56322557 24.55733 5.38997694 24.5864994 5.20302753 24.6240661 5.00900675 24.64749 4.95597145 24.6536775 4.93431537 24.6536775 4.92636008 24.64749 4.89674871 24.6320214 4.83575812 24.6103653 4.71642871 24.5334641 4.611684 24.4534692 4.50561341 24.3628673 4.31910596 24.17415 4.15425459 23.9500759 4.01282714 23.7025778 3.88510047 23.441379 3.77284243 23.1722249 3.6672138 22.8951155 3.46479576 22.3333833 3.45065302 22.2644375 3.43518439 22.2507367 3.4272291 22.1977014 3.3821491 22.0854433 3.21906557 21.6143131 2.87345224 20.6397896 2.54507537 19.6374225 2.39392478 19.1269578 2.25249733 18.618261 2.132284 18.1170775 2.02046792 17.6141261 1.93030792 17.1284112 1.86357184 16.6413704 1.81804988 16.1697982 1.80258125 15.7119269 1.81804988 15.2699661 1.86887537 14.8514292 1.90644204 14.6490112 1.951964 14.4549904 2.00499929 14.2600857 2.07129341 14.0713684 2.14598478 13.8928163 2.23658675 13.7195676 2.33470204 13.5547163 2.43104949 13.3973782 2.55082086 13.2484375 2.68650282 13.0990547 2.71567224 13.0694433 2.73202478 13.0539747 2.7532389 13.0323186 2.79876086 12.9929841 2.98526831 12.8356461 3.1814989 12.6867053 3.3821491 12.5527912 3.78654322 12.3132484 4.19933459 12.0794512 4.58251459 11.833721 4.76106675 11.698039 4.92636008 11.5703124 5.2405942 11.3011582 5.54112753 11.0023927 5.82442439 10.6943461 6.1015338 10.37967 6.22926047 10.222332 6.33533106 10.087092 6.44714714 9.94522255 6.66326596 9.63894373 6.89662125 9.30879902 7.12909263 8.95699824 7.35316675 8.60563941 7.55514282 8.23792804 7.73590478 7.86314529 7.88528753 7.49720176 8.0050589 7.12241902 8.05058086 6.94298294 8.07975027 6.75470765 8.0952189 6.66454765 8.10140635 6.6053249 8.10936165 6.48555353 8.10936165 6.23805549 8.0952189 5.98481196 8.05588439 5.72891667 8.0130142 5.4681598 7.88528753 4.95681118 7.74165027 4.4640249 7.6749142 4.2240402 7.60022282 4.01410882 7.51006282 3.79754804 7.40620204 3.58761667 7.17373067 3.16112451 6.94037537 2.72667706 6.83607263 2.50879039 6.75342596 2.27720294 6.68668988 2.04517353 6.66326596 1.91744686 6.64956518 1.80518882 6.64956518 1.6995602 6.66326596 1.57978882 6.68668988 1.46753078 6.72425655 1.35571471 6.77729184 1.24389863 6.83607263 1.13164059 6.910764 1.02557 7.00136596 0.929222549 7.09152596 0.831107255 7.19538675 0.740505294 7.30764478 0.658300588 7.41946086 0.583609216 7.54718753 0.516431176 7.6749142 0.463395882 7.81059616 0.418757843 7.94406831 0.381191176 8.08770557 0.367490392"></polygon>
                        <polygon id="Fill-69" points="3.34471502 5.97681247 3.55508835 5.98476776 3.7495511 6.02189247 3.95196914 6.06697247 4.14068639 6.13370855 4.32719384 6.21635522 4.49779071 6.31270267 4.65733855 6.41877325 4.82218992 6.54429012 4.96361737 6.68792737 5.10504482 6.84526541 5.23277149 7.01011678 5.35254286 7.1891109 5.45861345 7.38357365 5.5549609 7.57980424 5.57882678 7.63107169 5.57882678 7.65449561 5.59252757 7.66819639 5.61595149 7.72918698 5.68268757 7.9532611 5.73572286 8.17910306 5.77328953 8.39566384 5.78654835 8.60559522 5.78654835 8.81375875 5.76533424 9.00998933 5.72820953 9.20489404 5.68268757 9.39184345 5.61595149 9.57039561 5.54126012 9.75115757 5.45110012 9.90849561 5.34458757 10.073347 5.23277149 10.2222878 5.10504482 10.365925 4.97157267 10.4993972 4.82218992 10.6271238 4.67103933 10.7473372 4.505746 10.851198 4.34840796 10.9493133 4.1778111 11.0319599 3.99704914 11.1066513 3.81805502 11.1654321 3.62977973 11.2184674 3.45078561 11.2639893 3.26206835 11.2856454 3.06760561 11.301114 2.88109816 11.301114 2.69414875 11.2856454 2.50587345 11.2715027 2.32687933 11.2264227 2.14611737 11.1733874 1.96756522 11.1066513 1.79431659 11.0240046 1.62327776 10.9258893 1.46461384 10.8136313 1.3072758 10.6806011 1.17380365 10.5290085 1.03060835 10.365925 0.91039502 10.1931184 0.790623647 9.99865561 0.686320902 9.78032698 0.588205608 9.54034227 0.574062863 9.48200345 0.566549529 9.45813757 0.558594235 9.44443678 0.543125608 9.39935678 0.491858157 9.21859482 0.454733451 9.04004267 0.425564039 8.86679404 0.40921149 8.70194267 0.40921149 8.53664933 0.40921149 8.37975325 0.430867569 8.21445992 0.454733451 8.06551914 0.491858157 7.91613639 0.543125608 7.77426698 0.604116196 7.63107169 0.670852275 7.49715757 0.753498941 7.36191757 0.843658941 7.22623561 0.941774235 7.10071875 1.05359031 6.98050541 1.17380365 6.86692149 1.30153031 6.75466345 1.42704718 6.64284737 1.57863973 6.54429012 1.7355358 6.44794267 1.981266 6.320216 2.21506325 6.20839992 2.44709267 6.11823992 2.67868012 6.05150384 2.90275424 6.00598188 3.1285962 5.98476776"></polygon>
                    </g>
                </g>
            </g>
        </g>
    </g>
</svg>