<?xml version="1.0" encoding="UTF-8"?>
<svg width="156px" height="123px" viewBox="0 0 156 123" version="1.1" xmlns="http://www.w3.org/2000/svg" xmlns:xlink="http://www.w3.org/1999/xlink">
    <title>防药液外渗</title>
    <defs>
        <path d="M141.787333,119.462097 L26.8333333,119.462097 C20.93,119.462097 16.1,114.632097 16.1,108.728764 L16.1,26.8334303 C16.1,20.9300969 20.93,16.1000969 26.8333333,16.1000969 L141.787333,16.1000969 C147.690667,16.1000969 152.520667,20.9300969 152.520667,26.8334303 L152.520667,108.78243 C152.520667,114.685764 147.74487,119.462097 141.787333,119.462097" id="path-1"></path>
        <filter x="-11.4%" y="-14.0%" width="122.7%" height="130.0%" filterUnits="objectBoundingBox" id="filter-2">
            <feOffset dx="0" dy="1" in="SourceAlpha" result="shadowOffsetOuter1"></feOffset>
            <feGaussianBlur stdDeviation="5" in="shadowOffsetOuter1" result="shadowBlurOuter1"></feGaussianBlur>
            <feColorMatrix values="0 0 0 0 0   0 0 0 0 0   0 0 0 0 0  0 0 0 0.1 0" type="matrix" in="shadowBlurOuter1"></feColorMatrix>
        </filter>
        <path d="M130.785667,70.0887636 L90.6966667,70.0887636 C86.8326667,70.0887636 83.72,66.9760969 83.72,63.1120969 L83.72,23.0767636 C83.72,19.2127636 86.8326667,16.1000969 90.6966667,16.1000969 L130.785667,16.1000969 C134.649667,16.1000969 137.762333,19.2127636 137.762333,23.0767636 L137.762333,63.1657636 C137.762333,66.9760969 134.596,70.0887636 130.785667,70.0887636" id="path-3"></path>
        <filter x="-14.8%" y="-13.0%" width="129.6%" height="129.6%" filterUnits="objectBoundingBox" id="filter-4">
            <feOffset dx="0" dy="1" in="SourceAlpha" result="shadowOffsetOuter1"></feOffset>
            <feGaussianBlur stdDeviation="2.5" in="shadowOffsetOuter1" result="shadowBlurOuter1"></feGaussianBlur>
            <feColorMatrix values="0 0 0 0 0.196078431   0 0 0 0 0.450980392   0 0 0 0 0.250980392  0 0 0 0.5 0" type="matrix" in="shadowBlurOuter1"></feColorMatrix>
        </filter>
    </defs>
    <g id="页面-1" stroke="none" stroke-width="1" fill="none" fill-rule="evenodd">
        <g id="padCard-床头卡" transform="translate(-22.000000, -177.000000)">
            <g id="防药液外渗" transform="translate(20.000000, 173.000000)">
                <g id="编组" transform="translate(-4.293333, -3.440097)">
                    <g id="Fill-2">
                        <use fill="black" fill-opacity="1" filter="url(#filter-2)" xlink:href="#path-1"></use>
                        <use fill="#FFFFFF" fill-rule="evenodd" xlink:href="#path-1"></use>
                    </g>
                    <g id="Fill-5">
                        <use fill="black" fill-opacity="1" filter="url(#filter-4)" xlink:href="#path-3"></use>
                        <use fill="#275F60" fill-rule="evenodd" xlink:href="#path-3"></use>
                    </g>
                </g>
                <g id="图标位置" transform="translate(90.160000, 22.856667)">
                    <g id="编组" transform="translate(0.000000, 0.000000)" fill="#FFB400" opacity="0">
                        <g id="图标背景底板60*60px" transform="translate(0.000000, 0.000000)">
                            <rect x="3.55271368e-15" y="3.55271368e-15" width="32.2" height="32.2"></rect>
                        </g>
                    </g>
                    <g id="编组-4" transform="translate(1.610000, 2.683333)" fill="#FEFEFE">
                        <path d="M23.7260548,18.061302 L22.7883908,17.0161973 L20.5802221,19.0038497 L19.3198605,17.605994 L21.5276535,15.6183417 L20.7297375,14.7295143 L18.5215688,16.7175423 L17.2781121,15.3392213 L19.4862808,13.3609607 L18.5020341,12.2643897 L14.6367998,15.7528303 L19.8510531,21.547113 L23.7260548,18.061302 Z M27.1851935,19.4467607 L28.5266991,20.935152 L22.2083615,26.621994 L20.8766231,25.141116 L22.5047625,23.6767673 L21.4100698,22.455475 L19.7725388,23.919448 L8.0122938,10.8469993 L8.51681413,5.446791 L4.27666447,0.741566 L3.60835347,0 L5.0550458,0.254702 L5.65723947,0.927896667 L9.16559047,4.82957067 L14.3208641,5.162787 L26.0908765,18.2254683 L24.4653668,19.694325 L25.5596838,20.9178713 L27.1851935,19.4467607 Z" id="Fill-77"></path>
                        <polygon id="Fill-79" points="11.8386466 23.1826905 11.848414 23.4565515 11.8386466 23.7360475 11.7995773 24.0072789 11.7285763 24.2766319 11.650062 24.5411012 11.5422456 24.7958032 11.4152703 25.0429919 11.265755 25.2706459 11.0895673 25.4885325 10.9009826 25.6943979 10.695493 25.8826069 10.4776063 26.0490272 10.240185 26.1981669 9.9952503 26.3232639 9.7382943 26.4333342 9.4813383 26.5118485 9.20710163 26.5708282 8.9302353 26.6121515 8.65374463 26.6219189 8.37725397 26.6121515 8.1030173 26.5708282 7.83629397 26.5118485 7.56919497 26.4333342 7.31486863 26.3232639 7.0673043 26.1981669 6.82988297 26.0490272 6.61462597 25.8826069 6.40650663 25.6943979 6.22055163 25.4885325 6.05150163 25.2706459 5.90461597 25.0429919 5.77501097 24.7958032 5.66719463 24.5411012 5.57891297 24.2766319 5.52030897 24.0072789 5.47860997 23.7360475 5.4590753 23.4565515 5.4714723 23.1826905 5.51054163 22.9061999 5.5593783 22.6315875 5.63789263 22.3648642 5.74570897 22.1105379 5.87531397 21.8629735 8.53616097 17.1017742 8.5752303 17.0649589 8.62444263 17.0330272 8.68304663 17.0330272 8.7318833 17.0649589 8.7713283 17.1017742 11.4445723 21.8629735 11.5719233 22.1105379 11.6695966 22.3648642 11.748111 22.6315875 11.8093446 22.9061999"></polygon>
                        <polygon id="Fill-81" points="4.820179 6.9251896 4.82994633 7.13105493 4.80064433 7.3511956 4.751432 7.54466393 4.680431 7.75503727 4.58275767 7.94136793 4.465174 8.1175556 4.32580167 8.2742086 4.16914867 8.4162106 4.00272833 8.5311646 3.81414367 8.6314676 3.61804567 8.70998193 3.410302 8.7565646 3.201807 8.7881206 2.98655 8.7881206 2.77843067 8.7565646 2.572941 8.70998193 2.374589 8.6314676 2.188634 8.5311646 2.019584 8.4162106 1.862931 8.2742086 1.71341567 8.1175556 1.59620767 7.94136793 1.507926 7.75503727 1.42978733 7.54466393 1.378321 7.3511956 1.35878633 7.13105493 1.35878633 6.9251896 1.390718 6.71969993 1.449322 6.5115806 1.52746067 6.31585827 1.62550967 6.1272736 2.97678267 3.99235993 3.015852 3.9510366 3.06506433 3.91910493 3.12366833 3.91910493 3.17288067 3.9510366 3.21195 3.99235993 4.563223 6.1272736 4.66089633 6.31585827 4.74204033 6.5115806 4.790877 6.71969993"></polygon>
                        <polygon id="Fill-83" points="4.820179 15.5277684 4.82994633 15.7847244 4.81041167 16.0319131 4.77134233 16.2742181 4.71236267 16.5217824 4.621827 16.7565741 4.50424333 16.9868578 4.364871 17.1900934 4.208218 17.3906994 4.03203033 17.5668871 3.83367833 17.7235401 3.61804567 17.8632881 3.40053467 17.9778664 3.16273767 18.0687778 2.91817867 18.1397788 2.67099 18.1788481 2.41365833 18.1886154 2.16909933 18.1788481 1.91176767 18.1397788 1.67434633 18.0687778 1.43955467 17.9778664 1.21190067 17.8632881 1.00378133 17.7235401 0.808059 17.5668871 0.629241667 17.3906994 0.462821333 17.1900934 0.325703 16.9868578 0.215632667 16.7565741 0.127351 16.5217824 0.0589796667 16.2742181 0.0195346667 16.0319131 -1.10107479e-14 15.7847244 0.0195346667 15.5277684 0.0589796667 15.2805798 0.117583667 15.0333911 0.205489667 14.7982238 0.325703 14.5728238 2.29645033 11.1234524 2.33551967 11.0821291 2.38435633 11.0622188 2.443336 11.0622188 2.49217267 11.0821291 2.53387167 11.1234524 4.50424333 14.5728238 4.621827 14.7982238 4.71236267 15.0333911 4.78110967 15.2805798"></polygon>
                    </g>
                </g>
            </g>
        </g>
    </g>
</svg>