<?xml version="1.0" encoding="UTF-8"?>
<svg width="156px" height="123px" viewBox="0 0 156 123" version="1.1" xmlns="http://www.w3.org/2000/svg" xmlns:xlink="http://www.w3.org/1999/xlink">
    <title>陪护</title>
    <defs>
        <path d="M141.787333,119.462 L26.8333333,119.462 C20.93,119.462 16.1,114.632 16.1,108.728667 L16.1,26.8333333 C16.1,20.93 20.93,16.1 26.8333333,16.1 L141.787333,16.1 C147.690667,16.1 152.520667,20.93 152.520667,26.8333333 L152.520667,108.782333 C152.520667,114.685667 147.74487,119.462 141.787333,119.462" id="path-1"></path>
        <filter x="-11.4%" y="-14.0%" width="122.7%" height="130.0%" filterUnits="objectBoundingBox" id="filter-2">
            <feOffset dx="0" dy="1" in="SourceAlpha" result="shadowOffsetOuter1"></feOffset>
            <feGaussianBlur stdDeviation="5" in="shadowOffsetOuter1" result="shadowBlurOuter1"></feGaussianBlur>
            <feColorMatrix values="0 0 0 0 0   0 0 0 0 0   0 0 0 0 0  0 0 0 0.1 0" type="matrix" in="shadowBlurOuter1"></feColorMatrix>
        </filter>
        <path d="M130.785667,70.0886667 L90.6966667,70.0886667 C86.8326667,70.0886667 83.72,66.976 83.72,63.112 L83.72,23.0766667 C83.72,19.2126667 86.8326667,16.1 90.6966667,16.1 L130.785667,16.1 C134.649667,16.1 137.762333,19.2126667 137.762333,23.0766667 L137.762333,63.1656667 C137.762333,66.976 134.596,70.0886667 130.785667,70.0886667" id="path-3"></path>
        <filter x="-14.8%" y="-13.0%" width="129.6%" height="129.6%" filterUnits="objectBoundingBox" id="filter-4">
            <feOffset dx="0" dy="1" in="SourceAlpha" result="shadowOffsetOuter1"></feOffset>
            <feGaussianBlur stdDeviation="2.5" in="shadowOffsetOuter1" result="shadowBlurOuter1"></feGaussianBlur>
            <feColorMatrix values="0 0 0 0 0.0117647059   0 0 0 0 0.654901961   0 0 0 0 0.941176471  0 0 0 0.5 0" type="matrix" in="shadowBlurOuter1"></feColorMatrix>
        </filter>
    </defs>
    <g id="padCard-床头卡" stroke="none" stroke-width="1" fill="none" fill-rule="evenodd">
        <g id="多重耐药备份" transform="translate(-565.000000, -326.000000)">
            <g id="陪护" transform="translate(563.000000, 322.000000)">
                <g id="编组" transform="translate(-4.293333, -3.440000)">
                    <g id="Fill-2">
                        <use fill="black" fill-opacity="1" filter="url(#filter-2)" xlink:href="#path-1"></use>
                        <use fill="#FFFFFF" fill-rule="evenodd" xlink:href="#path-1"></use>
                    </g>
                    <g id="Fill-5">
                        <use fill="black" fill-opacity="1" filter="url(#filter-4)" xlink:href="#path-3"></use>
                        <use fill="#03A7F0" fill-rule="evenodd" xlink:href="#path-3"></use>
                    </g>
                </g>
                <g id="图标位置" transform="translate(90.160000, 22.856667)">
                    <g id="编组" transform="translate(0.000000, 0.000000)" fill="#FFB400" opacity="0">
                        <g id="图标背景底板60*60px" transform="translate(0.000000, 0.000000)">
                            <rect x="3.55271368e-15" y="3.55271368e-15" width="32.2" height="32.2"></rect>
                        </g>
                    </g>
                    <g id="编组" transform="translate(5.366667, 0.000000)" fill="#FEFEFE">
                        <path d="M4.1563318,1.53652086 L6.53894239,0.417034196 C5.58607494,0.436480471 4.73662631,0.865182431 4.1563318,1.53652086" id="Fill-1"></path>
                        <path d="M8.17649549,0.823505529 L5.5764402,2.04464318 L8.72585275,1.21110514 C8.5561398,1.0639322 8.37316804,0.933553765 8.17649549,0.823505529" id="Fill-3"></path>
                        <path d="M5.02385663,31.6791745 C5.84280996,31.6791745 6.50751898,31.0144655 6.50751898,30.1946282 L6.50751898,29.7053776 L3.5410782,30.2158423 C3.5534531,31.0259564 4.21153271,31.6791745 5.02385663,31.6791745" id="Fill-5"></path>
                        <polygon id="Fill-7" points="6.50747478 25.2491754 3.5388242 26.4963887 3.5388242 26.8618903 6.50747478 26.4451213"></polygon>
                        <polygon id="Fill-9" points="3.53913357 29.629051 6.5073422 29.1190282 6.5073422 28.7402678 3.53913357 28.3703467"></polygon>
                        <polygon id="Fill-11" points="3.53891259 27.4485933 3.53891259 27.7844835 6.50756318 28.1535207 6.50756318 27.0313823"></polygon>
                        <path d="M14.9120662,0.359535098 C16.6891905,0.359535098 18.1295407,1.79944333 18.1295407,3.57612569 C18.1295407,5.35325 16.6891905,6.7936002 14.9120662,6.7936002 C13.1358258,6.7936002 11.6954756,5.35325 11.6954756,3.57612569 C11.6954756,1.79944333 13.1358258,0.359535098 14.9120662,0.359535098" id="Fill-13"></path>
                        <path d="M15.4343313,15.6201316 C14.9296121,15.784541 14.3130768,15.6196896 14.3130768,15.6196896 C14.2233587,15.6068728 14.1358505,15.5874265 14.0474584,15.5609089 C13.138345,15.2815896 12.3357442,14.9421638 11.6153482,14.5298144 C11.3413325,15.7151532 10.4331031,19.6808673 10.0119144,21.9317736 L10.0119144,23.820714 C10.3482466,24.1322963 11.0461027,24.3961469 11.9260466,24.5826544 L11.9264885,30.1332398 C11.9264885,30.9490995 12.5872199,31.6098308 13.4021956,31.6093891 C14.2176133,31.6093891 14.8783446,30.9490995 14.8783446,30.1332398 L14.8779027,24.8809779 C14.9481744,24.8818618 15.0180042,24.880094 15.087834,24.880094 L15.0869501,30.1332398 C15.0869501,30.9490995 15.7481235,31.6093891 16.5635411,31.6093891 C17.3785168,31.6093891 18.0396901,30.9490995 18.0396901,30.1336818 L18.0396901,24.4938202 C18.9183082,24.225992 19.5874368,23.8101069 19.8336434,23.2094822 C19.8393544,21.8897873 19.1255878,18.4044845 18.6191007,16.1765602 C18.6186587,16.1765602 15.9912019,15.7681885 15.4343313,15.6201316" id="Fill-15"></path>
                        <path d="M15.6973864,6.97210816 C15.6947346,6.97122424 15.6916409,6.97122424 15.6889891,6.97078227 L14.912022,7.78664188 L14.1111891,6.98006345 C13.6745318,7.08701796 12.1488832,7.78619992 10.922442,9.13329639 C10.9852005,9.21417522 11.0475169,9.29505404 11.1093915,9.37504894 C11.9287867,10.4401744 12.6337142,11.3559172 14.5474044,12.0511215 L14.8939016,12.1969685 C15.1935511,12.0016219 15.5457938,11.8862701 15.9210185,11.8862701 C16.0863118,11.8862701 16.2516052,11.9079262 16.4120369,11.9507964 C16.6330173,12.0095772 17.7821154,12.247794 18.2050718,12.3335344 L18.2050718,11.8266054 C18.6015107,12.270334 18.981155,12.8188074 19.1309797,13.1281799 L16.2449758,12.5788227 C16.1366954,12.5496533 16.0288569,12.5359525 15.9210185,12.5359525 C15.8383718,12.5359525 15.7561671,12.5470015 15.6761722,12.563354 C15.926322,12.7737274 16.1132715,13.0459752 16.2135965,13.3575576 L16.2255295,13.4017536 L16.2794487,13.6492517 C16.3156895,13.9091246 16.2975691,14.1632521 16.2233197,14.4041207 C16.1490703,14.6471991 16.0213436,14.8681795 15.8511887,15.0564548 C16.468166,15.2084893 17.5929562,15.4520097 18.5838322,15.5213976 L18.5856001,15.5213976 C18.5953232,15.5222815 18.6050464,15.5231654 18.6143275,15.5236074 L18.6134436,15.5205136 C18.632006,15.5209556 18.6496844,15.5213976 18.6686887,15.5213976 C19.7607738,15.5213976 21.0937275,15.2615246 21.5409918,14.0006105 C22.4253554,11.5030901 18.1286126,7.7526109 15.6973864,6.97210816" id="Fill-17"></path>
                        <path d="M2.58012286,3.43858749 C2.54830169,3.50753337 2.52134208,3.57382749 2.49659227,3.63393416 C2.36400404,3.95612357 2.31892404,4.06440396 1.87386953,4.14616671 L2.0466762,5.08798514 C3.00484718,4.91296867 3.22273384,4.38394161 3.38139776,3.99899376 C3.38493345,3.99059651 3.38758522,3.98485102 3.38979502,3.97822161 C3.55597227,5.60949886 4.92737659,6.88411376 6.60284992,6.88411376 C8.38969737,6.88411376 9.8375609,5.43580827 9.8375609,3.64896082 C9.8375609,3.09606788 9.69790129,2.57455416 9.45393894,2.11933455 L3.76590365,3.62509494 L3.70093541,2.92635494 L5.57573306,2.04464318 L3.66557855,2.55068827 L3.66513659,2.55068827 L3.55111071,2.58118357 C3.54978482,2.58471925 3.54978482,2.58781298 3.54801698,2.59090671 C3.42073227,2.62847337 3.22273384,2.67311141 3.11931502,2.63510278 C2.82143345,2.52638043 2.48023973,2.15248161 2.37637894,1.82056906 L1.46328796,2.10784357 C1.63388482,2.64791965 2.08424286,3.17517886 2.58012286,3.43858749" id="Fill-19"></path>
                        <path d="M7.408898,7.07181451 L6.60276153,7.88325451 L5.82137486,7.06297529 C5.81916506,7.06385922 5.81651329,7.06385922 5.81386153,7.06474314 C5.40151212,7.16330039 4.501238,7.63266275 4.43759565,7.67155529 C4.4314082,7.67553294 4.42522075,7.67995255 4.41859133,7.68348824 L6.12455996,12.0487349 L7.81594388,7.20175098 C7.6815878,7.15180941 7.5463478,7.10496157 7.408898,7.07181451" id="Fill-21"></path>
                        <path d="M7.05453384,14.0180238 C7.05453384,13.4540818 6.64351031,12.9869293 6.106086,12.8941175 L6.106086,12.8905818 L4.13936051,7.86327788 C4.11416875,7.87963043 4.0876511,7.89642494 4.06157541,7.91366141 L3.28107267,12.8813006 C3.05434678,12.8852783 2.99733384,12.8790908 2.99733384,12.8790908 L3.70402914,8.16027553 C3.28195659,8.46169278 2.87535267,8.79360533 2.5018958,9.17766925 C1.43942208,10.3842222 0.697811882,11.3348798 0.159503647,13.0735536 C0.0233797255,13.5133045 0.00393345098,14.1347014 0.288556196,14.4953414 C0.592625216,14.8780795 0.884319333,15.0659128 3.13831933,15.1768449 C3.13831933,15.1710995 5.91073933,15.1609344 5.91073933,15.1609344 C6.54185933,15.1609344 7.05453384,14.6487018 7.05453384,14.0180238" id="Fill-23"></path>
                        <path d="M15.4189953,12.9135638 L14.4617082,12.5087277 C12.4202913,11.7662336 11.6336011,10.7492818 10.8071345,9.67620102 C10.2352372,8.9337069 9.40788663,7.91763906 8.13371369,7.34176416 L7.20029251,13.2724359 C7.20029251,13.2724359 7.36293408,13.6582677 7.3536529,14.0180238 C7.33332271,14.8126693 6.70706427,15.4601418 5.91065094,15.4601418 L3.29203329,15.4601418 L3.29203329,17.0255669 C3.29203329,17.8617567 3.53820545,18.2489144 3.53820545,18.2489144 L3.53908937,25.9111885 L6.507298,24.6630912 L6.507298,19.8731202 C6.56563682,19.876214 6.62485957,19.8801916 6.68408231,19.8801916 C6.69513133,19.8801916 6.70706427,19.8784238 6.71855525,19.8784238 L6.71855525,30.1946724 C6.71855525,31.0145096 7.38282231,31.6792187 8.20221761,31.6792187 C9.0216129,31.6792187 9.68720584,31.0145096 9.68720584,30.1946724 L9.68720584,18.241843 C9.68720584,18.241843 9.91437369,17.7075124 9.91437369,17.0255669 L9.91437369,12.5250802 C10.8164156,13.4726442 12.0866109,14.4259536 14.2694553,15.0955242 C15.0309537,15.2837995 15.4189953,14.8732179 15.4189953,14.8732179 C15.6108062,14.7207414 15.7615149,14.5130198 15.838416,14.2611022 C16.0461376,13.4646889 15.7014082,13.0695759 15.4189953,12.9135638" id="Fill-25"></path>
                        <path d="M7.55346337,8.939364 L6.26691553,12.624433 C6.51485553,12.6876334 6.73848769,12.8127083 6.91659788,12.9863989 L7.55346337,8.939364 Z" id="Fill-27"></path>
                    </g>
                </g>
            </g>
        </g>
    </g>
</svg>