<?xml version="1.0" encoding="UTF-8"?>
<svg width="156px" height="123px" viewBox="0 0 156 123" version="1.1" xmlns="http://www.w3.org/2000/svg" xmlns:xlink="http://www.w3.org/1999/xlink">
    <title>隔离</title>
    <defs>
        <path d="M141.787333,119.462097 L26.8333333,119.462097 C20.93,119.462097 16.1,114.632097 16.1,108.728764 L16.1,26.8334303 C16.1,20.9300969 20.93,16.1000969 26.8333333,16.1000969 L141.787333,16.1000969 C147.690667,16.1000969 152.520667,20.9300969 152.520667,26.8334303 L152.520667,108.78243 C152.520667,114.685764 147.74487,119.462097 141.787333,119.462097" id="path-1"></path>
        <filter x="-11.4%" y="-14.0%" width="122.7%" height="130.0%" filterUnits="objectBoundingBox" id="filter-2">
            <feOffset dx="0" dy="1" in="SourceAlpha" result="shadowOffsetOuter1"></feOffset>
            <feGaussianBlur stdDeviation="5" in="shadowOffsetOuter1" result="shadowBlurOuter1"></feGaussianBlur>
            <feColorMatrix values="0 0 0 0 0   0 0 0 0 0   0 0 0 0 0  0 0 0 0.1 0" type="matrix" in="shadowBlurOuter1"></feColorMatrix>
        </filter>
        <path d="M130.785667,70.0887636 L90.6966667,70.0887636 C86.8326667,70.0887636 83.72,66.9760969 83.72,63.1120969 L83.72,23.0767636 C83.72,19.2127636 86.8326667,16.1000969 90.6966667,16.1000969 L130.785667,16.1000969 C134.649667,16.1000969 137.762333,19.2127636 137.762333,23.0767636 L137.762333,63.1657636 C137.762333,66.9760969 134.596,70.0887636 130.785667,70.0887636" id="path-3"></path>
        <filter x="-14.8%" y="-13.0%" width="129.6%" height="129.6%" filterUnits="objectBoundingBox" id="filter-4">
            <feOffset dx="0" dy="1" in="SourceAlpha" result="shadowOffsetOuter1"></feOffset>
            <feGaussianBlur stdDeviation="2.5" in="shadowOffsetOuter1" result="shadowBlurOuter1"></feGaussianBlur>
            <feColorMatrix values="0 0 0 0 0.196078431   0 0 0 0 0.450980392   0 0 0 0 0.250980392  0 0 0 0.5 0" type="matrix" in="shadowBlurOuter1"></feColorMatrix>
        </filter>
    </defs>
    <g id="页面-1" stroke="none" stroke-width="1" fill="none" fill-rule="evenodd">
        <g id="padCard-床头卡" transform="translate(-746.000000, -177.000000)">
            <g id="隔离" transform="translate(744.000000, 173.000000)">
                <g id="编组" transform="translate(-4.293333, -3.440097)">
                    <g id="Fill-2">
                        <use fill="black" fill-opacity="1" filter="url(#filter-2)" xlink:href="#path-1"></use>
                        <use fill="#FFFFFF" fill-rule="evenodd" xlink:href="#path-1"></use>
                    </g>
                    <g id="Fill-5">
                        <use fill="black" fill-opacity="1" filter="url(#filter-4)" xlink:href="#path-3"></use>
                        <use fill="#275F60" fill-rule="evenodd" xlink:href="#path-3"></use>
                    </g>
                </g>
                <g id="图标位置" transform="translate(90.160000, 22.856667)">
                    <g id="编组" transform="translate(0.000000, 0.000000)" fill="#FFB400" opacity="0">
                        <g id="图标背景底板60*60px" transform="translate(0.000000, 0.000000)">
                            <rect x="3.55271368e-15" y="3.55271368e-15" width="32.2" height="32.2"></rect>
                        </g>
                    </g>
                    <g id="编组-12" transform="translate(1.073333, 0.536667)" fill="#FEFEFE">
                        <polygon id="Fill-163" points="15.5294001 0.767687356 15.5294001 30.1141162 15.5210478 30.2444851 15.4836439 30.3734013 15.4284459 30.4954179 15.3485541 30.6047243 15.2563155 30.7009576 15.1477353 30.777218 15.0260819 30.8349579 14.895713 30.8683672 14.7617127 30.8818036 14.6277124 30.8683672 14.500975 30.8349579 14.3793216 30.777218 14.2707414 30.7009576 14.1737819 30.6047243 14.098611 30.4954179 14.0394184 30.3734013 14.0063723 30.2444851 13.9932991 30.1141162 13.9932991 0.767687356 14.0521285 0.473540356 14.2206275 0.222607544 14.4675657 0.0591925444 14.7617127 0 15.0554966 0.0591925444 15.3067925 0.222607544 15.4705707 0.473540356"></polygon>
                        <polygon id="Fill-164" points="12.1969325 13.0759236 12.3015181 14.0687605 12.2975235 15.1516572 12.1758701 16.3253401 12.0589376 16.7905281 11.8069153 17.1979762 11.6384163 17.3617543 11.4499443 17.4870392 11.2396837 17.5669309 11.0134447 17.5919879 10.8917913 17.5879933 10.64449 17.5375162 10.4215193 17.4452775 10.2236055 17.3109141 10.0601905 17.1435045 9.92619024 16.9466802 9.83395156 16.7240727 9.78819536 16.4891182 9.78819536 16.2381854 9.89278096 15.1974134 9.88043404 14.1537363 9.74643374 13.1136906 9.48932748 12.099065 9.38474188 12.0275256 9.26780937 12.0609349 9.21261141 12.1742359 9.21261141 16.5730046 9.15850289 17.2865834 8.99000387 17.9863628 8.99000387 18.1748347 8.99000387 18.4097892 8.99000387 18.9969938 8.99000387 19.7178355 8.99000387 20.5534308 8.99000387 21.466376 8.99000387 22.4396031 8.99000387 24.4525127 8.99000387 25.4420814 8.99000387 26.3818992 8.99000387 27.2494513 8.99000387 28.0207701 8.99000387 28.6631726 8.99000387 28.9264523 8.98600928 29.1537807 8.98600928 29.3339004 8.98600928 29.4682638 8.98600928 29.551787 8.98600928 29.5812017 8.92318529 29.9799343 8.73907106 30.3441682 8.45327638 30.6343206 8.08831621 30.818798 7.68486273 30.881622 7.28649328 30.818798 6.92116997 30.6295997 6.63573843 30.3441682 6.45089791 29.9799343 6.38444248 29.5772071 6.38444248 29.5477924 6.38444248 29.4642692 6.38444248 29.3251849 6.38444248 29.1370761 6.38444248 28.9057531 6.38444248 28.6297633 6.38444248 27.9706561 6.38444248 27.1953427 6.38444248 26.3267012 6.38807392 24.435445 6.38807392 22.5492727 6.38807392 21.6802681 6.38807392 20.9005969 6.38807392 20.2469369 6.38807392 19.9698577 6.38807392 19.7388979 6.38807392 19.5504259 6.38807392 19.412431 6.38807392 19.3241869 6.38807392 19.2947722 5.92651733 19.2947722 5.92651733 19.2984036 5.92651733 19.3031245 5.92651733 19.306756 5.92651733 19.31184 5.92651733 19.3241869 5.92651733 19.3412547 5.92651733 19.3623171 5.92651733 19.3830163 5.92651733 19.412431 5.92651733 19.4411194 5.92651733 19.475255 5.92651733 19.5126589 5.92651733 19.5504259 5.92651733 19.5921875 5.92651733 19.6379437 5.92651733 19.6844262 5.92651733 19.7388979 5.92651733 19.7940958 5.92651733 19.8482043 5.92651733 19.9073969 5.92651733 19.9698577 5.92651733 20.0366763 5.92651733 20.1042212 5.92651733 20.1706766 5.92651733 20.2469369 5.92651733 20.3181132 5.92651733 20.3972787 5.92651733 20.4771705 5.92651733 20.5570623 5.92651733 20.6405855 5.92651733 20.7244719 5.92651733 20.8130791 5.92651733 20.9005969 5.92651733 20.9928356 5.92651733 21.0850743 5.92651733 21.1820339 5.92651733 21.2782672 5.92651733 21.3788582 5.92651733 21.4750914 5.92651733 21.5807665 5.92651733 21.6802681 5.92651733 21.7848537 5.92651733 21.8905287 5.92651733 21.9991089 5.92651733 22.1036945 5.92651733 22.2133641 5.92651733 22.3266652 5.92651733 22.4356085 5.92651733 22.5492727 5.92651733 22.7795063 5.92651733 23.0104662 5.92651733 23.2406997 5.92651733 23.4792856 5.92651733 23.7146032 5.92651733 23.95791 5.92651733 24.435445 5.92651733 24.9177008 5.92651733 25.1577393 5.92651733 25.3963252 5.92651733 25.6312796 5.92651733 25.8662341 5.92651733 26.0964676 5.92651733 26.3267012 5.92651733 26.4360077 5.92651733 26.5496719 5.92651733 26.6586152 5.92651733 26.7671954 5.93051192 26.8765019 5.93051192 26.9861715 5.93051192 27.0907571 5.93051192 27.1953427 5.93051192 27.2959337 5.93051192 27.397251 5.93051192 27.4967526 5.93051192 27.5977068 5.93051192 27.6946663 5.93051192 27.7861787 5.93051192 27.8827752 5.93051192 27.9706561 5.93051192 28.0628948 5.93051192 28.1515021 5.93051192 28.2350253 5.93051192 28.3189116 5.93051192 28.3984403 5.93051192 28.4786952 5.93051192 28.5538661 5.93051192 28.6297633 5.93051192 28.7002133 5.93051192 28.7717528 5.93051192 28.8389345 5.93051192 28.9057531 5.93051192 28.9649456 5.93051192 29.0277696 5.93051192 29.0826044 5.93051192 29.1370761 5.93051192 29.18719 5.93051192 29.2376671 5.93051192 29.2834233 5.93051192 29.3251849 5.93051192 29.3636782 5.93051192 29.4014452 5.93051192 29.4348545 5.93051192 29.4642692 5.93051192 29.488963 5.93051192 29.5147463 5.93051192 29.5354455 5.93051192 29.5477924 5.93051192 29.5648602 5.93051192 29.5688548 5.93051192 29.5728494 5.93051192 29.5772071 5.93051192 29.5812017 5.9221596 29.715202 5.90109722 29.8492023 5.8633302 29.9799343 5.817574 30.10994 5.75475001 30.2308671 5.67848968 30.3441682 5.59460331 30.4498432 5.49873318 30.5457134 5.39305814 30.6295997 5.27975708 30.7058601 5.15810369 30.7686841 5.02882427 30.818798 4.89845541 30.8522073 4.76409197 30.8732697 4.62900223 30.881622 4.49100734 30.8732697 4.35700704 30.8522073 4.22700133 30.818798 4.09626933 30.7686841 3.97933682 30.7058601 3.86167802 30.6343206 3.75672928 30.5457134 3.65976971 30.4498432 3.57624649 30.3441682 3.50107559 30.2308671 3.43716217 30.10994 3.39140597 29.9799343 3.3532758 29.8492023 3.33257657 29.715202 3.3238611 29.5812017 3.3238611 29.5728494 3.3238611 29.551787 3.3238611 29.5183777 3.3238611 29.4682638 3.3238611 29.4090713 3.3238611 29.3339004 3.3238611 29.250014 3.3238611 29.1537807 3.3238611 29.0484688 3.3238611 28.9264523 3.3238611 28.8011675 3.3238611 28.6631726 3.3238611 28.5168254 3.3238611 28.3566787 3.3238611 28.1932637 3.3238611 28.0207701 3.3238611 27.8362927 3.3238611 27.6481839 3.3238611 27.454991 3.3238611 27.2494513 3.3238611 27.0402801 3.3238611 26.8260248 3.3238611 26.6085013 3.3238611 26.3818992 3.3238611 26.1556602 3.3238611 25.9203426 3.3238611 25.4420814 3.3238611 24.9521995 3.3238611 24.4525127 3.3238611 23.4462395 3.3238611 22.9389267 3.3238611 22.4396031 3.3238611 21.9489949 3.3238611 21.466376 3.3238611 21.232511 3.3238611 21.0011879 3.3238611 20.774949 3.3238611 20.5534308 3.3238611 20.3344547 3.3238611 20.1249204 3.3238611 19.9197438 3.3238611 19.7178355 3.3238611 19.5293635 3.3238611 19.3452493 3.3238611 19.1644033 3.3238611 18.9969938 3.3238611 18.8379365 3.3238611 18.6865053 3.3238611 18.5441526 3.3238611 18.4097892 3.3238611 18.2881358 3.3238611 18.1748347 3.3238611 18.0742437 3.3238611 17.9863628 3.15645151 17.2865834 3.10125356 16.5730046 3.10125356 12.1742359 3.10125356 12.1655205 3.09762211 12.1531736 3.09762211 12.1408266 3.09399067 12.1321112 3.08890664 12.1197643 3.0852752 12.1114119 3.08055432 12.1026965 3.07692288 12.0903496 3.06784427 12.0819972 3.05949194 12.0732818 3.05077648 12.0645663 3.04714503 12.0609349 3.03479812 12.0525825 3.02608266 12.048588 3.01773033 12.0435039 3.00502028 12.036241 2.99666796 12.036241 2.98432104 12.031157 2.97560558 12.0275256 2.96325867 12.0275256 2.95490634 12.0275256 2.94255943 12.0275256 2.92984938 12.0275256 2.92149706 12.031157 2.90842386 12.031157 2.90043468 12.036241 2.88736148 12.0398725 2.87973544 12.048588 2.87101998 12.0525825 2.86266766 12.0569403 2.85395219 12.0645663 2.84559987 12.0732818 2.83724754 12.0819972 2.83325296 12.0903496 2.82453749 12.099065 2.70760498 12.5014291 2.61064541 12.9074246 2.53075363 13.3185041 2.47265052 13.7339413 2.43452036 14.1537363 2.41382112 14.5684473 2.41382112 14.9882422 2.43052577 15.4076741 2.47265052 15.8220219 2.52675904 16.2381854 2.53547451 16.3638334 2.52675904 16.4891182 2.50969126 16.6107716 2.48027656 16.7240727 2.43851494 16.8373737 2.38767472 16.9466802 2.32485073 17.0469081 2.25367442 17.1435045 2.17378264 17.2310223 2.09025942 17.3109141 1.99402614 17.3824536 1.89307199 17.4452775 1.78376551 17.4957546 1.67082759 17.5375162 1.54881106 17.5709255 1.42316308 17.5879933 1.30150969 17.5919879 1.18348774 17.5879933 1.07490756 17.5669309 0.965601078 17.5335216 0.865010067 17.4870392 0.764055911 17.4282098 0.671817222 17.3617543 0.587930856 17.2865834 0.508039078 17.1979762 0.432868178 17.1057375 0.3693179 17.0047833 0.311214789 16.9038292 0.256016833 16.7905281 0.214255222 16.6775902 0.180845933 16.5642891 0.155062678 16.4473566 0.139084322 16.3253401 0.0962332778 16.0239302 0.0588294 15.7261517 0.0334092889 15.4370888 0.0170677889 15.1516572 0.00508402222 14.8749412 0 14.597862 0.00508402222 14.3294982 0.0123469111 14.0687605 0.0294147 13.8141962 0.0504770778 13.562174 0.0798917778 13.3145095 0.118021944 13.0759236 0.1601467 12.8409691 0.205539756 12.6107356 0.256016833 12.3877649 0.314846233 12.1655205 0.373675633 11.9512652 0.440494211 11.7468149 0.511670522 11.5401857 0.587930856 11.3433614 0.667822633 11.1469003 0.751345856 10.9584283 0.839226811 10.7735878 0.932191789 10.5978259 1.02443048 10.4217008 1.12066376 10.253565 1.22161791 10.0861554 1.32620351 9.92600867 1.4315154 9.77094599 1.54009559 9.62060419 1.64976521 9.47316755 1.75907169 9.33081493 1.87200961 9.19282004 1.98567382 9.05845659 2.22026513 8.80643435 2.45558273 8.56748531 2.69017404 8.34959864 2.92549164 8.14442203 3.1604461 7.95558692 3.39140597 7.77909872 3.6180081 7.62040459 3.8369842 7.47732568 4.04216081 7.34731997 4.14311497 7.28449598 4.24406912 7.23002432 4.33993926 7.17591579 4.42818336 7.12543872 4.51606431 7.07859308 4.60467156 7.03283688 4.68456333 6.99506986 4.75973423 6.95693969 4.83563142 6.92389355 4.90208686 6.89048426 4.96491084 6.86106956 5.02410339 6.83601259 5.05751268 6.83601259 5.0952797 6.84000718 5.13340987 6.84872265 5.17517148 6.85707497 5.21693309 6.87341647 5.25905784 6.89048426 5.35093339 6.93224587 5.44353522 6.98635439 5.54049479 7.04554694 5.63273348 7.10800778 5.72533531 7.17083177 5.81357941 7.23873978 5.8927449 7.30519522 5.96392121 7.36402462 5.99841993 7.39380246 6.03110293 7.41849628 6.0561599 7.44391639 6.08194316 7.46497877 6.10663698 7.48567801 6.12370477 7.50201951 6.13641482 7.51509271 6.14839859 7.52308188 6.15311947 7.53143421 6.15711406 7.53143421 6.19124963 7.50201951 6.28348832 7.41849628 6.58998223 7.17083177 6.96293158 6.93224587 7.13978292 6.85707497 7.29085101 6.83601259 7.55558331 6.95693969 7.8864079 7.12543872 8.27243044 7.34731997 8.6969463 7.62040459 9.15378201 7.95558692 9.62441721 8.34959864 10.0946893 8.80643435 10.5558827 9.33081493 10.9887509 9.92600867 11.3827626 10.5978259 11.7270235 11.3433614 12.0001082 12.1655205"></polygon>
                        <polygon id="Fill-165" points="9.32191789 2.8979653 9.33027021 3.17468136 9.32191789 3.45139743 9.28415087 3.72448205 9.22495832 3.99647724 9.1414351 4.26120954 9.0368495 4.51686323 8.9061175 4.76053315 8.75977029 4.99439817 8.58763982 5.21337427 8.40316244 5.41855088 8.19762269 5.60702285 7.97900973 5.77443244 7.74369213 5.92186908 7.50002221 6.05151165 7.24436852 6.15609725 6.97999937 6.24070991 6.70691474 6.29881302 6.43383012 6.33694318 6.15711406 6.3492901 5.88003484 6.33694318 5.60731337 6.29881302 5.33495503 6.24070991 5.07058588 6.15609725 4.81456904 6.05151165 4.57126227 5.92186908 4.33630781 5.77443244 4.11733171 5.60702285 3.9121551 5.41855088 3.7225937 5.21337427 3.55518411 4.99439817 3.4088369 4.76053315 3.2781049 4.51686323 3.17242987 4.26120954 3.08890664 3.99647724 3.03007724 3.72448205 2.99267337 3.45139743 2.98432104 3.17468136 2.99267337 2.8979653 3.03007724 2.62088608 3.08890664 2.35252234 3.17242987 2.08887947 3.2781049 1.83322578 3.4088369 1.58592442 3.55518411 1.35460141 3.7225937 1.13235701 3.9121551 0.926454107 4.11733171 0.743066162 4.33630781 0.574930284 4.57126227 0.42422534 4.81456904 0.297851073 5.07058588 0.189270884 5.33495503 0.109379107 5.60731337 0.0465551178 5.88003484 0.0135089733 6.15711406 7.26288889e-05 6.43383012 0.0135089733 6.70691474 0.0465551178 6.97999937 0.109379107 7.24436852 0.189270884 7.50002221 0.297851073 7.74369213 0.42422534 7.97900973 0.574930284 8.19762269 0.743066162 8.40316244 0.926454107 8.58763982 1.13235701 8.75977029 1.35460141 8.9061175 1.58592442 9.0368495 1.83322578 9.1414351 2.08887947 9.22495832 2.35252234 9.28415087 2.62088608"></polygon>
                        <path d="M21.85534,30.8817309 C22.6695098,30.8817309 23.3293433,30.2215343 23.3293433,29.4077276 L23.3293433,28.9222035 L20.4321769,29.42879 C20.4434344,30.2331549 21.0487962,30.8817309 21.85534,30.8817309" id="Fill-166"></path>
                        <polygon id="Fill-167" points="23.3281449 24.4979784 20.4298891 25.736301 20.4298891 26.0994454 23.3281449 25.6858239"></polygon>
                        <polygon id="Fill-168" points="20.4300707 28.8471779 23.3290528 28.3402282 23.3290528 27.9640106 20.4297075 27.5975978"></polygon>
                        <polygon id="Fill-169" points="20.4297438 26.6817839 20.4297438 27.0147873 23.3290891 27.3815632 23.3279997 26.2677992"></polygon>
                        <path d="M24.2508949,6.66842143 L23.4577875,7.46624978 L22.6882844,6.65970597 C22.6864687,6.6607954 22.6842898,6.6607954 22.6810215,6.6607954 C22.2757523,6.75848126 21.390043,7.22003784 21.327219,7.25853116 C18.9784008,8.69876202 16.8841467,10.8075418 17.4477469,16.442091 C17.4542835,16.5092727 17.4684462,16.5731862 17.4855139,16.6360101 L17.1630417,16.6498096 L17.3544188,17.2827704 L18.0280517,17.3710145 C18.2052662,17.4799578 18.4104428,17.5416924 18.6276032,17.550771 L18.6276032,28.8935877 L18.5172073,28.8935877 L18.5172073,29.4982232 C18.3345457,29.6365813 18.2150711,29.8533785 18.2150711,30.0999536 L18.2150711,30.6936947 L19.7286572,30.6936947 L19.7286572,30.0999536 C19.7286572,29.8537416 19.6088195,29.6365813 19.426521,29.4982232 L19.426521,28.8935877 L19.288163,28.8935877 L19.288163,17.3913506 C19.6985162,17.1563961 19.9563487,16.6977447 19.9062348,16.1962422 C19.7192154,14.3275009 19.853942,13.0194546 20.2000187,12.0505852 L20.2000187,16.4609745 C20.2000187,17.4316596 20.4266208,17.6321154 20.4266208,17.6321154 L20.4269839,25.2014982 L23.3477547,23.9737068 L23.3473916,19.2619076 C23.4047684,19.2651759 23.4628715,19.2691705 23.5213378,19.2691705 C23.5325952,19.2691705 23.5438527,19.2677179 23.5554733,19.2677179 L23.5554733,29.4165157 C23.5554733,30.2226964 24.2087702,30.8767195 25.0149509,30.8767195 C25.8211315,30.8767195 26.475881,30.2226964 26.475881,29.4165157 L26.475881,17.6571723 C26.475881,17.6571723 26.7155563,17.4734212 26.7155563,16.4606114 L26.7155563,12.0327912 C27.1092049,13.332122 27.064175,14.6605044 27.0489229,15.7484851 C26.9457899,17.2420982 27.3299967,17.5849066 28.0788005,17.6582618 C28.1191096,17.6618932 28.1583292,17.6640721 28.1986382,17.6640721 C28.8174363,17.6640721 29.3251123,17.221399 29.4082723,16.5644707 C29.4307873,16.3879825 29.4471288,16.2096786 29.4674649,16.0310115 C29.7013299,14.0282699 29.9991084,8.67297877 24.2508949,6.66842143" id="Fill-170"></path>
                        <path d="M23.3940919,0.000254201111 C25.128833,0.000254201111 26.5352914,1.40634949 26.5352914,3.14072736 C26.5352914,4.8765578 25.128833,6.28265309 23.3940919,6.28265309 C21.6597141,6.28265309 20.2539819,4.8765578 20.2539819,3.14072736 C20.2539819,1.40634949 21.6597141,0.000254201111 23.3940919,0.000254201111" id="Fill-171"></path>
                    </g>
                </g>
            </g>
        </g>
    </g>
</svg>