<?xml version="1.0" encoding="UTF-8"?>
<svg width="156px" height="123px" viewBox="0 0 156 123" version="1.1" xmlns="http://www.w3.org/2000/svg" xmlns:xlink="http://www.w3.org/1999/xlink">
    <title>飞沫隔离</title>
    <defs>
        <path d="M141.787333,119.462097 L26.8333333,119.462097 C20.93,119.462097 16.1,114.632097 16.1,108.728764 L16.1,26.8334303 C16.1,20.9300969 20.93,16.1000969 26.8333333,16.1000969 L141.787333,16.1000969 C147.690667,16.1000969 152.520667,20.9300969 152.520667,26.8334303 L152.520667,108.78243 C152.520667,114.685764 147.74487,119.462097 141.787333,119.462097" id="path-1"></path>
        <filter x="-11.4%" y="-14.0%" width="122.7%" height="130.0%" filterUnits="objectBoundingBox" id="filter-2">
            <feOffset dx="0" dy="1" in="SourceAlpha" result="shadowOffsetOuter1"></feOffset>
            <feGaussianBlur stdDeviation="5" in="shadowOffsetOuter1" result="shadowBlurOuter1"></feGaussianBlur>
            <feColorMatrix values="0 0 0 0 0   0 0 0 0 0   0 0 0 0 0  0 0 0 0.1 0" type="matrix" in="shadowBlurOuter1"></feColorMatrix>
        </filter>
        <path d="M130.785667,70.0887636 L90.6966667,70.0887636 C86.8326667,70.0887636 83.72,66.9760969 83.72,63.1120969 L83.72,23.0767636 C83.72,19.2127636 86.8326667,16.1000969 90.6966667,16.1000969 L130.785667,16.1000969 C134.649667,16.1000969 137.762333,19.2127636 137.762333,23.0767636 L137.762333,63.1657636 C137.762333,66.9760969 134.596,70.0887636 130.785667,70.0887636" id="path-3"></path>
        <filter x="-14.8%" y="-13.0%" width="129.6%" height="129.6%" filterUnits="objectBoundingBox" id="filter-4">
            <feOffset dx="0" dy="1" in="SourceAlpha" result="shadowOffsetOuter1"></feOffset>
            <feGaussianBlur stdDeviation="2.5" in="shadowOffsetOuter1" result="shadowBlurOuter1"></feGaussianBlur>
            <feColorMatrix values="0 0 0 0 0.196078431   0 0 0 0 0.450980392   0 0 0 0 0.250980392  0 0 0 0.5 0" type="matrix" in="shadowBlurOuter1"></feColorMatrix>
        </filter>
    </defs>
    <g id="页面-1" stroke="none" stroke-width="1" fill="none" fill-rule="evenodd">
        <g id="padCard-床头卡" transform="translate(-565.000000, -177.000000)">
            <g id="飞沫隔离" transform="translate(563.000000, 173.000000)">
                <g id="编组" transform="translate(-4.293333, -3.440097)">
                    <g id="Fill-2">
                        <use fill="black" fill-opacity="1" filter="url(#filter-2)" xlink:href="#path-1"></use>
                        <use fill="#FFFFFF" fill-rule="evenodd" xlink:href="#path-1"></use>
                    </g>
                    <g id="Fill-5">
                        <use fill="black" fill-opacity="1" filter="url(#filter-4)" xlink:href="#path-3"></use>
                        <use fill="#275F60" fill-rule="evenodd" xlink:href="#path-3"></use>
                    </g>
                </g>
                <g id="图标位置" transform="translate(90.160000, 22.856667)">
                    <g id="编组" transform="translate(0.000000, 0.000000)" fill="#FFB400" opacity="0">
                        <g id="图标背景底板60*60px" transform="translate(0.000000, 0.000000)">
                            <rect x="3.55271368e-15" y="3.55271368e-15" width="32.2" height="32.2"></rect>
                        </g>
                    </g>
                    <g id="编组-16" transform="translate(3.756667, 2.683333)">
                        <path d="M12.576193,13.6746423 L12.5420073,13.3079917 L12.4706307,12.943595 L12.358682,12.5900927 L12.2117963,12.2501143 L12.028471,11.9307977 L11.9600997,11.8522833 L11.8714423,11.7948063 L11.772642,11.763626 L11.671212,11.763626 L7.018956,12.3725817 L7.018956,18.7991113 L12.1813673,15.2862523 L12.2632627,15.2148757 L12.3177343,15.123213 L12.4405773,14.7730917 L12.5247267,14.4124517 L12.5690553,14.045801 L12.576193,13.6746423 Z M1.91064067,6.45620733 L2.06090733,6.38182533 L2.23408967,6.33449133 L2.43131467,6.320216 L2.652958,6.340502 L2.55415767,6.235691 L2.455733,6.106086 L2.36294333,5.95694633 L2.28142367,5.78676933 L2.22094133,5.58954433 L2.18262333,5.37503867 L2.172856,5.13724167 L2.199904,4.875402 L2.23108433,4.73264867 L2.27128067,4.58951967 L2.322747,4.43662333 L2.386986,4.28072167 L2.46850567,4.11768233 L2.56016833,3.94712967 L2.66573067,3.77019067 L2.791579,3.58987067 L2.93057567,3.39978333 L3.08760433,3.20556367 L3.26078667,3.00909 L3.455382,2.801722 L3.669512,2.58721633 L3.90017133,2.36970533 L4.15600033,2.14543233 L4.43061267,1.91101633 L4.81229,1.61762067 L5.210121,1.35315133 L5.621476,1.11422733 L6.04936033,0.900848667 L6.48851467,0.709634333 L6.93743633,0.546595 L7.396501,0.404968667 L7.86570867,0.284755333 L8.34468367,0.186330667 L8.82516133,0.108943333 L9.31427933,0.0544716667 L9.80452433,0.0161536667 L10.30078,-1.06770888e-14 L10.794406,0.00300533333 L11.2865293,0.0199103333 L11.7797797,0.057477 L12.27303,0.108943333 L12.7591427,0.176187667 L13.238869,0.261839667 L13.7114577,0.356507667 L14.1806653,0.469207667 L14.6367247,0.590923667 L15.086022,0.731047333 L15.521044,0.877181667 L15.9429177,1.03684 L16.350516,1.20326033 L16.7419607,1.38320467 L17.1198813,1.57028667 L17.4760133,1.76788733 L17.8129863,1.96811767 L18.132303,2.179618 L18.4283283,2.39299667 L18.6195427,2.55002533 L18.8156407,2.72320767 L19.0173737,2.91630033 L19.217604,3.12817633 L19.4178343,3.35244933 L19.6225727,3.594003 L19.822803,3.852086 L20.0237847,4.123693 L20.3776627,4.06922133 L20.744689,4.049311 L21.019677,4.05907833 L21.2882787,4.09025867 L21.550494,4.14473033 L21.8059473,4.21235033 L22.050882,4.304013 L22.2883033,4.40957533 L22.5167087,4.53542367 L22.7312143,4.67517167 L22.9171693,4.84121633 L23.0914787,5.01139333 L23.2507613,5.181946 L23.397647,5.35174733 L23.5336383,5.52192433 L23.652349,5.69510667 L23.7609167,5.868289 L23.8567117,6.045228 L23.9412367,6.22141567 L24.0156187,6.39873033 L24.073847,6.57905033 L24.1253133,6.76237567 L24.16288,6.94645233 L24.189928,7.132783 L24.2072087,7.323246 L24.210214,7.51446033 L24.1996953,7.79621033 L24.1658853,8.07194967 L24.2887283,8.54754367 L24.4645403,9.010365 L24.6245743,9.29925267 L24.7474173,9.605421 L24.8394557,9.92473767 L24.8935517,10.2508163 L24.9108323,10.5810273 L24.972066,10.818073 L25.0163947,11.0641347 L25.0438183,11.311699 L25.0494533,11.5701577 L25.0336753,11.9165223 L24.9852143,12.2542467 L24.9036947,12.5833307 L24.7947513,12.896261 L24.6557547,13.1952917 L24.491964,13.481174 L24.3018767,13.7497757 L24.087371,13.9977157 L23.8736167,14.209216 L23.7338687,14.32417 L23.662492,14.3823983 L23.5877343,14.4394997 L23.5065903,14.4939713 L23.4622617,14.5251517 L23.4175573,14.5593373 L23.3664667,14.5897663 L23.3161273,14.6235763 L23.2616557,14.661143 L23.2000463,14.698334 L23.1590987,14.7426627 L23.11477,14.7869913 L23.067436,14.8343253 L23.020102,14.8816593 L22.9145397,14.9804597 L22.802591,15.0830167 L22.6827533,15.1848223 L22.556905,15.283247 L22.425046,15.377915 L22.29206,15.470329 L22.1564443,15.5522243 L22.0163207,15.6266063 L21.9487007,15.660792 L21.8776997,15.6908453 L21.8089527,15.7178933 L21.7413327,15.7423117 L21.6729613,15.7625977 L21.6087223,15.782508 L21.5399753,15.7964077 L21.4757363,15.8069263 L21.414127,15.8136883 L21.3528933,15.8166937 L21.292411,15.8166937 L21.2311773,15.8136883 L21.0339523,15.841112 L20.8464947,15.905351 L20.6733123,16.0071567 L20.4862303,16.2686207 L20.2886297,16.5278307 L20.078632,16.782157 L19.8569887,17.037986 L19.6225727,17.2896827 L19.3738813,17.5402523 L19.1157983,17.7889437 L18.8441913,18.0338783 L18.558309,18.275432 L18.255146,18.5128533 L17.9422157,18.747645 L17.6157613,18.982061 L17.275783,19.2104663 L16.918524,19.435115 L16.547741,19.6556313 L16.1641853,19.8731423 L16.0514853,20.0128903 L15.9771033,20.1763053 L15.962828,20.2604547 L15.952685,20.359255 L15.9395367,20.4678227 L15.9286423,20.5906657 L15.9184993,20.7236517 L15.9124887,20.8667807 L15.9083563,21.019677 L15.9124887,21.1827163 L15.915494,21.3558987 L15.9226317,21.5362187 L15.9395367,21.7233007 L15.9598227,21.9205257 L15.9838653,22.120756 L16.0172997,22.331505 L16.0612527,22.545635 L16.1085867,22.7661513 L16.170196,22.9949323 L16.2385673,23.2222107 L16.3170817,23.4570023 L16.404612,23.6955507 L16.5075447,23.9359773 L16.6194933,24.1779067 L16.7419607,24.4224657 L16.8809573,24.6670247 L17.0308483,24.915716 L17.1972687,25.160275 L17.37834,25.4089663 L17.5748137,25.653901 L17.7859383,25.89846 L18.017349,26.1426433 L18.2622837,26.3845727 L18.5271287,26.6223697 L10.587038,26.6223697 L10.4198663,26.2211577 L10.2425517,25.81957 L10.0520887,25.4221147 L9.85486367,25.0276647 L9.651628,24.639601 L9.54869533,24.453646 L9.443133,24.2661883 L9.33869767,24.086244 L9.22975433,23.9089293 L9.124192,23.735747 L9.01524867,23.56557 L8.90630533,23.405536 L8.800743,23.2496343 L8.69217533,23.0997433 L8.586613,22.953609 L8.47766967,22.8176177 L8.37210733,22.688764 L8.27030167,22.5700533 L8.16473933,22.4573533 L8.06293367,22.3555477 L7.964509,22.2601283 L7.86570867,22.1756033 L7.76690833,22.1008457 L7.67524567,22.0354797 L7.58395867,21.9851403 L7.49530133,21.943817 L7.406644,21.9137637 L7.310849,21.8893453 L7.20641367,21.8690593 L7.09747033,21.8551597 L6.981765,21.8420113 L6.858922,21.8352493 L6.73307367,21.832244 L6.60046333,21.832244 L6.46409633,21.832244 L6.32509967,21.837879 L6.18234633,21.8450167 L5.88369133,21.8664297 L5.57714733,21.8934777 L5.26121167,21.926912 L4.61093267,22.002421 L4.28785933,22.0354797 L3.96441033,22.0696653 L3.64847467,22.1008457 L3.339301,22.120756 L3.18941,22.1312747 L3.04327567,22.13428 L2.89714133,22.1380367 L2.75739333,22.1380367 L2.20967133,22.5114493 L1.55338167,21.8724403 L1.53309567,21.85253 L1.509053,21.8352493 L1.488767,21.8179687 L1.46885667,21.7976827 L1.44894633,21.7777723 L1.43166567,21.756735 L1.41137967,21.736449 L1.394099,21.7131577 L1.360289,21.662067 L1.32610333,21.614733 L1.29567433,21.5632667 L1.264494,21.5118003 L1.23707033,21.4618367 L1.21415467,21.4103703 L1.18973633,21.358904 L1.169826,21.3085647 L1.152921,21.257474 L1.13564033,21.21014 L1.11835967,21.1586737 L1.105587,21.1072073 L1.09131167,21.056868 L1.08116867,21.008407 L1.07440667,20.9584433 L1.067269,20.9099823 L0.82271,19.9313707 L0.625485,18.9418647 L0.468832,17.9448453 L0.356507667,16.945572 L0.291893,15.9395367 L0.267850333,14.9301203 L0.170177,14.804272 L0.0916626667,14.6641483 L0.0330586667,14.5150087 L0.00300533333,14.3448317 L5.33854442e-14,14.273455 L0.0131483333,14.1919353 L0.06762,14.0217583 L0.163039333,13.831671 L0.288887667,13.6239273 L0.445165,13.406792 L0.625485,13.1720003 L0.82271,12.9308223 L1.03383467,12.6791257 L1.46885667,12.1584517 L1.89336,11.6280103 L2.08795533,11.365795 L2.26113767,11.104331 L2.41102867,10.8492533 L2.53312033,10.60507 L2.397129,10.5738897 L2.254,10.529561 L2.11500333,10.4649463 L1.97938767,10.3766647 L1.85353933,10.264716 L1.74046367,10.1185817 L1.64917667,9.941267 L1.61161,9.83570467 L1.58042967,9.723756 L1.74046367,9.86312833 L1.89749233,9.96869067 L2.04700767,10.047205 L2.18675567,10.1016767 L2.31861467,10.1358623 L2.444463,10.1490107 L2.56016833,10.1490107 L2.66272533,10.1358623 L2.66911167,10.003252 L2.65896867,9.51263133 L2.652958,9.01337033 L2.65896867,8.51974433 L2.67587367,8.04490167 L2.70329733,7.59898533 L2.72320767,7.39124167 L2.747626,7.198149 L2.77880633,7.017829 L2.80885967,6.85403833 L2.84605067,6.71203633 L2.89037933,6.586188 L2.64882567,6.56176967 L2.41703933,6.564775 L2.30847167,6.58205567 L2.206666,6.60910367 L2.11500333,6.64667033 L2.03385933,6.69475567 L1.93806433,6.776651 L1.87044433,6.88521867 L1.82649133,7.017829 L1.812216,7.16696867 L1.83212633,7.33714567 L1.89073033,7.52009533 L1.989155,7.717696 L2.12815167,7.92919633 L1.955345,7.86458167 L1.812216,7.77592433 L1.700643,7.66735667 L1.61461533,7.537376 L1.557514,7.39837933 L1.530466,7.25262067 L1.52633367,7.10272967 L1.55338167,6.952463 L1.604848,6.80970967 L1.67923,6.67371833 L1.78479233,6.55914 L1.91064067,6.45620733 Z M3.20669067,6.41901633 L3.24050067,6.56890733 L3.23373867,6.71767133 L3.199553,6.81346633 L3.169124,6.935558 L3.13907067,7.08244367 L3.11202267,7.248864 L3.09060967,7.43294067 L3.07032367,7.62903867 L3.04327567,8.06105533 L3.02637067,8.52725767 L3.02298967,9.01337033 L3.036138,9.99273333 L2.97903667,10.3766647 L2.87009333,10.747072 L2.747626,11.002901 L2.604497,11.2545977 L2.43845233,11.502162 L2.26113767,11.7538587 L1.87382533,12.2467333 L1.471862,12.7302163 L11.623878,11.4003563 L11.7869173,11.397351 L11.9499567,11.4304097 L12.0998477,11.498781 L12.2328337,11.6005867 L12.3342637,11.7305673 L12.5386263,12.0866993 L12.7050467,12.4616147 L12.8278897,12.852308 L12.905277,13.2538957 L12.9428437,13.661494 L12.9364573,14.0732247 L12.884991,14.480823 L12.7906987,14.878654 L12.6535803,15.2659663 L12.5893413,15.3918147 L12.4976787,15.500758 L12.389111,15.592045 L7.87960833,18.6559823 L3.32202033,21.7537297 L3.85584267,21.7131577 L4.413332,21.6549293 L5.54296167,21.529081 L6.086927,21.481747 L6.348391,21.4674717 L6.60046333,21.4644663 L6.84164133,21.4674717 L7.07342767,21.481747 L7.29469533,21.5118003 L7.50544433,21.5602613 L7.62791167,21.6008333 L7.74399267,21.6549293 L7.858571,21.716163 L7.96713867,21.790545 L8.076082,21.8724403 L8.18577667,21.9637273 L8.29472,22.0625277 L8.39915533,22.1722223 L8.50809867,22.284171 L8.613661,22.407014 L8.72222867,22.5358677 L8.831172,22.6714833 L9.04567767,22.9607467 L9.26018333,23.2695447 L9.47431333,23.6031367 L9.68506233,23.953258 L9.89205467,24.3176547 L10.0964173,24.6910673 L10.294018,25.0761257 L10.4811,25.4664433 L10.66142,25.8608933 L10.8346023,26.2515867 L17.612756,26.2515867 L17.4016313,26.016795 L17.2040307,25.782379 L17.021081,25.5449577 L16.850904,25.3064093 L16.6938753,25.0686123 L16.5518733,24.831191 L16.4188873,24.592267 L16.2960443,24.3552213 L16.187101,24.1204297 L16.085671,23.8886433 L15.9184993,23.4299543 L15.7866403,22.9847893 L15.68784,22.5561537 L15.6164633,22.1481797 L15.5725103,21.763497 L15.548092,21.4032327 L15.54133,21.077154 L15.548092,20.7811287 L15.564997,20.519289 L15.57514,20.4035837 L15.5894153,20.2987727 L15.5995583,20.2033533 L15.612331,20.121458 L15.6942263,19.907328 L15.8200747,19.7138597 L15.9868707,19.5538257 L16.3644157,19.33932 L16.7250557,19.121809 L17.0755527,18.9005413 L17.4083933,18.680025 L17.72771,18.4527467 L18.030873,18.2239657 L18.323893,17.989174 L18.6026377,17.754758 L18.867107,17.5173367 L19.1188037,17.2787883 L19.3577277,17.037986 L19.585006,16.7923 L19.7998873,16.547741 L20.0001177,16.299801 L20.190205,16.0481043 L20.3701493,15.7964077 L20.4588067,15.708126 L20.6932227,15.5721347 L20.9490517,15.4834773 L21.216902,15.4462863 L21.265363,15.4496673 L21.339745,15.4496673 L21.4246457,15.443281 L21.520065,15.426376 L21.6256273,15.39482 L21.7345707,15.350867 L21.8532813,15.2963953 L22.094835,15.160404 L22.332632,14.990227 L22.5610373,14.804272 L22.764273,14.6168143 L22.93445,14.4466373 L23.009959,14.395171 L23.077579,14.3482127 L23.1388127,14.3080163 L23.1932843,14.2663173 L23.244375,14.2321317 L23.2890793,14.2020783 L23.3702233,14.1434743 L23.4378433,14.0893783 L23.502458,14.039039 L23.519363,14.0251393 L23.540776,14.0078587 L23.567824,13.9845673 L23.5978773,13.9575193 L23.6392007,13.9199527 L23.6865347,13.8718673 L23.716588,13.8444437 L23.7477683,13.8143903 L23.7812027,13.7802047 L23.8183937,13.7430137 L24.0126133,13.521746 L24.1827903,13.2809437 L24.3289247,13.029247 L24.454773,12.75764 L24.5535733,12.4785197 L24.6245743,12.1854997 L24.668903,11.879707 L24.683554,11.5701577 L24.6760407,11.338747 L24.6523737,11.114474 L24.6118017,10.8965873 L24.5577057,10.6824573 L24.5430547,10.3732837 L24.4957207,10.0644857 L24.4145767,9.764328 L24.2984957,9.47544033 L24.1523613,9.20383333 L23.992703,8.819902 L23.8736167,8.42169533 L23.80224,8.010716 L23.832669,7.76578133 L23.8424363,7.510328 L23.8255313,7.17373067 L23.7710597,6.847652 L23.6824023,6.53171633 L23.5636917,6.228929 L23.4149277,5.942671 L23.237613,5.67820167 L23.0373827,5.42951033 L22.8086017,5.20486167 L22.519714,4.97758333 L22.3262457,4.851735 L22.125264,4.73978633 L21.9107583,4.64399133 L21.6932473,4.56247167 L21.4655933,4.501238 L21.2311773,4.453904 L20.9922533,4.426856 L20.744689,4.41633733 L20.4174833,4.433618 L20.0985423,4.48395733 L19.9595457,4.480952 L19.8299407,4.42986133 L19.7240027,4.337823 L19.53091,4.076359 L19.3363147,3.82466233 L19.1390897,3.594003 L18.9456213,3.37574067 L18.755534,3.17551033 L18.5680763,2.99481467 L18.3809943,2.832151 L18.2036797,2.68601667 L17.9219297,2.481654 L17.6191423,2.28142367 L17.2930637,2.083823 L16.9497043,1.89636533 L16.584932,1.716421 L16.2043817,1.54323867 L15.8069263,1.37644267 L15.3951957,1.223922 L14.9703167,1.08154433 L14.5352947,0.945177333 L14.0893783,0.825715333 L13.6329433,0.716772 L13.171249,0.622104 L12.7020413,0.540584333 L12.225696,0.475218333 L11.7497263,0.420746667 L11.266619,0.387688 L10.7872683,0.370407333 L10.3037853,0.366275 L9.82481033,0.383555667 L9.348465,0.420746667 L8.875125,0.475218333 L8.41042533,0.546595 L7.95023367,0.64239 L7.497931,0.758095333 L7.05652267,0.894086667 L6.62413033,1.05412067 L6.20263233,1.23444067 L5.79465833,1.43767633 L5.40321367,1.66608167 L5.02566867,1.91665133 L4.662399,2.195396 L4.39342167,2.42004467 L4.148487,2.641688 L3.92458967,2.85206133 L3.71985133,3.056424 L3.53276933,3.25402467 L3.36935433,3.444112 L3.22059033,3.62743733 L3.09060967,3.801371 L2.97490433,3.970421 L2.87647967,4.13083067 L2.79496,4.283727 L2.72320767,4.42986133 L2.66573067,4.565477 L2.62177767,4.698463 L2.58721633,4.821306 L2.56430067,4.93701133 L2.53988233,5.14738467 L2.54702,5.33484233 L2.577449,5.500887 L2.624783,5.65115367 L2.68601667,5.783764 L2.75739333,5.898718 L2.83290233,5.99714267 L2.91066533,6.08279467 L3.036138,6.16731967 L3.13907067,6.283025 L3.20669067,6.41901633 Z" id="Fill-74" fill="#FEFEFE"></path>
                        <path d="M12.576193,13.6746423 L12.5420073,13.3079917 L12.4706307,12.943595 L12.358682,12.5900927 L12.2117963,12.2501143 L12.028471,11.9307977 L11.9600997,11.8522833 L11.8714423,11.7948063 L11.772642,11.763626 L11.671212,11.763626 L7.018956,12.3725817 L7.018956,18.7991113 L12.1813673,15.2862523 L12.2632627,15.2148757 L12.3177343,15.123213 L12.4405773,14.7730917 L12.5247267,14.4124517 L12.5690553,14.045801 L12.576193,13.6746423 Z M1.91064067,6.45620733 L2.06090733,6.38182533 L2.23408967,6.33449133 L2.43131467,6.320216 L2.652958,6.340502 L2.55415767,6.235691 L2.455733,6.106086 L2.36294333,5.95694633 L2.28142367,5.78676933 L2.22094133,5.58954433 L2.18262333,5.37503867 L2.172856,5.13724167 L2.199904,4.875402 L2.23108433,4.73264867 L2.27128067,4.58951967 L2.322747,4.43662333 L2.386986,4.28072167 L2.46850567,4.11768233 L2.56016833,3.94712967 L2.66573067,3.77019067 L2.791579,3.58987067 L2.93057567,3.39978333 L3.08760433,3.20556367 L3.26078667,3.00909 L3.455382,2.801722 L3.669512,2.58721633 L3.90017133,2.36970533 L4.15600033,2.14543233 L4.43061267,1.91101633 L4.81229,1.61762067 L5.210121,1.35315133 L5.621476,1.11422733 L6.04936033,0.900848667 L6.48851467,0.709634333 L6.93743633,0.546595 L7.396501,0.404968667 L7.86570867,0.284755333 L8.34468367,0.186330667 L8.82516133,0.108943333 L9.31427933,0.0544716667 L9.80452433,0.0161536667 L10.30078,-1.06770888e-14 L10.794406,0.00300533333 L11.2865293,0.0199103333 L11.7797797,0.057477 L12.27303,0.108943333 L12.7591427,0.176187667 L13.238869,0.261839667 L13.7114577,0.356507667 L14.1806653,0.469207667 L14.6367247,0.590923667 L15.086022,0.731047333 L15.521044,0.877181667 L15.9429177,1.03684 L16.350516,1.20326033 L16.7419607,1.38320467 L17.1198813,1.57028667 L17.4760133,1.76788733 L17.8129863,1.96811767 L18.132303,2.179618 L18.4283283,2.39299667 L18.6195427,2.55002533 L18.8156407,2.72320767 L19.0173737,2.91630033 L19.217604,3.12817633 L19.4178343,3.35244933 L19.6225727,3.594003 L19.822803,3.852086 L20.0237847,4.123693 L20.3776627,4.06922133 L20.744689,4.049311 L21.019677,4.05907833 L21.2882787,4.09025867 L21.550494,4.14473033 L21.8059473,4.21235033 L22.050882,4.304013 L22.2883033,4.40957533 L22.5167087,4.53542367 L22.7312143,4.67517167 L22.9171693,4.84121633 L23.0914787,5.01139333 L23.2507613,5.181946 L23.397647,5.35174733 L23.5336383,5.52192433 L23.652349,5.69510667 L23.7609167,5.868289 L23.8567117,6.045228 L23.9412367,6.22141567 L24.0156187,6.39873033 L24.073847,6.57905033 L24.1253133,6.76237567 L24.16288,6.94645233 L24.189928,7.132783 L24.2072087,7.323246 L24.210214,7.51446033 L24.1996953,7.79621033 L24.1658853,8.07194967 L24.2887283,8.54754367 L24.4645403,9.010365 L24.6245743,9.29925267 L24.7474173,9.605421 L24.8394557,9.92473767 L24.8935517,10.2508163 L24.9108323,10.5810273 L24.972066,10.818073 L25.0163947,11.0641347 L25.0438183,11.311699 L25.0494533,11.5701577 L25.0336753,11.9165223 L24.9852143,12.2542467 L24.9036947,12.5833307 L24.7947513,12.896261 L24.6557547,13.1952917 L24.491964,13.481174 L24.3018767,13.7497757 L24.087371,13.9977157 L23.8736167,14.209216 L23.7338687,14.32417 L23.662492,14.3823983 L23.5877343,14.4394997 L23.5065903,14.4939713 L23.4622617,14.5251517 L23.4175573,14.5593373 L23.3664667,14.5897663 L23.3161273,14.6235763 L23.2616557,14.661143 L23.2000463,14.698334 L23.1590987,14.7426627 L23.11477,14.7869913 L23.067436,14.8343253 L23.020102,14.8816593 L22.9145397,14.9804597 L22.802591,15.0830167 L22.6827533,15.1848223 L22.556905,15.283247 L22.425046,15.377915 L22.29206,15.470329 L22.1564443,15.5522243 L22.0163207,15.6266063 L21.9487007,15.660792 L21.8776997,15.6908453 L21.8089527,15.7178933 L21.7413327,15.7423117 L21.6729613,15.7625977 L21.6087223,15.782508 L21.5399753,15.7964077 L21.4757363,15.8069263 L21.414127,15.8136883 L21.3528933,15.8166937 L21.292411,15.8166937 L21.2311773,15.8136883 L21.0339523,15.841112 L20.8464947,15.905351 L20.6733123,16.0071567 L20.4862303,16.2686207 L20.2886297,16.5278307 L20.078632,16.782157 L19.8569887,17.037986 L19.6225727,17.2896827 L19.3738813,17.5402523 L19.1157983,17.7889437 L18.8441913,18.0338783 L18.558309,18.275432 L18.255146,18.5128533 L17.9422157,18.747645 L17.6157613,18.982061 L17.275783,19.2104663 L16.918524,19.435115 L16.547741,19.6556313 L16.1641853,19.8731423 L16.0514853,20.0128903 L15.9771033,20.1763053 L15.962828,20.2604547 L15.952685,20.359255 L15.9395367,20.4678227 L15.9286423,20.5906657 L15.9184993,20.7236517 L15.9124887,20.8667807 L15.9083563,21.019677 L15.9124887,21.1827163 L15.915494,21.3558987 L15.9226317,21.5362187 L15.9395367,21.7233007 L15.9598227,21.9205257 L15.9838653,22.120756 L16.0172997,22.331505 L16.0612527,22.545635 L16.1085867,22.7661513 L16.170196,22.9949323 L16.2385673,23.2222107 L16.3170817,23.4570023 L16.404612,23.6955507 L16.5075447,23.9359773 L16.6194933,24.1779067 L16.7419607,24.4224657 L16.8809573,24.6670247 L17.0308483,24.915716 L17.1972687,25.160275 L17.37834,25.4089663 L17.5748137,25.653901 L17.7859383,25.89846 L18.017349,26.1426433 L18.2622837,26.3845727 L18.5271287,26.6223697 L10.587038,26.6223697 L10.4198663,26.2211577 L10.2425517,25.81957 L10.0520887,25.4221147 L9.85486367,25.0276647 L9.651628,24.639601 L9.54869533,24.453646 L9.443133,24.2661883 L9.33869767,24.086244 L9.22975433,23.9089293 L9.124192,23.735747 L9.01524867,23.56557 L8.90630533,23.405536 L8.800743,23.2496343 L8.69217533,23.0997433 L8.586613,22.953609 L8.47766967,22.8176177 L8.37210733,22.688764 L8.27030167,22.5700533 L8.16473933,22.4573533 L8.06293367,22.3555477 L7.964509,22.2601283 L7.86570867,22.1756033 L7.76690833,22.1008457 L7.67524567,22.0354797 L7.58395867,21.9851403 L7.49530133,21.943817 L7.406644,21.9137637 L7.310849,21.8893453 L7.20641367,21.8690593 L7.09747033,21.8551597 L6.981765,21.8420113 L6.858922,21.8352493 L6.73307367,21.832244 L6.60046333,21.832244 L6.46409633,21.832244 L6.32509967,21.837879 L6.18234633,21.8450167 L5.88369133,21.8664297 L5.57714733,21.8934777 L5.26121167,21.926912 L4.61093267,22.002421 L4.28785933,22.0354797 L3.96441033,22.0696653 L3.64847467,22.1008457 L3.339301,22.120756 L3.18941,22.1312747 L3.04327567,22.13428 L2.89714133,22.1380367 L2.75739333,22.1380367 L2.20967133,22.5114493 L1.55338167,21.8724403 L1.53309567,21.85253 L1.509053,21.8352493 L1.488767,21.8179687 L1.46885667,21.7976827 L1.44894633,21.7777723 L1.43166567,21.756735 L1.41137967,21.736449 L1.394099,21.7131577 L1.360289,21.662067 L1.32610333,21.614733 L1.29567433,21.5632667 L1.264494,21.5118003 L1.23707033,21.4618367 L1.21415467,21.4103703 L1.18973633,21.358904 L1.169826,21.3085647 L1.152921,21.257474 L1.13564033,21.21014 L1.11835967,21.1586737 L1.105587,21.1072073 L1.09131167,21.056868 L1.08116867,21.008407 L1.07440667,20.9584433 L1.067269,20.9099823 L0.82271,19.9313707 L0.625485,18.9418647 L0.468832,17.9448453 L0.356507667,16.945572 L0.291893,15.9395367 L0.267850333,14.9301203 L0.170177,14.804272 L0.0916626667,14.6641483 L0.0330586667,14.5150087 L0.00300533333,14.3448317 L5.33854442e-14,14.273455 L0.0131483333,14.1919353 L0.06762,14.0217583 L0.163039333,13.831671 L0.288887667,13.6239273 L0.445165,13.406792 L0.625485,13.1720003 L0.82271,12.9308223 L1.03383467,12.6791257 L1.46885667,12.1584517 L1.89336,11.6280103 L2.08795533,11.365795 L2.26113767,11.104331 L2.41102867,10.8492533 L2.53312033,10.60507 L2.397129,10.5738897 L2.254,10.529561 L2.11500333,10.4649463 L1.97938767,10.3766647 L1.85353933,10.264716 L1.74046367,10.1185817 L1.64917667,9.941267 L1.61161,9.83570467 L1.58042967,9.723756 L1.74046367,9.86312833 L1.89749233,9.96869067 L2.04700767,10.047205 L2.18675567,10.1016767 L2.31861467,10.1358623 L2.444463,10.1490107 L2.56016833,10.1490107 L2.66272533,10.1358623 L2.66911167,10.003252 L2.65896867,9.51263133 L2.652958,9.01337033 L2.65896867,8.51974433 L2.67587367,8.04490167 L2.70329733,7.59898533 L2.72320767,7.39124167 L2.747626,7.198149 L2.77880633,7.017829 L2.80885967,6.85403833 L2.84605067,6.71203633 L2.89037933,6.586188 L2.64882567,6.56176967 L2.41703933,6.564775 L2.30847167,6.58205567 L2.206666,6.60910367 L2.11500333,6.64667033 L2.03385933,6.69475567 L1.93806433,6.776651 L1.87044433,6.88521867 L1.82649133,7.017829 L1.812216,7.16696867 L1.83212633,7.33714567 L1.89073033,7.52009533 L1.989155,7.717696 L2.12815167,7.92919633 L1.955345,7.86458167 L1.812216,7.77592433 L1.700643,7.66735667 L1.61461533,7.537376 L1.557514,7.39837933 L1.530466,7.25262067 L1.52633367,7.10272967 L1.55338167,6.952463 L1.604848,6.80970967 L1.67923,6.67371833 L1.78479233,6.55914 L1.91064067,6.45620733 Z M3.20669067,6.41901633 L3.24050067,6.56890733 L3.23373867,6.71767133 L3.199553,6.81346633 L3.169124,6.935558 L3.13907067,7.08244367 L3.11202267,7.248864 L3.09060967,7.43294067 L3.07032367,7.62903867 L3.04327567,8.06105533 L3.02637067,8.52725767 L3.02298967,9.01337033 L3.036138,9.99273333 L2.97903667,10.3766647 L2.87009333,10.747072 L2.747626,11.002901 L2.604497,11.2545977 L2.43845233,11.502162 L2.26113767,11.7538587 L1.87382533,12.2467333 L1.471862,12.7302163 L11.623878,11.4003563 L11.7869173,11.397351 L11.9499567,11.4304097 L12.0998477,11.498781 L12.2328337,11.6005867 L12.3342637,11.7305673 L12.5386263,12.0866993 L12.7050467,12.4616147 L12.8278897,12.852308 L12.905277,13.2538957 L12.9428437,13.661494 L12.9364573,14.0732247 L12.884991,14.480823 L12.7906987,14.878654 L12.6535803,15.2659663 L12.5893413,15.3918147 L12.4976787,15.500758 L12.389111,15.592045 L7.87960833,18.6559823 L3.32202033,21.7537297 L3.85584267,21.7131577 L4.413332,21.6549293 L5.54296167,21.529081 L6.086927,21.481747 L6.348391,21.4674717 L6.60046333,21.4644663 L6.84164133,21.4674717 L7.07342767,21.481747 L7.29469533,21.5118003 L7.50544433,21.5602613 L7.62791167,21.6008333 L7.74399267,21.6549293 L7.858571,21.716163 L7.96713867,21.790545 L8.076082,21.8724403 L8.18577667,21.9637273 L8.29472,22.0625277 L8.39915533,22.1722223 L8.50809867,22.284171 L8.613661,22.407014 L8.72222867,22.5358677 L8.831172,22.6714833 L9.04567767,22.9607467 L9.26018333,23.2695447 L9.47431333,23.6031367 L9.68506233,23.953258 L9.89205467,24.3176547 L10.0964173,24.6910673 L10.294018,25.0761257 L10.4811,25.4664433 L10.66142,25.8608933 L10.8346023,26.2515867 L17.612756,26.2515867 L17.4016313,26.016795 L17.2040307,25.782379 L17.021081,25.5449577 L16.850904,25.3064093 L16.6938753,25.0686123 L16.5518733,24.831191 L16.4188873,24.592267 L16.2960443,24.3552213 L16.187101,24.1204297 L16.085671,23.8886433 L15.9184993,23.4299543 L15.7866403,22.9847893 L15.68784,22.5561537 L15.6164633,22.1481797 L15.5725103,21.763497 L15.548092,21.4032327 L15.54133,21.077154 L15.548092,20.7811287 L15.564997,20.519289 L15.57514,20.4035837 L15.5894153,20.2987727 L15.5995583,20.2033533 L15.612331,20.121458 L15.6942263,19.907328 L15.8200747,19.7138597 L15.9868707,19.5538257 L16.3644157,19.33932 L16.7250557,19.121809 L17.0755527,18.9005413 L17.4083933,18.680025 L17.72771,18.4527467 L18.030873,18.2239657 L18.323893,17.989174 L18.6026377,17.754758 L18.867107,17.5173367 L19.1188037,17.2787883 L19.3577277,17.037986 L19.585006,16.7923 L19.7998873,16.547741 L20.0001177,16.299801 L20.190205,16.0481043 L20.3701493,15.7964077 L20.4588067,15.708126 L20.6932227,15.5721347 L20.9490517,15.4834773 L21.216902,15.4462863 L21.265363,15.4496673 L21.339745,15.4496673 L21.4246457,15.443281 L21.520065,15.426376 L21.6256273,15.39482 L21.7345707,15.350867 L21.8532813,15.2963953 L22.094835,15.160404 L22.332632,14.990227 L22.5610373,14.804272 L22.764273,14.6168143 L22.93445,14.4466373 L23.009959,14.395171 L23.077579,14.3482127 L23.1388127,14.3080163 L23.1932843,14.2663173 L23.244375,14.2321317 L23.2890793,14.2020783 L23.3702233,14.1434743 L23.4378433,14.0893783 L23.502458,14.039039 L23.519363,14.0251393 L23.540776,14.0078587 L23.567824,13.9845673 L23.5978773,13.9575193 L23.6392007,13.9199527 L23.6865347,13.8718673 L23.716588,13.8444437 L23.7477683,13.8143903 L23.7812027,13.7802047 L23.8183937,13.7430137 L24.0126133,13.521746 L24.1827903,13.2809437 L24.3289247,13.029247 L24.454773,12.75764 L24.5535733,12.4785197 L24.6245743,12.1854997 L24.668903,11.879707 L24.683554,11.5701577 L24.6760407,11.338747 L24.6523737,11.114474 L24.6118017,10.8965873 L24.5577057,10.6824573 L24.5430547,10.3732837 L24.4957207,10.0644857 L24.4145767,9.764328 L24.2984957,9.47544033 L24.1523613,9.20383333 L23.992703,8.819902 L23.8736167,8.42169533 L23.80224,8.010716 L23.832669,7.76578133 L23.8424363,7.510328 L23.8255313,7.17373067 L23.7710597,6.847652 L23.6824023,6.53171633 L23.5636917,6.228929 L23.4149277,5.942671 L23.237613,5.67820167 L23.0373827,5.42951033 L22.8086017,5.20486167 L22.519714,4.97758333 L22.3262457,4.851735 L22.125264,4.73978633 L21.9107583,4.64399133 L21.6932473,4.56247167 L21.4655933,4.501238 L21.2311773,4.453904 L20.9922533,4.426856 L20.744689,4.41633733 L20.4174833,4.433618 L20.0985423,4.48395733 L19.9595457,4.480952 L19.8299407,4.42986133 L19.7240027,4.337823 L19.53091,4.076359 L19.3363147,3.82466233 L19.1390897,3.594003 L18.9456213,3.37574067 L18.755534,3.17551033 L18.5680763,2.99481467 L18.3809943,2.832151 L18.2036797,2.68601667 L17.9219297,2.481654 L17.6191423,2.28142367 L17.2930637,2.083823 L16.9497043,1.89636533 L16.584932,1.716421 L16.2043817,1.54323867 L15.8069263,1.37644267 L15.3951957,1.223922 L14.9703167,1.08154433 L14.5352947,0.945177333 L14.0893783,0.825715333 L13.6329433,0.716772 L13.171249,0.622104 L12.7020413,0.540584333 L12.225696,0.475218333 L11.7497263,0.420746667 L11.266619,0.387688 L10.7872683,0.370407333 L10.3037853,0.366275 L9.82481033,0.383555667 L9.348465,0.420746667 L8.875125,0.475218333 L8.41042533,0.546595 L7.95023367,0.64239 L7.497931,0.758095333 L7.05652267,0.894086667 L6.62413033,1.05412067 L6.20263233,1.23444067 L5.79465833,1.43767633 L5.40321367,1.66608167 L5.02566867,1.91665133 L4.662399,2.195396 L4.39342167,2.42004467 L4.148487,2.641688 L3.92458967,2.85206133 L3.71985133,3.056424 L3.53276933,3.25402467 L3.36935433,3.444112 L3.22059033,3.62743733 L3.09060967,3.801371 L2.97490433,3.970421 L2.87647967,4.13083067 L2.79496,4.283727 L2.72320767,4.42986133 L2.66573067,4.565477 L2.62177767,4.698463 L2.58721633,4.821306 L2.56430067,4.93701133 L2.53988233,5.14738467 L2.54702,5.33484233 L2.577449,5.500887 L2.624783,5.65115367 L2.68601667,5.783764 L2.75739333,5.898718 L2.83290233,5.99714267 L2.91066533,6.08279467 L3.036138,6.16731967 L3.13907067,6.283025 L3.20669067,6.41901633 Z" id="Stroke-75" stroke="#FEFEFE" stroke-width="0.5"></path>
                    </g>
                </g>
            </g>
        </g>
    </g>
</svg>