<?xml version="1.0" encoding="UTF-8"?><svg version="1.1" width="78px" height="122px" viewBox="0 0 78.0 122.0" xmlns="http://www.w3.org/2000/svg" xmlns:xlink="http://www.w3.org/1999/xlink"><defs><clipPath id="i0"><path d="M1024,0 L1024,600 L0,600 L0,0 L1024,0 Z"></path></clipPath><clipPath id="i1"><path d="M39,0 C60.5391052,-3.95666944e-15 78,17.4608948 78,39 L78,83 C78,104.539105 60.5391052,122 39,122 C17.4608948,122 2.63777963e-15,104.539105 0,83 L0,39 C-2.63777963e-15,17.4608948 17.4608948,3.95666944e-15 39,0 Z"></path></clipPath><clipPath id="i2"><path d="M40,0 L40,40 L0,40 L0,0 L40,0 Z"></path></clipPath><clipPath id="i3"><path d="M17.3409179,0 L19.007584,0.0378178534 L20.6418768,0.264160528 L22.2683553,0.60057009 L23.8245057,1.12550447 L25.3432593,1.76163463 L26.827407,2.54677843 L28.1982482,3.48206474 L29.4937378,4.53136906 L30.6792698,5.69186916 L31.7548443,6.96695171 L32.7171123,8.31541219 L33.5342587,9.77506844 L34.2386568,11.3109248 L34.7951424,12.8845991 L35.1255732,14.2330596 L35.3108823,15.6165157 L35.3488372,17.0411763 L35.2762764,18.4274546 L35.0150575,19.813733 L34.6444392,21.1621934 L34.0879535,22.4722716 L33.4589071,23.7095363 L32.6819483,24.8666497 L31.7548443,25.9543364 L25.3432593,32.8834702 L25.6044782,33.0324838 L25.7897874,33.2588265 L25.86179,33.5574182 L25.86179,36.1047611 L25.7897874,36.629131 L25.5665233,37.1162476 L25.2333017,37.5644174 L24.7895645,37.8663957 L24.3056397,38.0509694 L24.3056397,40 L22.5290161,40 L22.5290161,38.1271696 L12.9671754,38.1271696 L12.9671754,40 L11.1152002,40 L11.1152002,37.713431 L10.8539813,37.2652612 L10.7440237,36.7787091 L10.7440237,34.0823526 L10.6714629,33.5952361 L10.4108022,33.1826264 L9.55849169,32.2473401 L3.48347718,25.57898 L2.55581509,24.4184799 L1.77662359,23.2195976 L1.10962228,21.9095194 L0.591091544,20.523241 L0.260660766,19.1019671 L0.0346059261,17.6423108 L0,16.1792679 L0.109957539,14.7196117 L0.370618306,13.2599554 L0.814355584,11.8736771 L1.44284386,10.2994384 L2.22259351,8.83978212 L3.1474648,7.4535038 L4.18508442,6.14342562 L5.33545238,4.94454322 L6.59354525,3.82186098 L7.96717725,2.88375243 L9.37318254,2.02240849 L10.8919362,1.31007818 L12.4480865,0.785143793 L14.0421918,0.375356306 L15.6742519,0.111195778 L17.3409179,0 Z M11.6486234,36.2790698 L11.3853248,36.3238439 L11.2048917,36.5009356 L11.1627907,36.7228014 L11.2048917,36.9874365 L11.3853248,37.1672013 L11.6486234,37.2093023 L11.8704892,37.1672013 L12.0482491,36.9874365 L12.0930233,36.7228014 L12.0482491,36.5009356 L11.8704892,36.3238439 L11.6486234,36.2790698 Z M13.4883721,36.2790698 L13.2753271,36.3238439 L13.1057868,36.5009356 L13.0232558,36.7228014 L13.1057868,36.9874365 L13.2753271,37.1672013 L13.4883721,37.2093023 L13.7404434,37.1672013 L13.8703176,36.9874365 L13.9534884,36.7228014 L13.8703176,36.5009356 L13.7404434,36.3238439 L13.4883721,36.2790698 Z M24.6511628,36.2790698 L24.4402084,36.3238439 L24.2718262,36.5009356 L24.1860465,36.7228014 L24.2718262,36.9874365 L24.4402084,37.1672013 L24.6511628,37.2093023 L24.8621172,37.1672013 L25.0304994,36.9874365 L25.1162791,36.7228014 L25.0304994,36.5009356 L24.8621172,36.3238439 L24.6511628,36.2790698 Z M15.3699029,36.2790698 L15.1024025,36.3238439 L14.9251835,36.5009356 L14.8837209,36.7228014 L14.9251835,36.9874365 L15.1024025,37.1672013 L15.3699029,37.2093023 L15.5919282,37.1672013 L15.7691472,36.9874365 L15.8139535,36.7228014 L15.7691472,36.5009356 L15.5919282,36.3238439 L15.3699029,36.2790698 Z M22.809812,36.2790698 L22.548247,36.3238439 L22.3638101,36.5009356 L22.3255814,36.7228014 L22.3638101,36.9874365 L22.548247,37.1672013 L22.809812,37.2093023 L23.0331483,37.1672013 L23.2142318,36.9874365 L23.255814,36.7228014 L23.2142318,36.5009356 L23.0331483,36.3238439 L22.809812,36.2790698 Z M16.2809812,36.2790698 L16.0688117,36.3238439 L15.8967824,36.5009356 L15.8139535,36.7228014 L15.8967824,36.9874365 L16.0688117,37.1672013 L16.2809812,37.2093023 L16.4925135,37.1672013 L16.6613571,36.9874365 L16.744186,36.7228014 L16.6613571,36.5009356 L16.4925135,36.3238439 L16.2809812,36.2790698 Z M21.8381582,36.2790698 L21.6164206,36.3238439 L21.4406286,36.5009356 L21.3953488,36.7228014 L21.4406286,36.9874365 L21.6164206,37.1672013 L21.8381582,37.2093023 L22.1045097,37.1672013 L22.2803016,36.9874365 L22.3255814,36.7228014 L22.2803016,36.5009356 L22.1045097,36.3238439 L21.8381582,36.2790698 Z M20.9286386,36.2790698 L20.6767936,36.3238439 L20.5511899,36.5009356 L20.4651163,36.7228014 L20.5511899,36.9874365 L20.6767936,37.1672013 L20.9286386,37.2093023 L21.1403159,37.1672013 L21.3124631,36.9874365 L21.3953488,36.7228014 L21.3124631,36.5009356 L21.1403159,36.3238439 L20.9286386,36.2790698 Z M18.7647864,33.4883721 L17.5138006,33.4883721 L17.5138006,34.2575191 L16.744186,34.2575191 L16.744,34.882 L16.744186,35.5104065 L17.5138006,35.5104065 L17.5138006,36.2790698 L18.7647864,36.2790698 L18.7647864,35.5104065 L19.5348837,35.5104065 L19.5348837,34.2575191 L18.7647864,34.2575191 L18.7647864,33.4883721 Z M11.6486234,34.4186047 L11.3853248,34.5014903 L11.2048917,34.630282 L11.1627907,34.882127 L11.2048917,35.0944419 L11.3853248,35.2659515 L11.6486234,35.3488372 L11.8704892,35.2659515 L12.0482491,35.0944419 L12.0930233,34.882127 L12.0482491,34.630282 L11.8704892,34.5014903 L11.6486234,34.4186047 Z M13.4883721,34.4186047 L13.2753271,34.5014903 L13.1057868,34.630282 L13.0232558,34.882127 L13.1057868,35.0944419 L13.2753271,35.2659515 L13.4883721,35.3488372 L13.7404434,35.2659515 L13.8703176,35.0944419 L13.9534884,34.882127 L13.8703176,34.630282 L13.7404434,34.5014903 L13.4883721,34.4186047 Z M24.6511628,34.4186047 L24.4402084,34.5014903 L24.2718262,34.630282 L24.1860465,34.882127 L24.2718262,35.0944419 L24.4402084,35.2659515 L24.6511628,35.3488372 L24.8621172,35.2659515 L25.0304994,35.0944419 L25.1162791,34.882127 L25.0304994,34.630282 L24.8621172,34.5014903 L24.6511628,34.4186047 Z M15.3699029,34.4186047 L15.1024025,34.5014903 L14.9251835,34.630282 L14.8837209,34.882127 L14.9251835,35.0944419 L15.1024025,35.2659515 L15.3699029,35.3488372 L15.5919282,35.2659515 L15.7691472,35.0944419 L15.8139535,34.882127 L15.7691472,34.630282 L15.5919282,34.5014903 L15.3699029,34.4186047 Z M22.809812,34.4186047 L22.548247,34.5014903 L22.3638101,34.630282 L22.3255814,34.882127 L22.3638101,35.0944419 L22.548247,35.2659515 L22.809812,35.3488372 L23.0331483,35.2659515 L23.2142318,35.0944419 L23.255814,34.882127 L23.2142318,34.630282 L23.0331483,34.5014903 L22.809812,34.4186047 Z M16.2809812,34.4186047 L16.0688117,34.5014903 L15.8967824,34.630282 L15.8139535,34.882127 L15.8967824,35.0944419 L16.0688117,35.2659515 L16.2809812,35.3488372 L16.4925135,35.2659515 L16.6613571,35.0944419 L16.744,34.882 L16.6613571,34.630282 L16.4925135,34.5014903 L16.2809812,34.4186047 Z M21.8381582,34.4186047 L21.6164206,34.5014903 L21.4406286,34.630282 L21.3953488,34.882127 L21.4406286,35.0944419 L21.6164206,35.2659515 L21.8381582,35.3488372 L22.1045097,35.2659515 L22.2803016,35.0944419 L22.3255814,34.882127 L22.2803016,34.630282 L22.1045097,34.5014903 L21.8381582,34.4186047 Z M20.9286386,34.4186047 L20.6767936,34.5014903 L20.5511899,34.630282 L20.4651163,34.882127 L20.5511899,35.0944419 L20.6767936,35.2659515 L20.9286386,35.3488372 L21.1403159,35.2659515 L21.3124631,35.0944419 L21.3953488,34.882127 L21.3124631,34.630282 L21.1403159,34.5014903 L20.9286386,34.4186047 Z M20.9286386,33.4883721 L21.1403159,33.5741517 L21.3124631,33.742534 L21.391,33.942 L21.359,34.043 L21.3124631,34.1644428 L21.1403159,34.3334604 L20.9286386,34.4186047 L20.6767936,34.3334604 L20.5511899,34.1644428 L20.502,34.043 L20.469,33.942 L20.5511899,33.742534 L20.6767936,33.5741517 L20.9286386,33.4883721 Z M21.8381582,33.4883721 L22.1045097,33.5741517 L22.2803016,33.742534 L22.323,33.942 L22.306,34.043 L22.2803016,34.1644428 L22.1045097,34.3334604 L21.8381582,34.4186047 L21.6164206,34.3334604 L21.4406286,34.1644428 L21.414,34.043 L21.397,33.942 L21.4406286,33.742534 L21.6164206,33.5741517 L21.8381582,33.4883721 Z M22.809812,33.4883721 L23.0331483,33.5741517 L23.2142318,33.742534 L23.253,33.942 L23.237,34.043 L23.2142318,34.1644428 L23.0331483,34.3334604 L22.809812,34.4186047 L22.548247,34.3334604 L22.3638101,34.1644428 L22.341,34.043 L22.327,33.942 L22.3638101,33.742534 L22.548247,33.5741517 L22.809812,33.4883721 Z M24.6511628,33.4883721 L24.8621172,33.5741517 L25.0304994,33.742534 L25.112,33.942 L25.079,34.043 L25.0304994,34.1644428 L24.8621172,34.3334604 L24.6511628,34.4186047 L24.4402084,34.3334604 L24.2718262,34.1644428 L24.222,34.043 L24.19,33.942 L24.2718262,33.742534 L24.4402084,33.5741517 L24.6511628,33.4883721 Z M17.0966439,5.58139535 L16.5767764,5.69000518 L16.0944021,5.94802244 L15.7222688,6.31464953 L15.4637341,6.78933513 L15.4346349,7.26457205 L15.3881882,7.26457205 L15.5745347,16.2631997 L15.5364819,16.4462375 L15.3506951,16.5201143 L15.1643486,16.4831759 L15.0541076,16.300138 L13.5314388,9.01997153 L13.3865027,8.65334444 L13.1218124,8.32696363 L12.7877318,8.10643606 L12.3809033,7.99451831 L11.9707173,7.99451831 L11.5991436,8.10643606 L11.265063,8.3611454 L11.0031707,8.69028281 L10.8582346,9.0569099 L10.8582346,9.45771876 L11.9332242,18.0549862 L11.898529,18.8593605 L11.8604763,19.2998643 L11.7849304,19.7012245 L11.6366367,20.10479 L11.5263957,20.2878279 L11.375304,20.4339274 L11.1923151,20.5055988 L10.9684756,20.5055988 L10.744636,20.4708657 L10.5588491,20.396989 L10.3725026,20.2508895 L10.2622617,20.0678516 L10.0764748,19.7012245 L9.77988734,18.9337886 L9.33220817,18.2385754 L9.14642131,17.871397 L9.03618031,17.4711394 L8.85039345,16.6662138 L8.70209973,16.300138 L8.47826014,15.9335109 L8.18447068,15.6043735 L7.88564483,15.3491129 L7.1413782,14.9830371 L6.73175176,14.8744273 L6.28743018,14.7994479 L5.842549,14.7625095 L5.43292255,14.8374889 L5.06078924,15.0205268 L4.91249551,15.166075 L4.76420178,15.3491129 L4.68921552,15.5327021 L4.65116279,15.7504731 L4.76420178,16.1540385 L5.09884197,16.5917857 L5.35737669,17.0670227 L5.47041568,17.617239 L5.47041568,18.1669039 L5.54316355,18.7507507 L5.61870941,19.2998643 L5.76980113,19.8125909 L5.95278999,20.322561 L6.39767117,21.3469115 L7.43796566,23.3222873 L7.88564483,24.3477405 L8.21972542,25.4095807 L8.47826014,26.5061541 L8.62655387,27.0530625 L8.85039345,27.531056 L9.11172617,28.0062929 L9.48050189,28.4440401 L10.2622617,29.2489658 L11.1167693,30.0191583 L12.6422361,31.627907 L23.1526239,31.627907 L23.9343837,30.5660667 L24.6752927,29.4694934 L25.0127309,28.8823387 L25.2712656,28.2984919 L25.4951052,27.6771555 L25.680892,27.0530625 L25.9394268,25.7387181 L26.0877205,24.4188606 L26.2360142,21.7879667 L26.3843079,20.4708657 L26.5700948,19.1884979 L27.0524691,16.5917857 L27.5001483,13.9950736 L27.9069767,11.3983614 L27.8342289,10.9573063 L27.6103893,10.5570487 L27.2763087,10.265401 L26.9041754,10.0818118 L26.4598538,10.0443221 L26.0177706,10.1159936 L25.6461969,10.3365211 L25.3440135,10.6656585 L25.1957197,11.0697753 L23.4492114,18.0924759 L23.3764635,18.2385754 L23.2634245,18.3499418 L23.077078,18.3499418 L22.9293439,18.2755138 L22.8185433,18.1669039 L22.8185433,17.9833147 L23.9343837,8.1775562 L23.8968905,7.77729866 L23.7485968,7.37318188 L23.5247572,7.04459579 L23.1526239,6.8235169 L22.7810502,6.71490707 L22.336169,6.71490707 L22.2460736,6.74964017 L21.9645953,6.86100659 L21.6305147,7.08153416 L21.3686224,7.41067157 L21.2583814,7.81148043 L19.8112585,16.8128646 L19.7357126,16.9584128 L19.6254716,17.0300843 L19.4391251,17.0670227 L19.2908314,17.0300843 L19.1777924,16.9214745 L19.1397397,16.7378853 L18.881205,7.15596222 L18.8666554,7.15596222 L18.770964,6.71490707 L18.5090717,6.23967015 L18.0994452,5.87359438 L17.6170709,5.6558234 L17.0966439,5.58139535 Z M20.9286386,33.4883721 L20.6767936,33.5304731 L20.5511899,33.7109062 L20.4651163,33.9294306 L20.469,33.942 L20.4651163,33.9534884 L20.502,34.043 L20.5511899,34.1967388 L20.6767936,34.3731623 L20.9286386,34.4186047 L21.1403159,34.3731623 L21.3124631,34.1967388 L21.359,34.043 L21.3953488,33.9534884 L21.391,33.942 L21.3953488,33.9294306 L21.3124631,33.7109062 L21.1403159,33.5304731 L20.9286386,33.4883721 Z M21.8381582,33.4883721 L21.6164206,33.5304731 L21.4406286,33.7109062 L21.3953488,33.9294306 L21.397,33.942 L21.3953488,33.9534884 L21.414,34.043 L21.4406286,34.1967388 L21.6164206,34.3731623 L21.8381582,34.4186047 L22.1045097,34.3731623 L22.2803016,34.1967388 L22.306,34.043 L22.3255814,33.9534884 L22.323,33.942 L22.3255814,33.9294306 L22.2803016,33.7109062 L22.1045097,33.5304731 L21.8381582,33.4883721 Z M22.809812,33.4883721 L22.548247,33.5304731 L22.3638101,33.7109062 L22.3255814,33.9294306 L22.327,33.942 L22.3255814,33.9534884 L22.341,34.043 L22.3638101,34.1967388 L22.548247,34.3731623 L22.809812,34.4186047 L23.0331483,34.3731623 L23.2142318,34.1967388 L23.237,34.043 L23.255814,33.9534884 L23.253,33.942 L23.255814,33.9294306 L23.2142318,33.7109062 L23.0331483,33.5304731 L22.809812,33.4883721 Z M24.6511628,33.4883721 L24.4402084,33.5304731 L24.2718262,33.7109062 L24.1860465,33.9294306 L24.19,33.942 L24.1860465,33.9534884 L24.222,34.043 L24.2718262,34.1967388 L24.4402084,34.3731623 L24.6511628,34.4186047 L24.8621172,34.3731623 L25.0304994,34.1967388 L25.079,34.043 L25.1162791,33.9534884 L25.112,33.942 L25.1162791,33.9294306 L25.0304994,33.7109062 L24.8621172,33.5304731 L24.6511628,33.4883721 Z"></path></clipPath></defs><g transform="translate(-890.0 -434.0)"><g clip-path="url(#i0)"><g transform="translate(890.0 434.0)"><g clip-path="url(#i1)"><polygon points="0,0 78,0 78,122 0,122 0,0" stroke="none" fill="#A09CE4"></polygon></g><g transform="translate(19.0 14.0)"><g clip-path="url(#i2)"><g transform="translate(1.999999999999961 0.0)"><g clip-path="url(#i3)"><polygon points="0,0 35.3488372,0 35.3488372,40 0,40 0,0" stroke="none" fill="#FFFFFF"></polygon></g></g></g></g><g transform="translate(13.0 63.0)"><text transform="translate(2.0239999999999974 17.0)"><tspan x="2.024px" y="0px" font-family="PingFangSC-Medium, PingFang SC" font-size="16.0" font-weight="400" fill="#FFFFFF" text-anchor="center" letter-spacing="-0.01600000000000001">保护性</tspan><tspan x="10.016px" y="22px" font-family="PingFangSC-Medium, PingFang SC" font-size="16.0" font-weight="400" fill="#FFFFFF" text-anchor="center" letter-spacing="-0.01600000000000001">约束</tspan></text></g></g></g></g></svg>