<?xml version="1.0" encoding="UTF-8"?><svg version="1.1" width="78px" height="122px" viewBox="0 0 78.0 122.0" xmlns="http://www.w3.org/2000/svg" xmlns:xlink="http://www.w3.org/1999/xlink"><defs><clipPath id="i0"><path d="M1024,0 L1024,600 L0,600 L0,0 L1024,0 Z"></path></clipPath><clipPath id="i1"><path d="M39,0 C60.5391052,-3.95666944e-15 78,17.4608948 78,39 L78,83 C78,104.539105 60.5391052,122 39,122 C17.4608948,122 2.63777963e-15,104.539105 0,83 L0,39 C-2.63777963e-15,17.4608948 17.4608948,3.95666944e-15 39,0 Z"></path></clipPath><clipPath id="i2"><path d="M40,0 L40,40 L0,40 L0,0 L40,0 Z"></path></clipPath><clipPath id="i3"><path d="M0.879902663,11.7073171 L1.45598988,11.7243986 L2.03263049,11.8462467 L2.5572517,12.0734309 L3.03096031,12.386592 L3.45652329,12.8045197 L4.98058111,15.4003406 L6.43933798,18.0644876 L7.77745411,20.7821567 L7.93074533,21.025853 L8.1487841,21.1835723 L8.42050247,21.2723962 L8.69000725,21.236525 L8.94844407,21.1146769 L9.13438576,20.8874927 L10.0308904,19.128666 L11.0779192,17.4222227 L12.2328606,15.8017563 L23.8553233,15.8017563 L24.3129834,16.915471 L24.4314106,17.0538313 L24.6007503,17.1255737 L24.789459,17.0897025 L24.9239347,16.9843665 L24.9914492,16.8095656 L25.1231579,16.2003249 L25.3627792,15.6440369 L25.7180607,15.1367159 L26.1436237,14.7017067 L26.6494293,14.3720334 L27.2100214,14.1454187 L27.8049242,14.0235705 L28.3942929,14.0400827 L28.9891957,14.1619308 L29.5304188,14.3885456 L30.0367779,14.7381472 L30.954865,15.854709 L31.7810881,17.0538313 L32.548651,18.2916718 L33.2055343,19.5995465 L33.7650196,20.939876 L34.2392816,22.3331583 L34.6133785,23.7457996 L34.8823299,25.1914651 L35.0516697,26.6377001 L35.1219512,28.0998778 L35.0870872,29.5626249 L35.0389415,29.9646098 L34.8823299,30.3295849 L34.6294271,30.6262339 L34.3250582,30.853418 L33.9509613,30.9923477 L33.5818449,31.0282189 L33.1916993,30.958754 L32.6643111,30.7321393 L32.1579521,30.4354903 L31.700292,30.0693765 L31.2935445,29.6514487 L30.954865,29.1640562 L30.7822049,28.9892553 L30.5641661,28.936872 L30.3245448,28.9892553 L30.1391565,29.1640562 L30.071642,29.4071831 L30.1197876,29.6320897 L30.6128651,30.8010347 L31.0030106,32.003004 L31.3101465,33.2220548 L31.5281852,34.4598953 L31.6466124,35.7313294 L31.6654279,36.9862513 L29.7833217,37.786805 L27.8530698,38.448429 L25.8879538,39.0058558 L23.903469,39.4431426 L21.889654,39.7563037 L19.8570235,39.9311046 L17.8249464,40 L15.7923159,39.9311046 L13.7569184,39.7563037 L11.7431035,39.4431426 L9.74257006,39.0058558 L7.77745411,38.448429 L5.86325077,37.786805 L3.96509596,36.9862513 L4.41998904,34.3716408 L4.96674617,31.7593077 L5.61034793,29.1805683 L6.3557749,26.618341 L6.38842538,26.3746447 L6.33695937,26.1503075 L6.19971669,25.9402049 L5.55666833,25.1390818 L4.99884324,24.2667858 L4.54173658,23.344384 L4.1670862,22.3855416 L3.87931929,21.3942443 L3.70942613,20.3665065 L3.64523198,19.3359217 L3.55613492,18.3446245 L3.38624176,17.3857821 L3.0846399,16.4275091 L2.69449438,15.5387009 L2.20197025,14.6851945 L1.61260149,13.901153 L0.934135658,13.2030884 L0.188155287,12.5938477 L0.0320970783,12.4031041 L0,12.1423263 L0.120640743,11.9322237 L0.319863987,11.7938634 L0.879902663,11.7073171 Z M18.3335191,19.0592012 L17.3484708,19.128666 L16.3684031,19.2863853 L15.4176655,19.5631059 L14.4862969,19.9480094 L13.6036272,20.4160429 L12.7768508,20.9757472 L12.0148218,21.6185815 L11.3175405,22.3496704 L10.6905407,23.153071 L10.1493175,24.006008 L9.71047298,24.9284098 L9.35519153,25.8872522 L9.0995217,26.8620373 L8.94844407,27.873263 L8.89476447,28.9010008 L8.94844407,29.9281693 L9.0995217,30.939395 L9.35519153,31.9147495 L9.71047298,32.8724531 L10.1493175,33.7977018 L10.6905407,34.6512082 L11.3175405,35.4517619 L12.0148218,36.1663386 L12.7768508,36.828532 L13.6036272,37.3853894 L14.4862969,37.8557005 L15.4176655,38.2411733 L15.2804229,37.9086532 L15.0463355,37.6484447 L14.8094812,37.3688773 L14.56986,37.1080995 L14.3357726,36.8450442 L13.810598,36.3405701 L13.5549282,36.0803617 L13.3153069,35.8173063 L13.1996467,35.6789461 L13.0972681,35.5405858 L13.0137051,35.3993786 L12.9251614,35.2439368 L12.8576468,35.0862175 L12.7901323,34.9114166 L12.6877537,34.5652313 L12.5372295,33.8671667 L12.4348508,33.5181344 L12.3324722,33.1696715 L12.2007635,32.8399982 L12.0635209,32.5074781 L11.7431035,31.8646437 L11.4199191,31.2354746 L11.2688415,30.9063707 L11.1315988,30.5738506 L11.010958,30.2248183 L10.927395,29.8786329 L10.8952979,29.7044014 L10.8598804,29.5296006 L10.8438319,29.3553691 L10.8438319,29.1640562 L10.8250164,28.7985117 L10.8117348,28.6237109 L10.7580552,28.4494795 L10.6905407,28.2911907 L10.6069776,28.1363183 L10.504599,27.9951112 L10.4027738,27.8396694 L10.3540747,27.7183906 L10.3347058,27.6489258 L10.3192107,27.5771834 L10.3192107,27.5270776 L10.3347058,27.4547659 L10.3540747,27.4052295 L10.3889388,27.3329177 L10.4210359,27.2805344 L10.4697349,27.2304287 L10.5721135,27.125662 L10.6905407,27.0556278 L10.8117348,27.0032445 L10.927395,26.9673733 L11.3341424,26.9673733 L11.4686181,26.9844548 L11.6058608,27.0197566 L11.8587636,27.1085805 L11.9799578,27.1421742 L12.0983849,27.2110696 L12.2140451,27.2640223 L12.3164237,27.3329177 L12.4215693,27.4217416 L12.5211809,27.5071492 L12.604744,27.6124852 L12.6877537,27.7183906 L12.7552682,27.8203103 L12.8249964,27.9421585 L12.8925109,28.0668535 L12.9251614,28.189271 L12.976074,28.3276313 L13.0137051,28.4494795 L13.0430351,28.7096879 L13.0784526,28.8508951 L13.1133167,28.9727432 L13.1675497,29.0951607 L13.2345108,29.1970804 L13.3855884,29.4242646 L13.4553166,29.5466821 L13.5012486,29.6514487 L13.5709767,29.7732969 L13.6036272,29.895145 L13.6921709,30.1559228 L13.7408699,30.277771 L13.810598,30.3996191 L13.8781126,30.5043857 L13.9262582,30.5573384 L13.9799378,30.5932096 L14.0474523,30.6262339 L14.0989183,30.6621051 L14.1658795,30.6791866 L14.3651027,30.6791866 L14.4326173,30.642746 L14.4862969,30.6262339 L14.5349959,30.5738506 L14.5886755,30.5208979 L14.65619,30.4161312 L14.7071026,30.277771 L14.7558016,30.1559228 L14.7746172,30.0169932 L14.7934327,29.895145 L14.8094812,29.6155776 L14.8227628,29.3553691 L14.8415783,29.0951607 L14.1658795,23.5191848 L14.19853,23.1866646 L14.3357726,22.8928626 L14.56986,22.6821906 L14.8764424,22.5603424 L15.1996268,22.5603424 L15.4879471,22.6987027 L15.7059858,22.9264562 L15.82718,23.2384786 L16.7884321,27.9615175 L16.8553933,28.0668535 L16.9765874,28.0998778 L17.078966,28.0309823 L17.1138301,27.9256463 L17.0114515,22.1253332 L17.046869,21.7763009 L17.1973932,21.4802213 L17.4342475,21.2194435 L17.7225678,21.0617242 L18.0457522,20.9922593 L18.3816647,21.045212 L18.6888005,21.2000844 L18.9228878,21.427838 L19.092781,21.7404297 L19.1464606,22.0729499 L19.3135868,28.2388074 L19.3811013,28.3800146 L19.518344,28.4494795 L19.6555867,28.3965268 L19.7363828,28.2746786 L20.6384213,22.4384943 L20.7562951,22.1424147 L20.9555183,21.898149 L21.2466056,21.7404297 L21.4591104,21.7296114 L21.5509745,21.7239176 L21.56979,21.7239176 L21.8713919,21.8292536 L22.1270617,22.0530214 L22.2615374,22.3496704 L22.2964015,22.6821906 L21.5991201,29.042208 L21.6367512,29.1970804 L21.7690133,29.2859043 L21.9250715,29.2500331 L22.0086345,29.1276156 L23.0772459,24.5463532 L23.1796245,24.2861448 L23.3650128,24.0754728 L23.6024205,23.9371125 L23.8713719,23.8841598 L24.1436436,23.9206004 L24.3771776,24.0424485 L24.5824882,24.2331921 L24.7197309,24.4768884 L24.7518279,24.7541783 L24.5149736,26.4435402 L24.3771776,27.2998935 L24.2454689,28.1363183 L23.938333,29.8262496 L23.8901874,30.2441773 L23.8226729,30.6621051 L23.7689933,31.0806022 L23.7341292,31.5156114 L23.6854302,32.3520363 L23.6317506,33.2220548 L23.6024205,33.6399825 L23.5481875,34.0755612 L23.4673914,34.4934889 L23.3788477,34.9114166 L23.3301487,35.1220887 L23.2604206,35.3299138 L23.2117216,35.5212267 L23.1253915,35.7313294 L23.0423818,35.9226423 L22.9588187,36.1139553 L22.7540615,36.4794997 L22.5332558,36.8450442 L22.315217,37.1940764 L21.8226928,37.9086532 L21.7014987,38.1523494 L22.6168188,37.7509338 L23.4812264,37.2629719 L24.3129834,36.6896024 L25.0584104,36.0114662 L25.7368762,35.2769611 L26.3456139,34.4598953 L26.85474,33.5875992 L27.2930311,32.6651974 L27.6134485,31.706355 L27.8530698,30.7122108 L27.9903125,29.6850424 L28.0041474,28.6760942 L27.9366329,27.6489258 L27.7695067,26.6377001 L27.4817398,25.6594986 L27.1076428,24.7211541 L26.6339342,23.8152644 L26.0733421,22.961758 L25.4491093,22.1782859 L24.737993,21.4802213 L23.938333,20.83454 L23.109343,20.2941947 L22.2128384,19.8432427 L21.2814697,19.4936411 L20.31247,19.2505142 L19.3324023,19.0922255 L18.3335191,19.0592012 Z M19.1916623,0 L19.4450495,0.0658514995 L19.6469304,0.215366789 L19.7706639,0.412381521 L19.7907928,0.643401536 L19.7333662,0.87442155 L19.5717431,1.05848189 L19.3384848,1.1739919 L18.9927415,1.32080835 L18.6848879,1.57018043 L18.4687984,1.86705194 L18.3361845,2.19792874 L18.3048071,2.56011198 L18.3764423,2.90718177 L18.5552342,3.23805857 L20.7155376,6.17600702 L20.9689248,6.6067406 L21.132916,7.0693204 L21.2051432,7.53082066 L21.1672536,8.01175251 L21.0233912,8.48998553 L20.8019734,8.91748051 L20.4935278,9.29855559 L20.113447,9.62943238 L20.2602695,9.69474411 L20.3697943,9.81025412 L20.407092,9.95976941 L20.407092,10.8185377 L20.3348648,10.9998992 L20.1708735,11.1310625 L19.7333662,11.2967708 L19.7333662,11.7275043 L20.657519,11.9898308 L21.5277975,12.3363608 L22.3625543,12.7832874 L23.1227159,13.3289912 L23.7970337,13.9561998 L24.3902439,14.6341463 L12.6829268,14.6341463 L13.2613364,13.9561998 L13.955783,13.3451842 L14.6958157,12.8167529 L15.5110357,12.3552526 L16.3807221,11.9898308 L17.2882982,11.7275043 L17.2882982,11.2967708 L16.8501989,11.1310625 L16.6885757,10.9998992 L16.6370695,10.8185377 L16.6370695,9.95976941 L16.6743671,9.7946009 L16.8188215,9.67909089 L16.9970214,9.62943238 L18.1378558,9.62943238 L18.1609448,9.3978726 L18.2473806,9.1986988 L18.4315007,9.03299052 L18.664759,8.95202556 L19.0306312,8.85162901 L19.3526934,8.65515405 L19.6090407,8.40794104 L19.7907928,8.09325724 L19.86302,7.74672722 L19.86302,7.39965743 L19.7534951,7.0693204 L19.5516142,6.77244888 L17.4493293,3.89711333 L17.1781814,3.43453353 L17.0313589,2.922835 L16.9798526,2.41059669 L17.0544479,1.88270517 L17.2533687,1.38665985 L17.5446456,0.924619825 L17.938935,0.546243586 L18.414332,0.24667324 L18.935315,0.0340052825 L19.1916623,0 Z M24.0152935,0 L24.3052953,0.0696864111 L24.5412637,0.227908836 L24.6876325,0.43639687 L24.7074675,0.680870509 L24.6411228,0.925344148 L24.4578198,1.12012338 L24.1849172,1.2423602 L23.7854808,1.39772662 L23.4298182,1.66162107 L23.1801704,1.97578112 L23.0338016,2.32592677 L22.9907117,2.70920203 L23.0700518,3.07648369 L23.2800295,3.42662935 L25.7758232,6.53567145 L26.0918157,7.00862512 L26.2751187,7.53298681 L26.3414634,8.05849089 L26.2751187,8.58056777 L26.0918157,9.10607186 L25.7758232,9.57902553 L25.3798066,9.9817216 L24.8702516,10.3290113 L24.3052953,10.5734849 L23.7027208,10.7317073 L23.4065633,10.7317073 L23.1370806,10.6266065 L22.924367,10.4512481 L22.8005691,10.225624 L22.8005691,9.9817216 L22.924367,9.75381276 L23.1370806,9.57902553 L23.4065633,9.47335352 L23.8292546,9.3671103 L24.2020163,9.15919347 L24.4974898,8.89758382 L24.7074675,8.56457417 L24.7874916,8.19786371 L24.7874916,7.83058205 L24.6609578,7.4810076 L24.4311451,7.16684755 L22.0023802,4.12406466 L21.6891236,3.63454618 L21.5229197,3.09304849 L21.4634146,2.55097961 L21.5461746,1.99234592 L21.7759873,1.46741303 L22.1124988,0.978465757 L22.5680205,0.578054492 L23.1138257,0.261038442 L23.719136,0.0359856058 L24.0152935,0 Z M14.2730485,0 L14.5470653,0.0696864111 L14.7778163,0.227908836 L14.9213489,0.43639687 L14.9646147,0.680870509 L14.8780831,0.925344148 L14.6905979,1.12012338 L14.4371839,1.2423602 L14.0196344,1.39772662 L13.681749,1.66162107 L13.408419,1.97578112 L13.2641996,2.32592677 L13.2408498,2.70920203 L13.3246344,3.07648369 L13.5114328,3.42662935 L16.040766,6.53567145 L16.331265,7.00862512 L16.5180635,7.53298681 L16.5853659,8.05849089 L16.5180635,8.58056777 L16.331265,9.10607186 L16.040766,9.57902553 L15.616349,9.9817216 L15.1321839,10.3290113 L14.5642343,10.5734849 L13.9591997,10.7317073 L13.6384832,10.7317073 L13.3644664,10.6266065 L13.1536314,10.4512481 L13.0533646,10.225624 L13.0533646,9.9817216 L13.1536314,9.75381276 L13.3644664,9.57902553 L13.6652668,9.47335352 L14.0629003,9.3671103 L14.4371839,9.15919347 L14.7345505,8.89758382 L14.9446987,8.56457417 L15.0483993,8.19786371 L15.0319171,7.83058205 L14.9014329,7.4810076 L14.6905979,7.16684755 L12.2519169,4.12406466 L11.9380681,3.63454618 L11.7505829,3.09304849 L11.7073171,2.55097961 L11.7876679,1.99234592 L11.9978161,1.46741303 L12.3556175,0.978465757 L12.7965168,0.578054492 L13.3479842,0.261038442 L13.9791157,0.0359856058 L14.2730485,0 Z"></path></clipPath></defs><g transform="translate(-792.0 -434.0)"><g clip-path="url(#i0)"><g transform="translate(792.0 434.0)"><g clip-path="url(#i1)"><polygon points="0,0 78,0 78,122 0,122 0,0" stroke="none" fill="#FF5C49"></polygon></g><g transform="translate(19.0 14.0)"><g clip-path="url(#i2)"><g transform="translate(1.9999999999999432 0.0)"><g clip-path="url(#i3)"><polygon points="0,0 35.1219512,0 35.1219512,40 0,40 0,0" stroke="none" fill="#FFFFFF"></polygon></g></g></g></g><g transform="translate(23.0 63.0)"><text transform="translate(0.015999999999998238 17.0)"><tspan x="0.016px" y="0px" font-family="PingFangSC-Medium, PingFang SC" font-size="16.0" font-weight="400" fill="#FFFFFF" text-anchor="center" letter-spacing="-0.01600000000000001">小心</tspan><tspan x="0.016px" y="22px" font-family="PingFangSC-Medium, PingFang SC" font-size="16.0" font-weight="400" fill="#FFFFFF" text-anchor="center" letter-spacing="-0.01600000000000001">烫伤</tspan></text></g></g></g></g></svg>