<?xml version="1.0" encoding="UTF-8"?><svg version="1.1" width="78px" height="122px" viewBox="0 0 78.0 122.0" xmlns="http://www.w3.org/2000/svg" xmlns:xlink="http://www.w3.org/1999/xlink"><defs><clipPath id="i0"><path d="M1024,0 L1024,600 L0,600 L0,0 L1024,0 Z"></path></clipPath><clipPath id="i1"><path d="M39,0 C60.5391052,-3.95666944e-15 78,17.4608948 78,39 L78,83 C78,104.539105 60.5391052,122 39,122 C17.4608948,122 2.63777963e-15,104.539105 0,83 L0,39 C-2.63777963e-15,17.4608948 17.4608948,3.95666944e-15 39,0 Z"></path></clipPath><clipPath id="i2"><path d="M40,0 L40,40 L0,40 L0,0 L40,0 Z"></path></clipPath><clipPath id="i3"><path d="M32.2257469,28.6956522 L32.9081801,30.7385538 L32.9461184,30.8774438 L32.9840568,31.0056125 L33.0055399,31.1440151 L33.0288514,31.2804685 L33.0361648,31.4169218 L33.0434783,31.5548372 L33.0361648,31.6908032 L33.0288514,31.8296932 L33.0055399,31.9656592 L32.9840568,32.1040619 L32.9461184,32.2405153 L32.9081801,32.3711206 L32.8542436,32.4997766 L32.8021355,32.6206353 L32.7408857,32.7492913 L32.6723224,32.86284 L32.5969028,32.9759014 L32.5137127,33.0816527 L32.4218379,33.1854547 L32.3317914,33.2829214 L32.2330603,33.3789261 L32.1357004,33.4598234 L32.0291988,33.5402334 L31.9158409,33.6133334 L31.8006546,33.6791234 L31.6799832,33.7346795 L31.5593118,33.7843875 L31.4386404,33.8243488 L31.3088273,33.8555381 L31.1808425,33.8877021 L31.0514865,33.9052461 L30.9235017,33.9130435 L30.6657037,33.9130435 L30.5363477,33.8959868 L30.4083629,33.8725948 L30.2785497,33.8399435 L30.1578784,33.8072921 L30.0358357,33.7595335 L29.9147073,33.7015408 L29.7940359,33.6459848 L29.680678,33.5806821 L29.5746334,33.4997848 L29.4681318,33.4193748 L29.3694007,33.3311674 L29.2720408,33.2429601 L29.1797089,33.1372087 L29.0969759,33.0314574 L29.0215563,32.9281427 L28.9456796,32.807284 L28.8844297,32.685938 L28.8254653,32.56313 L28.7710718,32.434474 L28.7262771,32.3058179 L28.6956522,32.2078639 L28.9388233,32.0563033 L29.1797089,31.8930466 L29.4233371,31.7239419 L29.650053,31.5475272 L29.8840823,31.3608785 L30.1039419,31.1669198 L30.3238015,30.9729611 L30.543204,30.7716924 L30.7488938,30.5621391 L30.9522982,30.3506364 L31.157531,30.126463 L31.3467656,29.899853 L31.5360003,29.673243 L31.7179215,29.4310383 L31.8925293,29.1966309 L32.0579954,28.9476035 L32.2257469,28.6956522 Z M38.3990726,0 L38.5116909,0.015027034 L38.6228529,0.0324777831 L38.7354712,0.0552607056 L38.8485749,0.0954943773 L38.9534264,0.135243306 L39.0587634,0.185171838 L39.1621587,0.240432544 L39.2597288,0.29569325 L39.4354522,0.441116159 L39.5160325,0.521098759 L39.5961275,0.609321991 L39.668941,0.698999452 L39.7339878,0.794493829 L39.7893261,0.891927179 L39.8373831,0.995177445 L39.8868963,1.10036668 L39.9194197,1.20507118 L39.9500014,1.3180163 L39.974758,1.42853772 L39.9902915,1.54148284 L40,1.66169911 L40,1.7741595 L39.9902915,1.88710462 L38.9364366,11.8233673 L38.9058549,12.0637998 L38.8733315,12.3119883 L38.8233329,12.5529056 L38.7679946,12.7952771 L38.7126563,13.0284385 L38.6398427,13.268871 L38.5592624,13.5020324 L38.4791675,13.7351938 L38.3815973,13.9586603 L38.2859688,14.1840659 L38.1733505,14.4094714 L38.0602468,14.625182 L37.9398617,14.8428316 L37.8117098,15.0512711 L37.6738495,15.2611649 L37.5287078,15.4613637 L37.3850224,15.6625321 L37.2228909,15.8472192 L37.0617302,16.0386927 L36.9010549,16.2161086 L36.7253316,16.3935246 L36.547181,16.5617304 L36.3636909,16.7299363 L35.9772936,17.0358091 L35.7748719,17.1802625 L35.5661397,17.3164753 L35.3578929,17.4517186 L35.147219,17.5743586 L34.9312055,17.6945749 L34.7054834,17.7978252 L34.4875282,17.9030144 L34.2559811,17.998024 L34.030259,18.0877015 L33.7967702,18.1681688 L33.5560001,18.2408803 L33.3225112,18.3038969 L33.0797994,18.3610966 L32.8385438,18.4090861 L32.5900068,18.4493198 L32.5900068,24.3757881 L32.5822401,24.5532041 L32.5574834,24.7291658 L32.5327268,24.8988258 L32.5021451,25.0670317 L32.461855,25.2449324 L32.4215648,25.4131382 L32.3487512,25.6288488 L32.2764231,25.8542544 L32.1958428,26.0796599 L32.1157479,26.2953705 L32.0274007,26.5130201 L31.930316,26.7311545 L31.8327458,26.9468651 L31.7371174,27.1553047 L31.5113953,27.5731531 L31.3982916,27.7738368 L31.2779065,27.9740356 L31.1497546,28.1747192 L31.0216028,28.367647 L30.8915092,28.5605747 L30.7555906,28.7535024 L30.6104489,28.9386743 L30.4667635,29.1238461 L30.313855,29.2998078 L30.1609465,29.4777085 L30.0002713,29.6531855 L29.8376543,29.8213913 L29.6769791,29.9910514 L29.5007703,30.1515013 L29.3308719,30.3119513 L29.1546631,30.4651301 L28.9769981,30.6178241 L28.7930225,30.7710029 L28.6075906,30.9062462 L28.4148774,31.0516691 L28.2216787,31.1791566 L28.0284801,31.3163388 L27.834796,31.4375246 L27.634316,31.565012 L27.4255838,31.6779571 L27.2246184,31.7904175 L27.0144299,31.9014237 L26.8061832,32.0061282 L26.5877425,32.1040463 L26.3717289,32.1995406 L26.1537737,32.2867944 L25.9372747,32.3672617 L25.7193194,32.4477291 L25.4935974,32.5199558 L25.2698171,32.5926672 L25.0445805,32.6576228 L24.8188584,32.7206394 L24.5853696,32.7778391 L24.3596476,32.8258286 L24.1261588,32.8660623 L23.8931554,32.906296 L23.669375,32.9460449 L23.4339445,32.9712515 L23.2023974,32.9935497 L22.9596856,33.0187564 L22.7261967,33.0265123 L22.4927079,33.0337834 L22.2592191,33.0434783 L22.0281574,33.0434783 L21.7927269,33.0337834 L21.5519568,33.0187564 L21.3184679,33.0032446 L21.257,32.996 L21.417181,33.036906 L21.7265543,33.0952163 L22.0354245,33.1441377 L22.3427856,33.1851526 L22.6597045,33.2177669 L22.9690778,33.2414863 L23.2839845,33.2666882 L23.5933578,33.2745947 L23.9102767,33.2745947 L24.2176378,33.2666882 L24.5350598,33.2493928 L24.84393,33.2335798 L25.161352,33.2004714 L25.4687131,33.1594565 L25.7775833,33.1110293 L26.0869565,33.0546956 L26.0869565,33.9130435 L8.69565217,33.9130435 L8.69565217,25.2173913 L8.76306033,25.4140651 L8.84656596,25.6181513 L8.93761727,25.8074128 L9.02866859,26.0035925 L9.13782956,26.192854 L9.24648748,26.3722324 L9.36369719,26.5530933 L9.48845258,26.724071 L9.62125671,26.895543 L9.76210957,27.061085 L9.90497462,27.2152615 L10.062931,27.3709204 L10.2138448,27.5186729 L10.380353,27.6570364 L10.5468612,27.7968824 L10.7214182,27.9199271 L10.905533,28.0424776 L11.0800899,28.1576158 L11.2722535,28.2648475 L11.4629079,28.3621961 L11.6550715,28.4590506 L11.8547807,28.543057 L12.0635448,28.6245926 L12.263757,28.6888328 L12.471515,28.7555438 L12.679776,28.8034769 L12.8975949,28.8523983 L13.1139047,28.8855067 L13.3221657,28.9186151 L13.5399846,28.9443112 L13.7557913,28.9517235 L13.834,28.954 L13.7327514,28.818458 L13.5968328,28.6328014 L13.53,28.539 L13.5152047,28.5547025 L13.4691122,28.5861813 L13.4141737,28.61766 L13.3610975,28.640212 L13.3075557,28.6641734 L13.2526171,28.6792081 L13.1995409,28.6881349 L13.1371531,28.6956522 L13.0840769,28.6956522 L13.0291384,28.6881349 L12.9681473,28.6792081 L12.8289386,28.640212 L12.5500558,28.5622199 L12.4122438,28.5081892 L12.2730352,28.4626155 L12.1408103,28.3991881 L12.0109132,28.3362306 L11.8805506,28.2751525 L11.7483257,28.2051475 L11.6254123,28.1271554 L11.5006367,28.0496331 L11.3851726,27.9641236 L11.2697086,27.8776745 L11.153779,27.7846478 L11.038315,27.6902115 L10.9377495,27.5901373 L10.8292692,27.4886536 L10.7301005,27.3791827 L10.6290695,27.2701816 L10.5378156,27.1625901 L10.4442339,27.0441924 L10.3594982,26.927674 L10.205391,26.6796027 L10.1285701,26.5536877 L10.058733,26.4221347 L9.99634519,26.2910516 L9.93581969,26.1576193 L9.87343187,26.024187 L9.82780495,25.8851167 L9.77985013,25.7446369 L9.73422321,25.6041571 L9.69558001,25.4650868 L9.6643861,25.3166198 L9.63505451,25.1766099 L9.61130989,25.0281429 L9.5964113,24.8801458 L9.58011598,24.7410755 L9.57266668,24.5930784 L9.56521739,24.4450813 L9.56521739,24.2970842 L9.57266668,24.1486173 L9.58011598,24.00109 L9.5964113,23.8601404 L9.61875918,23.7135528 L9.6425038,23.5655557 L9.67369771,23.4250759 L9.7030293,23.2770788 L9.74167251,23.1361291 L9.78916175,22.9975287 L9.83478866,22.8565791 L9.88833045,22.7231467 L9.95071827,22.5845463 L10.0131061,22.451114 L10.0736316,22.3200308 L10.1504524,22.1941158 L10.2202895,22.0696103 L10.3045597,21.9460445 L10.3837084,21.8220088 L10.4754278,21.7050206 L10.5596979,21.5885023 L10.7612944,21.3700304 L10.8604631,21.2680768 L10.9614941,21.1680026 L11.0695089,21.0665188 L11.1854385,20.9720826 L11.3009025,20.8795257 L11.4163666,20.7944861 L11.5392799,20.7164939 L11.6640555,20.6385018 L11.7869689,20.55957 L11.9173315,20.4905047 L12.1813158,20.3645897 L12.3116784,20.3110288 L12.450887,20.257468 L12.588699,20.2090753 L12.7279076,20.1630317 L12.8675818,20.131553 L13.0067905,20.0925569 L13.1515861,20.0704748 L13.2987096,20.0465134 L13.4379183,20.0225519 L13.5850418,20.0150346 L13.7312342,20.0075173 L13.8783577,20 L14.0250157,20 L14.1716736,20.0075173 L14.3094855,20.0150346 L14.4561435,20.0314787 L14.603267,20.0535609 L14.7494593,20.0779921 L14.8891336,20.109001 L15.0269455,20.1484669 L15.1736034,20.187463 L15.3128121,20.2335065 L15.445037,20.2795501 L15.5828489,20.3349903 L15.7146083,20.3965383 L15.8449709,20.4594958 L15.9771959,20.5201041 L16.0996436,20.5995057 L16.2318685,20.6685711 L16.3477982,20.75549 L16.4702459,20.8405296 L16.5861755,20.926039 L16.7016395,21.0200055 L16.8096543,21.1125624 L16.9181346,21.2145159 L17.0191656,21.3145902 L17.1178688,21.4235912 L17.2188998,21.5330621 L17.3106192,21.6495804 L17.3972172,21.7660988 L17.4814873,21.883087 L17.5657575,22.0085322 L17.6425783,22.1325678 L17.7124154,22.2570733 L17.7822525,22.3900358 L17.8520896,22.5215888 L17.9051659,22.6545513 L17.9675537,22.7865741 L18.0131806,22.9270539 L18.086,23.147 L18.0757238,23.0710991 L18.0445491,22.8716042 L17.9984851,22.6658601 L17.9435804,22.466846 L17.890537,22.2678319 L17.8207429,22.0692984 L17.7509489,21.8698036 L17.6667308,21.6770387 L17.5825126,21.4948494 L17.4815439,21.311218 L17.3805752,21.1275866 L17.2744883,20.9530887 L17.156769,20.7867628 L17.0343968,20.6180335 L16.9041146,20.4589183 L16.7719713,20.2998031 L16.6328485,20.1478986 L16.4876769,20.0046469 L16.3322689,19.8623566 L16.1777914,19.735449 L16.0167998,19.6061379 L15.855343,19.4869217 L15.6845802,19.3753968 L15.5073034,19.2730055 L15.3309571,19.1686913 L15.153215,19.0821634 L14.9680282,18.9927513 L14.7753966,18.9230483 L14.5902098,18.8509417 L14.3975783,18.7860458 L14.1961062,18.7389361 L14.0034746,18.6918265 L13.8038637,18.6519275 L13.6037875,18.6197199 L13.4023154,18.6028951 L13.2022392,18.5875123 L12.7937114,18.5875123 L12.5936352,18.5952037 L12.3921631,18.6197199 L12.1920869,18.642794 L11.9906148,18.6822123 L11.7979832,18.7221113 L11.5983723,18.7788351 L11.4057408,18.8336361 L11.2205539,18.905262 L11.0279224,18.9778493 L10.8427356,19.0571665 L10.6575487,19.1537893 L10.4798066,19.2484893 L10.3113703,19.3528034 L10.1331629,19.464809 L9.97031017,19.5840252 L9.8088533,19.7032414 L9.64739644,19.8378403 L9.50082898,19.9738814 L9.35426151,20.1161717 L9.20769404,20.2675955 L9.07741185,20.4190193 L8.94526848,20.5781345 L8.82243098,20.7468639 L8.70703818,20.9213618 L8.59862478,21.0876876 L8.49067668,21.271319 L8.39715268,21.4549504 L8.30548985,21.6371397 L8.22127172,21.8284625 L8.14403299,22.0293995 L8.08168365,22.2183187 L4.26441538,32.4314937 L4.21881661,32.5492678 L4.16391197,32.6704069 L4.10342381,32.7896231 L4.03362978,32.8997058 L3.95639105,33.0112306 L3.87961761,33.1155448 L3.79539948,33.2102447 L3.70187548,33.3068676 L3.60090678,33.3938761 L3.50179925,33.4736741 L3.40129584,33.5457807 L3.28543775,33.6174065 L3.17748965,33.6818217 L3.06163155,33.7289314 L2.93925935,33.7765217 L2.81456068,33.824112 L2.69172318,33.8563196 L2.56842039,33.8808359 L2.43674232,33.8957379 L2.31390482,33.9130435 L2.18362263,33.9130435 L2.05892395,33.90391 L1.92864176,33.8957379 L1.80394309,33.8731445 L1.67412619,33.8486283 L1.55128869,33.8087293 L1.4354306,33.7688303 L1.31119722,33.7121065 L1.19533913,33.6573055 L1.08739102,33.5928903 L0.978977627,33.5231873 L0.872890698,33.4506 L0.771921998,33.3621493 L0.678397994,33.2746599 L0.586735165,33.17996 L0.502517033,33.0833372 L0.425278304,32.9809458 L0.346643694,32.869421 L0.286155533,32.7574155 L0.223806197,32.6381993 L0.170762732,32.5189831 L0.124698671,32.3901526 L0.0846834259,32.2704557 L0.0553699323,32.1363375 L0.0311746678,32.0075071 L0.00744469678,31.8805995 L0,31.7460006 L0,31.483052 L0.0167505678,31.3479723 L0.0386193646,31.2196226 L0.0623493356,31.0850237 L0.0939892969,30.9581161 L0.139588065,30.8369771 L5.32063173,16.5074781 L5.37553637,16.3185588 L5.43648983,16.1267553 L5.50581856,15.9431239 L5.5756126,15.7599732 L5.65983073,15.5758611 L5.75335473,15.4013632 L5.85432343,15.2350374 L5.95296566,15.066308 L6.06882376,14.8995015 L6.18421656,14.7403863 L6.30891523,14.5889625 L6.43919742,14.4375387 L6.5708755,14.2938062 L6.70860239,14.1587266 L6.85516986,14.0322997 L7.00918202,13.9029886 L7.16505536,13.7837724 L7.32651222,13.6722476 L7.48796908,13.5698562 L7.65826652,13.4737141 L7.82716808,13.3862248 L8.00491022,13.2987355 L8.18265235,13.2271097 L8.36783918,13.1554838 L8.55302602,13.1002021 L8.73821285,13.0434783 L23.5043036,13.0434783 L23.5736324,13.2915249 L23.6508711,13.5376486 L23.7350892,13.7765618 L23.8286132,14.0149942 L23.9277208,14.2462159 L24.0286895,14.4774377 L24.1440823,14.7081787 L24.2669197,14.9317091 L24.3916184,15.1557202 L24.5293453,15.3691556 L24.6684681,15.5758611 L24.8150356,15.7840088 L24.9690477,15.9830229 L25.1230599,16.1815563 L25.2938226,16.3733598 L25.4622589,16.5569912 L25.640001,16.7314891 L25.8251878,16.9074292 L26.0103747,17.0742357 L26.2030062,17.2333509 L26.4030824,17.3924661 L26.6045545,17.5361985 L26.8116102,17.6804116 L27.020527,17.8068385 L27.2373538,17.9342268 L27.4606947,18.053443 L29.5652174,24.1541398 L29.5033333,24.4026671 L29.4335393,24.6487909 L29.3563006,24.887704 L29.2720825,25.1261364 L29.1804196,25.3568775 L29.0794509,25.5957906 L28.9715028,25.819321 L28.8630894,26.0505427 L28.7402519,26.2663817 L28.6174144,26.4879892 L28.4782917,26.7038283 L28.3391689,26.9105338 L28.1921361,27.1090672 L28.038124,27.3100042 L27.8841118,27.5090183 L27.7138144,27.6907269 L27.5449128,27.874839 L27.3746154,28.0579897 L27.0042417,28.3916028 L26.8116102,28.550718 L26.6189786,28.7021418 L26.4193677,28.8540463 L24.1678122,22.2106273 L24.1678122,29.9375677 L23.9737848,29.9942916 L23.7811533,30.0409205 L23.5885218,30.0813002 L23.3963555,30.1211991 L23.1962793,30.1534067 L23.0036478,30.1851336 L22.8021757,30.2082077 L22.6095441,30.2250326 L22.4099332,30.232724 L22.2079958,30.2404153 L21.8157533,30.2404153 L21.6142812,30.232724 L21.4216497,30.2158991 L21.2215735,30.192825 L21.0289419,30.1683088 L20.829331,30.1452347 L20.6353036,30.1058164 L20.4426721,30.0659174 L20.2500405,30.016885 L20.057409,29.9692946 L19.8647775,29.9144936 L19.6795907,29.8577698 L19.4874244,29.7856632 L19.3022376,29.7135566 L19.1170508,29.6433729 L18.9393086,29.5640557 L18.7541218,29.4751242 L18.5759144,29.3876349 L18.4074781,29.2934157 L18.229736,29.1967929 L18.0608344,29.0924787 L17.890537,28.982396 L17.7290801,28.8708711 L17.5657621,28.7516549 L17.4047705,28.631958 L17.2507583,28.5031276 L17.0967462,28.3767008 L16.942734,28.2416211 L16.7961665,28.10558 L16.6565785,27.9613669 L16.510011,27.8190766 L16.6565785,27.6758249 L16.7961665,27.5239204 L16.9259834,27.3648052 L17.0581268,27.20569 L17.108,27.135 L17.0871404,27.1386287 L17.0335986,27.146146 L16.9712108,27.1536633 L16.9181346,27.1536633 L16.8631961,27.146146 L16.8026706,27.1311113 L16.747732,27.1146672 L16.6941903,27.0925851 L16.6485633,27.0681538 L16.5931592,27.0371449 L16.5475323,27.0051963 L16.5088891,26.9662003 L16.4320683,26.8741132 L16.4008744,26.8275998 L16.3789921,26.7796769 L16.3547819,26.7261161 L16.3310372,26.6720854 L16.323588,26.6166452 L16.3166042,26.5536877 L16.3091549,26.5001269 L16.3091549,26.4366995 L16.3166042,26.3831387 L16.3310372,26.3295778 L16.3477982,26.2741376 L16.3696804,26.2201069 L16.3934251,26.1646667 L16.424619,26.1186232 L16.4944561,26.0091523 L16.5549816,25.9071988 L16.6099201,25.8000771 L16.6629963,25.6816794 L16.7184005,25.5740878 L16.7640274,25.4575695 L16.8026706,25.3391718 L16.8338645,25.2226534 L16.8631961,25.0986178 L16.89439,24.9820994 L16.9181346,24.8580637 L16.9325676,24.7316789 L16.9418792,24.6151605 L16.9493285,24.4915947 L16.9493285,24.2411742 L16.9418792,24.1176084 L16.9255839,23.9931029 L16.9106853,23.8765845 L16.8869407,23.7525488 L16.8557468,23.6271037 L16.8264152,23.5101155 L16.7859097,23.3935971 L16.7402827,23.2770788 L16.6941903,23.1605604 L16.6485633,23.0510895 L16.5861755,22.9420885 L16.5330993,22.8326176 L16.4632622,22.7231467 L16.3934251,22.6235423 L16.323588,22.5215888 L16.2467671,22.4290319 L16.162497,22.3345956 L16.0833483,22.2420387 L15.9916289,22.1551198 L15.8999094,22.079007 L15.8063277,21.992088 L15.7146083,21.9216132 L15.6135773,21.8530177 L15.5055625,21.7830128 L15.3975478,21.7200553 L15.2909298,21.6566279 L15.1824495,21.6030671 L15.0744347,21.5570235 L14.9589707,21.51098 L14.8435067,21.4719839 L14.7257147,21.4405052 L14.603267,21.4090264 L14.4873374,21.3775477 L14.364424,21.3611035 L14.2396484,21.3460689 L14.1167351,21.3310343 L13.9938217,21.3310343 L13.8783577,21.323517 L13.7554444,21.3310343 L13.6306687,21.3385516 L13.5077554,21.3535862 L13.3848421,21.3700304 L13.2693781,21.4015091 L13.1446024,21.4235912 L13.0291384,21.4625873 L12.7977447,21.5401096 L12.6822807,21.5885023 L12.5738004,21.6420631 L12.4657856,21.695624 L12.3573053,21.7585815 L12.2492906,21.8295261 L12.205,21.86 L12.2691989,21.8468837 L12.3725941,21.829433 L12.4856978,21.8144059 L12.5983162,21.80665 L12.7036531,21.7974399 L12.8162714,21.7974399 L12.9293751,21.80665 L13.0327704,21.8144059 L13.1453887,21.829433 L13.2507256,21.8546396 L13.3560626,21.8774225 L13.4589724,21.9099003 L13.5643094,21.950134 L13.6696463,21.9898829 L13.7652748,22.0398114 L13.8706117,22.0873163 L13.9584734,22.1430617 L14.0541019,22.2075325 L14.1439053,22.2724881 L14.2240002,22.3359894 L14.3123473,22.4087009 L14.3924422,22.4886835 L14.4652558,22.5691508 L14.5380694,22.6491334 L14.600689,22.7368719 L14.6657358,22.8270341 L14.7215595,22.9220438 L14.7788395,23.0194771 L14.826411,23.1154562 L14.874468,23.2201607 L14.9147582,23.3161398 L14.9472816,23.4203596 L14.9798049,23.5333047 L15.0026199,23.636555 L15.0196097,23.7417442 L15.0351432,23.8542046 L15.0448517,23.966665 L15.0526185,24.0718542 L15.0526185,24.1828604 L15.0448517,24.2953208 L15.0273765,24.40051 L15.0123283,24.5129704 L14.9967948,24.6162206 L14.9642714,24.7214099 L14.931748,24.8265991 L14.8992246,24.9317884 L14.8516531,25.0350386 L14.8113629,25.132472 L14.7540829,25.2274816 L14.6987446,25.324915 L14.6409792,25.4204093 L14.5778741,25.5081478 L14.505546,25.5886152 L14.4327324,25.6787774 L14.3521521,25.7490651 L14.2720572,25.8309867 L14.1914768,25.9022439 L14.2793385,26.0946869 L14.3676856,26.2803435 L14.4652558,26.4727865 L14.5608843,26.658443 L14.6657358,26.8416759 L14.7788395,27.0190919 L14.8919433,27.1950536 L15.0026199,27.3724695 L15.1327134,27.5406754 L15.2530985,27.7088812 L15.3812504,27.879026 L15.5191107,28.0394759 L15.6545439,28.1999259 L15.800171,28.3603758 L15.9457982,28.5125851 L16.0909399,28.6580081 L16.2419066,28.8111868 L16.4045236,28.9464302 L16.5554904,29.0840972 L16.7258741,29.2193405 L16.8865493,29.3477974 L17.0549914,29.4777085 L17.2326565,29.5979248 L17.4010985,29.7181411 L17.579249,29.8306014 L17.7627392,29.9416076 L17.9404042,30.0463121 L18.1263215,30.1442302 L18.3195202,30.2397246 L18.5030103,30.3371579 L18.696209,30.4248964 L18.8889222,30.5053637 L19.090373,30.5853463 L19.2830863,30.6575731 L19.4840517,30.7210744 L19.6869588,30.78603 L19.8879242,30.8412907 L20.096171,30.8984903 L20.2971364,30.9464799 L20.5073249,30.9939847 L20.7160571,31.0264625 L20.9243039,31.0666962 L21.1344924,31.0914181 L21.3432246,31.1146857 L21.5519568,31.1316517 L21.7621452,31.1466788 L21.9708774,31.1563736 L22.1791242,31.1641295 L22.3970795,31.1563736 L22.6058117,31.1466788 L22.8160001,31.1389229 L23.0247323,31.1238959 L23.2329791,31.099174 L23.4431676,31.0739673 L23.6518998,31.0439133 L23.860632,31.0036796 L24.0708205,30.9634459 L24.2717859,30.9135174 L24.4800327,30.8660126 L24.6809981,30.801057 L24.8839052,30.7457963 L25.0843852,30.6730848 L25.2775838,30.6100682 L25.4785493,30.5281467 L25.6717479,30.4481641 L25.8649466,30.3599408 L26.0581452,30.2717176 L26.2416354,30.174769 L26.4270672,30.0792746 L26.6129845,29.9740854 L26.7984164,29.8708351 L26.9741398,29.7583747 L26.9993818,29.740924 L27.1522903,29.6381585 L27.3207323,29.5179422 L27.4886889,29.3875463 L27.6590726,29.2595742 L27.8197479,29.1320867 L27.9804231,28.993935 L28.1410984,28.8509358 L28.2940069,28.7059976 L28.5925425,28.4078806 L28.7284611,28.2551866 L28.8736028,28.0947366 L29.0017547,27.9342867 L29.139615,27.7660809 L29.2677669,27.5983598 L29.3881519,27.428215 L29.508537,27.2522533 L29.6216408,27.0748373 L29.7342591,26.8988756 L29.8376543,26.713219 L29.9352245,26.5285319 L30.0327947,26.3433601 L30.1284231,26.1518866 L30.2012367,25.9822265 L30.2735648,25.8062648 L30.3366699,25.6288488 L30.3847269,25.4451312 L30.4342401,25.2599594 L30.4745302,25.0752723 L30.4978306,24.8915547 L30.5221018,24.7063829 L30.5298686,24.5129704 L30.5356936,24.3563984 L30.5376353,24.3277985 L30.5376353,18.4735569 L30.2963797,18.4410792 L30.0556096,18.4013302 L29.8148394,18.3514017 L29.5813506,18.296141 L29.3478618,18.2311854 L29.114373,18.160413 L28.8813696,18.0804303 L28.6556475,17.9902681 L28.4299255,17.8952585 L28.2134265,17.7900693 L27.9954713,17.68488 L27.7794577,17.564179 L27.5692693,17.4439627 L27.360537,17.3164753 L27.1600571,17.1802625 L26.9668584,17.0358091 L26.5804611,16.7299363 L26.4042523,16.5694863 L26.2265872,16.4012805 L26.0484367,16.2238645 L25.8877615,16.0479028 L25.7270862,15.862731 L25.5741777,15.6775591 L25.4212693,15.4846314 L25.2853506,15.2839478 L25.1479757,15.0832642 L25.0193384,14.8753094 L24.8989533,14.6654157 L24.7858496,14.449705 L24.6732313,14.2315707 L24.5776028,14.0081041 L24.4800327,13.7831834 L24.3999378,13.5572931 L24.3193574,13.3241317 L24.2470293,13.0914551 L24.1834388,12.8582937 L24.1261588,12.6173764 L24.086354,12.3846997 L24.0460639,12.1442672 L24.0135405,11.9033499 L23.9902401,11.6629173 L23.169874,1.85462684 L23.1621073,1.73441057 L23.1621073,1.61370955 L23.169874,1.50124917 L23.1926889,1.3810329 L23.2174456,1.26808777 L23.2499689,1.15562739 L23.2980259,1.04462123 L23.3460828,0.939431996 L23.4033628,0.834727501 L23.4664679,0.738748381 L23.5315147,0.641799774 L23.6116096,0.554061286 L23.69219,0.466322797 L23.7800517,0.385855453 L23.8776218,0.313143999 L23.9732503,0.248673175 L24.0785872,0.192442984 L24.1834388,0.14542291 L24.2965425,0.0954943773 L24.4077045,0.0649555663 L24.5203228,0.0324777831 L24.6329411,0.015027034 L24.7538116,0 L38.3990726,0 Z M11.256,25.872 L11.3158011,25.9781434 L11.3851726,26.080097 L11.4550098,26.1815807 L11.5248469,26.2811851 L11.6016677,26.3756214 L11.6859378,26.4686481 L11.7720703,26.561205 L11.856806,26.6476541 L11.9485254,26.7261161 L12.0490908,26.8036384 L12.1408103,26.8816305 L12.2418413,26.9516355 L12.3503216,27.014593 L12.4583363,27.0756712 L12.5668167,27.1386287 L12.6748314,27.1846722 L12.722,27.206 L12.6308395,27.0190919 L12.5352111,26.8111371 L12.4376409,26.5930027 L12.3497792,26.3753531 L12.2444423,26.3525702 L12.131824,26.3273636 L12.0284287,26.2953705 L11.9230917,26.2648317 L11.8255216,26.2250828 L11.7221263,26.1751542 L11.6250416,26.1271647 L11.5289277,26.071904 L11.4391243,26.0069484 L11.3512626,25.9419928 L11.2634009,25.8789762 Z M26.9018116,12.7855822 L26.8459879,12.7855822 L26.7984164,12.7952771 L26.7484177,12.803033 L26.7008462,12.8258159 L26.6527893,12.8505378 L26.6129845,12.8907714 L26.5804611,12.9310051 L26.5552191,12.9712388 L26.5324042,13.0187436 L26.5246374,13.076428 L26.5149289,13.1239328 L26.5246374,13.1787088 L26.5324042,13.2286373 L26.5479377,13.2766269 L26.6450225,13.4617987 L26.7411364,13.6450316 L26.8537547,13.8229323 L26.9668584,13.9984093 L27.0872435,14.1685541 L27.2076286,14.329004 L27.3454889,14.489454 L27.4814076,14.6499039 L27.6265493,14.7948421 L27.7794577,14.938326 L27.9323662,15.075993 L28.0930415,15.2117211 L28.2614835,15.3319374 L28.4299255,15.4521536 L28.5998238,15.564614 L28.7857411,15.6775591 L28.9614645,15.7749925 L29.1546631,15.862731 L29.340095,15.9504695 L29.5332936,16.0309368 L29.7264923,16.0958924 L29.9274577,16.1608479 L30.1284231,16.2161086 L30.3289031,16.2640982 L30.5376353,16.3043319 L30.7405424,16.3363249 L30.9487892,16.3615316 L31.1575214,16.3765586 L31.3580014,16.3843145 L31.5686753,16.3843145 L31.7769221,16.3765586 L31.9856543,16.3615316 L32.1958428,16.3440808 L32.3968082,16.311603 L32.605055,16.2713694 L32.8060204,16.2238645 L33.0089275,16.1681191 L33.2021262,16.1109194 L33.4026062,16.0386927 L33.5962902,15.9582254 L33.7894889,15.8782428 L33.972979,15.7900195 L34.1584109,15.6848303 L34.3365614,15.5820648 L34.5122848,15.4691196 L34.6807268,15.3566593 L34.8506251,15.2286871 L35.0113004,15.0982912 L35.1646943,14.9630479 L35.3176027,14.817625 L35.4612882,14.6654157 L35.5986631,14.5141759 L35.7345817,14.3517869 L35.8646753,14.191337 L35.9850604,14.0236159 L36.0981641,13.8457152 L36.2015594,13.6697535 L36.3064109,13.4845817 L36.3942726,13.3013488 L36.4190292,13.251905 L36.426796,13.2039154 L36.4345627,13.1486547 L36.426796,13.0987262 L36.4190292,13.0434655 L36.3942726,12.9959607 L36.3714577,12.955727 L36.3389343,12.9159781 L36.2986441,12.8830156 L36.2510726,12.8505378 L36.2015594,12.8258159 L36.1535024,12.81806 L36.1054455,12.8107888 L36.0481655,12.8107888 L36.0001085,12.8258159 L35.952537,12.8427819 L35.9049655,12.8660496 L35.6865248,13.0032318 L35.4705112,13.1316887 L35.2447892,13.251905 L35.0190672,13.3643654 L34.7933451,13.4695546 L34.5603417,13.565049 L34.3190861,13.6624824 L34.0855973,13.7429497 L33.8448272,13.8229323 L33.6035716,13.8956438 L33.3530929,13.9509045 L33.104556,14.0081041 L32.856019,14.055609 L32.605055,14.0958426 L32.356518,14.1283204 L32.1060394,14.1511033 L31.8497357,14.1588592 L31.6011987,14.1685541 L31.3429533,14.1685541 L31.0944163,14.1588592 L30.8361709,14.1438322 L30.587634,14.1191103 L30.3366699,14.0880867 L30.088133,14.0478531 L29.8376543,13.9984093 L29.5886319,13.9431486 L29.3478618,13.878193 L29.1070916,13.8151764 L28.865836,13.7351938 L28.6231242,13.6450316 L28.3896353,13.5495372 L28.1561465,13.4521039 L27.9231431,13.3410977 L27.6993628,13.2286373 L27.4814076,13.1084211 L27.2649086,12.9785099 L27.0469533,12.8427819 L26.9993818,12.81806 L26.9493832,12.803033 L26.9018116,12.7855822 Z M17.395562,2.60869565 L17.5949984,2.61720543 L17.7895049,2.62437156 L17.9889414,2.64586996 L18.1901705,2.66826412 L18.3828843,2.70543842 L18.5841134,2.74977886 L18.7768273,2.79591083 L18.9708856,2.85368776 L19.1559806,2.91370411 L19.3415237,2.98805272 L19.5270668,3.06911957 L19.7054391,3.15063431 L19.8838115,3.24065884 L20.0621838,3.34456774 L20.2333854,3.44892452 L20.3960718,3.55999955 L20.5601026,3.67779283 L20.7156182,3.80364801 L20.8639631,3.93039895 L21.0123079,4.07148216 L21.153482,4.21301325 L21.2879335,4.35409645 L21.4201442,4.50951192 L21.5402542,4.6644795 L21.6585716,4.82885264 L21.7697182,4.99098635 L21.8808647,5.16207773 L21.978118,5.33361699 L22.0664078,5.51142662 L22.1564904,5.69013201 L22.3048352,6.06053141 L22.3648902,6.2526733 L22.4231526,6.44526308 L22.476485,6.63964438 L22.5132351,6.83133839 L22.5504333,7.03288582 L22.5804608,7.22502771 L22.5943542,7.42612727 L22.6086957,7.62588317 L22.6086957,8.02629074 L22.5943542,8.22783818 L22.5804608,8.4271462 L22.5504333,8.62107962 L22.5132351,8.82083553 L22.476485,9.01297742 L22.4231526,9.20691084 L22.3648902,9.39950061 L22.3048352,9.5916425 L22.2308869,9.77885767 L22.1564904,9.96383343 L22.0664078,10.1425388 L21.978118,10.3203485 L21.8808647,10.4900962 L21.7697182,10.6611876 L21.6585716,10.8233213 L21.5402542,10.9881423 L21.4201442,11.1431099 L21.2879335,11.3003169 L21.153482,11.4414001 L21.0123079,11.5892015 L20.8639631,11.721775 L20.7156182,11.8489738 L20.5601026,11.9743811 L20.3960718,12.0939659 L20.2333854,12.2054888 L20.0621838,12.3080541 L19.8838115,12.411963 L19.7054391,12.5019875 L19.5270668,12.5830543 L19.3415237,12.6645691 L19.1559806,12.7384698 L18.9708856,12.7984862 L18.7768273,12.8580546 L18.5841134,12.9100091 L18.3828843,12.9467355 L18.1901705,12.9839098 L17.9889414,13.006304 L17.7895049,13.0278023 L17.5949984,13.03676 L17.395562,13.0434783 L17.1943329,13.03676 L16.9948964,13.0278023 L16.7932192,13.006304 L16.5937827,12.9839098 L16.3997244,12.9467355 L16.2070105,12.9100091 L16.0147449,12.8580546 L15.8206865,12.7984862 L15.6279726,12.7384698 L15.4424295,12.6645691 L15.2573346,12.5830543 L15.0789623,12.5019875 L14.9001417,12.411963 L14.7289401,12.3080541 L14.5577385,12.2054888 L14.3955004,12.0939659 L14.2310213,11.9743811 L14.0755057,11.8489738 L13.9186456,11.721775 L13.778816,11.5892015 L13.6376419,11.4414001 L13.4964678,11.3003169 L13.3691871,11.1431099 L13.243699,10.9881423 L13.123589,10.8233213 L13.0124424,10.6611876 L12.9084665,10.4900962 L12.8130059,10.3203485 L12.7157527,10.1425388 L12.6346336,9.96383343 L12.5535145,9.77885767 L12.4862887,9.5916425 L12.4195112,9.39950061 L12.359008,9.20691084 L12.3150871,9.01297742 L12.2711663,8.82083553 L12.2339681,8.62107962 L12.2106631,8.4271462 L12.1878064,8.22783818 L12.1806356,8.02629074 L12.173913,7.82698272 L12.1806356,7.62588317 L12.1878064,7.42612727 L12.2106631,7.22502771 L12.2339681,7.03288582 L12.2711663,6.83133839 L12.3150871,6.63964438 L12.359008,6.44526308 L12.4195112,6.2526733 L12.4862887,6.06053141 L12.5535145,5.87555566 L12.6346336,5.69013201 L12.7157527,5.51142662 L12.8130059,5.33361699 L12.9084665,5.16207773 L13.0124424,4.99098635 L13.123589,4.82885264 L13.243699,4.6644795 L13.3691871,4.50951192 L13.4964678,4.35409645 L13.6376419,4.21301325 L13.778816,4.07148216 L13.9186456,3.93039895 L14.0755057,3.80364801 L14.2310213,3.67779283 L14.3955004,3.55999955 L14.5577385,3.44892452 L14.7289401,3.34456774 L14.9001417,3.24065884 L15.0789623,3.15063431 L15.2573346,3.06911957 L15.4424295,2.98805272 L15.6279726,2.91370411 L15.8206865,2.85368776 L16.0147449,2.79591083 L16.2070105,2.74977886 L16.3997244,2.70543842 L16.5937827,2.66826412 L16.7932192,2.64586996 L16.9948964,2.62437156 L17.1943329,2.61720543 L17.395562,2.60869565 Z M37.3355092,2.04755457 L25.7998998,2.04755457 L25.7445615,2.05482571 L25.6795147,2.06500532 L25.623691,2.08003235 L25.566411,2.10475424 L25.5188394,2.13529306 L25.4707825,2.17552673 L25.4212693,2.21527566 L25.3906876,2.26520419 L25.3581642,2.31270901 L25.3256408,2.36845445 L25.3101072,2.42565413 L25.2931174,2.48867073 L25.2931174,2.61131071 L25.8246564,9.01137296 L25.8401899,9.12383335 L25.8649466,9.23726322 L25.8877615,9.34002874 L25.9202849,9.45248912 L25.9678564,9.55767836 L26.017855,9.6628676 L26.0731933,9.75836198 L26.1304733,9.85579533 L26.266392,10.0390282 L26.4120191,10.2164441 L26.5552191,10.3924059 L26.7081276,10.5625507 L26.8688028,10.7230006 L27.0314198,10.8834506 L27.2076286,11.0361446 L27.3760706,11.1796285 L27.5615025,11.3245667 L27.7469343,11.4525389 L27.9323662,11.58245 L28.1333316,11.703151 L28.3265303,11.8156114 L28.5274957,11.9266176 L28.7357425,12.0235662 L28.9464164,12.1190605 L29.1546631,12.1995279 L29.3711621,12.2795105 L29.5886319,12.3517372 L29.8070726,12.4094216 L30.0327947,12.4646823 L30.256575,12.5126719 L30.482297,12.5529056 L30.7080191,12.5853833 L30.9317994,12.6101052 L31.1652882,12.6251323 L31.3905248,12.6328882 L31.6162468,12.6328882 L31.8497357,12.6251323 L32.0754577,12.6023493 L32.3011797,12.5771427 L32.5327268,12.5451497 L32.7584489,12.504916 L32.9764041,12.4646823 L33.2021262,12.4094216 L33.4181397,12.3444661 L33.636095,12.2717546 L33.8525939,12.1912873 L34.0627824,12.1040335 L34.2710292,12.0158103 L34.4797614,11.910621 L34.6807268,11.8054318 L34.8739255,11.6949104 L35.0763472,11.5649993 L35.2603227,11.444783 L35.4457546,11.3090549 L35.6234197,11.1641168 L35.7996285,11.0186939 L35.9680705,10.8659998 L36.1379688,10.7055499 L36.2913627,10.5450999 L36.4442712,10.3696229 L36.595238,10.1994781 L36.7330983,10.0162453 L36.869017,9.83058869 L36.9335783,9.72539945 L36.9908583,9.62311867 L37.0466821,9.5096888 L37.0869722,9.38947253 L37.1194956,9.27701215 L37.152019,9.15679587 L37.1670671,9.0365796 L37.8422915,2.61858186 L37.8422915,2.49836559 L37.8272434,2.43341002 L37.8117098,2.37766457 L37.7869532,2.32046489 L37.7544298,2.27247533 L37.7141397,2.22545526 L37.6738495,2.17552673 L37.626278,2.14498792 L37.5685126,2.11251013 L37.5131743,2.08003235 L37.457836,2.06500532 L37.3927892,2.05482571 L37.3355092,2.04755457 Z"></path></clipPath></defs><g transform="translate(-498.0 -434.0)"><g clip-path="url(#i0)"><g transform="translate(498.0 434.0)"><g clip-path="url(#i1)"><polygon points="0,0 78,0 78,122 0,122 0,0" stroke="none" fill="#E02974"></polygon></g><g transform="translate(19.0 14.0)"><g clip-path="url(#i2)"><g transform="translate(0.0 3.0000000000000604)"><g clip-path="url(#i3)"><polygon points="0,0 40,0 40,33.9130435 0,33.9130435 0,0" stroke="none" fill="#FFFFFF"></polygon></g></g></g></g><g transform="translate(13.0 63.0)"><text transform="translate(2.0239999999999974 17.0)"><tspan x="2.024px" y="0px" font-family="PingFangSC-Medium, PingFang SC" font-size="16.0" font-weight="400" fill="#FFFFFF" text-anchor="center" letter-spacing="-0.01600000000000001">防管道</tspan><tspan x="10.016px" y="22px" font-family="PingFangSC-Medium, PingFang SC" font-size="16.0" font-weight="400" fill="#FFFFFF" text-anchor="center" letter-spacing="-0.01600000000000001">滑脱</tspan></text></g></g></g></g></svg>