<?xml version="1.0" encoding="UTF-8"?><svg version="1.1" width="78px" height="122px" viewBox="0 0 78.0 122.0" xmlns="http://www.w3.org/2000/svg" xmlns:xlink="http://www.w3.org/1999/xlink"><defs><clipPath id="i0"><path d="M1024,0 L1024,600 L0,600 L0,0 L1024,0 Z"></path></clipPath><clipPath id="i1"><path d="M39,0 C60.5391052,-3.95666944e-15 78,17.4608948 78,39 L78,83 C78,104.539105 60.5391052,122 39,122 C17.4608948,122 2.63777963e-15,104.539105 0,83 L0,39 C-2.63777963e-15,17.4608948 17.4608948,3.95666944e-15 39,0 Z"></path></clipPath><clipPath id="i2"><path d="M40,0 L40,40 L0,40 L0,0 L40,0 Z"></path></clipPath><clipPath id="i3"><path d="M1.57710229,0 L1.60994009,0.00488003253 L1.67117817,0.00488003253 L1.70401598,0.00976006507 L1.73286,0.0141520943 L1.76525405,0.0195201301 L1.79853561,0.0268401789 L1.82649212,0.0312322082 L1.85977369,0.0361122407 L1.88817395,0.0458723058 L1.92101176,0.0507523383 L1.94719325,0.0629524197 L1.98224983,0.0722244815 L2.00843133,0.0819845466 L2.04348791,0.0936966246 L2.0696694,0.10345669 L2.09851342,0.113216755 L2.12691369,0.130296869 L2.1597515,0.144448963 L2.18815176,0.154209028 L2.21655203,0.171289142 L2.2449523,0.185441236 L2.27335256,0.20252135 L2.30219658,0.216673444 L2.46194808,0.36600244 L2.62613712,0.50849939 L2.79032616,0.64806832 L2.96117151,0.780805205 L3.12979809,0.910614071 L3.30508099,1.04091094 L3.47814511,1.16339976 L3.65786554,1.28393656 L3.83492345,1.40203335 L4.01908143,1.51720211 L4.20323941,1.62602684 L4.38739738,1.72948353 L4.57554915,1.82806019 L4.76370091,1.92419683 L4.95673397,2.01886946 L5.14932327,2.10719805 L5.34191258,2.19406263 L5.53494564,2.27116714 L5.73419126,2.35071167 L5.93121811,2.42342416 L6.13268249,2.49076861 L6.33192811,2.55079301 L6.73530064,2.66644978 L6.9389838,2.71671411 L7.14444198,2.76258642 L7.34812514,2.80601871 L7.55624584,2.84213095 L7.76214777,2.87385116 L7.97026847,2.90459536 L8.1761704,2.92899553 L8.3842911,2.94558764 L8.59019303,2.96022773 L8.80275128,2.97242782 L9.01042822,2.98169988 L9.21633015,2.98169988 L9.46216996,2.97242782 L9.70712225,2.95583571 L9.9525183,2.93387556 L10.1956956,2.9099634 L10.4410916,2.88312322 L10.6860439,2.84701098 L10.93144,2.81089874 L11.1701797,2.76258642 L11.4111382,2.71671411 L11.6565343,2.66644978 L11.895274,2.60398536 L12.131795,2.54103294 L12.3705347,2.47368849 L12.6070557,2.40634404 L12.8413579,2.32875153 L13.0778789,2.24725498 L13.3121811,2.16331842 L13.5442645,2.07157381 L13.7745729,1.97787719 L14,1.87881253 L14,5.2943473 L13.8313734,5.34705165 L13.6605281,5.39292395 L13.4919015,5.43391623 L13.3232749,5.48174054 L13.147992,5.52273282 L12.9793654,5.56372509 L12.8085201,5.60032534 L12.635456,5.63643758 L12.4601731,5.67254982 L12.2915465,5.70329402 L12.1162636,5.73501423 L11.9431995,5.76624644 L11.7727979,5.79259862 L11.59929,5.81699878 L11.4240071,5.84335096 L11.2513867,5.8653111 L11.0761038,5.88434323 L10.9030397,5.90630338 L10.7277568,5.92045547 L10.5546927,5.93753558 L10.3794098,5.95168768 L10.2063457,5.96388776 L10.0266252,5.97315982 L9.85178611,5.98340789 L9.67872199,5.98779992 L9.50343909,5.99267995 L9.33037497,6 L8.97803417,6 L8.80275128,5.99267995 L8.62968715,5.99267995 L8.45440426,5.98779992 L8.27912137,5.97803985 L8.1016197,5.96827979 L7.92678056,5.95656771 L7.75327269,5.94729565 L7.57798979,5.93216755 L7.40536943,5.91557544 L7.23008653,5.89654331 L7.05702241,5.8794632 L6.87330819,5.85311102 L6.69358775,5.82871086 L6.51386732,5.79747865 L6.33636565,5.76624644 L6.15265143,5.7301342 L5.972931,5.69402196 L5.79542933,5.65302969 L5.62014644,5.6095974 L5.44086976,5.56372509 L5.26336809,5.51346076 L5.0880852,5.4602684 L4.91502108,5.41000407 L4.73530064,5.35193168 L4.56667406,5.2943473 L4.39139117,5.2343229 L4.21832705,5.16649044 L4.0474817,5.09914599 L3.87441757,5.03180155 L3.70357222,4.95957706 L3.53538939,4.88247255 L3.36631906,4.80292802 L3.19991125,4.72582351 L3.03572221,4.64432696 L2.87153317,4.55453436 L2.70734413,4.46815779 L2.54049257,4.3793412 L2.38118482,4.28466856 L2.22098957,4.19341196 L2.06123807,4.0948353 L1.90104282,3.99577064 L1.74572887,3.89280195 L1.58997116,3.78885726 L1.4346572,3.68052054 L1.28333703,3.57169581 L1.13467939,3.45652704 L0.832482805,3.23009353 L0.685600178,3.11199675 L0.661637453,3.0905246 L0.639893499,3.07344449 L0.569336588,3.01098007 L0.541380075,2.98657991 L0.516973597,2.96510777 L0.493010872,2.9407076 L0.470823164,2.91484343 L0.446860439,2.89288329 L0.427335256,2.86653111 L0.402928777,2.84213095 L0.381184824,2.81577877 L0.361659641,2.7894266 L0.343909474,2.76258642 L0.324384291,2.73428223 L0.304415354,2.70744205 L0.287108942,2.68060187 L0.267140004,2.64985767 L0.249833592,2.62301749 L0.234745951,2.59373729 L0.216995784,2.56299309 L0.201464389,2.53127288 L0.188595518,2.5049207 L0.168626581,2.47368849 L0.15575771,2.44245628 L0.144663856,2.41073607 L0.131351231,2.37511183 L0.11626359,2.34387963 L0.107388507,2.31215941 L0.0945196361,2.28336722 L0.0834257821,2.24725498 L0.0745506989,2.21602277 L0.0656756157,2.18479057 L0.0550255159,2.14819032 L0.0461504327,2.11744612 L0.0417128911,2.08133388 L0.0328378079,2.04961366 L0.0261814955,2.01350142 L0.022187708,1.98226922 L0.0177501664,1.94615697 L0.0133126248,1.91004473 L0.0088750832,1.87881253 L0.0088750832,1.84270028 L0.0044375416,1.80658804 L0.0044375416,1.77535584 L0,1.73875559 L0,1.66701911 L0.0044375416,1.63578691 L0.0044375416,1.56307442 L0.0088750832,1.53233022 L0.0133126248,1.49572997 L0.0177501664,1.45961773 L0.022187708,1.42838552 L0.0261814955,1.39227328 L0.0328378079,1.36104107 L0.0372753495,1.32492883 L0.0461504327,1.28881659 L0.0550255159,1.25709638 L0.0612380741,1.22147214 L0.0701131573,1.18975193 L0.0789882405,1.15851972 L0.0945196361,1.12240748 L0.102950965,1.09117527 L0.111826048,1.05994307 L0.12691369,1.03066287 L0.140226315,0.99455063 L0.15575771,0.963806425 L0.164189039,0.932086214 L0.181939206,0.900854006 L0.197470601,0.87450183 L0.210339472,0.843269622 L0.229864655,0.81154941 L0.24317728,0.780805205 L0.263146217,0.756405043 L0.2826714,0.724684831 L0.295984025,0.698820659 L0.315509208,0.667100447 L0.337696916,0.640748272 L0.357222099,0.616836112 L0.376747282,0.589995933 L0.39893499,0.563643758 L0.418460173,0.537291582 L0.442422898,0.513379423 L0.460173064,0.486539244 L0.484135789,0.4650671 L0.508098513,0.440666938 L0.532061238,0.419194795 L0.554248946,0.392842619 L0.582649212,0.373810492 L0.606611937,0.351850346 L0.631018416,0.330378203 L0.659418682,0.310858072 L0.681162636,0.289385929 L0.709562902,0.269865799 L0.733969381,0.253273688 L0.762369647,0.233753558 L0.790769913,0.216673444 L0.81917018,0.20252135 L0.847570446,0.185441236 L0.874195696,0.171289142 L0.902152208,0.154209028 L0.930996228,0.13956893 L0.959396494,0.130296869 L0.987796761,0.113216755 L1.02063457,0.10345669 L1.04947859,0.0936966246 L1.0774351,0.077104514 L1.11071666,0.0722244815 L1.13911693,0.0629524197 L1.17195474,0.0507523383 L1.200355,0.0409922733 L1.23319281,0.0361122407 L1.26159308,0.0312322082 L1.29443089,0.0268401789 L1.32726869,0.0195201301 L1.35566896,0.0141520943 L1.42134458,0.00488003253 L1.4830264,0.00488003253 L1.51586421,0 L1.57710229,0 Z"></path></clipPath><clipPath id="i4"><path d="M37,0 L37,4 L0,4 L0,0 L37,0 Z"></path></clipPath><clipPath id="i5"><path d="M4.6635388,0 L4.83617606,0.0111289724 L5.01581212,0.0361691604 L5.18844938,0.0606528997 L5.36108663,0.0962656115 L5.5295246,0.143007296 L5.70216185,0.195313466 L5.87013324,0.255409917 L6.03857121,0.318288611 L6.20187672,0.39563497 L6.36098294,0.477989366 L6.51962258,0.573698529 L6.67872881,0.667181897 L6.83036964,0.774576481 L6.98014412,0.884196859 L7.1229198,1.00550266 L7.2610296,1.13404229 L7.40147234,1.26369482 L7.53538286,1.39779894 L7.65716211,1.54637072 L7.78174089,1.69438605 L7.90118721,1.85353036 L8.0141013,2.01323111 L8.11815024,2.1779399 L8.22126601,2.34821318 L8.3159832,2.52683319 L8.40556794,2.71046123 L8.49095339,2.89186348 L8.56934004,3.08161246 L8.64306081,3.270805 L8.70744984,3.46611846 L8.767173,3.66643997 L8.81569807,3.86676147 L8.86655607,4.06763942 L8.90574939,4.27352541 L8.93561097,4.4794114 L8.96080668,4.68529739 L8.97900358,4.89396562 L8.99533413,5.10597255 L9,5.31185854 L8.99533413,5.52609126 L8.99066826,5.73197725 L8.97013842,5.94342772 L8.949142,6.14931371 L8.91928042,6.35798195 L8.88475297,6.56386794 L8.84089377,6.76418944 L8.79236871,6.97063188 L8.73731142,7.1653889 L8.67292239,7.36626685 L8.60853336,7.55545938 L8.53014672,7.74520836 L8.44942713,7.93161865 L8.36637462,8.11580314 L8.05329462,8.23377025 L7.74721344,8.34617287 L7.42946757,8.44522072 L7.11825393,8.54148634 L6.802841,8.62940522 L6.48509513,8.70619513 L6.16734927,8.77241251 L5.84727047,8.83529121 L5.52485873,8.88203289 L5.20244699,8.92321009 L4.88236819,8.9588228 L4.55529058,8.98386299 L4.241744,9 L3.97019026,8.99443551 L3.69397066,8.98386299 L3.42008399,8.96716953 L3.14806366,8.93712131 L2.87650993,8.90095215 L2.60448961,8.85421046 L2.33293587,8.7996785 L2.06371507,8.74180784 L1.79636062,8.6761469 L1.52947276,8.59880054 L1.26211831,8.51143811 L0.999429727,8.41795474 L0.743739955,8.31668109 L0.649489346,8.14028688 L0.559438022,7.96222332 L0.474519156,7.77247434 L0.400798382,7.5855076 L0.331743481,7.39075059 L0.267354451,7.19599357 L0.214163513,7.0006801 L0.163772098,6.79479411 L0.119912904,6.59447261 L0.0807195811,6.38580438 L0.050858002,6.17991839 L0.0298615791,5.9740324 L0.00933174348,5.76758996 L0,5.55335724 L0,5.34190676 L0.00466587174,5.13602077 L0.0163305511,4.92178805 L0.0298615791,4.71590207 L0.0555238737,4.51001608 L0.0900513246,4.30413009 L0.129244647,4.09768765 L0.172637254,3.8945839 L0.223495256,3.6942624 L0.283218415,3.49394089 L0.347607445,3.29862743 L0.417128934,3.11166069 L0.495048992,2.92246816 L0.575768573,2.73271918 L0.663486961,2.55688141 L0.762403442,2.37881786 L0.861319923,2.20798813 L0.969568148,2.03771485 L1.08014931,1.87857055 L1.19772928,1.716644 L1.31717559,1.57085446 L1.44642024,1.42283912 L1.57986417,1.28261407 L1.7133081,1.1512922 L1.85141791,1.02163967 L2.00119239,0.903672561 L2.14396806,0.791269939 L2.29607548,0.683875356 L2.45051584,0.58538395 L2.60915548,0.491900581 L2.77292758,0.406763942 L2.93623309,0.332756276 L3.27264244,0.200877952 L3.44061382,0.148571782 L3.61325108,0.101830098 L3.78822127,0.0656609373 L3.96085852,0.0361691604 L4.13396236,0.0189192531 L4.31126549,0 L4.6635388,0 Z"></path></clipPath><clipPath id="i6"><path d="M4.28179802,0 L4.49103003,0.00526352727 L4.69784318,0.358446207 L4.89860915,0.71426065 L5.08969966,1.07270686 L5.28280589,1.44168012 L5.46180206,1.80802162 L5.64281395,2.1822584 L5.81213465,2.56123237 L5.97943963,2.94862797 L6.13827857,3.33286546 L6.29187664,3.72236648 L6.44104011,4.12028914 L6.5821407,4.52294898 L6.6039105,4.57242614 L6.6337432,4.62137694 L6.66357589,4.66822233 L6.7034872,4.70243526 L6.74138279,4.73296372 L6.78290667,4.75138606 L6.82684943,4.76717664 L6.87240476,4.77191382 L6.92037896,4.76717664 L6.96391856,4.75664959 L7.00987704,4.74138536 L7.04978835,4.71243596 L7.08768393,4.67874939 L7.12154807,4.63453576 L7.14734932,4.59032213 L7.17315057,4.53821321 L7.19088893,4.48399888 L7.19895182,4.4213629 L7.20701471,4.36714857 L7.25458577,2.64229069 L7.25861721,2.59544529 L7.26264866,2.54596814 L7.27071155,2.49649098 L7.28038702,2.45227735 L7.2965128,2.40543196 L7.31021971,2.36121833 L7.32634549,2.3170047 L7.3481153,2.2780546 L7.37431969,2.2391045 L7.3960895,2.20068075 L7.42592219,2.16646782 L7.45172344,2.13804478 L7.48155614,2.1043582 L7.51542028,2.08330409 L7.54525297,2.06014457 L7.57911711,2.0364587 L7.61902842,2.02119447 L7.65248942,2.01066742 L7.690385,1.9975086 L7.72424914,1.99224507 L7.76416045,1.98698154 L7.80205604,1.98698154 L7.83954848,1.99224507 L7.87542834,2.00593024 L7.91332393,2.01593094 L7.94718807,2.026458 L7.98064906,2.04435399 L8.01652893,2.0654081 L8.05039307,2.09383115 L8.08062891,2.11699067 L8.1104616,2.14857183 L8.13626285,2.1822584 L8.1620641,2.21594498 L8.18584963,2.25489508 L8.22979238,2.33279528 L8.24753074,2.37964068 L8.27131627,2.46754158 L8.28139488,2.51701874 L8.28945777,2.56912766 L8.29308607,2.61334129 L8.29308607,2.66281844 L8.30719613,4.46557653 L8.31122758,4.52294898 L8.31929047,4.58242684 L8.33702882,4.63927293 L8.35718605,4.68875009 L8.3829873,4.73296372 L8.41685144,4.77980911 L8.45232816,4.81139027 L8.49022375,4.83981332 L8.53215078,4.86297284 L8.57972183,4.87876342 L8.62366458,4.88402695 L8.66921992,4.87876342 L8.71316267,4.87349989 L8.7550897,4.85297214 L8.79862931,4.82402274 L8.83249345,4.79559969 L8.86635759,4.75138606 L8.89619028,4.70717243 L8.91796009,4.65558987 L9.05946382,4.33293564 L9.20459585,4.01343954 L9.36182221,3.70183873 L9.52912719,3.40076497 L9.70610764,3.10969191 L9.88913525,2.82388238 L10.0822415,2.55123167 L10.278976,2.28331813 L10.488208,2.03119517 L10.7050998,1.78749386 L10.9280387,1.55853042 L11.1546059,1.33535687 L11.3952832,1.12744754 L11.6339448,0.932697031 L11.8830881,0.747947224 L11.9625076,0.704259948 L12.0479742,0.665309846 L12.1334408,0.636360446 L12.2249546,0.625833392 L12.3144527,0.625833392 L12.404354,0.636360446 L12.4898206,0.665309846 L12.5752872,0.698470068 L12.6506753,0.747947224 L12.7284822,0.810583199 L12.8022576,0.883219875 L12.8659544,0.961120079 L13.1005846,1.30640747 L13.3311832,1.65695838 L13.5500907,2.01593094 L13.7633542,2.38437785 L13.9641201,2.76387817 L14.1612578,3.14811566 L14.3463011,3.54130114 L14.5252973,3.94080286 L14.6926023,4.34872623 L14.8498287,4.75664959 L15.0010079,5.17510001 L15.1360613,5.60144572 L15.2654707,6.02937048 L15.3848015,6.46571689 L15.4964725,6.90522142 L15.5940335,7.34683136 L15.6835315,7.79370482 L15.7609353,8.24584181 L15.8286636,8.69745245 L15.8903447,9.14958944 L15.9359,9.60962173 L15.9758113,10.0670222 L16,10.5291599 L15.9201774,10.6565373 L15.8423705,10.79181 L15.7689982,10.9265562 L15.6972385,11.0644607 L15.6278976,11.209734 L15.5642008,11.3502702 L15.5045354,11.5008071 L15.4444668,11.6460804 L15.3928643,11.8024072 L15.3432776,11.9529441 L15.2477323,12.2645449 L15.2098367,12.4235034 L15.1759726,12.584041 L15.1400927,12.7451049 L15.11026,12.9088006 L15.0864745,13.0751281 L15.0647047,13.236192 L15.0465632,13.4051512 L15.0445475,13.4262053 L15.0308406,13.5656888 L15.0207619,13.7351744 L15.0126991,13.9009755 L15.0126991,14.2362622 L15.0167305,14.4025897 L15.0247934,14.5715489 L15.0247934,14.6052355 L15.0207619,14.6394484 L15.0167305,14.6673451 L15.0050393,14.6936627 L14.9909292,14.7226121 L14.9691594,14.7457716 L14.9530337,14.7662994 L14.9312639,14.7847217 L14.9054626,14.7947224 L14.8796614,14.799986 L14.8595041,14.799986 L14.8079016,14.7899853 L14.7861318,14.7715629 L14.7639589,14.7557723 L14.7482362,14.7326128 L14.7304979,14.7115587 L14.7184035,14.6778721 L14.6627696,14.5320724 L14.6031042,14.3873254 L14.5373917,14.2415257 L14.4736948,14.1009895 L14.4059665,13.9636115 L14.3362225,13.8236017 L14.2608345,13.688329 L14.1830276,13.5609516 L14.1491635,13.498842 L14.1193308,13.4335743 L14.0935295,13.3662011 L14.0677283,13.298828 L14.0455553,13.225665 L14.0338641,13.1530283 L14.0197541,13.0803916 L14.0120943,13.0024914 L14.0080629,12.9293284 L14,12.566145 L13.9822616,12.205067 L13.9600887,11.8408309 L13.930256,11.4802793 L13.8963919,11.1213068 L13.8528522,10.7628606 L13.8068938,10.4070461 L13.7512598,10.0485999 L13.6915944,9.69804899 L13.6218504,9.34749807 L13.5500907,8.99378904 L13.4686555,8.64850165 L13.3831889,8.30268791 L13.2936908,7.96266405 L13.1941141,7.62000842 L13.0925217,7.2873535 L12.9812538,6.95206681 L12.8659544,6.62204365 L12.7466237,6.29202049 L12.6172143,5.97515615 L12.6010885,5.93304793 L12.5793187,5.907783 L12.5535174,5.88409713 L12.5236847,5.86830655 L12.4898206,5.86356937 L12.4599879,5.86356937 L12.4301552,5.86830655 L12.4003225,5.88409713 L12.3704898,5.907783 L12.3483169,5.94146958 L12.3305785,5.97515615 L12.3188873,6.01410625 L12.3144527,6.05305635 L12.3144527,6.09726998 L12.3644427,6.67678434 L12.4301552,7.2584041 L12.493852,7.84265562 L12.5712558,8.41953821 L12.6506753,8.99905257 L12.7425922,9.5754088 L12.8357186,10.1496596 L12.9393267,10.7239104 L13.0489821,11.2955295 L13.1642814,11.8592533 L13.1703286,11.9034669 L13.1703286,11.9476805 L13.1602499,11.9861043 L13.1481556,12.0255807 L13.1263858,12.0592673 L13.1005846,12.0882167 L13.0747833,12.1087445 L13.0449506,12.1266405 L13.0110865,12.1324303 L12.9772223,12.1266405 L12.9473896,12.114008 L12.6571256,11.9634711 L12.3644427,11.8255667 L12.0701471,11.6902941 L11.7754485,11.5687066 L11.481153,11.4513299 L11.1804072,11.3450067 L10.8760331,11.2434206 L10.7010683,11.1892063 L10.5777061,11.1502562 L10.2729288,11.0644607 L9.966539,10.9865605 L9.66216489,10.9212927 L9.35375932,10.8591831 L9.04535376,10.8097059 L8.73533562,10.7628606 L8.42652691,10.7239104 L8.11812135,10.6981192 L7.80568434,10.6796968 L7.49324733,10.6696961 L7.18685749,10.6644326 L6.87240476,10.6744333 L6.56198347,10.6849603 L6.25398105,10.7086462 L5.94154404,10.7370693 L5.63313848,10.7760194 L5.32473292,10.8249702 L5.25700464,10.7860201 L5.12961097,10.7086462 L5.06389841,10.6696961 L5.00020157,10.6254825 L4.94053618,10.5786371 L4.87683935,10.5291599 L4.81717396,10.4796828 L4.75750857,10.4281002 L4.69784318,10.3786231 L4.64220923,10.3238824 L4.58254384,10.2670363 L4.52489417,10.2044003 L4.47087281,10.1496596 L4.41927031,10.08755 L4.36363636,10.0228086 L4.31163072,9.96017264 L4.26002822,9.89279949 L4.21447289,9.82489999 L4.16649869,9.76015861 L4.11489619,9.68752193 L4.07296916,9.61488526 L4.02499496,9.54224858 L3.98347107,9.46908555 L3.93993147,9.39118535 L3.90203588,9.31854867 L3.85809313,9.24064847 L3.82422899,9.15485297 L3.7863334,9.07695277 L3.7528724,8.99905257 L3.71699254,8.91588883 L3.6831284,8.8327251 L3.65329571,8.74956137 L3.59725862,8.5811285 L3.54968756,8.41427469 L3.50372909,8.24005193 L3.46018948,8.06635553 L3.42229389,7.89476454 L3.38842975,7.71580462 L3.35859706,7.54158187 L3.33279581,7.36472735 L3.30699456,7.18524107 L3.28885305,7.0068075 L3.27716186,6.82205769 L3.2630518,6.64257141 L3.2594235,6.46571689 L3.2594235,6.10253351 L3.2630518,5.9177837 L3.27716186,5.73829742 L3.28885305,5.55986385 L3.311026,5.37774581 L3.33279581,5.19825953 L3.35859706,5.02403677 L3.38641403,4.86297284 L3.40052409,4.80086322 L3.42229389,4.71243596 L3.44809514,4.62137694 L3.45212659,4.60611271 L3.45615803,4.59558566 L3.46018948,4.58242684 L3.46018948,4.57242614 L3.46422092,4.55663555 L3.46986495,4.54400309 L3.46986495,4.52294898 L3.47389639,4.48399888 L3.47833098,4.47084006 L3.47833098,4.37714927 L3.47389639,4.33819917 L3.46986495,4.32819847 L3.46986495,4.30503895 L3.46422092,4.28872202 L3.46018948,4.27608955 L3.46018948,4.26608885 L3.45212659,4.24977191 L3.45212659,4.23713945 L3.44809514,4.22661239 L3.44446684,4.2087164 L3.4404354,4.19818935 L3.43438823,4.18766229 L3.42632534,4.1697663 L3.41826245,4.15397572 L3.414231,4.14344866 L3.40858698,4.13555337 L3.40455553,4.12555267 L3.39649264,4.10976209 L3.38842975,4.09133974 L3.37835114,4.08660257 L3.37069139,4.07081199 L3.35859706,4.05238964 L3.34892159,4.04238894 L3.33682725,4.02449295 L3.32876436,4.01870307 L3.31505745,4.00817601 L3.30296311,3.99817531 L3.28885305,3.98501649 L3.27716186,3.97501579 L3.26909897,3.96975226 L3.25539206,3.95922521 L3.24732917,3.95396168 L3.23321911,3.94606639 L3.22555936,3.94080286 L3.21346503,3.93606569 L3.20338641,3.93080216 L3.18766378,3.92553863 L3.17355372,3.91974875 L3.15783108,3.91501158 L3.13565813,3.91501158 L3.12799839,3.90711629 L3.03245313,3.90711629 L3.02439024,3.91501158 L3.00826446,3.91501158 L2.99858899,3.91974875 L2.98649466,3.91974875 L2.97641605,3.92553863 L2.96069341,3.93080216 L2.95263052,3.93606569 L2.9389236,3.94080286 L2.92279782,3.94606639 L2.90909091,3.95922521 L2.89699657,3.96396238 L2.8873211,3.96975226 L2.87925821,3.97501579 L2.86716388,3.98501649 L2.85345696,3.99817531 L2.84136263,4.00817601 L2.83531546,4.01870307 L2.82725257,4.02449295 L2.81556138,4.03712541 L2.80548277,4.05238964 L2.79338843,4.06607481 L2.78976013,4.07607551 L2.77565007,4.08660257 L2.77161863,4.09660327 L2.76395888,4.11502562 L2.75186454,4.1308162 L2.70429349,4.27608955 L2.68212054,4.3434627 L2.66035074,4.4113622 L2.64019351,4.47873535 L2.6184237,4.54400309 L2.60068535,4.61137624 L2.58859101,4.64506281 L2.57891554,4.68348656 L2.56278976,4.75138606 L2.5486797,4.78559899 L2.54101996,4.81875921 L2.53295707,4.85297214 L2.52489417,4.88402695 L2.51481556,4.92297705 L2.50715582,4.95666363 L2.49909292,4.9903502 L2.49304576,5.02403677 L2.48538601,5.06298688 L2.47732312,5.0971998 L2.47329168,5.13088638 L2.46321306,5.16931013 L2.45918162,5.20352305 L2.45152187,5.23720963 L2.44749043,5.27615973 L2.44345898,5.30984631 L2.43338037,5.34353288 L2.42934892,5.38300933 L2.42531748,5.41669591 L2.42128603,5.45511966 L2.41765773,5.48933258 L2.41362629,5.52828269 L2.41362629,5.55986385 L2.40959484,5.60144572 L2.40354767,5.63197417 L2.40354767,5.67092428 L2.39951623,5.7051372 L2.39951623,5.74356095 L2.39548478,5.77777388 L2.39548478,5.88936066 L2.39185648,5.92831076 L2.39185648,6.07358411 L2.39548478,6.10779704 L2.39548478,6.21885746 L2.39951623,6.25307039 L2.39951623,6.29202049 L2.40354767,6.33097059 L2.40354767,6.36465717 L2.40959484,6.40360727 L2.41362629,6.43729385 L2.41362629,6.4767703 L2.41765773,6.50993052 L2.42128603,6.54414345 L2.42531748,6.58309355 L2.42934892,6.61678012 L2.43338037,6.65573023 L2.43942753,6.6894168 L2.44345898,6.7283669 L2.44749043,6.76257983 L2.45152187,6.80100358 L2.45515017,6.83205839 L2.45918162,6.86627132 L2.46926023,6.90522142 L2.47329168,6.93890799 L2.47732312,6.9778581 L2.48901431,7.0457576 L2.50312437,7.11786792 L2.51118726,7.19103095 L2.52489417,7.26366763 L2.53698851,7.33156713 L2.55472687,7.40367745 L2.56682121,7.47684048 L2.57891554,7.54158187 L2.5966539,7.61421854 L2.61036081,7.68738157 L2.6264866,7.75422837 L2.63454949,7.78844129 L2.64422495,7.8273914 L2.65228785,7.86160432 L2.66035074,7.89476454 L2.67042935,7.92897747 L2.67808909,7.96792757 L2.68615199,8.0010878 L2.6962306,8.03530072 L2.70429349,8.06635553 L2.71195324,8.10056846 L2.72606329,8.13372868 L2.73372304,8.16794161 L2.74178593,8.20689171 L2.75186454,8.24005193 L2.76395888,8.27426486 L2.77161863,8.30795144 L2.78572868,8.34216436 L2.79338843,8.37532458 L2.80548277,8.40690575 L2.81556138,8.44059232 L2.82725257,8.4742789 L2.83531546,8.50796547 L2.84902237,8.5421784 L2.86111671,8.57533862 L2.87119532,8.60902519 L2.88288651,8.64323812 L2.89699657,8.66902941 L2.90909091,8.70271598 L2.92279782,8.73692891 L2.94698649,8.80430206 L2.96069341,8.83798863 L2.97278774,8.86693803 L2.98649466,8.90009825 L2.99858899,8.93431118 L3.01229591,8.96536599 L3.02439024,8.99378904 L3.0385003,9.02747561 L3.05019149,9.06168854 L3.06792985,9.09011159 L3.08002419,9.12379816 L3.09211852,9.15485297 L3.12396694,9.21748895 L3.15379964,9.27959857 L3.18363233,9.33907643 L3.24329772,9.46382202 L3.27313042,9.52382623 L3.30296311,9.58646221 L3.33682725,9.64857183 L3.36665995,9.70804969 L3.39649264,9.76542213 L3.43035678,9.82489999 L3.46422092,9.88753597 L3.49606934,9.94227665 L3.52953034,10.0043863 L3.56339448,10.0612324 L3.59725862,10.1217629 L3.62749446,10.178609 L3.66095545,10.2380869 L3.69683532,10.2954593 L3.73069946,10.3496737 L3.7645636,10.4123096 L3.79842774,10.4670503 L3.83229188,10.5238964 L3.86817174,10.5786371 L3.90203588,10.6354832 L3.93993147,10.6981192 L4.0072566,10.8097059 L4.0770006,10.9212927 L4.14876033,11.0334059 L4.22213263,11.1449926 L4.28986092,11.2618429 L4.4309615,11.4850165 L4.57649667,11.7087164 L4.71759726,11.9292582 L5.00423302,12.376658 L5.05583552,12.4335041 L5.10784116,12.4956137 L5.15541222,12.5603551 L5.19733925,12.6282546 L5.23483169,12.7008913 L5.274743,12.7740543 L5.30860714,12.8519545 L5.33440839,12.9345919 L5.36020964,13.0130185 L5.38601088,13.098814 L5.40213667,13.1872412 L5.41624672,13.2698786 L5.42390647,13.3609376 L5.43196936,13.4493649 L5.43196936,13.6288511 L5.42390647,13.7172784 L5.41624672,13.7999158 L5.39810522,13.8909748 L5.38036686,13.9741385 L5.36020964,14.0573023 L5.33037694,14.1425714 L5.30094739,14.220998 L5.26506753,14.2988982 L5.23120339,14.3767984 L5.18927636,14.4441715 L5.1453336,14.5089129 L5.09776255,14.5762861 L5.04817577,14.6394484 L4.99617013,14.6936627 L4.94053618,14.7457716 L4.88490224,14.7947224 L4.82523685,14.8389361 L4.76154001,14.873149 L4.70187462,14.9063092 L4.63616206,14.9405221 L4.56843378,14.9610499 L4.50473695,14.9794722 L4.43539609,14.9899993 L4.36766781,15 L4.29993953,15 L4.23019553,14.9947365 L4.16246724,14.9899993 L4.09877041,14.9742087 L4.02942955,14.9557864 L3.96532957,14.9299951 L3.90203588,14.901572 L3.83833904,14.8673591 L3.77665793,14.8289354 L3.71699254,14.7847217 L3.66095545,14.7326128 L3.60532151,14.6778721 L3.55573473,14.6204997 L3.50372909,14.5610218 L3.46018948,14.4936487 L3.41826245,14.4257492 L3.22152792,14.1141484 L3.02842169,13.7999158 L2.83531546,13.4830514 L2.65228785,13.1582918 L2.46926023,12.8361639 L2.28824834,12.5114043 L2.10925217,12.1761176 L1.93791574,11.8466208 L1.76698246,11.5055442 L1.60370893,11.1655204 L1.4287442,10.8539196 L1.26748639,10.5291599 L1.10824431,10.1938733 L0.963112276,9.85384939 L0.829671437,9.50803565 L0.702277767,9.15485297 L0.586978432,8.79903853 L0.479338843,8.4353288 L0.385809313,8.06635553 L0.300342673,7.69211875 L0.222938924,7.31788196 L0.159242088,6.93890799 L0.107236444,6.55414415 L0.065712558,6.16990666 L0.0354767184,5.78514282 L0.0137069139,5.39301004 L0,5.00877255 L0.029832695,4.73296372 L0.0693408587,4.46557653 L0.121346503,4.19818935 L0.176980447,3.93606569 L0.244708728,3.67815285 L0.322112477,3.42129272 L0.412013707,3.17706506 L0.505140093,2.93020563 L0.612779682,2.69650502 L0.724047571,2.46754158 L0.847409796,2.24489438 L0.974803467,2.026458 L1.11227575,1.82118043 L1.25740778,1.62379816 L1.41261842,1.44168012 L1.56984479,1.26219384 L1.73714977,1.09376097 L1.90808305,0.937434206 L2.08707922,0.792160853 L2.27212256,0.660046319 L2.45515017,0.535300723 L2.6482564,0.423713945 L2.84539407,0.33002316 L3.0421286,0.238964138 L3.24732917,0.168432872 L3.44809514,0.111586778 L3.65692401,0.0621096217 L3.86212457,0.0284230472 L4.07296916,0.00526352727 L4.28179802,0 Z"></path></clipPath><clipPath id="i7"><path d="M19.9902866,0 L20.2341949,0.0110083664 L20.475656,0.0247688243 L20.7171171,0.0412813738 L20.9606176,0.0704535447 L21.1979999,0.100726552 L21.4398689,0.133751651 L21.6833693,0.174482607 L21.9207517,0.222919419 L22.1585419,0.269154557 L22.3959243,0.326398063 L22.6357539,0.386393659 L22.8731362,0.456296786 L23.1105186,0.524548657 L23.3442301,0.600506385 L23.5779416,0.682518714 L23.8112452,0.771686482 L24.0445488,0.864156759 L24.2741816,0.956627037 L24.5038144,1.06230735 L24.7330393,1.16798767 L24.962672,1.28522677 L25.1882261,1.40191546 L25.3273109,1.5053941 L25.4602777,1.63033906 L25.5907972,1.75253192 L25.7196852,1.88022897 L25.8404157,2.02113606 L25.9631856,2.15984148 L26.0741272,2.31230735 L26.1867003,2.46422281 L26.2956025,2.62714663 L26.3943079,2.79062087 L26.4946448,2.96675473 L26.5851927,3.14068692 L26.6720697,3.32232497 L26.7544602,3.51001761 L26.8327719,3.69495817 L26.9012946,3.88760458 L26.9661465,4.08575517 L26.9800142,4.14630119 L26.9918425,4.20299428 L26.9959213,4.26243945 L27,4.31968296 L27,4.38463232 L26.9959213,4.44242624 L26.9881717,4.50187142 L26.9738961,4.55911493 L26.9575812,4.61856011 L26.9396347,4.67029943 L26.9278064,4.70002202 L26.9094521,4.72974461 L26.8894663,4.75176134 L26.8633624,4.77047556 L26.8372585,4.78148393 L26.8107467,4.78698811 L26.7585389,4.78698811 L26.732435,4.77597974 L26.7063311,4.75726552 L26.5329849,4.61305592 L26.3600465,4.46114047 L26.1928184,4.30372083 L26.0276297,4.14079701 L25.8624409,3.97457067 L25.69766,3.8011889 L25.5385894,3.6267063 L25.4941312,3.59202994 L25.4521202,3.55625275 L25.4035832,3.52653016 L25.3574935,3.49680757 L25.3089566,3.46928666 L25.2608275,3.43956407 L25.2147378,3.41479524 L25.1662009,3.39332893 L25.1176639,3.37406429 L25.0674955,3.35810216 L25.0152877,3.33938793 L24.9667508,3.32232497 L24.914543,3.31186702 L24.8643745,3.30361074 L24.8117588,3.2931528 L24.7636298,3.28764861 L24.7110141,3.28159401 L24.5560222,3.28159401 L24.5038144,3.28764861 L24.4516066,3.2931528 L24.4010303,3.29865698 L24.3529012,3.31186702 L24.3002855,3.32232497 L24.2480777,3.33938793 L24.201988,3.34984588 L24.1493723,3.37406429 L24.1012433,3.39332893 L24.0490355,3.41479524 L24.0025379,3.43956407 L23.9544088,3.46103038 L23.9079112,3.49130339 L23.8597822,3.52102598 L23.815324,3.55625275 L23.7692343,3.58322325 L23.724776,3.61900044 L23.6823572,3.6597314 L23.6383069,3.69495817 L23.595888,3.73513871 L23.5555086,3.78137384 L23.5171685,3.82540731 L23.4751575,3.87164245 L23.4388567,3.91787759 L23.4005166,3.96411273 L23.3662553,4.01805372 L23.3319939,4.06428886 L23.2956932,4.12153236 L23.2618397,4.17547336 L23.231657,4.22721268 L23.2014744,4.28445619 L23.1712918,4.34445178 L23.14478,4.40114487 L23.1186761,4.46114047 L23.0925722,4.51783355 L23.0725864,4.58333333 L23.0464825,4.64883311 L23.0281282,4.71103038 L23.006103,4.77597974 L22.9897881,4.84092911 L22.9718416,4.90422721 L22.9555267,4.97413034 L22.941659,5.03963012 L22.9298307,5.10788199 L22.9212653,5.17283135 L22.9114764,5.24383531 L22.9033189,5.31428886 L22.8955693,5.38199031 L22.8890433,5.45299428 L22.8890433,5.52344782 L22.8853724,5.58839718 L22.8853724,5.7271026 L22.8890433,5.79810656 L22.8955693,5.86800969 L22.8992401,5.93846323 L22.9073976,6.0067151 L22.9155551,6.07716865 L22.9298307,6.14266843 L22.9375803,6.21312197 L22.9518558,6.27586966 L22.9677629,6.34632321 L22.9861172,6.41182299 L23.0020243,6.47402026 L23.0199707,6.53896962 L23.0424037,6.6044694 L23.0623895,6.66721708 L23.0844147,6.73216645 L23.1105186,6.78885953 L23.1370304,6.85435931 L23.1631343,6.91160282 L23.1933169,6.971048 L23.2234996,7.02278732 L23.2536822,7.08278292 L23.2838648,7.13397182 L23.3181262,7.18571114 L23.3523876,7.24020255 L23.3886883,7.29139146 L23.4649606,7.38386173 L23.5053401,7.43284897 L23.5436802,7.4790841 L23.5820203,7.51981506 L23.6260707,7.56109643 L23.6684895,7.60182739 L24.2240132,8.09830471 L24.8843603,8.68835315 L24.914543,8.71532365 L24.9406469,8.75055042 L24.962672,8.78577719 L24.9810263,8.82155438 L24.9969334,8.86228534 L25.0152877,8.90852048 L25.0230373,8.95750771 L25.0311948,9.04942756 L25.0311948,9.0956627 L25.027116,9.14189784 L25.0193664,9.19088507 L25.0050909,9.23161603 L24.9887759,9.27785117 L24.9708295,9.31858212 L24.9508437,9.35380889 L24.9284107,9.38903567 L24.8986359,9.41655658 L24.8721241,9.44077499 L24.8378627,9.46554381 L24.8076801,9.48150594 L24.7717872,9.49196389 L24.7375259,9.49746808 L24.7032645,9.50572435 L13.4618638,9.47600176 L13.0813179,9.50572435 L12.6946538,9.53819903 L12.3181866,9.59819463 L11.9380486,9.66369441 L11.5611735,9.7446059 L11.1851141,9.83707618 L10.8123178,9.9488111 L10.6919951,9.97853369 L10.566778,9.99504624 L10.4464553,10 L0,10 L0,4.02906209 L10.2930949,4.02906209 L10.3453027,4.0235579 L10.3979183,4.0235579 L10.4501261,4.01805372 L10.5064127,4.00484368 L10.556989,3.9993395 L10.6091968,3.98778071 L10.6614046,3.96906649 L10.7140203,3.95310436 L10.7621493,3.93383972 L10.8123178,3.9123734 L10.8608547,3.88760458 L10.9134704,3.86613827 L10.9595601,3.83586526 L11.008097,3.80614267 L11.0562261,3.7709159 L11.1023158,3.73513871 L11.146774,3.70046235 L11.1932716,3.66743725 L11.2373219,3.6267063 L11.2797408,3.58322325 L11.3201202,3.53753853 L11.3621312,3.49130339 L11.4025107,3.44506825 L11.4408508,3.39883311 L11.4751122,3.34489212 L11.5656601,3.22214883 L11.6623261,3.09995597 L11.752874,2.9777631 L11.8475006,2.85557023 L11.9421273,2.73888155 L12.0383854,2.62164245 L12.1370908,2.51045795 L12.2357962,2.39376926 L12.3365409,2.28258476 L12.4352463,2.1785557 L12.5396619,2.0673712 L12.6444854,1.96719507 L12.7472695,1.86371642 L12.8516851,1.76298987 L12.958548,1.66281374 L13.0670423,1.56483928 L13.1759445,1.472369 L13.2848467,1.37769705 L13.3974198,1.28522677 L13.5079535,1.19826068 L13.6209345,1.10854249 L13.7335076,1.0215764 L13.8460806,0.940114487 L13.9631403,0.858652576 L14.583108,2.00242184 L15.4869556,3.67294144 L15.5391634,3.75990753 L15.5897397,3.84191986 L15.6460263,3.92283135 L15.7023128,3.9993395 L15.7667568,4.06979304 L15.8271221,4.13199031 L15.8976842,4.19253633 L15.9662069,4.25198151 L16.036769,4.30372083 L16.1089626,4.34995597 L16.1836035,4.39068692 L16.256205,4.42536328 L16.3345167,4.46114047 L16.4128284,4.48260678 L16.4956267,4.50187142 L16.5723069,4.51783355 L16.6546973,4.52333774 L16.733009,4.53159401 L16.8158074,4.53159401 L16.8920797,4.51783355 L16.9744701,4.50737561 L17.0531897,4.49086306 L17.1319093,4.46114047 L17.2081816,4.43086746 L17.2869012,4.39619111 L17.3590948,4.35490973 L17.4337357,4.30867459 L17.5022584,4.25748569 L17.5728205,4.20299428 L17.6368567,4.14079701 L17.7017085,4.07529723 L17.7657447,4.00484368 L17.8224391,3.92833554 L17.8787256,3.85237781 L17.9309334,3.7709159 L17.9835491,3.68450022 L18.0255601,3.59753413 L18.0696104,3.50231176 L18.1079505,3.40984148 L18.14833,3.31186702 L18.1785126,3.21114047 L18.2050244,3.11096433 L18.2290889,3.00748569 L18.2470354,2.90180537 L18.2649818,2.79557464 L18.277218,2.68714223 L18.2812967,2.58146191 L18.2853755,2.46972699 L18.2853755,2.35854249 L18.2812967,2.25231176 L18.2731393,2.14387935 L18.2592716,2.03764861 L18.2429566,1.9319683 L18.2209315,1.82904007 L18.1948276,1.72225892 L18.1642371,1.62208278 L17.7539163,0.309885513 L17.7457589,0.285667107 L17.7457589,0.263650374 L17.7498376,0.239431968 L17.7579951,0.214663144 L17.7657447,0.19319683 L17.784099,0.174482607 L17.8020454,0.162923822 L17.8183603,0.157419639 L18.0557427,0.122743285 L18.2992432,0.0875165125 L18.5411121,0.0572435051 L18.7846126,0.0357771907 L19.021995,0.0165125495 L19.2638639,0.00550418318 L19.5073644,0 L19.9902866,0 Z"></path></clipPath><clipPath id="i8"><path d="M4.50219524,0 L4.78416174,0.00487672717 L5.06807957,0.0346789488 L5.34711909,0.0856136548 L5.62176812,0.154971552 L5.88909968,0.240585207 L6.1588704,0.350040639 L6.41888449,0.470875102 L6.67158112,0.615009483 L6.91500894,0.775399621 L7.14819231,0.954754809 L7.36966773,1.14440531 L7.58187436,1.35085343 L7.78432435,1.57518288 L7.97165158,1.8103495 L8.14288037,2.05906258 L8.30191338,2.32132213 L8.44631145,2.59170956 L8.57119627,2.86914115 L8.68437314,3.15578434 L8.78340289,3.45489027 L8.86048024,3.75453807 L8.92292265,4.06502303 L8.96390048,4.37550799 L8.99512169,4.6854511 L9,5.00081279 L8.99512169,5.31129775 L8.96390048,5.62665944 L8.92292265,5.93714441 L8.86048024,6.24221078 L8.78340289,6.54727716 L8.68437314,6.84150637 L8.57119627,7.12706584 L8.44631145,7.40774858 L8.30191338,7.67813601 L8.14288037,7.93768626 L7.97165158,8.18369006 L7.78432435,8.42210783 L7.58187436,8.64372799 L7.36966773,8.85180168 L7.14819231,9.04741263 L6.91500894,9.21863993 L6.67158112,9.37903007 L6.41888449,9.52370631 L6.1588704,9.64887564 L5.88909968,9.75399621 L5.62176812,9.84448659 L5.34711909,9.90896776 L5.06807957,9.95936061 L4.78416174,9.98862097 L4.50219524,10 L4.21827741,9.98862097 L3.93875007,9.95936061 L3.65971055,9.90896776 L3.38018321,9.84448659 L3.11041249,9.75399621 L2.84795924,9.64887564 L2.58306683,9.52370631 L2.33524852,9.37903007 L2.09230853,9.21863993 L1.85863732,9.04741263 L1.63228359,8.85180168 L1.41812564,8.64372799 L1.22299312,8.42210783 L1.03517806,8.18369006 L0.859558784,7.93768626 L0.700525774,7.67813601 L0.560518185,7.40774858 L0.430755054,7.12706584 L0.317578189,6.84150637 L0.223914575,6.54727716 L0.139519757,6.24221078 L0.079516505,5.93714441 L0.0385386742,5.62665944 L0.0117079517,5.31129775 L0,5.00081279 L0.0117079517,4.6854511 L0.0385386742,4.37550799 L0.079516505,4.06502303 L0.139519757,3.75453807 L0.223914575,3.45489027 L0.317578189,3.15578434 L0.430755054,2.86914115 L0.560518185,2.59170956 L0.700525774,2.32132213 L0.859558784,2.05906258 L1.03517806,1.8103495 L1.22299312,1.57518288 L1.41812564,1.35085343 L1.63228359,1.14440531 L1.85863732,0.954754809 L2.09230853,0.775399621 L2.33524852,0.615009483 L2.58306683,0.470875102 L2.84795924,0.350040639 L3.11041249,0.240585207 L3.38018321,0.154971552 L3.65971055,0.0856136548 L3.93875007,0.0346789488 L4.21827741,0.00487672717 L4.50219524,0 Z"></path></clipPath><clipPath id="i9"><path d="M8.85064194,0 L8.85064194,6.50369979 L12,6.50369979 L6.00128388,15 L0,6.50369979 L3.15192582,6.50369979 L3.15192582,0 L8.85064194,0 Z"></path></clipPath><clipPath id="i10"><path d="M5,0 L5,2 L0,2 L0,0 L5,0 Z"></path></clipPath></defs><g transform="translate(-400.0 -434.0)"><g clip-path="url(#i0)"><g transform="translate(400.0 434.0)"><g clip-path="url(#i1)"><polygon points="0,0 78,0 78,122 0,122 0,0" stroke="none" fill="#00AD54"></polygon></g><g transform="translate(19.0 14.0)"><g clip-path="url(#i2)"><g transform="translate(2.0 2.0)"><g transform="translate(23.0 25.0)"><g clip-path="url(#i3)"><polygon points="0,0 14,0 14,6 0,6 0,0" stroke="none" fill="#FFFFFF"></polygon></g></g><g transform="translate(0.0 32.0)"><g clip-path="url(#i4)"><polygon points="0,0 37,0 37,4 0,4 0,0" stroke="none" fill="#FFFFFF"></polygon></g></g><g transform="translate(27.0 18.0)"><g clip-path="url(#i5)"><polygon points="0,0 9,0 9,9 0,9 0,0" stroke="none" fill="#FFFFFF"></polygon></g></g><g transform="translate(12.0 11.0)"><g clip-path="url(#i6)"><polygon points="0,0 16,0 16,15 0,15 0,0" stroke="none" fill="#FFFFFF"></polygon></g></g><g transform="translate(0.0 20.0)"><g clip-path="url(#i7)"><polygon points="0,0 27,0 27,10 0,10 0,0" stroke="none" fill="#FFFFFF"></polygon></g></g><g transform="translate(17.0 2.0)"><g clip-path="url(#i8)"><polygon points="0,0 9,0 9,10 0,10 0,0" stroke="none" fill="#FFFFFF"></polygon></g></g><g transform="translate(0.0 9.0)"><g clip-path="url(#i9)"><polygon points="0,0 12,0 12,15 0,15 0,0" stroke="none" fill="#FFFFFF"></polygon></g></g><g transform="translate(3.0 5.0)"><g clip-path="url(#i10)"><polygon points="0,0 5,0 5,2 0,2 0,0" stroke="none" fill="#FFFFFF"></polygon></g></g><g transform="translate(3.0 3.0)"><g clip-path="url(#i10)"><polygon points="0,0 5,0 5,2 0,2 0,0" stroke="none" fill="#FFFFFF"></polygon></g></g><g transform="translate(3.0 0.0)"><g clip-path="url(#i10)"><polygon points="0,0 5,0 5,2 0,2 0,0" stroke="none" fill="#FFFFFF"></polygon></g></g></g></g></g><g transform="translate(7.0 63.0)"><text transform="translate(0.03200000000000003 17.0)"><tspan x="0.032px" y="0px" font-family="PingFangSC-Medium, PingFang SC" font-size="16.0" font-weight="400" fill="#FFFFFF" text-anchor="center" letter-spacing="-0.01600000000000001">防压力性</tspan><tspan x="16.016px" y="22px" font-family="PingFangSC-Medium, PingFang SC" font-size="16.0" font-weight="400" fill="#FFFFFF" text-anchor="center" letter-spacing="-0.01600000000000001">损伤</tspan></text></g></g></g></g></svg>