<?xml version="1.0" encoding="UTF-8"?><svg version="1.1" width="78px" height="122px" viewBox="0 0 78.0 122.0" xmlns="http://www.w3.org/2000/svg" xmlns:xlink="http://www.w3.org/1999/xlink"><defs><clipPath id="i0"><path d="M1024,0 L1024,600 L0,600 L0,0 L1024,0 Z"></path></clipPath><clipPath id="i1"><path d="M39,0 C60.5391052,-3.95666944e-15 78,17.4608948 78,39 L78,83 C78,104.539105 60.5391052,122 39,122 C17.4608948,122 2.63777963e-15,104.539105 0,83 L0,39 C-2.63777963e-15,17.4608948 17.4608948,3.95666944e-15 39,0 Z"></path></clipPath><clipPath id="i2"><path d="M40,0 L40,40 L0,40 L0,0 L40,0 Z"></path></clipPath><clipPath id="i3"><path d="M5.10638298,0 L7.13221282,0.350124388 L7.97547567,1.2755269 L12.888284,6.63893678 L20.1073084,7.09699036 L36.5890728,25.0535172 L34.3128418,27.0726712 L35.8452339,28.7546109 L38.121465,26.7323585 L40,28.7783656 L31.1523157,36.5957447 L29.2874581,34.5600657 L31.5673715,32.5471087 L30.0344533,30.8682674 L27.7413885,32.880708 L11.2733015,14.9107545 L11.9797906,7.48739455 L6.04223114,1.01938871 L5.10638298,0 Z M12.383359,22.9787234 L12.4549148,23.024069 L12.5127099,23.0763498 L16.4295651,29.8376477 L16.6161606,30.1892096 L16.7592722,30.5503741 L16.874312,30.9291433 L16.9640319,31.3191156 L17.0069654,31.7117553 L17.0212766,32.1006606 L17.0069654,32.4975681 L16.9497208,32.8827391 L16.8456896,33.2652427 L16.7306499,33.6408111 L16.5726767,34.002509 L16.3866316,34.3535374 L16.1675607,34.676825 L15.9094093,34.9862421 L15.6330938,35.278588 L15.332009,35.5458603 L15.01276,35.782191 L14.6648886,35.9939817 L14.3060087,36.1716298 L13.929515,36.3279388 L13.5530214,36.4394357 L13.1512079,36.5231917 L12.7455415,36.5818743 L12.3404255,36.5957447 L11.9353095,36.5818743 L11.5334961,36.5231917 L11.1426913,36.4394357 L10.751336,36.3279388 L10.3786954,36.1716298 L10.0159625,35.9939817 L9.66809111,35.782191 L9.3526951,35.5458603 L9.04775725,35.278588 L8.77529473,34.9862421 L8.52760153,34.676825 L8.31238366,34.3535374 L8.12248554,34.002509 L7.96451232,33.6408111 L7.83516143,33.2652427 L7.74929445,32.8827391 L7.68819679,32.4975681 L7.65957447,32.1006606 L7.67773864,31.7117553 L7.73498329,31.3191156 L7.8065391,30.9291433 L7.92157883,30.5503741 L8.07955205,30.1892096 L8.26945017,29.8376477 L12.1681412,23.0763498 L12.2253858,23.024069 L12.297492,22.9787234 L12.383359,22.9787234 Z M25.9622775,16.8591606 L20.5497189,21.6545221 L27.8513336,29.6195937 L33.2775696,24.8278471 L31.9645415,23.391201 L28.8724023,26.1235139 L27.1074947,24.201961 L30.1991078,21.4696481 L29.0817714,20.2478276 L25.9896323,22.9806569 L24.2483971,21.0859573 L27.3405362,18.3665546 L25.9622775,16.8591606 Z M3.44423685,14.4680851 L3.51307922,14.4966184 L3.57186002,14.5558384 L6.34938497,19.4990971 L6.51513622,19.8221155 L6.64275939,20.1591314 L6.73966827,20.513375 L6.79474216,20.8676185 L6.80851064,21.2358595 L6.78097369,21.5901031 L6.72589979,21.9373479 L6.64275939,22.2921298 L6.51513622,22.6286073 L6.34938497,22.9586245 L6.15291943,23.2498794 L5.93209428,23.5373658 L5.68373218,23.7898586 L5.40412624,24.0143564 L5.10016069,24.2146278 L4.79354735,24.3788288 L4.45833795,24.5091129 L4.11359653,24.6108637 L3.76514822,24.6668536 L3.40240187,24.6808511 L3.05766045,24.6668536 L2.6949141,24.6108637 L2.36023426,24.5091129 L2.02926132,24.3788288 L1.70834995,24.2146278 L1.41497553,24.0143564 L1.13907649,23.7898586 L0.887007492,23.5373658 L0.652413868,23.2498794 L0.459125669,22.9586245 L0.303965552,22.6286073 L0.179519725,22.2921298 L0.0831404037,21.9373479 L0.027536949,21.5901031 L0,21.2358595 L0.027536949,20.8676185 L0.0831404037,20.513375 L0.165751251,20.1591314 L0.289667521,19.8221155 L0.459125669,19.4990971 L3.23718018,14.5558384 L3.29225407,14.4966184 L3.36109645,14.4680851 L3.44423685,14.4680851 Z M4.29842498,5.10638298 L4.37082067,5.15103412 L4.42829511,5.20881794 L6.41613705,8.19414052 L6.55982316,8.45784489 L6.67919315,8.73153011 L6.7510362,9.02255047 L6.79414203,9.30989367 L6.80851064,9.59776219 L6.76540481,9.90559239 L6.69300912,10.1761258 L6.58856038,10.470298 L6.44487427,10.7308505 L6.27189831,10.9772197 L6.0668693,11.1962729 L5.8364189,11.3948392 L5.59159989,11.5555833 L5.31417519,11.6958404 L5.02569771,11.8056297 L4.72008842,11.8707678 L4.41337386,11.9148936 L4.0967118,11.9148936 L3.79054988,11.8707678 L3.48825642,11.8056297 L3.19646311,11.6958404 L2.92290688,11.5555833 L2.6742194,11.3948392 L2.443769,11.1962729 L2.22381873,10.9772197 L2.05139541,10.7308505 L1.92152528,10.470298 L1.8065764,10.1761258 L1.73086488,9.90559239 L1.70212766,9.59776219 L1.70212766,9.30989367 L1.74910196,9.02255047 L1.83531362,8.73153011 L1.9502625,8.45784489 L2.09450124,8.19414052 L4.08234319,5.20881794 L4.13981763,5.15103412 L4.21221332,5.10638298 L4.29842498,5.10638298 Z"></path></clipPath></defs><g transform="translate(-596.0 -434.0)"><g clip-path="url(#i0)"><g transform="translate(596.0 434.0)"><g clip-path="url(#i1)"><polygon points="0,0 78,0 78,122 0,122 0,0" stroke="none" fill="#2E2D90"></polygon></g><g transform="translate(19.0 14.0)"><g clip-path="url(#i2)"><g transform="translate(0.0 2.000000000000025)"><g clip-path="url(#i3)"><polygon points="0,0 40,0 40,36.5957447 0,36.5957447 0,0" stroke="none" fill="#FFFFFF"></polygon></g></g></g></g><g transform="translate(13.0 63.0)"><text transform="translate(2.0239999999999974 17.0)"><tspan x="2.024px" y="0px" font-family="PingFangSC-Medium, PingFang SC" font-size="16.0" font-weight="400" fill="#FFFFFF" text-anchor="center" letter-spacing="-0.01600000000000001">防液体</tspan><tspan x="10.016px" y="22px" font-family="PingFangSC-Medium, PingFang SC" font-size="16.0" font-weight="400" fill="#FFFFFF" text-anchor="center" letter-spacing="-0.01600000000000001">外渗</tspan></text></g></g></g></g></svg>