<?xml version="1.0" encoding="UTF-8"?><svg version="1.1" width="78px" height="122px" viewBox="0 0 78.0 122.0" xmlns="http://www.w3.org/2000/svg" xmlns:xlink="http://www.w3.org/1999/xlink"><defs><clipPath id="i0"><path d="M1024,0 L1024,600 L0,600 L0,0 L1024,0 Z"></path></clipPath><clipPath id="i1"><path d="M39,0 C60.5391052,-3.95666944e-15 78,17.4608948 78,39 L78,83 C78,104.539105 60.5391052,122 39,122 C17.4608948,122 2.63777963e-15,104.539105 0,83 L0,39 C-2.63777963e-15,17.4608948 17.4608948,3.95666944e-15 39,0 Z"></path></clipPath><clipPath id="i2"><path d="M40,0 L40,40 L0,40 L0,0 L40,0 Z"></path></clipPath><clipPath id="i3"><path d="M17.9482674,0 L18.1585921,0.299151932 L18.2533785,0.443083523 L18.3509691,0.59717499 L18.4356598,0.750137582 L18.4721161,0.828029972 L18.5130593,0.904793486 L18.5523199,0.980992564 L18.5803632,1.05888495 L18.6061631,1.13564847 L18.6347672,1.21184755 L18.6560801,1.28804662 L18.673467,1.36650345 L18.6824408,1.44270253 L18.6930973,1.5189016 L18.7015103,1.59735843 L18.7015103,1.67355751 L18.6930973,1.74975659 L18.6824408,1.8265201 L18.673467,1.91344349 L18.6560801,1.98964257 L18.6347672,2.06753496 L18.619063,2.14429847 L18.5584895,2.30742094 L18.5024029,2.47110785 L18.3879863,2.79791723 L18.3425561,2.96103969 L18.3206824,3.03780321 L18.3010521,3.12529104 L18.2836652,3.20092568 L18.2752522,3.28615576 L18.2623523,3.36404815 L18.2623523,3.61296513 L18.2752522,3.69988852 L18.2836652,3.77665204 L18.2926391,3.86357543 L18.3100259,3.93977451 L18.3290953,4.0266979 L18.3509691,4.10289698 L18.4092992,4.26658388 L18.4637031,4.42970635 L18.5220332,4.58436226 L18.5977501,4.74804916 L18.665054,4.90044732 L18.7407709,5.06413422 L18.9028611,5.37118828 L19.0593427,5.66977578 L19.2191894,5.96836327 L19.3706232,6.26469302 L19.4463401,6.41878448 L19.513644,6.56271607 L19.5809479,6.71793642 L19.6476909,6.87033457 L19.7149948,7.01426616 L19.7710814,7.16892207 L19.818755,7.32357797 L19.8709155,7.47654056 L19.9163456,7.63966303 L19.9528019,7.79431894 L19.9836495,7.9574414 L20.0139363,8.12112831 L20.0397361,8.28199303 L20.0593664,8.45640425 L20.0806793,8.62009116 L20.0874097,8.78321363 L20.1092835,9.12977832 L20.1261095,9.46561869 L20.1434963,10.1384283 L20.1547136,10.8095446 L20.1631266,11.4829187 L20.1631266,12.8183781 L20.1434963,13.4810278 L20.1261095,14.1431132 L20.0958227,14.8080207 L20.0593664,15.4706704 L20.0397361,15.7974798 L20.0139363,16.1321913 L19.9836495,16.4595651 L19.9466324,16.794841 L19.9056892,17.1329392 L19.8709155,17.4597485 L19.818755,17.7950245 L19.7907117,17.967178 L19.7626684,18.1303004 L19.7234078,18.2945518 L19.6869515,18.4683985 L19.6476909,18.631521 L19.6196476,18.7082845 L19.5916043,18.7844836 L19.5613176,18.8601182 L19.5355177,18.9391395 L19.4940137,19.0153386 L19.4575574,19.0915377 L19.4182968,19.1592702 L19.3812796,19.2354693 L19.333606,19.3032018 L19.2842499,19.3703698 L19.1799288,19.5052704 L19.0655122,19.6300111 L18.961752,19.7649117 L18.8641613,19.8998123 L18.8187312,19.9669804 L18.7688142,20.0330196 L18.7323579,20.1007521 L18.6930973,20.1786445 L18.665054,20.2548436 L18.6347672,20.3310427 L18.619063,20.4078062 L18.5977501,20.4856986 L18.5893371,20.5709286 L18.5697068,20.6493855 L18.5697068,20.7346155 L18.5584895,20.8215389 L18.5584895,20.9084623 L18.5697068,20.9936924 L18.5803632,21.1675392 L18.5977501,21.3402571 L18.619063,21.5146683 L18.6476671,21.6862574 L18.6824408,21.8499443 L18.723384,22.0130667 L18.7491838,22.1852202 L18.8271442,22.5041275 L18.9028611,22.8303724 L18.9421217,22.9940593 L18.970165,23.1464574 L18.9982083,23.3095799 L19.028495,23.4732668 L19.0458819,23.6363893 L19.0655122,23.7995118 L19.0739252,23.9722297 L19.0845816,24.1353521 L19.0957989,24.299039 L19.0957989,24.4734503 L19.1042119,24.6365727 L19.0957989,24.8092906 L19.0957989,24.9724131 L19.0845816,25.1440021 L19.0739252,25.3076891 L19.0655122,25.4821003 L19.0458819,25.6457872 L19.0374689,25.8179406 L19.0178386,25.9810631 L18.9982083,26.14475 L18.970165,26.3078725 L18.9505347,26.4794615 L18.9247349,26.6437129 L18.8944481,26.8068353 L18.857431,26.9705222 L18.8187312,27.1336447 L18.7906879,27.2973316 L18.7407709,27.4604541 L18.7015103,27.624141 L18.6560801,27.7782325 L18.619063,27.9419194 L18.5584895,28.1050418 L18.4637031,28.4216913 L18.3509691,28.7394697 L18.2337482,29.0555548 L18.0065975,29.6803872 L17.8899374,29.9964723 L17.7861772,30.3148151 L17.6796127,30.6309001 L17.6341826,30.7849916 L17.5848264,30.9486785 L17.5371528,31.1016411 L17.4631185,31.427886 L17.4328317,31.5915729 L17.3963755,31.7546954 L17.3745017,31.9183823 L17.3464584,32.0815048 L17.3290716,32.2451917 L17.3077587,32.4173452 L17.2987848,32.5810321 L17.289811,32.7441545 L17.2791545,32.9185658 L17.2791545,33.4259952 L17.289811,33.5896821 L17.2987848,33.7640933 L17.3200977,33.9356823 L17.3352411,34.0993692 L17.3745017,34.2630561 L17.402545,34.4267431 L17.4502186,34.5898655 L17.5001356,34.7422637 L17.5304224,34.8207205 L17.5562222,34.8969196 L17.5977263,34.9731187 L17.6341826,35.0515755 L17.707656,35.1955071 L17.7861772,35.3394387 L17.8809635,35.4743393 L17.9763107,35.6069821 L18.0739014,35.7424471 L18.1776616,35.8773477 L18.2836652,36.0122483 L18.4917464,36.2809206 L18.7015103,36.5399975 L18.9028611,36.8188296 L19.1042119,37.0779065 L19.208533,37.2128071 L19.3145366,37.3375478 L19.4311967,37.4617241 L19.5355177,37.5875937 L19.6476909,37.7033034 L19.7710814,37.8184486 L19.8967153,37.914403 L20.0201058,38.0193884 L20.2887606,38.2112972 L20.5658283,38.4026416 L20.6976317,38.5008537 L20.8322395,38.6052747 L20.9662865,38.7119534 L21.089677,38.8276631 L21.1569809,38.8841068 L21.2153109,38.9518394 L21.273641,39.0088476 L21.2910278,39.0477938 L21.3190711,39.0867399 L21.3409449,39.1149618 L21.3476752,39.1522147 L21.3667447,39.1917253 L21.377962,39.2306715 L21.386375,39.2679244 L21.3953488,39.3159016 L21.3953488,39.393794 L21.386375,39.4417712 L21.386375,39.4790241 L21.3667447,39.5665119 L21.3409449,39.6534353 L21.3000016,39.7296344 L21.2629845,39.8058335 L21.2153109,39.873566 L21.1676373,39.9407341 L21.1177203,40 L15.5494443,40 L15.3587499,39.8842903 L15.2723766,39.8165578 L15.1876858,39.7493897 L15.1013125,39.6816572 L15.0536389,39.642711 L15.0166217,39.6139247 L14.9801655,39.5772362 L14.9386614,39.5270013 L14.8999617,39.4897484 L14.8719184,39.4508022 L14.8326578,39.402825 L14.8046145,39.3548478 L14.7788146,39.3068706 L14.7485279,39.2588934 L14.7288976,39.2109162 L14.7115107,39.162939 L14.6901978,39.1149618 L14.6705675,39.0568248 L14.6615937,38.9998166 L14.6531807,38.9518394 L14.6442068,38.8931378 L14.6442068,38.8361297 L14.6335504,38.7300154 L14.6335504,38.5008537 L14.6223331,38.385144 L14.6223331,38.2784653 L14.6139201,38.2220215 L14.6077506,38.1740443 L14.5948506,38.1153428 L14.5774638,38.0673656 L14.55559,38.0193884 L14.5404467,37.9714112 L14.5101599,37.923434 L14.4798731,37.8754568 L14.4518299,37.8274796 L14.3755521,37.7512806 L14.330122,37.7123344 L14.2785223,37.6835481 L14.2330922,37.6553262 L14.1831751,37.6248465 L14.137745,37.6050912 L14.0317413,37.557114 L13.9840678,37.5294566 L13.9363942,37.5006703 L13.890964,37.4724484 L13.8690903,37.4526931 L13.84946,37.4335022 L13.8303905,37.4137469 L13.8236601,37.3956849 L13.8023472,37.376494 L13.7911299,37.3482721 L13.7737431,37.3285168 L13.7630866,37.2980372 L13.7630866,37.2698153 L13.7563562,37.2415934 L13.7563562,37.2128071 L13.7440172,37.1845852 L13.7440172,37.1258837 L13.7563562,37.0976618 L13.7563562,37.0694399 L13.7630866,37.0389603 L13.7737431,37.0214627 L13.7827169,36.9909831 L13.7911299,36.9627612 L13.8023472,36.9430059 L13.8236601,36.9232506 L13.8606773,36.8752734 L13.8971335,36.838585 L13.9734113,36.7510971 L14.012111,36.7115865 L14.0508108,36.674898 L14.0620281,36.6551427 L14.0794149,36.6269209 L14.0878279,36.60773 L14.1074582,36.5879747 L14.1158712,36.5597528 L14.129332,36.5399975 L14.137745,36.4829893 L14.146158,36.4350121 L14.1551318,36.3763106 L14.1551318,36.2611653 L14.1657883,36.0297459 L14.1657883,35.8011486 L14.1747621,35.5702936 L14.1747621,35.3479052 L14.1831751,35.128339 L14.196075,34.9053861 L14.2050489,34.6858199 L14.2134619,34.2540251 L14.2330922,33.8205371 L14.2415052,33.3893067 L14.2633789,32.9552542 L14.2633789,31.7546954 L14.250479,31.6508389 L14.250479,31.5351292 L14.2415052,31.427886 L14.2330922,31.3127408 L14.2134619,31.2077554 L14.196075,31.1016411 L14.1747621,30.9859314 L14.146158,30.880946 L14.1158712,30.7849916 L14.0794149,30.6788773 L14.0401543,30.5738919 L14.0031372,30.4779375 L13.953781,30.3712588 L13.9061074,30.2753044 L13.84946,30.1799145 L13.8023472,30.0732358 L13.7440172,29.9772814 L13.6896132,29.881327 L13.6290397,29.7944036 L13.5723922,29.6984492 L13.5056492,29.6024948 L13.3839413,29.4213103 L13.2566248,29.2384326 L13.1248213,29.0555548 L12.9902135,28.872677 L12.7215588,28.5086147 L12.6004117,28.3257369 L12.4747778,28.1507613 L12.3491439,27.9599814 L12.2953007,27.8741869 L12.2347272,27.7782325 L12.1786406,27.6913091 L12.1197497,27.5953547 L12.072637,27.4994003 L12.026646,27.4040103 L11.9772898,27.3080559 L11.9296162,27.2098438 L11.8925991,27.1138894 L11.8555819,27.0184994 L11.8146387,26.913514 L11.7888389,26.8175597 L11.7473348,26.7114454 L11.729948,26.60646 L11.6996612,26.5082478 L11.6805918,26.4038269 L11.6632049,26.2971482 L11.6435746,26.1814385 L11.6329182,26.0770175 L11.6239443,25.9725966 L11.6155314,25.8568868 L11.6048749,25.7496437 L11.595901,25.6344984 L11.595901,24.8369481 L11.6048749,24.7218028 L11.6155314,24.6060931 L11.6239443,24.5016721 L11.6329182,24.3859624 L11.6542311,24.2792837 L11.6716179,24.2222755 L11.6805918,24.1742983 L11.6996612,24.1161613 L11.7125611,24.0681841 L11.729948,24.0202069 L11.7473348,23.9631987 L11.7669651,23.9152215 L11.7950084,23.8678087 L11.8146387,23.8282981 L11.842682,23.7803209 L11.8729688,23.7323437 L11.9010121,23.6933975 L11.9402727,23.6454203 L11.968316,23.6087318 L12.0356199,23.5297106 L12.1113367,23.4450449 L12.265014,23.2898246 L12.3407309,23.2136255 L12.4164478,23.1267021 L12.4921646,23.0420365 L12.5331078,23.0025259 L12.5594685,22.9545487 L12.5897553,22.9065715 L12.6262116,22.8676253 L12.6548157,22.8196481 L12.6851025,22.7632043 L12.7041719,22.7152271 L12.7350195,22.6672499 L12.7518455,22.607984 L12.7714758,22.5515402 L12.7804497,22.4928387 L12.7888627,22.4358305 L12.8017626,22.377129 L12.8017626,22.2444862 L12.7888627,22.2140065 L12.7804497,22.196509 L12.7804497,22.1660293 L12.7714758,22.1485318 L12.7518455,22.1180521 L12.7411891,22.0982968 L12.7350195,22.0807992 L12.6935155,22.0412886 L12.6548157,21.9938759 L12.6177986,21.9650895 L12.5790988,21.9261433 L12.5331078,21.8871971 L12.444491,21.8217224 L12.3990609,21.7822117 L12.3626046,21.7432656 L12.3126876,21.7060127 L12.2824008,21.6580355 L12.2453837,21.6190893 L12.2195838,21.5711121 L12.1977101,21.5231349 L12.1786406,21.4751577 L12.1612538,21.4164562 L12.13938,21.368479 L12.130967,21.3114708 L12.130967,21.2533337 L12.1197497,21.1963255 L12.1197497,21.024172 L12.130967,20.9654705 L12.130967,20.9084623 L12.13938,20.8497608 L12.15228,20.7927526 L12.1612538,20.7346155 L12.1786406,20.6776073 L12.2066839,20.5618976 L12.2347272,20.4557834 L12.265014,20.350798 L12.273427,20.3028208 L12.2824008,20.2441193 L12.2824008,20.1961421 L12.2953007,20.1396983 L12.2953007,20.0917211 L12.2824008,20.0330196 L12.2824008,19.9760114 L12.273427,19.9280342 L12.265014,19.8698971 L12.2453837,19.8219199 L12.2195838,19.7079035 L12.1870536,19.6012248 L12.1612538,19.4968039 L12.0849761,19.282882 L12.018233,19.0717824 L11.9402727,18.871407 L11.9010121,18.7647283 L11.8623123,18.6687739 L11.8252952,18.5643529 L11.779865,18.4683985 L11.6048749,18.0653901 L11.5572013,17.9587114 L11.5201842,17.8514682 L11.4809236,17.7555138 L11.4422238,17.6516573 L11.4074501,17.5444142 L11.3771634,17.4484598 L11.3468766,17.3440388 L11.3272463,17.2367957 L11.299203,17.1329392 L11.2902292,17.025696 L11.2734032,16.9212751 L11.2605033,16.8145964 L11.2515294,16.6988866 L11.2431164,16.5944657 L11.2318991,16.487787 L11.2318991,16.0452679 L11.2431164,15.9408469 L11.2431164,15.8251372 L11.2515294,15.7207163 L11.2605033,15.605571 L11.2734032,15.4983279 L11.299203,15.2674729 L11.3272463,15.0479066 L11.3665069,14.8164872 L11.4074501,14.596921 L11.4809236,14.1431132 L11.4809236,10.8095446 L11.4702671,10.7243146 L11.4618541,10.6373912 L11.4422238,10.5414368 L11.4225935,10.4629799 L11.3855764,10.3783143 L11.3468766,10.3015508 L11.3104203,10.2236584 L11.2515294,10.1474593 L11.1931994,10.0797268 L11.1387954,10.0227186 L11.0720524,9.96458154 L10.994092,9.91660434 L10.9183751,9.86862715 L10.8404148,9.82911651 L10.755724,9.79186363 L10.6777637,9.77267275 L10.5958773,9.75291744 L10.5072605,9.74388644 L10.4119133,9.73372656 L10.3272225,9.74388644 L10.2386057,9.75291744 L10.153915,9.77267275 L10.0675417,9.79186363 L9.99182477,9.82911651 L9.90489057,9.86862715 L9.82917368,9.91660434 L9.76186978,9.96458154 L9.69512675,10.0227186 L9.62782285,10.0797268 L9.5694928,10.1474593 L9.5218192,10.2236584 L9.47638907,10.3015508 L9.43937193,10.3783143 L9.40908517,10.4629799 L9.37879842,10.5414368 L9.35972898,10.6373912 L9.35075513,10.7243146 L9.35075513,14.1431132 L9.33112482,14.5771657 L9.30532499,15.008396 L9.29410768,15.2194957 L9.28345123,15.4418841 L9.27503824,15.6620148 L9.27503824,15.8731144 L9.26662525,16.0955028 L9.25540794,16.3156335 L9.25540794,16.9777188 L9.24475148,17.0934285 L9.24475148,17.315817 L9.23802109,17.4202379 L9.23802109,17.4766817 L9.22736464,17.5359476 L9.22736464,17.5923914 L9.21670819,17.6403686 L9.21670819,17.6990701 L9.20773434,17.7470473 L9.19932135,17.803491 L9.18810404,17.862757 L9.17969105,17.9107342 L9.17127806,17.967178 L9.16230421,18.0151551 L9.14940429,18.0738567 L9.13201745,18.1218339 L9.121361,18.1698111 L9.10397416,18.2262548 L9.08210039,18.274232 L9.06471355,18.3222092 L9.04564411,18.3724442 L9.02825727,18.4294524 L8.99797052,18.4774296 L8.97834022,18.5254067 L8.96095337,18.5728195 L8.90262333,18.6687739 L8.80503267,18.8601182 L8.74894609,18.9583304 L8.70127249,19.0633158 L8.68164219,19.111293 L8.65584236,19.1592702 L8.6339686,19.2072474 L8.61489916,19.2552246 L8.59526885,19.3133616 L8.57788201,19.3613388 L8.55825171,19.409316 L8.5386214,19.4663242 L8.53020842,19.5143014 L8.51282158,19.5622786 L8.49992166,19.6209801 L8.48029136,19.6689573 L8.46290452,19.7739427 L8.43261776,19.880057 L8.41747438,19.9957667 L8.38718763,20.1007521 L8.36811819,20.1481649 L8.35690087,20.2068664 L8.33727057,20.2548436 L8.32885758,20.3118518 L8.30922728,20.359829 L8.28959698,20.4078062 L8.27052754,20.4665077 L8.2531407,20.5144849 L8.23351039,20.5709286 L8.2054671,20.6189058 L8.16676736,20.7255845 L8.07142017,20.9287821 L8.03215956,21.024172 L8.00411627,21.0806158 L7.96485566,21.1765702 L7.94802968,21.2352717 L7.92839938,21.2832489 L7.91101254,21.3312261 L7.89811263,21.3882343 L7.88072578,21.4362115 L7.86109548,21.4943486 L7.85043903,21.5423258 L7.84370864,21.590303 L7.83080873,21.6473112 L7.82183487,21.7060127 L7.82183487,21.7539899 L7.81342189,21.8104336 L7.81342189,21.9741205 L7.82183487,21.9938759 L7.82183487,22.0503196 L7.83080873,22.0807992 L7.83080873,22.1090211 L7.84370864,22.137243 L7.84370864,22.1569983 L7.85043903,22.1852202 L7.86109548,22.2140065 L7.86109548,22.2444862 L7.87006933,22.2619837 L7.88072578,22.2924633 L7.88969964,22.3201208 L7.89811263,22.3398761 L7.91101254,22.368098 L7.92839938,22.3878533 L7.93681237,22.4160752 L7.94802968,22.4358305 L7.95644267,22.4640524 L7.97831644,22.4838077 L8.00411627,22.5317849 L8.03215956,22.5797621 L8.06020285,22.6192727 L8.09946346,22.6672499 L8.12750675,22.7039384 L8.16676736,22.7428846 L8.19424978,22.7908618 L8.23351039,22.8303724 L8.27052754,22.8676253 L8.30922728,22.9156025 L8.46290452,23.0696939 L8.5386214,23.1571818 L8.57788201,23.1944346 L8.61489916,23.2333808 L8.65584236,23.281358 L8.68164219,23.3186109 L8.7225854,23.3665881 L8.74894609,23.4055343 L8.7898893,23.4535115 L8.81568912,23.4924577 L8.84429328,23.5404349 L8.87233657,23.5884121 L8.89421034,23.6363893 L8.92001017,23.6843665 L8.93964047,23.7323437 L8.96992723,23.7803209 L8.98731407,23.8282981 L9.00638351,23.887564 L9.02825727,23.9355412 L9.04564411,23.9835184 L9.0540571,24.0393977 L9.07368741,24.0873749 L9.08210039,24.1466409 L9.10397416,24.1946181 L9.11238715,24.2510618 L9.121361,24.3097634 L9.13201745,24.3577406 L9.14043044,24.4141843 L9.14940429,24.4734503 L9.16230421,24.529894 L9.16230421,24.5778712 L9.17127806,24.6365727 L9.17969105,24.6930165 L9.17969105,24.8092906 L9.18810404,24.86517 L9.18810404,25.3189778 L9.17969105,25.4341231 L9.17969105,25.538544 L9.17127806,25.6542537 L9.16230421,25.7699635 L9.14940429,25.8743844 L9.13201745,25.9895297 L9.121361,26.0967728 L9.10397416,26.2011938 L9.08210039,26.3163391 L9.06471355,26.4235822 L9.04564411,26.5274387 L9.01760082,26.6346819 L8.98731407,26.7391028 L8.97834022,26.7983688 L8.96095337,26.846346 L8.95029692,26.9022253 L8.93066662,26.9502025 L8.92001017,26.9981797 L8.90262333,27.0574456 L8.88299302,27.1054228 L8.86336272,27.1534 L8.84429328,27.2098438 L8.82690644,27.257821 L8.80503267,27.3080559 L8.7898893,27.3560331 L8.76801553,27.4124769 L8.74894609,27.4604541 L8.72931579,27.5084313 L8.70968548,27.5564085 L8.68164219,27.6043857 L8.66201189,27.6523629 L8.64294245,27.7003401 L8.61489916,27.7483173 L8.56722556,27.8437072 L8.52123456,27.9419194 L8.46290452,28.0378738 L8.41747438,28.1338282 L8.35690087,28.2190582 L8.30081429,28.3144482 L8.24192338,28.401936 L8.1858368,28.4978904 L8.12750675,28.5938448 L8.01477272,28.7767226 L7.88969964,28.9596004 L7.77696561,29.1424782 L7.71807469,29.2384326 L7.65133166,29.3236626 L7.60365806,29.4213103 L7.54532802,29.5172647 L7.48868057,29.6132191 L7.43259399,29.7091735 L7.38267693,29.8051279 L7.32883381,29.9010823 L7.27891675,29.9964723 L7.23124315,30.103151 L7.18132609,30.1991054 L7.16393925,30.2561136 L7.14430895,30.3040908 L7.11626566,30.352068 L7.09663535,30.4000452 L7.07756592,30.4581822 L7.06017907,30.5061594 L7.03830531,30.5631676 L7.018675,30.6111448 L7.00184903,30.659122 L6.98446219,30.7178235 L6.97156227,30.7658007 L6.95585803,30.8228089 L6.93454513,30.8707861 L6.92613214,30.9210211 L6.90650184,30.9769004 L6.89584539,31.0248776 L6.889115,31.0818858 L6.86724123,31.129863 L6.85882824,31.1885645 L6.84817179,31.2365417 L6.83919794,31.2929855 L6.82854149,31.3409626 L6.8218111,31.3996642 L6.8218111,31.4476414 L6.80891118,31.5046496 L6.8004982,31.5633511 L6.8004982,31.6113283 L6.79152434,31.667772 L6.79152434,31.7744507 L6.78086789,31.8794361 L6.78086789,32.0905358 L6.77189404,32.1972145 L6.77189404,32.8598643 L6.76123759,32.966543 L6.76123759,33.1386964 L6.75506806,33.1973979 L6.75506806,33.2538417 L6.74609421,33.3018189 L6.7331943,33.3588271 L6.7331943,33.4169642 L6.72422044,33.4739724 L6.71356399,33.5332383 L6.69449455,33.648948 L6.68776416,33.7640933 L6.6658904,33.879803 L6.6378471,33.9949483 L6.59914736,34.2235455 L6.58344312,34.3392552 L6.56213022,34.4544005 L6.55371723,34.5701102 L6.54249991,34.6288117 L6.53184346,34.6858199 L6.52286961,34.7337971 L6.52286961,34.7902409 L6.51670008,34.8495068 L6.51670008,34.9053861 L6.50380017,34.9646521 L6.50380017,35.3394387 L6.51670008,35.3958824 L6.51670008,35.4438596 L6.52286961,35.5025611 L6.53184346,35.5505383 L6.54249991,35.6069821 L6.55371723,35.6549593 L6.56213022,35.7029365 L6.58344312,35.7622024 L6.59914736,35.8101796 L6.60980381,35.8581568 L6.62943412,35.906134 L6.65747741,35.9541112 L6.67879031,36.0020884 L6.705151,36.0500656 L6.72422044,36.0980428 L6.75506806,36.1448911 L6.79152434,36.1849662 L6.8218111,36.2329434 L6.889115,36.3198668 L6.91715829,36.367844 L6.95585803,36.4158212 L6.98446219,36.4637984 L6.99287518,36.4829893 L7.01026202,36.5004868 L7.018675,36.5309665 L7.02989232,36.548464 L7.05120522,36.5789437 L7.06017907,36.598699 L7.06859206,36.6269209 L7.06859206,36.6551427 L7.07756592,36.674898 L7.0859789,36.7031199 L7.0859789,36.7618214 L7.09663535,36.7900433 L7.09663535,36.838585 L7.0859789,36.8668068 L7.0859789,36.9232506 L7.07756592,36.9537302 L7.07756592,36.9819521 L7.06859206,37.0017074 L7.06017907,37.0299293 L7.05120522,37.0587156 L7.03830531,37.0863731 L7.02989232,37.1066928 L7.01026202,37.1343503 L7.00184903,37.1648299 L6.98446219,37.1845852 L6.97156227,37.2128071 L6.95585803,37.2325624 L6.92613214,37.2805396 L6.89584539,37.3285168 L6.86724123,37.376494 L6.84817179,37.3956849 L6.83919794,37.4244712 L6.8218111,37.4436621 L6.80891118,37.4617241 L6.8004982,37.4916393 L6.78086789,37.5113946 L6.77189404,37.5396165 L6.77189404,37.557114 L6.76123759,37.5875937 L6.75506806,37.61638 L6.75506806,37.6643572 L6.74609421,37.6925791 L6.74609421,37.7123344 L6.75506806,37.7405563 L6.75506806,37.7992578 L6.76123759,37.8274796 L6.76123759,37.856266 L6.77189404,37.8754568 L6.77189404,37.9036787 L6.78086789,37.932465 L6.8004982,37.9911666 L6.8218111,38.0476103 L6.85882824,38.154289 L6.86724123,38.2112972 L6.889115,38.2592744 L6.89584539,38.2891896 L6.89584539,38.3179759 L6.90650184,38.3371668 L6.91715829,38.3653887 L6.91715829,38.394175 L6.92613214,38.4133659 L6.92613214,38.5488309 L6.91715829,38.5663285 L6.91715829,38.5860838 L6.90650184,38.615999 L6.90650184,38.634061 L6.89584539,38.6532519 L6.889115,38.6730072 L6.87621508,38.6921981 L6.85882824,38.7300154 L6.84817179,38.7492063 L6.83919794,38.7599306 L6.82854149,38.7791215 L6.80891118,38.7971835 L6.8004982,38.8169388 L6.77189404,38.8451607 L6.75506806,38.864916 L6.7331943,38.8841068 L6.71356399,38.9038622 L6.69449455,38.9128932 L6.67879031,38.932084 L6.65747741,38.9518394 L6.6378471,38.9608704 L6.62046026,38.9800612 L6.59914736,38.9998166 L6.5705432,39.0088476 L6.55371723,39.0280384 L6.52286961,39.0477938 L6.50380017,39.0568248 L6.47575688,39.0760156 L6.44939619,39.095771 L6.42808328,39.1042375 L6.40003999,39.1239928 L6.36975324,39.1437481 L6.34114908,39.1522147 L6.31534925,39.17197 L6.2850625,39.1917253 L6.25701921,39.2001919 L6.2177586,39.2199472 L6.18971531,39.2397025 L6.15942855,39.2498624 L6.13138526,39.2679244 L6.06408136,39.3068706 L5.99733833,39.3356569 L5.92106057,39.3746031 L5.85431754,39.4141138 L5.77860065,39.4508022 L5.70288376,39.4897484 L5.62436255,39.5270013 L5.54864566,39.5772362 L5.47292877,39.6139247 L5.31925154,39.7014125 L5.24353465,39.7493897 L5.15940478,39.7866426 L5.12911802,39.8058335 L5.09210088,39.8255888 L5.05284027,39.8447797 L5.01414052,39.864535 L4.97487992,39.8842903 L4.94683663,39.9017879 L4.90813688,39.9215432 L4.88009359,39.9407341 L4.84531991,39.9604894 L4.81278969,39.9695204 L4.78698986,39.9887112 L4.75670311,40 L0.420088507,40 L0.343810754,39.9497651 L0.305111012,39.9322675 L0.27706772,39.9017879 L0.237807112,39.873566 L0.209763821,39.8447797 L0.183963992,39.8165578 L0.151433774,39.7866426 L0.13180347,39.7493897 L0.116660093,39.7206034 L0.0953471912,39.6816572 L0.0757168871,39.642711 L0.0667430338,39.6054581 L0.0476735956,39.5574809 L0.0370171448,39.5185347 L0.0370171448,39.4790241 L0.0213129016,39.3830697 L0.00841298746,39.2978396 L0,39.2109162 L0,39.0370694 L0.00841298746,38.9890922 L0.00841298746,38.9518394 L0.0213129016,38.9038622 L0.0213129016,38.864916 L0.0280432915,38.8276631 L0.0370171448,38.7791215 L0.0583300464,38.7401753 L0.0667430338,38.7119534 L0.0841298746,38.6730072 L0.0953471912,38.634061 L0.116660093,38.5968081 L0.143020787,38.5663285 L0.162090225,38.5381066 L0.19237698,38.5008537 L0.209763821,38.4703741 L0.237807112,38.4421522 L0.265850404,38.4133659 L0.294454561,38.385144 L0.333154303,38.3653887 L0.361197595,38.3371668 L0.430744958,38.2891896 L0.497487992,38.2304881 L0.573765745,38.1932352 L0.649482632,38.145258 L0.725199519,38.0955875 L0.887289744,38.0103574 L0.963006631,37.9623802 L1.04321044,37.914403 L1.11668387,37.8664258 L1.18398777,37.8184486 L1.25970466,37.7682137 L1.32700856,37.7208009 L1.39375159,37.6643572 L1.46105549,37.6050912 L1.5199464,37.5486475 L1.58668943,37.4916393 L1.64501948,37.4335022 L1.69942347,37.376494 L1.75775351,37.3087615 L1.8138401,37.2506244 L1.92881759,37.1258837 L2.03482123,36.9909831 L2.25355891,36.7319062 L2.47454004,36.4722649 L2.57830022,36.3480887 L2.6820604,36.2131881 L2.78862491,36.0777231 L2.89462855,35.9450802 L2.94454561,35.8773477 L2.98997574,35.8101796 L3.03764934,35.7334161 L3.08532293,35.666248 L3.12177921,35.5877912 L3.16945281,35.5223165 L3.20815255,35.4438596 L3.24965662,35.3676605 L3.27545645,35.2914615 L3.31696052,35.2152624 L3.34276035,35.1362411 L3.37080364,35.0606065 L3.39884693,34.9731187 L3.42913369,34.8969196 L3.45717698,34.8094318 L3.47680728,34.7337971 L3.49643759,34.6463093 L3.51382443,34.5616436 L3.53289387,34.4826224 L3.55476763,34.3979567 L3.57215447,34.2235455 L3.59178478,34.1388799 L3.60917162,33.9644687 L3.60917162,33.8877051 L3.62207153,33.8007817 L3.62207153,33.7161161 L3.63048452,33.6286283 L3.63048452,33.3701159 L3.62207153,33.1973979 L3.60917162,33.0342755 L3.59178478,32.8598643 L3.57215447,32.6961773 L3.55476763,32.5240239 L3.52448088,32.360337 L3.49643759,32.1887479 L3.46615083,32.0256255 L3.42913369,31.8619386 L3.39884693,31.6875273 L3.36239065,31.5238404 L3.32313005,31.360718 L3.27545645,31.1970311 L3.23675671,31.0339086 L3.15206597,30.6980682 L3.06569263,30.3712588 L2.97034544,30.0444495 L2.77965106,29.401555 L2.58671321,28.7479363 L2.49192689,28.4301579 L2.40723614,28.1050418 L2.30964549,27.7782325 L2.27318921,27.61511 L2.23617207,27.4519875 L2.19522886,27.2883006 L2.16045518,27.1251782 L2.11951197,26.9614912 L2.09371215,26.7983688 L2.05220807,26.6233931 L2.02640825,26.4602706 L1.99612149,26.2971482 L1.97649119,26.1249947 L1.9484479,25.9613078 L1.92881759,25.7891543 L1.90918729,25.6147431 L1.9007743,25.4431541 L1.881144,25.2710006 L1.87048754,25.0960249 L1.87048754,24.9244359 L1.86151369,24.7500247 L1.86151369,24.5778712 L1.87048754,24.3949934 L1.87048754,24.2222755 L1.89011785,24.0393977 L1.9007743,23.85652 L1.9220872,23.6843665 L1.9484479,23.5014887 L1.95910435,23.4168231 L1.97649119,23.3293352 L1.99612149,23.2424118 L2.00453448,23.1571818 L2.02640825,23.0595341 L2.05220807,22.974304 L2.07183838,22.8958472 L2.09371215,22.8106171 L2.11951197,22.7236937 L2.14755527,22.6367703 L2.17784202,22.5600068 L2.20588531,22.4730834 L2.23617207,22.3968843 L2.27318921,22.3122187 L2.30347597,22.2331974 L2.33993224,22.1569983 L2.37694939,22.0807992 L2.41621,22.0023424 L2.45490974,21.9351743 L2.5048268,21.8584108 L2.55025693,21.7912428 L2.59793053,21.7150437 L2.64560412,21.6473112 L2.69327772,21.5801431 L2.7493643,21.5146683 L2.7970379,21.4554024 L2.85536794,21.3882343 L2.92267184,21.3312261 L2.98100189,21.2725246 L3.04830579,21.2155164 L3.18235272,21.1094021 L3.23675671,21.0523939 L3.26704346,21.024172 L3.29508675,20.9936924 L3.32313005,20.9564395 L3.35117334,20.9287821 L3.37080364,20.888707 L3.39043395,20.8497608 L3.41006425,20.8125079 L3.41847724,20.7645307 L3.42913369,20.7255845 L3.43810754,20.6776073 L3.43810754,20.590684 L3.42913369,20.5534311 L3.41847724,20.5144849 L3.41006425,20.4749742 L3.39043395,20.4467524 L3.36239065,20.4078062 L3.34276035,20.3790199 L3.31696052,20.350798 L3.27545645,20.3225761 L3.24965662,20.2920965 L3.20815255,20.2638746 L3.13299653,20.2158974 L3.05671878,20.1588892 L2.98100189,20.110912 L2.91369799,20.0522105 L2.8362985,19.9957667 L2.76899461,19.9370652 L2.70169071,19.880057 L2.63438681,19.8219199 L2.5721307,19.7649117 L2.51155719,19.6971792 L2.45490974,19.6300111 L2.39882316,19.5730029 L2.33993224,19.5052704 L2.29450211,19.4381024 L2.23617207,19.3703698 L2.18681587,19.3032018 L2.13914228,19.2354693 L2.09371215,19.1592702 L2.05220807,19.0915377 L2.00453448,19.0153386 L1.96751733,18.9476061 L1.9220872,18.871407 L1.881144,18.7952079 L1.84244425,18.7274754 L1.76672737,18.5728195 L1.69942347,18.4204214 L1.63211957,18.2657654 L1.56537653,18.102643 L1.50872908,17.9496804 L1.44142518,17.7865579 L1.3853386,17.631902 L1.32700856,17.4682151 L1.28157842,17.3050926 L1.22100491,17.1419702 L1.17333132,16.9777188 L1.13631417,16.8145964 L1.08920144,16.6509095 L1.04994083,16.487787 L1.0045107,16.3241001 L0.976467411,16.152511 L0.937206803,15.9888241 L0.909163511,15.8251372 L0.878876756,15.6535482 L0.848590002,15.4898613 L0.82054671,15.3154501 L0.803159869,15.1523276 L0.781286102,14.9796097 L0.766142725,14.8164872 L0.75324281,14.6443338 L0.744829823,14.4699225 L0.73585597,14.3068001 L0.725199519,14.1340822 L0.725199519,13.7993707 L0.716225666,13.6249594 L0.716225666,13.4522415 L0.725199519,13.2891191 L0.725199519,12.9425544 L0.73585597,12.6072784 L0.744829823,12.2720025 L0.774555712,11.5879041 L0.774555712,11.2520637 L0.781286102,10.9162233 L0.792503419,10.2434137 L0.803159869,9.89684903 L0.811572857,9.56100865 L0.82054671,9.22573271 L0.833446624,9.05132149 L0.841859612,8.88763458 L0.859246452,8.71604555 L0.869902903,8.55235864 L0.887289744,8.38020517 L0.896263597,8.20579395 L0.915333035,8.04210705 L0.946180656,7.87051801 L0.963006631,7.69836454 L0.993854252,7.52338888 L1.02189754,7.36026641 L1.04994083,7.18867738 L1.08920144,7.01426616 L1.12565772,6.85057925 L1.16435746,6.67842578 L1.21427452,6.51473888 L1.25970466,6.35161641 L1.28830881,6.26469302 L1.31859557,6.1879295 L1.34832146,6.10100611 L1.37468215,6.02480703 L1.40272544,5.94860796 L1.44142518,5.86112013 L1.47002934,5.78492105 L1.50872908,5.70928641 L1.54574623,5.63026514 L1.58668943,5.56535482 L1.62370658,5.48689799 L1.66072372,5.41013448 L1.69942347,5.3429664 L1.74709706,5.26620289 L1.79477066,5.19903481 L1.84244425,5.1313023 L1.89011785,5.06413422 L1.93779144,4.99640171 L2.03482123,4.86375887 L2.13914228,4.72829385 L2.24514592,4.59339326 L2.30347597,4.52566074 L2.3489061,4.46075042 L2.39882316,4.38172915 L2.4375229,4.31456108 L2.48295303,4.238362 L2.51997018,4.15087417 L2.55923078,4.0746751 L2.58671321,3.9877517 L2.60858698,3.95049882 L2.61756083,3.91155263 L2.62597382,3.86357543 L2.63438681,3.8240648 L2.64560412,3.78681192 L2.65457798,3.73883472 L2.66523443,3.69988852 L2.66523443,3.53676605 L2.65457798,3.48878886 L2.65457798,3.44984266 L2.64560412,3.41202534 L2.63438681,3.37307915 L2.61756083,3.32510195 L2.58671321,3.24890287 L2.55923078,3.1727038 L2.49192689,3.00901689 L2.42462299,2.84589442 L2.35731909,2.68220752 L2.29450211,2.51908505 L2.26421536,2.43216165 L2.23617207,2.35539814 L2.20588531,2.26847475 L2.18681587,2.19227567 L2.16045518,2.10535228 L2.14755527,2.02858876 L2.13016842,1.94166537 L2.11951197,1.85474198 L2.11053812,1.7785429 L2.10212513,1.70177939 L2.10212513,1.53865692 L2.11053812,1.45173353 L2.11951197,1.37497001 L2.13914228,1.29877094 L2.16045518,1.22031411 L2.17784202,1.14411503 L2.20588531,1.05888495 L2.23617207,0.980992564 L2.27318921,0.904793486 L2.30347597,0.828029972 L2.33993224,0.750137582 L2.38760584,0.673938505 L2.42462299,0.59717499 L2.47454004,0.530006914 L2.51155719,0.4532434 L2.60858698,0.299151932 L2.71290802,0.146189341 L2.80993781,0 L17.9482674,0 Z M5.47719101,3.80952381 L5.44860442,3.81834636 L5.39371816,3.81834636 L5.36284464,3.82882313 L5.33197112,3.83764568 L5.30338453,3.84646822 L5.28566084,3.86521614 L5.25707425,3.88451546 L5.23477671,3.89554364 L5.20619012,3.91208592 L5.18846643,3.94241342 L5.16674062,3.9589557 L5.15759291,3.98873179 L5.1375823,4.00582548 L5.12671939,4.03505016 L5.11985861,4.06317203 L5.11128263,4.09074249 L5.09756107,4.11886436 L5.09756107,4.26112792 L5.11128263,4.28869838 L5.11985861,4.31626884 L5.12671939,4.34439071 L5.14673,4.36313862 L5.16674062,4.39126049 L5.17931872,4.4100084 L5.19475548,4.43757886 L5.22620073,4.45687818 L5.24335269,4.4761775 L5.27479794,4.49492541 L5.29423682,4.50374796 L5.32511034,4.51477614 L5.46861503,4.6085157 L5.60583067,4.69122708 L5.74247458,4.77614409 L5.81965838,4.82301387 L5.87911849,4.86988365 L6.0157624,4.96362321 L6.08437022,5.01049299 L6.13982821,5.05736277 L6.2078643,5.11470933 L6.26789614,5.1610277 L6.32506932,5.21672002 L6.38452943,5.2635898 L6.44170262,5.32148777 L6.50344966,5.37662868 L6.55033167,5.43397524 L6.60064407,5.50014434 L6.64695435,5.55528526 L6.69555155,5.62090295 L6.73328585,5.68762346 L6.78416999,5.74276438 L6.82190429,5.81720461 L6.86135379,5.88282231 L6.89908809,5.94899141 L6.92996161,6.02563728 L6.96712418,6.08960075 L6.9979977,6.16624662 L7.035732,6.24068686 L7.06431859,6.3151271 L7.09519211,6.39177298 L7.12606563,6.46676462 L7.17237591,6.61509369 L7.23183602,6.76673121 L7.2781463,6.91561169 L7.33131736,7.07496894 L7.35818875,7.15161482 L7.37762764,7.22660647 L7.38677535,7.2646537 L7.39535132,7.3004953 L7.39535132,7.47970328 L7.38677535,7.50727374 L7.38677535,7.52657306 L7.37762764,7.54587238 L7.36905166,7.56462029 L7.35818875,7.58391961 L7.34675412,7.60046189 L7.33817814,7.61976121 L7.33131736,7.63078939 L7.31816752,7.63961194 L7.30044384,7.65835985 L7.28958093,7.65835985 L7.26957032,7.66663099 L7.26328127,7.67765917 L7.21239713,7.67765917 L7.19467345,7.66663099 L7.17237591,7.66663099 L7.15293702,7.65835985 L7.13292641,7.65835985 L7.1129158,7.64733167 L7.09519211,7.63961194 L7.07518149,7.63078939 L7.02658429,7.61149007 L6.98942172,7.58391961 L6.89908809,7.53484419 L6.85277781,7.50727374 L6.81504351,7.47970328 L6.77330708,7.46040396 L6.72470988,7.4328335 L6.68468865,7.41353418 L6.64695435,7.39423485 L6.60064407,7.37493553 L6.55890764,7.3666644 L6.51945815,7.34736508 L6.48172385,7.33909394 L6.44170262,7.32034603 L6.40454005,7.31152348 L6.36680575,7.3004953 L6.32506932,7.29222416 L6.28561983,7.28174738 L6.24788552,7.28174738 L6.17070173,7.27347625 L6.09351793,7.2646537 L6.0157624,7.25362552 L5.9368634,7.25362552 L5.85739268,7.24535438 L5.38056833,7.24535438 L5.30338453,7.25362552 L5.21476609,7.25362552 L5.1375823,7.2646537 L5.05182252,7.27347625 L4.97463872,7.28174738 L4.89459626,7.29222416 L4.80654956,7.3004953 L4.73165269,7.32034603 L4.64131906,7.32861716 L4.56356353,7.34736508 L4.48466454,7.3666644 L4.40690901,7.39423485 L4.32972521,7.41353418 L4.25254141,7.44110463 L4.17307068,7.47088073 L4.09588689,7.4990026 L4.01870309,7.52657306 L3.94151929,7.55414352 L3.86433549,7.58391961 L3.79572767,7.61976121 L3.71625695,7.64733167 L3.64764913,7.68648172 L3.57961304,7.72452895 L3.51100522,7.75209941 L3.43382142,7.79014664 L3.3652136,7.83701642 L3.29717751,7.87285802 L3.25715628,7.89270875 L3.21999371,7.9197278 L3.18912019,7.93957853 L3.15138589,7.96659758 L3.11136466,7.99692508 L3.08277807,8.02449554 L3.05419148,8.05261741 L3.03646779,8.07136532 L3.02331796,8.07963646 L3.01474198,8.09893578 L3.00559427,8.1182351 L2.99473137,8.13753442 L2.98615539,8.15628233 L2.97472075,8.16510488 L2.97472075,8.20315211 L2.96785997,8.2202458 L2.96785997,8.26711558 L2.97472075,8.28586349 L2.97472075,8.30571422 L2.98615539,8.32446213 L2.99473137,8.34376145 L2.99473137,8.36306078 L3.00559427,8.37960305 L3.02331796,8.39945378 L3.03646779,8.41820169 L3.04332857,8.42647283 L3.06276746,8.44632356 L3.07420209,8.45680033 L3.09192578,8.47334261 L3.11136466,8.48437079 L3.1227993,8.49264193 L3.14052299,8.50367011 L3.15996187,8.50367011 L3.17997248,8.51194125 L3.1999831,8.51194125 L3.21999371,8.52021239 L3.41609773,8.52021239 L3.46240801,8.51194125 L3.50242924,8.51194125 L3.53959181,8.50367011 L3.57961304,8.49264193 L3.62134946,8.48437079 L3.65908376,8.47334261 L3.69853326,8.46507147 L3.77400186,8.44632356 L3.85347259,8.41820169 L3.93008465,8.39063123 L4.01012711,8.36306078 L4.1536318,8.30571422 L4.29885169,8.23954512 L4.45779314,8.1844042 L4.52640096,8.14580556 L4.60358476,8.1182351 L4.68076856,8.09066464 L4.75795235,8.07136532 L4.84599906,8.04379486 L4.92375459,8.02449554 L5.00093839,8.00574763 L5.07812218,7.98644831 L5.16674062,7.96659758 L5.24335269,7.95887785 L5.32511034,7.94784967 L5.40915492,7.93957853 L5.48862564,7.93075598 L5.56809637,7.9197278 L5.79964776,7.9197278 L5.8882662,7.93075598 L5.95630229,7.93075598 L6.03405782,7.93957853 L6.11066988,7.95887785 L6.18842541,7.96659758 L6.26789614,7.98644831 L6.34507994,8.00574763 L6.42226373,8.02449554 L6.50344966,8.04379486 L6.58749424,8.06033714 L6.66925189,8.09066464 L6.74643569,8.10720692 L6.83276719,8.13753442 L6.91223792,8.16510488 L6.9979977,8.19267534 L7.0843292,8.23072257 L7.12606563,8.23954512 L7.16379993,8.25884444 L7.20153423,8.27814376 L7.22097311,8.28586349 L7.24098373,8.29689167 L7.25013144,8.316191 L7.26957032,8.32446213 L7.2781463,8.33273327 L7.28958093,8.352584 L7.30959155,8.36306078 L7.30959155,8.37960305 L7.31816752,8.39945378 L7.33131736,8.40993055 L7.33131736,8.42647283 L7.33817814,8.44632356 L7.33817814,8.56708217 L7.33131736,8.60568081 L7.31816752,8.65255059 L7.30959155,8.7374676 L7.28958093,8.81245925 L7.2781463,8.89737627 L7.26328127,8.9718165 L7.24098373,9.04570533 L7.23183602,9.12290262 L7.21239713,9.19734286 L7.19467345,9.2717831 L7.17237591,9.34622333 L7.15293702,9.42286921 L7.13292641,9.49786086 L7.10433982,9.5723011 L7.0843292,9.64839556 L7.05802954,9.72338721 L7.02658429,9.79782745 L6.98942172,9.88274446 L6.9585482,9.9571847 L6.93853758,9.99523193 L6.9208139,10.0316249 L6.88994038,10.0702236 L6.8705015,10.097794 L6.85277781,10.1358413 L6.82190429,10.1738885 L6.80189368,10.2020104 L6.77330708,10.2295808 L6.74643569,10.2577027 L6.72470988,10.2847217 L6.69555155,10.3144978 L6.65610206,10.3337972 L6.62751546,10.3514423 L6.60064407,10.3701902 L6.55890764,10.3894895 L6.51945815,10.398312 L6.49029982,10.41706 L6.45085033,10.4275367 L6.41311603,10.4275367 L6.37366653,10.4363593 L6.32506932,10.4451818 L6.28561983,10.4451818 L6.2078643,10.4551072 L6.12210452,10.4551072 L6.03405782,10.4639297 L5.94772631,10.4639297 L5.86825558,10.4832291 L5.77963715,10.4909488 L5.70474028,10.5107995 L5.62298263,10.5300988 L5.54579883,10.5488467 L5.46861503,10.5769686 L5.39371816,10.6045391 L5.31196051,10.6337638 L5.24335269,10.6707082 L5.16674062,10.6977272 L5.09756107,10.7363259 L5.020949,10.7743731 L4.95234118,10.8107661 L4.88373336,10.8576359 L4.80654956,10.8962345 L4.74022867,10.9342818 L4.67219258,10.9811515 L4.60358476,11.0280213 L4.53554867,11.0644143 L4.47551683,11.1129383 L4.33887292,11.2066779 L4.21480711,11.3004174 L4.08502398,11.394157 L3.95924298,11.4961677 L3.83517717,11.600384 L3.70539404,11.7029461 L3.58818901,11.8154336 L3.53101583,11.8623034 L3.47155572,11.91965 L3.41609773,11.9753423 L3.35663762,12.04096 L3.29717751,12.0966523 L3.2485803,12.1628214 L3.1999831,12.2196165 L3.17997248,12.2560095 L3.15138589,12.2857856 L3.13137528,12.3221787 L3.11136466,12.3602259 L3.09192578,12.3883478 L3.07420209,12.426395 L3.05419148,12.4649936 L3.03646779,12.5008352 L3.02331796,12.5388825 L3.00559427,12.5752755 L2.99473137,12.6138741 L2.98615539,12.6519213 L2.97472075,12.6987911 L2.96785997,12.7351841 L2.95699707,12.7732314 L2.95699707,12.8201011 L2.94613416,12.8581484 L2.94613416,12.9050181 L2.95699707,12.9414112 L2.95699707,12.9794584 L2.96785997,12.9987577 L2.96785997,13.0186084 L2.97472075,13.0351507 L2.98615539,13.05445 L2.99473137,13.0731979 L3.00559427,13.0924973 L3.01474198,13.1013198 L3.03646779,13.1200677 L3.04332857,13.1310959 L3.06276746,13.1481896 L3.08277807,13.158115 L3.10507561,13.1779657 L3.1227993,13.1862368 L3.14052299,13.1950594 L3.15996187,13.2049847 L3.17997248,13.2138073 L3.1999831,13.2248355 L3.21999371,13.2331066 L3.2485803,13.2331066 L3.26859092,13.2441348 L3.2880298,13.2441348 L3.31661639,13.2518545 L3.4423974,13.2518545 L3.46240801,13.2441348 L3.48470555,13.2441348 L3.50242924,13.2331066 L3.51100522,13.2248355 L3.53101583,13.2138073 L3.55331337,13.2049847 L3.56188935,13.1950594 L3.57103706,13.1779657 L3.57961304,13.1669375 L3.59905192,13.1481896 L3.60819963,13.139367 L3.62134946,13.1200677 L3.62134946,13.1013198 L3.63049717,13.0842261 L3.64764913,13.0456275 L3.65908376,13.0075803 L3.66765974,12.9607105 L3.69853326,12.8757935 L3.70539404,12.8394005 L3.71625695,12.7925307 L3.73626756,12.753932 L3.74484354,12.7158848 L3.76714108,12.6712207 L3.78486477,12.632622 L3.79572767,12.5945748 L3.81345136,12.5670043 L3.84203795,12.5284057 L3.86433549,12.4920127 L3.88148745,12.4539654 L3.91064577,12.426395 L3.93008465,12.3883478 L3.95924298,12.3602259 L3.98782957,12.3326554 L4.01012711,12.305085 L4.03642678,12.2664863 L4.06730029,12.2389159 L4.12447348,12.1815693 L4.1930813,12.1346995 L4.25254141,12.0790072 L4.32114923,12.0321374 L4.45779314,11.9383979 L4.52640096,11.9003506 L4.59500878,11.8534809 L4.66075794,11.8154336 L4.73165269,11.7790406 L4.79568666,11.7409934 L4.86372274,11.7029461 L4.93233057,11.6665531 L5.00093839,11.6279545 L5.06954621,11.600384 L5.14673,11.5623368 L5.21476609,11.5342149 L5.28566084,11.5066445 L5.36284464,11.4774198 L5.44002844,11.4492979 L5.51721224,11.4217275 L5.59439603,11.4024281 L5.68301447,11.3748577 L5.7733481,11.3555584 L5.85739268,11.3368105 L5.94772631,11.3175111 L5.99403659,11.3175111 L6.04263379,11.3086886 L6.09351793,11.3004174 L6.2564615,11.3004174 L6.27647212,11.3086886 L6.29876966,11.3086886 L6.31649334,11.3175111 L6.32506932,11.3279879 L6.34507994,11.3368105 L6.35365591,11.3472872 L6.36680575,11.3555584 L6.37366653,11.3660351 L6.38452943,11.3836802 L6.39367714,11.394157 L6.40454005,11.4129049 L6.40454005,11.43055 L6.41311603,11.4492979 L6.41311603,11.5066445 L6.42226373,11.5430375 L6.42226373,11.5899073 L6.41311603,11.636777 L6.40454005,11.7321708 L6.39367714,11.8154336 L6.38452943,11.9091732 L6.37366653,11.9940902 L6.36680575,12.0790072 L6.36680575,12.1539989 L6.35365591,12.2389159 L6.34507994,12.3133561 L6.34507994,12.3883478 L6.33593223,12.4649936 L6.33593223,12.6883143 L6.34507994,12.753932 L6.35365591,12.8289237 L6.36680575,12.9138407 L6.37366653,12.9882809 L6.39367714,13.0643754 L6.42226373,13.2248355 L6.45085033,13.3841927 L6.47314787,13.4674555 L6.48172385,13.5523725 L6.49029982,13.6268128 L6.50344966,13.7117298 L6.50344966,13.9841259 L6.49029982,14.0205189 L6.48172385,14.0591176 L6.47314787,14.0977162 L6.46171323,14.1335578 L6.45085033,14.171605 L6.44170262,14.1991755 L6.42226373,14.2377741 L6.41311603,14.2763728 L6.39367714,14.3122144 L6.37366653,14.3397848 L6.34507994,14.3778321 L6.32506932,14.4059539 L6.30505871,14.4440012 L6.27647212,14.4715716 L6.2564615,14.5101703 L6.19928832,14.5653112 L6.15069111,14.6314803 L6.09351793,14.6893782 L6.03405782,14.7439677 L5.96545,14.7996601 L5.90598989,14.8465299 L5.84824497,14.8956053 L5.77963715,14.942475 L5.71160106,14.997616 L5.64299324,15.0362146 L5.58582006,15.0830844 L5.44860442,15.1768239 L5.31196051,15.261741 L5.17931872,15.3444523 L5.04267481,15.4381919 L4.90374397,15.5231089 L4.83513615,15.5617076 L4.76710006,15.5975491 L4.69849224,15.6366992 L4.62130845,15.683569 L4.55270063,15.710588 L4.47551683,15.7491867 L4.39833303,15.7850283 L4.32114923,15.8153558 L4.24167851,15.8429262 L4.20222901,15.8622256 L4.16449471,15.8699453 L4.12447348,15.8809735 L4.08502398,15.889796 L4.04728968,15.8980671 L4.01012711,15.9090953 L3.97010588,15.9168151 L3.88148745,15.9168151 L3.84203795,15.9278432 L3.75399125,15.9278432 L3.71625695,15.9168151 L3.67680745,15.9168151 L3.63049717,15.9090953 L3.58818901,15.8980671 L3.55331337,15.889796 L3.50242924,15.8699453 L3.46240801,15.8622256 L3.42524544,15.8429262 L3.33662701,15.8043276 L3.29717751,15.7850283 L3.2485803,15.7767571 L3.20855907,15.768486 L3.18912019,15.7574578 L3.17368343,15.7574578 L3.15138589,15.7491867 L3.11136466,15.7491867 L3.09192578,15.7574578 L3.06276746,15.7574578 L3.04332857,15.768486 L3.02331796,15.7767571 L3.01474198,15.7960565 L2.99473137,15.8043276 L2.98615539,15.8153558 L2.96785997,15.8341037 L2.95699707,15.8511974 L2.94613416,15.8699453 L2.93755818,15.889796 L2.92612355,15.9090953 L2.92612355,15.9278432 L2.91754757,15.9449369 L2.91754757,16.0408821 L2.92612355,16.0574244 L2.92612355,16.0877519 L2.93755818,16.1042942 L2.94613416,16.1235935 L2.95699707,16.1346217 L2.97472075,16.1704633 L3.00559427,16.2090619 L3.03646779,16.2449035 L3.06276746,16.2746796 L3.09192578,16.3028015 L3.1227993,16.3298205 L3.15138589,16.3579424 L3.18912019,16.3877185 L3.21999371,16.415289 L3.25715628,16.4345883 L3.2880298,16.4533362 L3.3257641,16.4704299 L3.3652136,16.4897292 L3.40523483,16.5090285 L3.4423974,16.5283278 L3.48470555,16.536599 L3.52015293,16.5558983 L3.56188935,16.5641694 L3.59905192,16.5751976 L3.63678622,16.5834688 L3.67680745,16.5939455 L3.71625695,16.5939455 L3.75399125,16.6027681 L3.79572767,16.6027681 L3.84203795,16.6132448 L4.04728968,16.6132448 L4.12447348,16.6027681 L4.21480711,16.5939455 L4.29027571,16.5834688 L4.36745951,16.5751976 L4.44693024,16.5641694 L4.53554867,16.5558983 L4.60358476,16.5470757 L4.68076856,16.536599 L4.75795235,16.5283278 L4.83513615,16.5090285 L4.90374397,16.5007574 L4.9832147,16.4814581 L5.05182252,16.4621587 L5.08898509,16.4533362 L5.12671939,16.4345883 L5.16674062,16.4235601 L5.20619012,16.4048122 L5.24335269,16.3959896 L5.27479794,16.3766903 L5.31196051,16.3579424 L5.35426866,16.3408487 L5.39371816,16.3215494 L5.43088073,16.2939789 L5.46861503,16.2746796 L5.50863626,16.2449035 L5.55723346,16.2173331 L5.59439603,16.1892112 L5.63613246,16.1621921 L5.67386676,16.1346217 L5.71160106,16.096023 L5.76019827,16.0574244 L5.79964776,16.0215828 L5.84824497,15.9829842 L5.92542877,15.9090953 L6.0157624,15.8230755 L6.10209391,15.7491867 L6.13982821,15.710588 L6.1792777,15.6637182 L6.21929893,15.6366992 L6.2564615,15.5975491 L6.29876966,15.5617076 L6.33593223,15.5319315 L6.36680575,15.504361 L6.40454005,15.4767905 L6.43541357,15.4492201 L6.46171323,15.4299208 L6.49029982,15.4106214 L6.51031044,15.4023503 L6.51945815,15.3913221 L6.53032105,15.383051 L6.55033167,15.383051 L6.55890764,15.3742284 L6.56805535,15.3742284 L6.57891826,15.3637517 L6.61665256,15.3637517 L6.62751546,15.3742284 L6.64695435,15.383051 L6.65610206,15.3913221 L6.65610206,15.4023503 L6.66925189,15.4188926 L6.66925189,15.4299208 L6.6783996,15.4381919 L6.6783996,15.625671 L6.66925189,15.7216162 L6.66925189,15.8043276 L6.65610206,15.8980671 L6.64695435,15.974713 L6.64695435,16.0574244 L6.63609144,16.1346217 L6.62751546,16.2090619 L6.61665256,16.3579424 L6.60064407,16.5090285 L6.58749424,16.5834688 L6.57891826,16.6601146 L6.56805535,16.7345549 L6.55890764,16.8095465 L6.54118396,16.8834353 L6.53032105,16.9689038 L6.51031044,17.0427926 L6.50344966,17.1199899 L6.48172385,17.1944301 L6.46171323,17.2793471 L6.44170262,17.3543388 L6.42226373,17.428779 L6.40454005,17.5026678 L6.37366653,17.5881363 L6.35365591,17.6625765 L6.32506932,17.7392224 L6.29876966,17.8136626 L6.26789614,17.8886543 L6.23702262,17.9647487 L6.19928832,18.039189 L6.17070173,18.1053581 L6.1306805,18.1797983 L6.10209391,18.25479 L6.06207268,18.3204077 L5.98546061,18.4714938 L5.90598989,18.6010749 L5.82823436,18.7438899 L5.76019827,18.8740225 L5.68301447,19.0058093 L5.61440665,19.1375961 L5.57438542,19.2037652 L5.54579883,19.2782054 L5.50863626,19.3526456 L5.48862564,19.3906929 L5.46861503,19.4276373 L5.45775212,19.4656845 L5.44002844,19.5125543 L5.42230475,19.5506015 L5.40057894,19.5974713 L5.39371816,19.6338643 L5.37142062,19.6807341 L5.36284464,19.7292581 L5.35426866,19.7656511 L5.35426866,19.8698674 L5.36284464,19.8875125 L5.36284464,19.8974379 L5.37142062,19.9167372 L5.38056833,19.9255598 L5.39371816,19.9338309 L5.40057894,19.9443077 L5.40915492,19.9531302 L5.43088073,19.963607 L5.44002844,19.9724295 L5.45775212,19.9724295 L5.47719101,19.9823549 L5.49948855,19.9823549 L5.51721224,19.9911775 L5.57438542,19.9911775 L5.62298263,20 L5.67386676,20 L5.72246397,19.9911775 L5.84195592,19.9911775 L5.84824497,19.9823549 L5.85739268,19.9724295 L5.86825558,19.963607 L6.0157624,19.7187813 L6.15069111,19.4844324 L6.23016184,19.3631224 L6.29876966,19.2401582 L6.36680575,19.1182967 L6.42226373,18.9865099 L6.49029982,18.8651999 L6.55890764,18.7438899 L6.61665256,18.6203742 L6.6783996,18.488036 L6.73328585,18.3584549 L6.79274597,18.2349392 L6.8436301,18.1053581 L6.89908809,17.9735713 L6.94711356,17.8417845 L6.98942172,17.7094463 L7.035732,17.5798651 L7.07518149,17.4392558 L7.1129158,17.307469 L7.15293702,17.1668597 L7.18152362,17.0350729 L7.21239713,16.9027347 L7.24098373,16.7626767 L7.26957032,16.6220674 L7.28958093,16.4897292 L7.30959155,16.3496713 L7.31816752,16.2090619 L7.33131736,16.0767237 L7.33817814,15.9361144 L7.33817814,15.7960565 L7.34675412,15.6554471 L7.34675412,15.5148378 L7.33817814,15.383051 L7.33817814,15.2424416 L7.33131736,15.1018323 L7.31816752,14.9595687 L7.30959155,14.6783501 L7.2781463,14.4059539 L7.26328127,14.1247352 L7.24098373,13.8523391 L7.22097311,13.5711204 L7.21239713,13.4393336 L7.21239713,13.2987243 L7.20153423,13.158115 L7.20153423,13.0186084 L7.19467345,12.8862702 L7.19467345,12.4649936 L7.20153423,12.3221787 L7.20153423,12.1815693 L7.21239713,12.04096 L7.22097311,11.9003506 L7.23183602,11.7597413 L7.25013144,11.619132 L7.26957032,11.4774198 L7.28958093,11.3368105 L7.30959155,11.1962011 L7.33817814,11.0555918 L7.36905166,10.923805 L7.40678596,10.7831956 L7.44623546,10.6514089 L7.46395914,10.5846883 L7.48396976,10.5212763 L7.50569557,10.4451818 L7.52341925,10.3894895 L7.55200585,10.3233204 L7.57430339,10.2577027 L7.60060305,10.1915336 L7.62061367,10.1253645 L7.65148719,10.0702236 L7.68007378,10.0040545 L7.70866037,9.94891356 L7.73781869,9.88274446 L7.76583355,9.8248465 L7.79499188,9.76970558 L7.83501311,9.70408789 L7.86302797,9.64839556 L7.9030492,9.59104901 L7.9407835,9.53590809 L7.97165702,9.47856154 L8.00881959,9.42286921 L8.04884081,9.36497125 L8.08829031,9.31038174 L8.13688752,9.25248377 L8.17462182,9.19734286 L8.21407131,9.13172516 L8.26266852,9.07603284 L8.30440495,9.01868628 L8.35128696,8.95251718 L8.39931243,8.89737627 L8.44790964,8.8394783 L8.53652807,8.70989715 L8.58512528,8.64372804 L8.60284896,8.61615759 L8.63372248,8.58638149 L8.6537331,8.54998849 L8.67088505,8.52021239 L8.68403489,8.48437079 L8.7023303,8.45680033 L8.71090628,8.42647283 L8.73034516,8.39063123 L8.73034516,8.36306078 L8.73949287,8.32446213 L8.75264271,8.29689167 L8.75264271,8.23954512 L8.73949287,8.20315211 L8.73034516,8.17337602 L8.71948226,8.14580556 L8.71090628,8.1182351 L8.69089567,8.09066464 L8.67088505,8.06033714 L8.6537331,8.03276668 L8.63372248,8.00574763 L8.6159988,7.97762576 L8.56511466,7.9197278 L8.51651746,7.86513829 L8.47020718,7.79896919 L8.41932304,7.74107123 L8.38844953,7.71350077 L8.37301277,7.68648172 L8.35128696,7.65835985 L8.33127634,7.63078939 L8.29125511,7.56462029 L8.26266852,7.50727374 L8.22321902,7.44110463 L8.1940607,7.37493553 L8.17462182,7.31152348 L8.14546349,7.25362552 L8.09915322,7.12183872 L8.04884081,6.99225757 L8.00024361,6.86047077 L7.9407835,6.72813257 L7.89447322,6.59634578 L7.83501311,6.47448435 L7.77498126,6.34269756 L7.72009501,6.2131164 L7.66006316,6.08960075 L7.60060305,5.96001959 L7.53256696,5.83650394 L7.49483266,5.78136302 L7.46395914,5.71464251 L7.42622484,5.65950159 L7.38677535,5.5938839 L7.34675412,5.53598594 L7.30959155,5.48084502 L7.26957032,5.42349846 L7.23183602,5.36780614 L7.19467345,5.31045958 L7.14378931,5.25476726 L7.10433982,5.19797211 L7.05802954,5.14227979 L7.01572138,5.09541001 L6.96712418,5.03806345 L6.9208139,4.98237112 L6.8705015,4.93550134 L6.77330708,4.83404206 L6.6783996,4.73809686 L6.56805535,4.63553475 L6.46171323,4.54179519 L6.35365591,4.44860704 L6.24788552,4.36313862 L6.13982821,4.26939906 L6.02491011,4.1756595 L5.91685279,4.09074249 L5.79964776,3.99700293 L5.56809637,3.82882313 L5.53722285,3.81834636 L5.50863626,3.81834636 L5.47719101,3.80952381 Z M15.8405471,3.80952381 L15.7616791,3.82717852 L15.3174084,4.18468648 L15.0961242,4.36344046 L14.8833509,4.5510218 L14.6796559,4.73805143 L14.4782305,4.94494261 L14.3925538,5.04976747 L14.2943944,5.15128208 L14.2064481,5.26438259 L14.1298497,5.37693139 L14.0532513,5.4900319 L13.9743833,5.60313241 L13.8977849,5.72450857 L13.8302649,5.84588473 L13.7054379,6.10132638 L13.5891218,6.35511289 L13.481884,6.61662334 L13.3763485,6.88089234 L13.2781891,7.13412715 L13.2299605,7.26433066 L13.1817318,7.39618931 L13.1249923,7.51756547 L13.0500961,7.64114847 L13.0086762,7.70735364 L12.9689585,7.76307633 L12.8753383,7.87562514 L12.778881,7.99644959 L12.7283828,8.05437912 L12.6892326,8.1095501 L12.6602954,8.16747963 L12.6517845,8.22265061 L12.6427061,8.28885579 L12.6517845,8.34623361 L12.6602954,8.40968024 L12.6892326,8.47643712 L12.7193045,8.54209059 L12.7567526,8.59726157 L12.8532099,8.72912022 L12.9513693,8.85270322 L13.037046,8.97463108 L13.1335032,9.09600724 L13.2231517,9.20910776 L13.2974805,9.32165656 L13.4535143,9.54730587 L13.5210343,9.66868203 L13.6572093,9.89433134 L13.7139488,10.0162592 L13.7706883,10.1392905 L13.8211865,10.269494 L13.8716847,10.4013527 L13.9176438,10.5332113 L13.9942422,10.7952735 L14.0532513,11.0678181 L14.1099908,11.3491901 L14.1519781,11.6322173 L14.1803479,11.9135893 L14.1979371,12.1949613 L14.2064481,12.4774367 L14.2155264,12.7588087 L14.2064481,13.0313533 L14.2064481,13.3127253 L14.1894262,13.58527 L14.1582195,14.1386349 L14.1213388,14.6925516 L14.0992103,14.9761304 L14.0906994,15.2575024 L14.0844581,15.5300471 L14.0844581,15.8108674 L14.0992103,16.0916877 L14.1298497,16.3642323 L14.1672978,16.6373287 L14.2155264,16.9098733 L14.2836139,17.182418 L14.3624818,17.4549626 L14.4475912,17.7170248 L14.5440484,17.9895694 L14.6512861,18.243356 L14.7562543,18.5070732 L14.8833509,18.7498256 L15.0189584,19.0036121 L15.1551333,19.2480195 L15.2907408,19.4929787 L15.569332,19.9702077 L15.6175606,20 L15.9086345,20 L15.9455152,19.9895175 L15.9852329,19.9806902 L16.0136027,19.9702077 L16.044242,19.9531047 L16.0618313,19.9337948 L16.0748814,19.9062093 L16.0816901,19.8769687 L16.0902011,19.8488315 L16.0902011,19.8102118 L16.0816901,19.7743507 L16.0618313,19.6893874 L16.0334615,19.5955967 L15.9937438,19.5106334 L15.9653741,19.4356009 L15.9262238,19.3500858 L15.8972866,19.2866392 L15.8212556,19.1437464 L15.6765698,18.8822359 L15.5211034,18.6096913 L15.3764176,18.3371466 L15.2998192,18.1876333 L15.2317317,18.0469473 L15.1636443,17.8957788 L15.1046351,17.7446103 L15.0564065,17.5956486 L15.0104475,17.4362045 L14.9729994,17.2844843 L14.9315795,17.1355226 L14.9054793,16.9760785 L14.87484,16.8243583 L14.8464702,16.6649142 L14.8243418,16.5242282 L14.795972,16.2235463 L14.7783827,16.0641022 L14.7698718,15.9041063 L14.7477434,15.7363866 L14.7477434,15.6425959 L14.738665,15.5570809 L14.738665,15.5190129 L14.7477434,15.4831518 L14.7477434,15.4528077 L14.7562543,15.4252222 L14.7698718,15.4081192 L14.7783827,15.3893611 L14.795972,15.3783269 L14.8549811,15.3783269 L14.87484,15.3893611 L14.9054793,15.3976367 L14.9514383,15.4362564 L15.0189584,15.4831518 L15.0870459,15.5383227 L15.1636443,15.6039762 L15.24081,15.678457 L15.3174084,15.7556964 L15.4944358,15.9151405 L15.6567109,16.0641022 L15.7440898,16.138583 L15.8212556,16.1965125 L15.9086345,16.2516835 L15.9852329,16.2985789 L16.0618313,16.3454742 L16.1384297,16.3840939 L16.2172977,16.4111277 L16.2853851,16.4392649 L16.4385819,16.4773328 L16.5832678,16.5159525 L16.7324928,16.5352624 L16.88342,16.5518137 L17.0405885,16.5711235 L17.2028636,16.5904334 L17.3674083,16.6097432 L17.5206051,16.6097432 L17.607984,16.598709 L17.6851498,16.5904334 L17.7725287,16.581606 L17.8491271,16.5518137 L17.9302646,16.5352624 L18.006863,16.5049183 L18.0749505,16.4690572 L18.1492793,16.4221619 L18.2173667,16.3752665 L18.2786455,16.3283712 L18.3331154,16.262166 L18.389855,16.1965125 L18.4403532,16.1303074 L18.4579424,16.0916877 L18.4692903,16.0558265 L18.4778013,16.0172069 L18.4778013,15.9322435 L18.4692903,15.8963824 L18.4517011,15.857211 L18.4210617,15.819143 L18.4012029,15.7915575 L18.3614852,15.7722477 L18.3331154,15.7556964 L18.2933977,15.7446622 L18.2258777,15.7446622 L18.1884296,15.7556964 L18.1492793,15.7634203 L18.061333,15.8025917 L17.9762237,15.8384529 L17.8996253,15.8682452 L17.811679,15.8963824 L17.7265697,15.9041063 L17.6369212,15.9151405 L17.4723765,15.9151405 L17.3957781,15.9041063 L17.3191797,15.8853482 L17.2403117,15.8682452 L17.0780366,15.8108674 L16.9316486,15.7446622 L16.7784518,15.678457 L16.6422769,15.6039762 L16.3619835,15.4362564 L16.0902011,15.2657781 L15.8297666,15.0892309 L15.6935916,14.9932334 L15.569332,14.8994428 L15.4439376,14.8056521 L15.3174084,14.6925516 L15.2118729,14.5800028 L15.1551333,14.5160045 L15.1046351,14.450351 L15.0564065,14.3841458 L15.0189584,14.3173889 L14.9888864,14.2517355 L14.9599493,14.1772546 L14.9315795,14.1027738 L14.920799,14.0260861 L14.9139902,13.9516053 L14.9054793,13.8771245 L14.9054793,13.7916095 L14.9139902,13.7176804 L14.920799,13.5571328 L14.9820777,13.2376928 L15.0104475,13.0782487 L15.0371151,12.9188045 L15.0564065,12.7676361 L15.067187,12.6181227 L15.0564065,12.4669542 L15.0501652,12.3179926 L15.0371151,12.1668241 L15.0189584,11.9985526 L14.999667,11.828626 L14.9820777,11.6410446 L14.9729994,11.5577364 L14.9820777,11.4722214 L14.9888864,11.4341534 L14.999667,11.4065679 L15.0189584,11.3789825 L15.0371151,11.3491901 L15.067187,11.3320871 L15.0961242,11.3216046 L15.124494,11.3127773 L15.1727226,11.3022948 L15.2538601,11.3022948 L15.3480478,11.3127773 L15.5318839,11.3403628 L15.7049395,11.3789825 L15.8711864,11.4258778 L16.022681,11.4810488 L16.1690691,11.5384266 L16.3160245,11.5941493 L16.451632,11.6598027 L16.5832678,11.7348353 L16.7188753,11.8109712 L16.8544828,11.8942794 L16.9906577,11.9792427 L17.1262652,12.0730334 L17.2510922,12.1773066 L17.3674083,12.2882002 L17.4241479,12.3544054 L17.5206051,12.486264 L17.5603228,12.5524692 L17.5994731,12.6269501 L17.6369212,12.7036377 L17.6669931,12.7863942 L17.6851498,12.8719092 L17.7152217,12.9574242 L17.7350806,13.0401807 L17.7634504,13.1058342 L17.7833092,13.1444539 L17.811679,13.1720393 L17.8406161,13.1907975 L17.8712555,13.210659 L17.8996253,13.227762 L17.9387756,13.2376928 L17.985302,13.2465202 L18.0244523,13.2465202 L18.0749505,13.2376928 L18.1118312,13.227762 L18.1975079,13.1996248 L18.2474387,13.1808667 L18.2786455,13.1637637 L18.3155262,13.1339714 L18.3416264,13.1058342 L18.3728331,13.0782487 L18.389855,13.0401807 L18.4097138,13.0043196 L18.4210617,12.9651482 L18.4295727,12.8906673 L18.4210617,12.805704 L18.4097138,12.7207407 L18.389855,12.6374325 L18.3614852,12.5607449 L18.3331154,12.486264 L18.3047456,12.4117832 L18.2655954,12.345578 L18.2173667,12.2799246 L18.1209095,12.1480659 L18.0131044,12.0261381 L17.9081362,11.9135893 L17.7833092,11.8004887 L17.6669931,11.6984224 L17.4179065,11.4915313 L17.1637133,11.2934674 L16.904981,11.1064378 L16.633766,10.9359595 L16.497591,10.8526513 L16.3534726,10.7759636 L16.2065172,10.7020345 L16.0618313,10.6358293 L15.9086345,10.5801066 L15.7531682,10.5332113 L15.599404,10.4951433 L15.4331571,10.4675578 L15.0961242,10.448248 L15.0189584,10.4394206 L14.9429274,10.4294899 L14.8640594,10.4118351 L14.795972,10.3825945 L14.7278845,10.34563 L14.671145,10.2987346 L14.6121358,10.2419085 L14.5661768,10.1757033 L14.5156786,10.1094982 L14.46745,10.0454998 L14.3993625,9.8860557 L14.3318425,9.73488721 L14.2836139,9.58537385 L14.2353852,9.43475707 L14.1979371,9.28303687 L14.1582195,9.13407522 L14.1213388,8.98290673 L14.0906994,8.82291089 L14.0623296,8.66346675 L14.0424708,8.58015857 L14.0424708,8.45657557 L14.0532513,8.42071443 L14.0623296,8.39312894 L14.0844581,8.3627849 L14.1099908,8.33575112 L14.138928,8.30816563 L14.2064481,8.26954594 L14.2943944,8.2331331 L14.3800711,8.20334077 L14.5440484,8.14816978 L14.7108627,8.09024025 L14.8640594,8.04334492 L15.0189584,8.00748378 L15.1727226,7.9694158 L15.3281889,7.94955425 L15.4813857,7.93079612 L15.6368521,7.92252047 L15.794588,7.92252047 L15.9568631,7.93079612 L16.1208404,7.94955425 L16.2740372,7.97769145 L16.4385819,8.01631114 L16.5963179,8.06265476 L16.747245,8.12058429 L16.904981,8.17575527 L17.2028636,8.29713143 L17.3498191,8.35450925 L17.5030158,8.40968024 L17.6477017,8.45657557 L17.7350806,8.47643712 L17.811679,8.49519526 L17.8888448,8.5034709 L17.9762237,8.5145051 L18.061333,8.5145051 L18.1492793,8.5034709 L18.1884296,8.49519526 L18.2258777,8.47643712 L18.256517,8.45657557 L18.2848868,8.42954179 L18.3155262,8.40140459 L18.3331154,8.3627849 L18.3529743,8.32692376 L18.3728331,8.28885579 L18.3728331,8.17575527 L18.3614852,8.13713559 L18.3416264,8.10127445 L18.3155262,8.07368896 L18.2655954,8.00748378 L18.1975079,7.94955425 L18.1209095,7.90265892 L18.0528221,7.85576358 L17.9762237,7.81990244 L17.8406161,7.74321478 L17.6959303,7.6770096 L17.553514,7.60308049 L17.4048564,7.5473578 L17.2601706,7.48170433 L17.108676,7.43480899 L16.95094,7.38791366 L16.7869627,7.34101833 L16.622418,7.311226 L16.4669517,7.2830888 L16.3029744,7.26433066 L16.1384297,7.25605502 L15.9744524,7.24502082 L15.6567109,7.24502082 L15.5012446,7.25605502 L15.3480478,7.25605502 L15.1925814,7.27481315 L15.0371151,7.30295035 L14.9599493,7.32170848 L14.8833509,7.34101833 L14.8067525,7.36860382 L14.7278845,7.40446496 L14.6422078,7.44308464 L14.5548289,7.48997998 L14.3800711,7.59425313 L14.3029053,7.64114847 L14.263755,7.66045831 L14.2263069,7.66928567 L14.1894262,7.6770096 L14.1519781,7.6880438 L14.1213388,7.6880438 L14.0906994,7.66928567 L14.0623296,7.64942411 L14.0339599,7.63011427 L14.0158032,7.59425313 L13.9942422,7.55618515 L13.9857312,7.51756547 L13.9743833,7.47067013 L13.9743833,7.39618931 L13.9857312,7.311226 L13.9942422,7.23619346 L14.0906994,6.92778768 L14.1894262,6.6254507 L14.3029053,6.3164932 L14.3624818,6.17635891 L14.4277323,6.02463871 L14.4980894,5.89498691 L14.5746877,5.75209406 L14.6603645,5.62244226 L14.7562543,5.49885926 L14.8549811,5.38575875 L14.9729994,5.27541678 L15.0870459,5.16231627 L15.2010924,5.06631876 L15.3281889,4.96370074 L15.4637965,4.87046178 L15.7355789,4.6917078 L16.0136027,4.51240211 L16.0816901,4.47654097 L16.1384297,4.42964564 L16.1889279,4.37226782 L16.2172977,4.30606264 L16.2371565,4.23985746 L16.247937,4.16537664 L16.2258086,4.09089581 L16.2065172,4.02469064 L16.1690691,3.95903717 L16.1208404,3.90331448 L16.0533204,3.8652465 L15.9852329,3.82717852 L15.9171455,3.81835117 L15.8405471,3.80952381 Z"></path></clipPath></defs><g transform="translate(-694.0 -434.0)"><g clip-path="url(#i0)"><g transform="translate(694.0 434.0)"><g clip-path="url(#i1)"><polygon points="0,0 78,0 78,122 0,122 0,0" stroke="none" fill="#5C3003"></polygon></g><g transform="translate(19.0 14.0)"><g clip-path="url(#i2)"><g transform="translate(8.999999999999956 0.0)"><g clip-path="url(#i3)"><polygon points="0,0 21.3953488,0 21.3953488,40 0,40 0,0" stroke="none" fill="#FFFFFF"></polygon></g></g></g></g><g transform="translate(7.0 63.0)"><text transform="translate(0.03200000000000003 17.0)"><tspan x="0.032px" y="0px" font-family="PingFangSC-Medium, PingFang SC" font-size="16.0" font-weight="400" fill="#FFFFFF" text-anchor="center" letter-spacing="-0.01600000000000001"></tspan><tspan x="16.016px" y="22px" font-family="PingFangSC-Medium, PingFang SC" font-size="16.0" font-weight="400" fill="#FFFFFF" text-anchor="center" letter-spacing="-0.01600000000000001"></tspan></text></g></g></g></g></svg>