<?xml version="1.0" encoding="UTF-8"?><svg version="1.1" width="78px" height="122px" viewBox="0 0 78.0 122.0" xmlns="http://www.w3.org/2000/svg" xmlns:xlink="http://www.w3.org/1999/xlink"><defs><clipPath id="i0"><path d="M1024,0 L1024,600 L0,600 L0,0 L1024,0 Z"></path></clipPath><clipPath id="i1"><path d="M39,0 C60.5391052,-3.95666944e-15 78,17.4608948 78,39 L78,83 C78,104.539105 60.5391052,122 39,122 C17.4608948,122 2.63777963e-15,104.539105 0,83 L0,39 C-2.63777963e-15,17.4608948 17.4608948,3.95666944e-15 39,0 Z"></path></clipPath><clipPath id="i2"><path d="M40,0 L40,40 L0,40 L0,0 L40,0 Z"></path></clipPath><clipPath id="i3"><path d="M0,0 L3.77277345,1.03886982 L7.0973076,1.62375289 L10.4451991,1.88171442 L13.7997642,1.8191396 L17.5035778,1.38558544 L17.6470588,2.70540346 L13.9805059,3.30944209 L10.613706,3.61337697 L7.24857446,3.63636364 L3.88344295,3.39755767 L0.294191797,2.85545534 L0,0 Z"></path></clipPath><clipPath id="i4"><path d="M0,0 L3.53703567,1.35910043 L6.68707293,2.26012745 L9.90413227,2.87779856 L13.1455141,3.21883365 L16.7647059,3.27651282 L16.7647059,4.44129605 L13.1649721,4.54545455 L9.90413227,4.39425672 L6.64113039,4.02522204 L3.42677355,3.41819078 L0,2.52444365 L0,0 Z"></path></clipPath><clipPath id="i5"><path d="M7.62768613,0 L7.80498879,0.0104628639 L7.9843897,0.0284822406 L8.21519789,0.40282026 L8.44653064,0.77773955 L8.66737211,1.1631217 L8.87300123,1.53804099 L9.06866363,1.91993553 L9.24596628,2.30531768 L9.40700745,2.69825635 L9.54916432,3.09293882 L9.70076333,3.48587749 L9.82403589,3.88114124 L9.93839085,4.2740799 L10.0364843,4.66934365 L10.2164098,5.46510258 L10.3396824,6.25330499 L10.4188915,7.04150741 L10.4566602,7.82970982 L10.4566602,8.58942999 L10.4026301,9.35728795 L10.3139787,10.0856195 L10.1880834,10.8139511 L10.029665,11.514963 L9.82403589,12.2043495 L9.5932277,12.8635099 L9.33461761,13.4761687 L9.0340424,14.0754583 L8.69569857,14.6259212 L8.60704725,14.7549632 L8.5624593,14.8247156 L8.54409956,14.8531979 L8.52521525,14.8741236 L8.52521525,14.8840052 L8.61386658,15.0310665 L8.79379206,15.3054261 L9.13895521,15.8785585 L9.82403589,17.0207545 L10.181264,17.553198 L10.5542291,18.0548342 L10.7477932,18.3001302 L10.934538,18.516944 L11.1396426,18.7343391 L11.3447471,18.9308084 L11.556671,19.1092584 L11.7806599,19.2563197 L12.0114681,19.3929182 L12.2428008,19.5120786 L12.3660734,19.5609053 L12.4290211,19.5922939 L12.4547247,19.6004317 L12.4730844,19.6103133 L12.5014109,19.5922939 L12.9792888,19.2458569 L13.4597895,18.9203456 L13.9402901,18.6256416 L14.4202663,18.3704639 L14.9007669,18.142606 L15.3812676,17.9565995 L15.8617683,17.7886124 L16.3233847,17.6618955 L16.8038854,17.5712174 L17.2749439,17.4834456 L17.7271182,17.4346189 L18.1913574,17.4136932 L18.6340894,17.4136932 L19.089411,17.4526383 L19.5321431,17.501465 L19.9591383,17.5712174 L20.3856089,17.6694521 L20.8031619,17.7886124 L21.2228131,17.9257922 L21.6120396,18.0827352 L21.7106577,18.1245866 L21.7636387,18.142606 L21.782523,18.1524876 L21.799309,18.1629505 L21.889534,18.2018956 L22.269843,18.3704639 L23.0183959,18.7058568 L23.3824434,18.8715189 L23.7108205,19.0598504 L24.0397222,19.2458569 L24.3245605,19.4423262 L24.5831705,19.6521648 L24.8045366,19.8765351 L24.8931879,19.9951142 L24.9818392,20.132294 L25.0804573,20.3316696 L25.168584,20.5176761 L25.2409739,20.7031013 L25.3039216,20.902477 L25.3553288,21.0884835 L25.3831307,21.2744899 L25.4083098,21.4634028 L25.4083098,21.816815 L25.3925729,21.9848021 L25.3553288,22.1429076 L25.3201831,22.289969 L25.2666775,22.4376116 L25.1963859,22.5771165 L25.1239961,22.6933705 L25.0447869,22.8119497 L24.9377758,22.9206472 L24.832863,23.008419 L24.725852,23.0886343 L24.599432,23.1479238 L24.5385826,23.1764061 L24.5039614,23.1868689 L24.4226539,23.2072134 L24.2453513,23.2147699 L24.0496889,23.1967505 L23.8440598,23.1479238 L23.6410535,23.0886343 L23.2145829,22.9206472 L22.7944071,22.7340594 L22.6013675,22.6544254 L22.5473374,22.6334997 L22.5284531,22.6259432 L22.5127162,22.6259432 L22.4754721,22.6055987 L22.200076,22.4969012 L21.6220064,22.2795061 L21.0365929,22.0934997 L20.4485565,21.9260938 L19.8447833,21.7964706 L19.5415853,21.7470626 L19.2315679,21.7185804 L18.9094856,21.7086988 L18.590026,21.7086988 L18.2800087,21.7395061 L17.9516316,21.7883328 L17.6127632,21.8563414 L17.2749439,21.9464383 L16.9276825,22.0545546 L16.5798965,22.2126601 L16.2163736,22.3777408 L16.1277223,22.4271488 L16.0831344,22.4579561 L16.108838,22.4759755 L16.1628681,22.5561908 L16.2950582,22.7038334 L16.4303958,22.8433383 L16.7409377,23.0886343 L17.0792815,23.3054481 L17.4265429,23.4914545 L17.8089501,23.6699045 L18.1981767,23.8378916 L19.0007597,24.1709594 L19.3989038,24.3598722 L19.7818356,24.574361 L20.1385392,24.7911747 L20.5025866,25.0294955 L20.8661095,25.2846732 L21.2228131,25.5508949 L21.586336,25.8351361 L21.9409413,26.1403029 L22.2887273,26.4477949 L22.6081868,26.7628433 L22.9297446,27.0674289 L23.2214022,27.3935215 L23.2937921,27.4812933 L23.3824434,27.579528 L23.5524021,27.7864602 L23.8813038,28.2305506 L24.2102055,28.7037046 L24.529665,29.225104 L24.8145033,29.7656853 L25.0731134,30.326611 L25.1780262,30.6236401 L25.2850373,30.9282257 L25.3736886,31.2229297 L25.4460784,31.52054 L25.5069279,31.843145 L25.5509912,32.1401741 L25.5793177,32.4558038 L25.5882353,32.7708523 L25.5793177,32.9184949 L25.5793177,32.9958039 L25.5698756,33.0167296 L25.5509912,33.037074 L25.5069279,33.0754379 L25.3296252,33.2131989 L25.1617647,33.331778 L25.0007235,33.4195498 L24.8491245,33.4997651 L24.6880834,33.5590547 L24.529665,33.5979998 L24.378066,33.626482 L24.2359091,33.6363636 L24.0843101,33.626482 L23.9510708,33.6078814 L23.8094385,33.5770741 L23.6851169,33.5282474 L23.4175892,33.4015305 L23.1605528,33.2131989 L22.9113848,33.0056855 L22.6711345,32.7505078 L22.4403263,32.4738232 L22.2184357,32.1791192 L21.9949714,31.8634895 L21.5517148,31.2229297 L21.115802,30.5748134 L20.9012553,30.2696465 L20.6798893,29.9929619 L20.4579987,29.737203 L20.3415455,29.6180426 L20.243452,29.519808 L20.0315281,29.313457 L19.8101621,29.1065248 L19.3296614,28.6932417 L18.8050973,28.297978 L18.2427646,27.9230587 L17.9516316,27.7579779 L17.6484335,27.5998724 L17.3447109,27.4603676 L17.0441357,27.3336507 L16.7220534,27.235416 L16.4031184,27.1453191 L16.0831344,27.0860296 L15.7641994,27.0674289 L15.4442153,27.0674289 L15.1132154,27.0860296 L14.7937559,27.1354375 L14.6258954,27.1767077 L14.5535055,27.1941458 L14.537244,27.20519 L14.4113487,27.2435538 L14.1899826,27.3621329 L13.9754359,27.499894 L13.7629875,27.6283547 L13.5668005,27.7475151 L13.4781492,27.7963418 L13.4508719,27.7963418 L13.3365169,27.8562126 L13.0773822,27.9439844 L12.8303126,28.0317562 L12.5900622,28.0910458 L12.3498119,28.1509166 L12.1190037,28.1892804 L11.904457,28.220669 L11.6825664,28.2386884 L11.2560958,28.2491513 L10.8458867,28.1997433 L10.4729216,28.1224344 L10.099432,27.9928111 L9.74482671,27.824824 L9.40700745,27.6184731 L9.07810578,27.3830586 L8.74972867,27.1168369 L8.44653064,26.8122513 L8.14280805,26.4966216 L7.84223283,26.1403029 L7.54847696,25.7578271 L7.25472108,25.3544256 L6.96988279,24.9382361 L6.67665147,24.497052 L6.38237103,24.0343609 L6.23339483,23.7960401 L6.19615079,23.7472134 L6.17936473,23.7193125 L6.17044715,23.6983867 L6.14212069,23.6699045 L6.06291151,23.5228431 L5.88560886,23.2147699 L5.68994646,22.8718205 L5.28131105,22.1713899 L5.06728891,21.8563414 L4.84539831,21.571519 L4.73838724,21.4523586 L4.62403227,21.3442424 L4.52593879,21.2669334 L4.41892772,21.197181 L4.30194993,21.147773 L4.20438101,21.1373102 L4.09894364,21.1373102 L4.0716663,21.147773 L4.02707836,21.1582359 L3.94786918,21.197181 L3.82197381,21.2849528 L3.72388033,21.4035319 L3.64467115,21.5505933 L3.60008321,21.7296245 L3.57437957,21.9260938 L3.57437957,22.1429076 L3.58382172,22.3777408 L3.61896751,22.6154803 L3.6630309,22.8718205 L3.72388033,23.1479238 L3.86603719,23.6983867 L4.03599595,24.2407119 L4.2132986,24.7812932 L4.29303234,25.0294955 L4.37486434,25.2742103 L4.43728746,25.4916054 L4.48187541,25.58984 L4.48187541,25.6183223 L4.49813689,25.6595925 L4.52593879,25.76829 L4.81077708,26.6128756 L5.11135229,27.450486 L5.25403372,27.8660942 L5.38674843,28.2694957 L5.50320165,28.6624344 L5.60129513,29.0472353 L5.67158672,29.4116917 L5.7345344,29.7656853 L5.75289415,30.1016594 L5.7345344,30.4068263 L5.67158672,30.700949 L5.62699877,30.8410352 L5.57559149,30.9671708 L5.50320165,31.0962128 L5.42399248,31.2153732 L5.32589899,31.3211644 L5.21836336,31.4223054 L5.0950908,31.52054 L4.96237609,31.6083118 L4.81077708,31.6885271 L4.64973591,31.7553732 L4.46351566,31.8251256 L4.25788655,31.8634895 L4.03599595,31.9128974 L3.80571232,31.9437048 L3.74276463,31.9518425 L3.71706099,31.9518425 L3.70761884,31.9437048 L3.67247305,31.9233603 L3.60008321,31.8948781 L3.45845091,31.793737 L3.33412922,31.6885271 L3.20823385,31.5693667 L2.98686781,31.3211644 L2.79120541,31.0264604 L2.62334491,30.700949 L2.47174589,30.3574183 L2.33850662,30.0034248 L2.21313581,29.6389684 L1.97288546,28.9001739 L1.95609941,28.8094958 L1.93773967,28.7914764 L1.92829752,28.721724 L1.87479198,28.5740813 L1.68122784,27.9544473 L1.27101874,26.6727464 L0.881267636,25.3544256 L0.701866725,24.6830585 L0.534006222,24.0140165 L0.391324796,23.354856 L0.258610086,22.6933705 L0.151599016,22.0545546 L0.0723898415,21.4139948 L0.0183597424,20.7937795 L0,20.1915835 L0.0183597424,19.6103133 L0.0786846104,19.0598504 L0.123272556,18.7936287 L0.177302655,18.538451 L0.240250344,18.2821109 L0.318934954,18.0339085 L0.407586282,17.7990753 L0.515121916,17.5712174 L0.631575139,17.3544036 L0.745930106,17.1474714 L0.888086969,16.9515833 L1.04912814,16.755114 L1.08374937,16.7161689 L1.10315824,16.6958244 L1.12833731,16.6673422 L1.18236741,16.6156091 L1.40373345,16.408677 L1.6366399,16.2127889 L1.87479198,16.036664 L2.35476811,15.7216156 L2.84471095,15.4141236 L3.299508,15.0909374 L3.51143188,14.9124874 L3.70761884,14.7445003 L4.08058389,14.3905068 L4.43728746,13.9975681 L4.77353303,13.5924227 L5.1024347,13.1785584 L5.25403372,12.9716262 L5.37992909,12.7937575 L5.5126438,12.6071697 L5.76915563,12.2043495 L6.04612546,11.7701406 L6.32204616,11.3074495 L6.58800014,10.8453397 L6.82772592,10.3617229 L7.04227263,9.86880574 L7.21957528,9.387514 L7.36173215,8.89459686 L7.41576225,8.65860115 L7.45038347,8.41098004 L7.46874322,8.29240091 L7.47608711,8.2145107 L7.48552927,8.05698648 L7.48552927,7.73147515 L7.46874322,7.39840732 L7.42205701,7.06185186 L7.3711743,6.71890244 L7.21957528,6.0463728 L7.04909196,5.3982565 L6.96988279,5.08262678 L6.88123146,4.80652342 L6.77422039,4.52170102 L6.65094783,4.24559766 L6.37502713,3.6846719 L6.0980573,3.11328328 L5.97426018,2.82671706 L5.8761667,2.52213147 L5.79695753,2.21696461 L5.76915563,2.04897751 L5.75289415,1.90133488 L5.75289415,1.7624113 L5.76915563,1.60488707 L5.79695753,1.45724443 L5.84154547,1.31018307 L5.90449316,1.1631217 L5.97426018,1.01547907 L6.06291151,0.875974217 L6.17044715,0.749257309 L6.27745822,0.620215321 L6.40073077,0.501054927 L6.53397005,0.392938667 L6.66668476,0.294704 L6.81828377,0.206350927 L6.96988279,0.136598501 L7.13092396,0.0778902091 L7.28934231,0.0284822406 L7.45982563,0.0104628639 L7.62768613,0 Z"></path></clipPath><clipPath id="i6"><path d="M3.37175291,0 L3.61339012,0.00950821404 L3.83675226,0.0538798796 L4.06925193,0.107759759 L4.28601473,0.18752311 L4.50023932,0.286302889 L4.69618882,0.401457926 L4.8794473,0.528234113 L5.06879747,0.678252602 L5.23124266,0.849928688 L5.39368784,1.03798003 L5.54039615,1.23501136 L5.67796692,1.44894617 L5.79980081,1.68136918 L5.91046659,1.91590513 L5.93787922,1.97718029 L5.93787922,2.00517669 L5.9536161,2.02155195 L5.98052108,2.09444826 L6.0571749,2.36226295 L6.11809185,2.63219059 L6.16124135,2.8910253 L6.17647059,3.14193651 L6.17647059,3.39073477 L6.15210381,3.62527072 L6.10946195,3.85822196 L6.0571749,4.08166499 L5.98052108,4.29507158 L5.89472972,4.51111933 L5.79117091,4.69917067 L5.66882938,4.896202 L5.54039615,5.07421689 L5.39368784,5.24589298 L5.2403802,5.40541968 L5.06879747,5.55807934 L4.89518418,5.70175902 L4.70532636,5.82589404 L4.52460609,5.94316201 L4.32865659,6.04194179 L4.12103133,6.13121335 L3.91543664,6.20146849 L3.69918149,6.26485658 L3.4935868,6.3192647 L3.276824,6.34514817 L3.05346187,6.36363636 L2.83923728,6.36363636 L2.62450505,6.34514817 L2.40824989,6.32824468 L2.20265521,6.2743648 L1.99502995,6.2109767 L1.7899429,6.13121335 L1.59094755,6.03243357 L1.3944904,5.9151656 L1.21224721,5.78099414 L1.03152694,5.62199567 L0.878219291,5.44081137 L0.71374354,5.24589298 L0.575665131,5.03935344 L0.438094363,4.80693043 L0.318291038,4.54598278 L0.20559469,4.25915166 L0.189350171,4.18942475 L0.18072027,4.16090011 L0.171582729,4.14452485 L0.153815286,4.09064497 L0.0949289061,3.87459722 L0.0522870445,3.66119064 L0.0187827247,3.45412287 L0,3.25709154 L0,2.87200887 L0.0248744192,2.67444932 L0.0522870445,2.49643442 L0.0949289061,2.31789129 L0.153815286,2.14832814 L0.223869773,1.97718029 L0.300523596,1.81712535 L0.395452502,1.65548571 L0.499011308,1.49331784 L0.611707657,1.34329935 L0.740140883,1.19961967 L0.878219291,1.0638635 L1.0249276,0.92969204 L1.1690977,0.796048809 L1.34321864,0.678252602 L1.52343127,0.563097565 L1.80567978,0.410437906 L2.07422198,0.276794675 L2.34073361,0.169034916 L2.60673761,0.0892715652 L2.8641117,0.0348634515 L3.12351636,0.00950821404 L3.37175291,0 Z"></path></clipPath></defs><g transform="translate(-302.0 -434.0)"><g clip-path="url(#i0)"><g transform="translate(302.0 434.0)"><g clip-path="url(#i1)"><polygon points="0,0 78,0 78,122 0,122 0,0" stroke="none" fill="#FF9118"></polygon></g><g transform="translate(19.0 14.0)"><g clip-path="url(#i2)"><g transform="translate(5.0 0.0)"><g transform="translate(12.35294117647059 36.363636363636374)"><g clip-path="url(#i3)"><polygon points="0,0 17.6470588,0 17.6470588,3.63636364 0,3.63636364 0,0" stroke="none" fill="#FFFFFF"></polygon></g></g><g transform="translate(8.823529411764703 30.909090909090917)"><g clip-path="url(#i4)"><polygon points="0,0 16.7647059,0 16.7647059,4.54545455 0,4.54545455 0,0" stroke="none" fill="#FFFFFF"></polygon></g></g><g transform="translate(2.6470588235294112 0.0)"><g clip-path="url(#i5)"><polygon points="0,0 25.5882353,0 25.5882353,33.6363636 0,33.6363636 0,0" stroke="none" fill="#FFFFFF"></polygon></g></g><g transform="translate(0.0 7.272727272727271)"><g clip-path="url(#i6)"><polygon points="0,0 6.17647059,0 6.17647059,6.36363636 0,6.36363636 0,0" stroke="none" fill="#FFFFFF"></polygon></g></g></g></g></g><g transform="translate(13.0 63.0)"><text transform="translate(2.0239999999999974 17.0)"><tspan x="2.024px" y="0px" font-family="PingFangSC-Medium, PingFang SC" font-size="16.0" font-weight="400" fill="#FFFFFF" text-anchor="center" letter-spacing="-0.01600000000000001">防跌倒</tspan><tspan x="10.016px" y="22px" font-family="PingFangSC-Medium, PingFang SC" font-size="16.0" font-weight="400" fill="#FFFFFF" text-anchor="center" letter-spacing="-0.01600000000000001">坠床</tspan></text></g></g></g></g></svg>