<?xml version="1.0" encoding="UTF-8"?>
<svg width="156px" height="123px" viewBox="0 0 156 123" version="1.1" xmlns="http://www.w3.org/2000/svg" xmlns:xlink="http://www.w3.org/1999/xlink">
    <title>失智</title>
    <defs>
        <path d="M141.787333,119.462 L26.8333333,119.462 C20.93,119.462 16.1,114.632 16.1,108.728667 L16.1,26.8333333 C16.1,20.93 20.93,16.1 26.8333333,16.1 L141.787333,16.1 C147.690667,16.1 152.520667,20.93 152.520667,26.8333333 L152.520667,108.782333 C152.520667,114.685667 147.74487,119.462 141.787333,119.462" id="path-1"></path>
        <filter x="-11.4%" y="-14.0%" width="122.7%" height="130.0%" filterUnits="objectBoundingBox" id="filter-2">
            <feOffset dx="0" dy="1" in="SourceAlpha" result="shadowOffsetOuter1"></feOffset>
            <feGaussianBlur stdDeviation="5" in="shadowOffsetOuter1" result="shadowBlurOuter1"></feGaussianBlur>
            <feColorMatrix values="0 0 0 0 0   0 0 0 0 0   0 0 0 0 0  0 0 0 0.1 0" type="matrix" in="shadowBlurOuter1"></feColorMatrix>
        </filter>
        <path d="M130.785667,70.0886667 L90.6966667,70.0886667 C86.8326667,70.0886667 83.72,66.976 83.72,63.112 L83.72,23.0766667 C83.72,19.2126667 86.8326667,16.1 90.6966667,16.1 L130.785667,16.1 C134.649667,16.1 137.762333,19.2126667 137.762333,23.0766667 L137.762333,63.1656667 C137.762333,66.976 134.596,70.0886667 130.785667,70.0886667" id="path-3"></path>
        <filter x="-14.8%" y="-13.0%" width="129.6%" height="129.6%" filterUnits="objectBoundingBox" id="filter-4">
            <feOffset dx="0" dy="1" in="SourceAlpha" result="shadowOffsetOuter1"></feOffset>
            <feGaussianBlur stdDeviation="2.5" in="shadowOffsetOuter1" result="shadowBlurOuter1"></feGaussianBlur>
            <feColorMatrix values="0 0 0 0 0.0117647059   0 0 0 0 0.654901961   0 0 0 0 0.941176471  0 0 0 0.5 0" type="matrix" in="shadowBlurOuter1"></feColorMatrix>
        </filter>
    </defs>
    <g id="padCard-床头卡" stroke="none" stroke-width="1" fill="none" fill-rule="evenodd">
        <g id="多重耐药备份" transform="translate(-22.000000, -475.000000)">
            <g id="失智" transform="translate(20.000000, 471.000000)">
                <g id="编组" transform="translate(-4.293333, -3.440000)">
                    <g id="Fill-2">
                        <use fill="black" fill-opacity="1" filter="url(#filter-2)" xlink:href="#path-1"></use>
                        <use fill="#FFFFFF" fill-rule="evenodd" xlink:href="#path-1"></use>
                    </g>
                    <g id="Fill-5">
                        <use fill="black" fill-opacity="1" filter="url(#filter-4)" xlink:href="#path-3"></use>
                        <use fill="#03A7F0" fill-rule="evenodd" xlink:href="#path-3"></use>
                    </g>
                </g>
                <g id="图标位置" transform="translate(90.160000, 22.856667)">
                    <g id="编组" transform="translate(0.000000, 0.000000)" fill="#FFB400" opacity="0">
                        <g id="图标背景底板60*60px" transform="translate(0.000000, 0.000000)">
                            <rect x="3.55271368e-15" y="3.55271368e-15" width="32.2" height="32.2"></rect>
                        </g>
                    </g>
                    <g id="编组-14" transform="translate(3.756667, 2.683333)" fill="#FEFEFE">
                        <path d="M19.900614,17.8522558 C17.974571,19.6625934 16.7972317,22.1487554 16.5800963,24.8280101 C16.5628157,25.0376321 16.388882,25.1995444 16.1785087,25.1995444 L10.7001617,25.1995444 C10.477767,25.1995444 10.2970713,25.0188488 10.2970713,24.7960784 L10.2970713,21.8955561 C10.2970713,21.5059898 9.98789767,21.2103401 9.61185533,21.2103401 L5.32775267,21.2103401 C4.54110667,21.2103401 3.90360033,20.5728338 3.90360033,19.7861878 L3.90360033,16.4686754 C3.90360033,16.0791091 3.59442667,15.7838351 3.21838433,15.7838351 L2.64887367,15.7838351 C2.33368933,15.7838351 2.14059667,15.4382218 2.30551433,15.1692444 C3.95055867,12.4873601 3.90360033,12.6222244 3.90360033,12.3588821 L3.90360033,11.5666011 C3.95732067,11.2844754 3.41974167,7.4429081 6.69743333,4.16521643 C12.687814,-1.81164024 22.9363763,2.41949343 22.9363763,10.8810094 C22.9363763,13.5272054 21.8349217,16.0524368 19.900614,17.8522558 M13.2516897,0.00132709745 C7.15161433,0.0820954308 2.29612267,5.22121543 2.53204133,11.2777134 C2.53279267,11.2976238 2.532417,11.3175341 2.52978733,11.3378201 C2.52039567,11.4106994 2.52002,11.4847058 2.52002,12.0560948 C2.52002,12.1312281 2.49935833,12.2044831 2.460289,12.2679708 L0.102229334,16.1065328 C-0.179896333,16.5764918 0.155949667,17.1542671 0.693528667,17.1542671 L2.130078,17.1542671 C2.35284833,17.1542671 2.533544,17.3345871 2.533544,17.5573574 L2.533544,19.7861878 C2.533544,21.3365641 3.79052467,22.5939204 5.340901,22.5939204 L8.523549,22.5939204 C8.74631933,22.5939204 8.927015,22.7746161 8.927015,22.9970108 L8.927015,25.8979088 C8.927015,26.2874751 9.235813,26.5831248 9.61185533,26.5831248 L17.2412697,26.5831248 C17.630836,26.5831248 17.92611,26.2739511 17.92611,25.8979088 C17.92611,22.9564388 19.0546127,20.5521721 20.8544317,18.8597938 C23.0569653,16.8048971 24.319581,13.9032478 24.319581,10.8945334 C24.319581,4.8102361 19.3367383,-0.0925895692 13.2516897,0.00132709745" id="Fill-158"></path>
                        <path d="M19.7931358,13.675143 C19.6721711,13.9572686 19.3900454,14.17215 19.0812474,14.17215 C18.2487701,14.17215 17.6307984,13.6484706 17.2814284,12.6142603 C16.9726304,11.7273113 16.6769808,11.1499116 15.3606448,11.2844003 C14.7697211,11.351269 14.0980291,11.2573523 13.9639161,10.908358 C13.8966718,10.720149 13.9368681,10.3974513 13.9368681,10.061981 C13.9368681,9.35009263 13.6547424,8.7723173 13.1577354,8.49019163 C11.8147271,7.75163096 10.3507541,9.4845813 8.99422177,7.4965533 C8.16136877,6.27413396 9.16890677,5.42813263 9.3702641,5.26697163 C12.5934841,2.92957363 17.0665471,3.78947463 19.2292601,7.10698696 C20.5316964,9.0811153 20.7199054,11.539478 19.7931358,13.675143 M20.3840594,6.3413783 C17.7915838,2.37922196 12.4191748,1.34501163 8.5509351,4.1516173 C7.7451301,4.75644063 6.54975877,6.3684263 7.8521951,8.27568596 C9.62534177,10.854262 11.9758881,9.4845813 12.4864191,9.69946263 C12.5803358,9.82005163 12.5536634,10.1829456 12.5536634,10.3035346 C12.5401394,10.6127083 12.5266154,11.0022746 12.6742524,11.391841 C13.2922241,13.0436473 15.5755261,12.6274086 15.8174554,12.6409326 C15.8576518,12.7348493 15.9248961,12.9226826 15.9786164,13.0571713 C17.0394991,16.1462783 20.2232741,16.1868503 21.0692754,14.2258703 C22.1838784,11.6604426 21.9288008,8.70544863 20.3840594,6.3413783" id="Fill-159"></path>
                    </g>
                </g>
            </g>
        </g>
    </g>
</svg>