<?xml version="1.0" encoding="UTF-8"?>
<svg width="156px" height="123px" viewBox="0 0 156 123" version="1.1" xmlns="http://www.w3.org/2000/svg" xmlns:xlink="http://www.w3.org/1999/xlink">
    <title>接触隔离</title>
    <defs>
        <path d="M141.787333,119.462 L26.8333333,119.462 C20.93,119.462 16.1,114.632 16.1,108.728667 L16.1,26.8333333 C16.1,20.93 20.93,16.1 26.8333333,16.1 L141.787333,16.1 C147.690667,16.1 152.520667,20.93 152.520667,26.8333333 L152.520667,108.782333 C152.520667,114.685667 147.74487,119.462 141.787333,119.462" id="path-1"></path>
        <filter x="-11.4%" y="-14.0%" width="122.7%" height="130.0%" filterUnits="objectBoundingBox" id="filter-2">
            <feOffset dx="0" dy="1" in="SourceAlpha" result="shadowOffsetOuter1"></feOffset>
            <feGaussianBlur stdDeviation="5" in="shadowOffsetOuter1" result="shadowBlurOuter1"></feGaussianBlur>
            <feColorMatrix values="0 0 0 0 0   0 0 0 0 0   0 0 0 0 0  0 0 0 0.1 0" type="matrix" in="shadowBlurOuter1"></feColorMatrix>
        </filter>
        <path d="M130.785667,70.0886667 L90.6966667,70.0886667 C86.8326667,70.0886667 83.72,66.976 83.72,63.112 L83.72,23.0766667 C83.72,19.2126667 86.8326667,16.1 90.6966667,16.1 L130.785667,16.1 C134.649667,16.1 137.762333,19.2126667 137.762333,23.0766667 L137.762333,63.1656667 C137.762333,66.976 134.596,70.0886667 130.785667,70.0886667" id="path-3"></path>
        <filter x="-14.8%" y="-13.0%" width="129.6%" height="129.6%" filterUnits="objectBoundingBox" id="filter-4">
            <feOffset dx="0" dy="1" in="SourceAlpha" result="shadowOffsetOuter1"></feOffset>
            <feGaussianBlur stdDeviation="2.5" in="shadowOffsetOuter1" result="shadowBlurOuter1"></feGaussianBlur>
            <feColorMatrix values="0 0 0 0 0.0117647059   0 0 0 0 0.654901961   0 0 0 0 0.941176471  0 0 0 0.5 0" type="matrix" in="shadowBlurOuter1"></feColorMatrix>
        </filter>
    </defs>
    <g id="padCard-床头卡" stroke="none" stroke-width="1" fill="none" fill-rule="evenodd">
        <g id="多重耐药备份" transform="translate(-22.000000, -326.000000)">
            <g id="接触隔离" transform="translate(20.000000, 322.000000)">
                <g id="编组" transform="translate(-4.293333, -3.440000)">
                    <g id="Fill-2">
                        <use fill="black" fill-opacity="1" filter="url(#filter-2)" xlink:href="#path-1"></use>
                        <use fill="#FFFFFF" fill-rule="evenodd" xlink:href="#path-1"></use>
                    </g>
                    <g id="Fill-5">
                        <use fill="black" fill-opacity="1" filter="url(#filter-4)" xlink:href="#path-3"></use>
                        <use fill="#03A7F0" fill-rule="evenodd" xlink:href="#path-3"></use>
                    </g>
                </g>
                <g id="图标位置" transform="translate(90.160000, 22.856667)">
                    <g id="编组" transform="translate(0.000000, 0.000000)" fill="#FFB400" opacity="0">
                        <g id="图标背景底板60*60px" transform="translate(0.000000, 0.000000)">
                            <rect x="3.55271368e-15" y="3.55271368e-15" width="32.2" height="32.2"></rect>
                        </g>
                    </g>
                    <g id="编组-11" transform="translate(4.293333, 0.000000)" fill="#FEFEFE">
                        <polygon id="Fill-172" points="10.8717933 1.8515483 10.9180003 1.3691923 11.1670673 0.888338967 11.5408557 0.514550633 12.022836 0.266610633 12.5359967 0.1565403 13.0487817 0.218900967 13.5311377 0.452189967 13.9349793 0.8102003 14.1986973 1.29105363 14.292614 1.74185363 14.3087677 1.74185363 14.5582103 11.4062543 14.6044173 11.5783096 14.712985 11.7015283 14.8523573 11.73346 15.0390637 11.7015283 15.1476313 11.6245166 15.22577 11.4682393 16.6724623 2.3947623 16.78103 1.99092063 17.0304727 1.66484197 17.3723293 1.44733097 17.6518253 1.3229853 17.744615 1.29105363 18.0413917 1.29105363 18.1499593 1.29105363 18.180764 1.29105363 18.5541767 1.39999697 18.9264623 1.6329103 19.1451003 1.96011597 19.2844727 2.3643333 19.3310553 2.76742363 18.211193 12.6500866 18.211193 12.835666 18.3197607 12.9457363 18.476038 13.0223723 18.6627443 13.0223723 18.771312 12.9138046 18.8494507 12.7586543 20.5763903 5.68935897 20.731165 5.28514163 21.0268147 4.9429093 21.4002273 4.72577397 21.8352493 4.6476353 22.2710227 4.6938423 22.6433083 4.8809243 22.9866677 5.16079597 23.203803 5.56463763 23.2661637 6.01506197 22.8608193 8.64022063 22.426173 11.2518553 21.943817 13.8773896 21.7571107 15.1666776 21.6177383 16.4878973 21.461461 19.144612 21.3220887 20.4804826 21.0572437 21.8013266 20.8705373 22.423055 20.6530263 23.0605613 20.4039593 23.6499823 20.0621027 24.2412816 19.3310553 25.3438633 18.755534 26.13652 18.6007593 26.431794 18.5541767 26.7578726 18.0879743 32.1032336 9.39392067 32.1032336 8.710583 27.3487963 8.61629067 27.0373686 8.44536233 26.7736506 6.59445267 24.7844956 5.739811 24.0079926 4.962181 23.199558 4.60417067 22.7649116 4.34045267 22.2829313 4.12181467 21.8013266 3.96666433 21.2423346 3.71759733 20.138626 3.37611633 19.0664733 2.94147 18.0409033 2.41253133 17.0468893 1.89824367 16.052124 1.463973 15.0115273 1.276891 14.4987423 1.12061367 13.9859573 1.05862867 13.4265896 0.981617 12.835666 0.981617 12.292452 0.873049333 11.73346 0.607828667 11.2518553 0.282125667 10.816082 0.172055333 10.3960866 0.203987 10.1789513 0.282125667 9.99337197 0.421122333 9.82131663 0.577399667 9.6661663 0.949685333 9.48058697 1.35390267 9.4024483 1.789676 9.44903097 2.24010033 9.52716963 2.64469333 9.6357373 3.018106 9.82131663 3.37611633 9.99337197 3.67139033 10.25709 3.96666433 10.582793 4.18417533 10.9565813 4.34045267 11.3292426 4.527159 12.1373016 4.63572667 12.541519 4.82280867 12.9138046 5.257455 13.6125446 5.55310467 14.3901746 5.739811 14.7624603 5.84837867 14.9491666 6.03546067 15.088539 6.222167 15.1666776 6.43930233 15.1971066 6.67259133 15.1971066 6.84351967 15.120095 6.999797 14.9795956 7.10836467 14.794392 7.247737 14.3901746 7.32587567 13.9859573 7.37245833 13.535533 7.40401433 12.7270983 6.33073467 4.05783863 6.33073467 3.65399697 6.485885 3.28020863 6.734952 2.95450563 7.07680867 2.69041197 7.434819 2.58146863 7.85481433 2.58146863 8.258656 2.69041197 8.58586167 2.92257397 8.84957967 3.24977963 8.990079 3.6220653 10.498005 10.9565813 10.6065727 11.1421606 10.7936547 11.1737166 10.980361 11.1117316 11.026568 10.9246496 10.8413643 1.8515483"></polygon>
                    </g>
                </g>
            </g>
        </g>
    </g>
</svg>