<?xml version="1.0" encoding="UTF-8"?>
<svg width="156px" height="123px" viewBox="0 0 156 123" version="1.1" xmlns="http://www.w3.org/2000/svg" xmlns:xlink="http://www.w3.org/1999/xlink">
    <title>查房</title>
    <defs>
        <path d="M141.787333,119.462 L26.8333333,119.462 C20.93,119.462 16.1,114.632 16.1,108.728667 L16.1,26.8333333 C16.1,20.93 20.93,16.1 26.8333333,16.1 L141.787333,16.1 C147.690667,16.1 152.520667,20.93 152.520667,26.8333333 L152.520667,108.782333 C152.520667,114.685667 147.74487,119.462 141.787333,119.462" id="path-1"></path>
        <filter x="-11.4%" y="-14.0%" width="122.7%" height="130.0%" filterUnits="objectBoundingBox" id="filter-2">
            <feOffset dx="0" dy="1" in="SourceAlpha" result="shadowOffsetOuter1"></feOffset>
            <feGaussianBlur stdDeviation="5" in="shadowOffsetOuter1" result="shadowBlurOuter1"></feGaussianBlur>
            <feColorMatrix values="0 0 0 0 0   0 0 0 0 0   0 0 0 0 0  0 0 0 0.1 0" type="matrix" in="shadowBlurOuter1"></feColorMatrix>
        </filter>
        <path d="M130.785667,70.0886667 L90.6966667,70.0886667 C86.8326667,70.0886667 83.72,66.976 83.72,63.112 L83.72,23.0766667 C83.72,19.2126667 86.8326667,16.1 90.6966667,16.1 L130.785667,16.1 C134.649667,16.1 137.762333,19.2126667 137.762333,23.0766667 L137.762333,63.1656667 C137.762333,66.976 134.596,70.0886667 130.785667,70.0886667" id="path-3"></path>
        <filter x="-14.8%" y="-13.0%" width="129.6%" height="129.6%" filterUnits="objectBoundingBox" id="filter-4">
            <feOffset dx="0" dy="1" in="SourceAlpha" result="shadowOffsetOuter1"></feOffset>
            <feGaussianBlur stdDeviation="2.5" in="shadowOffsetOuter1" result="shadowBlurOuter1"></feGaussianBlur>
            <feColorMatrix values="0 0 0 0 0.0117647059   0 0 0 0 0.654901961   0 0 0 0 0.941176471  0 0 0 0.5 0" type="matrix" in="shadowBlurOuter1"></feColorMatrix>
        </filter>
    </defs>
    <g id="padCard-床头卡" stroke="none" stroke-width="1" fill="none" fill-rule="evenodd">
        <g id="多重耐药备份" transform="translate(-22.000000, -28.000000)">
            <g id="查房" transform="translate(20.000000, 24.000000)">
                <g id="编组" transform="translate(-4.293333, -3.440000)">
                    <g id="Fill-2">
                        <use fill="black" fill-opacity="1" filter="url(#filter-2)" xlink:href="#path-1"></use>
                        <use fill="#FFFFFF" fill-rule="evenodd" xlink:href="#path-1"></use>
                    </g>
                    <g id="Fill-5">
                        <use fill="black" fill-opacity="1" filter="url(#filter-4)" xlink:href="#path-3"></use>
                        <use fill="#03A7F0" fill-rule="evenodd" xlink:href="#path-3"></use>
                    </g>
                </g>
                <g id="图标位置" transform="translate(90.160000, 22.856667)">
                    <g id="编组" transform="translate(0.000000, 0.000000)" fill="#FFB400" opacity="0">
                        <g id="图标背景底板60*60px" transform="translate(0.000000, 0.000000)">
                            <rect x="3.55271368e-15" y="3.55271368e-15" width="32.2" height="32.2"></rect>
                        </g>
                    </g>
                    <g id="编组" transform="translate(8.586667, 0.000000)" fill="#FEFEFE">
                        <path d="M7.65038537,0.359535098 C9.53490616,0.359535098 11.0627646,1.88739353 11.0627646,3.77235627 C11.0627646,5.65687706 9.53490616,7.18473549 7.65038537,7.18473549 C5.76542263,7.18473549 4.2375642,5.65687706 4.2375642,3.77235627 C4.2375642,1.88739353 5.76542263,0.359535098 7.65038537,0.359535098" id="Fill-47"></path>
                        <path d="M11.1424501,13.7668133 L11.1424501,12.5244615 C11.5631968,12.9951497 11.8973191,13.4388784 12.056867,13.7676972 C11.8659399,13.7893533 11.572036,13.7999603 11.1424501,13.7668133 L11.1424501,13.7668133 Z M5.06902502,12.1023889 C5.06902502,11.8893638 5.24183169,11.7165572 5.45441482,11.7165572 L6.43159012,11.7165572 L6.43159012,11.5477282 C6.43159012,11.3342611 6.60439678,11.1614544 6.81697992,11.1614544 L8.48140424,11.1614544 C8.69487129,11.1614544 8.86811992,11.3347031 8.86811992,11.5477282 L8.86811992,11.7165572 L9.84441129,11.7165572 C10.0574364,11.7165572 10.2302431,11.8898058 10.2302431,12.1023889 L10.2302431,13.6956576 C10.0114725,13.6514615 9.76132267,13.5940066 9.46123129,13.5148956 C8.75365208,13.3252944 8.02839443,13.7460411 7.84011914,14.4531784 C7.65184384,15.1598736 8.07170659,15.8860152 8.77884384,16.0751744 C9.32775914,16.2210215 9.79933129,16.3209046 10.2298011,16.3823372 L10.2298011,18.615565 C10.2298011,18.8281482 10.0569944,19.0013968 9.84396933,19.0013968 L5.45441482,19.0013968 C5.24183169,19.0013968 5.06902502,18.8281482 5.06902502,18.615565 L5.06902502,12.1023889 Z M8.48273012,7.37473443 C8.48007835,7.37385051 8.47698463,7.37385051 8.47433286,7.37340855 L7.650076,8.2383258 L6.80018541,7.38313169 C5.58744502,7.80608816 0.872165412,10.6514317 0.203478745,18.2200101 C0.103595608,18.9448258 0.609640706,19.6121866 1.33445639,19.7125117 C1.39588894,19.7209089 1.45687953,19.7248866 1.51787012,19.7248866 C2.16843639,19.7248866 2.73591404,19.2449172 2.82828384,18.582418 C3.02186267,17.1915674 3.47840816,15.2933458 4.15725992,13.656765 L4.15725992,15.3706889 L2.08711561,24.5581697 C2.08711561,24.5581697 2.31516737,25.3077352 4.43171757,25.7019642 L4.43171757,30.2064285 C4.43171757,31.0205203 5.09200698,31.6794838 5.90477286,31.6794838 C6.71886463,31.6794838 7.37915404,31.0200784 7.37827012,30.2064285 L7.37827012,25.9348776 C7.40876541,25.9348776 7.43660894,25.9353195 7.4675462,25.9353195 C7.50820659,25.9353195 7.54709914,25.9348776 7.58775953,25.9344356 L7.58775953,30.2064285 C7.58775953,31.0200784 8.24716502,31.6794838 9.06125678,31.6794838 L9.06169875,31.6794838 C9.87579051,31.6794838 10.534754,31.0205203 10.534754,30.2064285 L10.534754,25.6975446 C12.6464427,25.3037576 12.9036638,24.5590536 12.9036638,24.5590536 L11.3965776,16.4512831 C11.3965776,16.4512831 11.6073929,16.4437697 11.6347944,16.4437697 C12.7931736,16.4437697 14.2078901,16.1684282 14.6816721,14.8306129 C15.4595231,12.6345097 11.2255387,8.03723365 8.48273012,7.37473443 L8.48273012,7.37473443 Z" id="Fill-49"></path>
                    </g>
                </g>
            </g>
        </g>
    </g>
</svg>