<?xml version="1.0" encoding="UTF-8"?>
<svg width="156px" height="123px" viewBox="0 0 156 123" version="1.1" xmlns="http://www.w3.org/2000/svg" xmlns:xlink="http://www.w3.org/1999/xlink">
    <title>空气隔离</title>
    <defs>
        <path d="M141.787333,119.462 L26.8333333,119.462 C20.93,119.462 16.1,114.632 16.1,108.728667 L16.1,26.8333333 C16.1,20.93 20.93,16.1 26.8333333,16.1 L141.787333,16.1 C147.690667,16.1 152.520667,20.93 152.520667,26.8333333 L152.520667,108.782333 C152.520667,114.685667 147.74487,119.462 141.787333,119.462" id="path-1"></path>
        <filter x="-11.4%" y="-14.0%" width="122.7%" height="130.0%" filterUnits="objectBoundingBox" id="filter-2">
            <feOffset dx="0" dy="1" in="SourceAlpha" result="shadowOffsetOuter1"></feOffset>
            <feGaussianBlur stdDeviation="5" in="shadowOffsetOuter1" result="shadowBlurOuter1"></feGaussianBlur>
            <feColorMatrix values="0 0 0 0 0   0 0 0 0 0   0 0 0 0 0  0 0 0 0.1 0" type="matrix" in="shadowBlurOuter1"></feColorMatrix>
        </filter>
        <path d="M130.785667,70.0886667 L90.6966667,70.0886667 C86.8326667,70.0886667 83.72,66.976 83.72,63.112 L83.72,23.0766667 C83.72,19.2126667 86.8326667,16.1 90.6966667,16.1 L130.785667,16.1 C134.649667,16.1 137.762333,19.2126667 137.762333,23.0766667 L137.762333,63.1656667 C137.762333,66.976 134.596,70.0886667 130.785667,70.0886667" id="path-3"></path>
        <filter x="-14.8%" y="-13.0%" width="129.6%" height="129.6%" filterUnits="objectBoundingBox" id="filter-4">
            <feOffset dx="0" dy="1" in="SourceAlpha" result="shadowOffsetOuter1"></feOffset>
            <feGaussianBlur stdDeviation="2.5" in="shadowOffsetOuter1" result="shadowBlurOuter1"></feGaussianBlur>
            <feColorMatrix values="0 0 0 0 0.0117647059   0 0 0 0 0.654901961   0 0 0 0 0.941176471  0 0 0 0.5 0" type="matrix" in="shadowBlurOuter1"></feColorMatrix>
        </filter>
    </defs>
    <g id="padCard-床头卡" stroke="none" stroke-width="1" fill="none" fill-rule="evenodd">
        <g id="多重耐药备份" transform="translate(-203.000000, -326.000000)">
            <g id="空气隔离" transform="translate(201.000000, 322.000000)">
                <g id="编组" transform="translate(-4.293333, -3.440000)">
                    <g id="Fill-2">
                        <use fill="black" fill-opacity="1" filter="url(#filter-2)" xlink:href="#path-1"></use>
                        <use fill="#FFFFFF" fill-rule="evenodd" xlink:href="#path-1"></use>
                    </g>
                    <g id="Fill-5">
                        <use fill="black" fill-opacity="1" filter="url(#filter-4)" xlink:href="#path-3"></use>
                        <use fill="#03A7F0" fill-rule="evenodd" xlink:href="#path-3"></use>
                    </g>
                </g>
                <g id="图标位置" transform="translate(90.160000, 22.856667)">
                    <g id="编组" transform="translate(0.000000, 0.000000)" fill="#FFB400" opacity="0">
                        <g id="图标背景底板60*60px" transform="translate(0.000000, 0.000000)">
                            <rect x="3.55271368e-15" y="3.55271368e-15" width="32.2" height="32.2"></rect>
                        </g>
                    </g>
                    <g id="编组" transform="translate(0.536667, 5.366667)" fill="#FFFFFF">
                        <path d="M24.15,2.14666667 C25.9283569,2.14666667 27.37,3.58830977 27.37,5.36666667 L27.37,16.6366667 C27.37,18.4150236 25.9283569,19.8566667 24.15,19.8566667 L6.97666667,19.8566667 C5.19830977,19.8566667 3.75666667,18.4150236 3.75666667,16.6366667 L3.75666667,5.36666667 C3.75666667,3.58830977 5.19830977,2.14666667 6.97666667,2.14666667 L24.15,2.14666667 Z M24.15,3.22 L6.97666667,3.22 C5.82702181,3.22 4.88845434,4.12372975 4.83262715,5.25952635 L4.83,5.36666667 L4.83,16.6366667 C4.83,17.7863115 5.73372975,18.724879 6.86952635,18.7807062 L6.97666667,18.7833333 L24.15,18.7833333 C25.2996449,18.7833333 26.2382123,17.8796036 26.2940395,16.743807 L26.2966667,16.6366667 L26.2966667,5.36666667 C26.2966667,4.21702181 25.3929369,3.27845434 24.2571403,3.22262715 L24.15,3.22 Z" id="矩形" fill-rule="nonzero"></path>
                        <path d="M8.41064,10.2739467 L8.41064,9.02029333 L14.1121867,9.02029333 L14.1121867,10.0936267 L14.9365067,10.0936267 L14.9365067,8.29042667 L11.8796533,8.29042667 C11.75944,7.97272 11.55336,7.54338667 11.3902133,7.22568 L10.54872,7.45752 C10.6603467,7.70653333 10.7977333,8.01565333 10.90936,8.29042667 L7.62066667,8.29042667 L7.62066667,10.2739467 L8.41064,10.2739467 Z M8.15304,11.5877067 C9.11474667,11.1755467 10.1108,10.54872 10.8149067,9.93906667 L10.2567733,9.44962667 C9.56984,10.00776 8.65965333,10.5401333 7.69794667,10.8750133 L8.15304,11.5877067 Z M14.33544,11.4932533 L14.8764,10.85784 C14.25816,10.47144 13.0560267,9.8532 12.2317067,9.45821333 L11.73368,10.00776 C12.58376,10.4370933 13.76872,11.0982667 14.33544,11.4932533 Z M14.9193333,14.8764 L14.9193333,14.15512 L11.6735733,14.15512 L11.6735733,12.2145333 L13.9919733,12.2145333 L13.9919733,11.50184 L8.60813333,11.50184 L8.60813333,12.2145333 L10.8234933,12.2145333 L10.8234933,14.15512 L7.65501333,14.15512 L7.65501333,14.8764 L14.9193333,14.8764 Z M16.49928,10.8492533 C17.0058933,10.34264 17.4953333,9.64712 17.9074933,8.86573333 L23.506,8.86573333 L23.506,8.18738667 L18.2423733,8.18738667 C18.3454133,7.95554667 18.4398667,7.71512 18.5257333,7.47469333 L17.7271733,7.26861333 C17.3236,8.47933333 16.6109067,9.64712 15.778,10.3684 C15.98408,10.4800267 16.3361333,10.7204533 16.49928,10.8492533 Z M22.83624,10.05928 L22.83624,9.40669333 L17.7958667,9.40669333 L17.7958667,10.05928 L22.83624,10.05928 Z M23.01656,15.15976 C23.5918667,15.15976 23.7636,14.7304267 23.8237067,13.7086133 C23.6519733,13.6055733 23.4373067,13.40808 23.27416,13.22776 C23.2655733,13.9318667 23.22264,14.3697867 23.06808,14.3697867 C22.4584267,14.3697867 22.2351733,12.5665867 22.2008267,10.6431733 L16.9028533,10.6431733 L16.9028533,11.3301067 L21.41944,11.3301067 C21.5138933,13.4767733 21.8230133,15.15976 23.01656,15.15976 Z" id="空气" fill-rule="nonzero"></path>
                        <path d="M0.536666667,1.61 L4.83,1.61 C5.12639282,1.61 5.36666667,1.85027385 5.36666667,2.14666667 C5.36666667,2.44305948 5.12639282,2.68333333 4.83,2.68333333 L0.536666667,2.68333333 C0.240273851,2.68333333 3.62976513e-17,2.44305948 0,2.14666667 C-3.62976513e-17,1.85027385 0.240273851,1.61 0.536666667,1.61 Z" id="矩形" transform="translate(2.683333, 2.146667) rotate(30.000000) translate(-2.683333, -2.146667) "></path>
                        <path d="M0.536666667,19.32 L4.83,19.32 C5.12639282,19.32 5.36666667,19.5602739 5.36666667,19.8566667 C5.36666667,20.1530595 5.12639282,20.3933333 4.83,20.3933333 L0.536666667,20.3933333 C0.240273851,20.3933333 3.62976513e-17,20.1530595 0,19.8566667 C-3.62976513e-17,19.5602739 0.240273851,19.32 0.536666667,19.32 Z" id="矩形备份" transform="translate(2.683333, 19.856667) scale(1, -1) rotate(30.000000) translate(-2.683333, -19.856667) "></path>
                        <path d="M25.76,1.61 L30.0533333,1.61 C30.3497261,1.61 30.59,1.85027385 30.59,2.14666667 C30.59,2.44305948 30.3497261,2.68333333 30.0533333,2.68333333 L25.76,2.68333333 C25.4636072,2.68333333 25.2233333,2.44305948 25.2233333,2.14666667 C25.2233333,1.85027385 25.4636072,1.61 25.76,1.61 Z" id="矩形备份-3" transform="translate(27.906667, 2.146667) scale(-1, 1) rotate(30.000000) translate(-27.906667, -2.146667) "></path>
                        <path d="M25.76,19.32 L30.0533333,19.32 C30.3497261,19.32 30.59,19.5602739 30.59,19.8566667 C30.59,20.1530595 30.3497261,20.3933333 30.0533333,20.3933333 L25.76,20.3933333 C25.4636072,20.3933333 25.2233333,20.1530595 25.2233333,19.8566667 C25.2233333,19.5602739 25.4636072,19.32 25.76,19.32 Z" id="矩形备份-2" transform="translate(27.906667, 19.856667) scale(-1, -1) rotate(30.000000) translate(-27.906667, -19.856667) "></path>
                    </g>
                </g>
            </g>
        </g>
    </g>
</svg>