<?xml version="1.0" encoding="UTF-8"?>
<svg width="156px" height="123px" viewBox="0 0 156 123" version="1.1" xmlns="http://www.w3.org/2000/svg" xmlns:xlink="http://www.w3.org/1999/xlink">
    <title>药物过敏</title>
    <defs>
        <path d="M141.787333,119.462 L26.8333333,119.462 C20.93,119.462 16.1,114.632 16.1,108.728667 L16.1,26.8333333 C16.1,20.93 20.93,16.1 26.8333333,16.1 L141.787333,16.1 C147.690667,16.1 152.520667,20.93 152.520667,26.8333333 L152.520667,108.782333 C152.520667,114.685667 147.74487,119.462 141.787333,119.462" id="path-1"></path>
        <filter x="-11.4%" y="-14.0%" width="122.7%" height="130.0%" filterUnits="objectBoundingBox" id="filter-2">
            <feOffset dx="0" dy="1" in="SourceAlpha" result="shadowOffsetOuter1"></feOffset>
            <feGaussianBlur stdDeviation="5" in="shadowOffsetOuter1" result="shadowBlurOuter1"></feGaussianBlur>
            <feColorMatrix values="0 0 0 0 0   0 0 0 0 0   0 0 0 0 0  0 0 0 0.1 0" type="matrix" in="shadowBlurOuter1"></feColorMatrix>
        </filter>
        <path d="M130.785667,70.0886667 L90.6966667,70.0886667 C86.8326667,70.0886667 83.72,66.976 83.72,63.112 L83.72,23.0766667 C83.72,19.2126667 86.8326667,16.1 90.6966667,16.1 L130.785667,16.1 C134.649667,16.1 137.762333,19.2126667 137.762333,23.0766667 L137.762333,63.1656667 C137.762333,66.976 134.596,70.0886667 130.785667,70.0886667" id="path-3"></path>
        <filter x="-14.8%" y="-13.0%" width="129.6%" height="129.6%" filterUnits="objectBoundingBox" id="filter-4">
            <feOffset dx="0" dy="1" in="SourceAlpha" result="shadowOffsetOuter1"></feOffset>
            <feGaussianBlur stdDeviation="2.5" in="shadowOffsetOuter1" result="shadowBlurOuter1"></feGaussianBlur>
            <feColorMatrix values="0 0 0 0 0.0117647059   0 0 0 0 0.654901961   0 0 0 0 0.941176471  0 0 0 0.5 0" type="matrix" in="shadowBlurOuter1"></feColorMatrix>
        </filter>
    </defs>
    <g id="padCard-床头卡" stroke="none" stroke-width="1" fill="none" fill-rule="evenodd">
        <g id="多重耐药备份" transform="translate(-1289.000000, -326.000000)">
            <g id="药物过敏" transform="translate(1287.000000, 322.000000)">
                <g id="编组" transform="translate(-4.293333, -3.440000)">
                    <g id="Fill-2">
                        <use fill="black" fill-opacity="1" filter="url(#filter-2)" xlink:href="#path-1"></use>
                        <use fill="#FFFFFF" fill-rule="evenodd" xlink:href="#path-1"></use>
                    </g>
                    <g id="Fill-5">
                        <use fill="black" fill-opacity="1" filter="url(#filter-4)" xlink:href="#path-3"></use>
                        <use fill="#03A7F0" fill-rule="evenodd" xlink:href="#path-3"></use>
                    </g>
                </g>
                <g id="图标位置" transform="translate(90.160000, 22.856667)">
                    <g id="编组" transform="translate(0.000000, 0.000000)" fill="#FFB400" opacity="0">
                        <g id="图标背景底板60*60px" transform="translate(0.000000, 0.000000)">
                            <rect x="3.55271368e-15" y="3.55271368e-15" width="32.2" height="32.2"></rect>
                        </g>
                    </g>
                    <g id="Fill-72" transform="translate(3.220000, 3.220000)" fill="#FEFEFE">
                        <path d="M22.0574637,6.43453888 L17.5332349,6.43453888 C17.4564186,6.6483984 17.3832086,6.85288128 17.315769,7.04979072 C17.6919165,10.6727802 18.4947011,13.7829395 19.7244835,16.3806294 C21.0325248,13.6289462 21.809704,10.3139434 22.0574637,6.43453888 L22.0574637,6.43453888 Z M17.3543574,0.1027824 L19.2249971,0.41040832 C18.8921264,1.90562176 18.5199459,3.3323136 18.1102589,4.69120512 L25.3771549,4.69120512 L25.3771549,6.43453888 L23.9803962,6.43453888 C23.6641149,11.1762336 22.6215046,15.1843866 20.8529261,18.4564733 C22.1350013,20.4731722 23.7366035,22.0964128 25.6588147,23.3269165 C25.2145062,24.02764 24.8131139,24.6854474 24.4542771,25.3006992 C22.5659661,23.933513 20.9813139,22.2760115 19.6992387,20.3274736 C18.2292701,22.4382995 16.3878422,24.180912 14.1756765,25.5571142 C13.8507398,25.1470666 13.3202384,24.5999757 12.5856147,23.9169235 C15.0722275,22.5919322 17.0719763,20.7595203 18.5841398,18.4182454 C17.3619309,16.0257597 16.5119024,13.2618147 16.0336938,10.1256893 C15.665841,10.9201792 15.2777923,11.680769 14.867384,12.4074586 C14.5940189,11.9454787 14.1493498,11.3991091 13.5344586,10.7669072 C15.3116925,7.7249088 16.584391,4.17044096 17.3543574,0.1027824 L17.3543574,0.1027824 Z M5.87013728,9.07478432 L7.35633472,8.22872288 C8.0566976,9.2882832 8.6806048,10.3139434 9.22805632,11.3049821 L7.66432128,12.1762883 C7.06638016,10.9800454 6.46735712,9.94609056 5.87013728,9.07478432 L5.87013728,9.07478432 Z M5.51093984,15.5601734 L6.99785856,14.7397174 C7.7501536,15.8504886 8.41589504,16.9273597 8.99688608,17.9696093 L7.40790624,18.8156707 C6.861176,17.7045389 6.22861344,16.6197338 5.51093984,15.5601734 L5.51093984,15.5601734 Z M4.5116064,7.97266848 L4.10083744,12.6375469 L10.8044138,12.6375469 C10.8473299,11.1506282 10.8851971,9.59626976 10.9198186,7.97266848 L4.5116064,7.97266848 Z M10.7528422,14.2780982 L3.9598272,14.2780982 L3.53715712,19.2513238 L10.5479987,19.2513238 C10.6255363,17.6962442 10.692976,16.0387427 10.7528422,14.2780982 L10.7528422,14.2780982 Z M0.23117024,12.6375469 L2.20459232,12.6375469 L2.69145632,6.8449472 C2.25544256,7.4598384 1.78552864,8.04082944 1.28135392,8.58755968 C0.87130624,7.98961856 0.44430848,7.47714912 -5.68434189e-14,7.04979072 C1.88001632,5.1355136 3.22123648,2.785944 4.0247424,-1.77635684e-15 L5.89574272,0.333592 C5.6476224,1.1197872 5.37029024,1.8717216 5.06230368,2.5893952 L14.2521322,2.5893952 L14.2521322,4.2303072 L4.30640224,4.2303072 C3.92196,4.96493088 3.5036176,5.66529376 3.05065376,6.33175648 L12.9188461,6.33175648 C12.8420298,8.64778656 12.7695411,10.7492358 12.7013802,12.6375469 L14.7137514,12.6375469 L14.7137514,14.2780982 L12.6498086,14.2780982 C12.5729923,16.2093254 12.5005037,17.8668269 12.4323427,19.2513238 L14.4064861,19.2513238 L14.4064861,20.8918752 L12.3555264,20.8918752 C12.2693334,23.4718938 11.0994173,24.7622637 8.84325344,24.7622637 C7.52763872,24.7622637 6.37395136,24.7453136 5.38291264,24.7114134 C5.31439104,24.0103293 5.19465856,23.3355718 5.02443648,22.6860592 C6.2372688,22.8057917 7.40790624,22.8660186 8.5363488,22.8660186 C9.71455968,22.8660186 10.3514499,22.2071293 10.4452163,20.8918752 L1.51216352,20.8918752 L2.06394272,14.2780982 L0.23117024,14.2780982 L0.23117024,12.6375469 Z" id="Fill-71"></path>
                    </g>
                </g>
            </g>
        </g>
    </g>
</svg>