<?xml version="1.0" encoding="UTF-8"?>
<svg width="156px" height="123px" viewBox="0 0 156 123" version="1.1" xmlns="http://www.w3.org/2000/svg" xmlns:xlink="http://www.w3.org/1999/xlink">
    <title>防泌尿感染</title>
    <defs>
        <path d="M141.787333,119.462 L26.8333333,119.462 C20.93,119.462 16.1,114.632 16.1,108.728667 L16.1,26.8333333 C16.1,20.93 20.93,16.1 26.8333333,16.1 L141.787333,16.1 C147.690667,16.1 152.520667,20.93 152.520667,26.8333333 L152.520667,108.782333 C152.520667,114.685667 147.74487,119.462 141.787333,119.462" id="path-1"></path>
        <filter x="-11.4%" y="-14.0%" width="122.7%" height="130.0%" filterUnits="objectBoundingBox" id="filter-2">
            <feOffset dx="0" dy="1" in="SourceAlpha" result="shadowOffsetOuter1"></feOffset>
            <feGaussianBlur stdDeviation="5" in="shadowOffsetOuter1" result="shadowBlurOuter1"></feGaussianBlur>
            <feColorMatrix values="0 0 0 0 0   0 0 0 0 0   0 0 0 0 0  0 0 0 0.1 0" type="matrix" in="shadowBlurOuter1"></feColorMatrix>
        </filter>
        <path d="M130.785667,70.0886667 L90.6966667,70.0886667 C86.8326667,70.0886667 83.72,66.976 83.72,63.112 L83.72,23.0766667 C83.72,19.2126667 86.8326667,16.1 90.6966667,16.1 L130.785667,16.1 C134.649667,16.1 137.762333,19.2126667 137.762333,23.0766667 L137.762333,63.1656667 C137.762333,66.976 134.596,70.0886667 130.785667,70.0886667" id="path-3"></path>
        <filter x="-14.8%" y="-13.0%" width="129.6%" height="129.6%" filterUnits="objectBoundingBox" id="filter-4">
            <feOffset dx="0" dy="1" in="SourceAlpha" result="shadowOffsetOuter1"></feOffset>
            <feGaussianBlur stdDeviation="2.5" in="shadowOffsetOuter1" result="shadowBlurOuter1"></feGaussianBlur>
            <feColorMatrix values="0 0 0 0 0.0117647059   0 0 0 0 0.654901961   0 0 0 0 0.941176471  0 0 0 0.5 0" type="matrix" in="shadowBlurOuter1"></feColorMatrix>
        </filter>
        <polygon id="path-5" points="0 9.08205128e-05 28.8808323 9.08205128e-05 28.8808323 23.4125292 0 23.4125292"></polygon>
    </defs>
    <g id="padCard-床头卡" stroke="none" stroke-width="1" fill="none" fill-rule="evenodd">
        <g id="多重耐药备份" transform="translate(-746.000000, -28.000000)">
            <g id="防泌尿感染" transform="translate(744.000000, 24.000000)">
                <g id="编组" transform="translate(-4.293333, -3.440000)">
                    <g id="Fill-2">
                        <use fill="black" fill-opacity="1" filter="url(#filter-2)" xlink:href="#path-1"></use>
                        <use fill="#FFFFFF" fill-rule="evenodd" xlink:href="#path-1"></use>
                    </g>
                    <g id="Fill-5">
                        <use fill="black" fill-opacity="1" filter="url(#filter-4)" xlink:href="#path-3"></use>
                        <use fill="#03A7F0" fill-rule="evenodd" xlink:href="#path-3"></use>
                    </g>
                </g>
                <g id="图标位置" transform="translate(90.160000, 22.856667)">
                    <g id="编组" transform="translate(0.000000, 0.000000)" fill="#FFB400" opacity="0">
                        <g id="图标背景底板60*60px" transform="translate(0.000000, 0.000000)">
                            <rect x="3.55271368e-15" y="3.55271368e-15" width="32.2" height="32.2"></rect>
                        </g>
                    </g>
                    <g id="编组" transform="translate(1.610000, 4.293333)">
                        <mask id="mask-6" fill="white">
                            <use xlink:href="#path-5"></use>
                        </mask>
                        <g id="Clip-2"></g>
                        <path d="M24.5668579,0.545013897 L24.4760374,0.545013897 C22.8866784,-0.181550205 21.1156784,-0.181550205 19.8896015,0.545013897 C18.9364402,1.08993697 18.3456528,2.08896262 18.3002425,3.17880877 C18.2552864,3.45127031 18.2552864,3.72373185 18.3002425,3.95078313 C18.3002425,4.17783441 18.391063,4.40488569 18.4823376,4.58652672 C18.6181143,4.85898826 18.8451656,5.13144979 19.2538579,5.35850108 C19.8446453,5.67637287 20.7069861,5.63096262 21.7060117,5.17686005 C21.8422425,5.13144979 21.9784733,5.13144979 22.0692938,5.22227031 C22.4325758,5.49473185 22.3422094,5.94883441 22.0238835,6.08506518 C21.3427297,6.35752672 20.7069861,6.53916774 20.1166528,6.53916774 L19.9350117,6.53916774 C19.7079605,6.53916774 19.5263194,6.72080877 19.5263194,6.94786005 C19.5263194,7.17491133 19.3446784,7.3111421 19.1634915,7.3111421 C17.8461399,7.44737287 16.7108835,7.90147544 15.8934989,8.80968056 C15.3939861,9.26378313 15.0307041,9.76329595 14.7582425,10.3990395 C14.6224658,10.7169113 14.1683633,10.7169113 13.9862682,10.3990395 C13.7142607,9.76329595 13.3051143,9.26378313 12.8510117,8.80968056 C12.0336271,7.94688569 10.8983707,7.44737287 9.58147328,7.3111421 C9.40028636,7.3111421 9.26360149,7.12950108 9.26360149,6.94786005 C9.26360149,6.72080877 9.08196046,6.53916774 8.85490918,6.53916774 L8.67326815,6.53916774 C8.08293482,6.53916774 7.40178097,6.40293697 6.72062713,6.08506518 C6.58439636,6.03965492 6.49357585,5.90342415 6.49357585,5.76719338 C6.40275533,5.31309082 6.81144764,5.04062928 7.17472969,5.22227031 C8.17375533,5.63096262 8.99113995,5.67637287 9.58147328,5.40391133 C9.94475533,5.22227031 10.1718066,4.90439851 10.3534476,4.63193697 C10.4442682,4.45029595 10.5355428,4.22324467 10.5355428,3.99619338 L10.5355428,3.22421903 C10.4442682,2.08896262 9.89934508,1.13534723 8.94618379,0.590424154 C7.71965277,-0.136139949 5.99451713,-0.136139949 4.35929379,0.590424154 L4.26847328,0.590424154 C2.9969861,1.13534723 -9.08205128e-05,3.17880877 -9.08205128e-05,9.12755236 C-9.08205128e-05,16.1207318 4.67716559,19.3448601 7.94670405,19.3448601 C10.3534476,19.3448601 12.0336271,17.7555011 12.0336271,15.3487575 C12.0336271,13.850219 11.5795246,12.7603729 10.943781,11.897578 C10.7625941,11.6251165 10.4442682,11.4434754 10.1263964,11.3526549 C9.17323508,11.0801934 7.62883226,10.9893729 5.99451713,12.4879113 C5.90324251,12.5787318 5.76746585,12.6241421 5.67619123,12.6241421 C5.44913995,12.6241421 5.22208867,12.4879113 5.17667841,12.1700395 C5.13126815,12.0338088 5.22208867,11.897578 5.31336328,11.8067575 C6.58439636,10.6260908 7.76506303,10.2173985 8.80949892,10.2173985 C8.90031944,9.94493697 8.99113995,9.67247544 9.03655021,9.35460364 C9.08196046,9.12755236 9.26360149,8.99132159 9.49065277,9.03673185 C10.4442682,9.17296262 11.2166966,9.49083441 11.7611656,10.0357575 C13.6683964,11.9429883 13.6229861,16.3931934 13.6229861,20.7071677 L13.6229861,22.9322703 C13.6229861,23.1139113 13.7142607,23.2501421 13.8954476,23.2955524 C14.667422,23.6134242 15.2577553,23.2501421 15.2577553,22.6143985 L15.2577553,20.7071677 C15.2577553,16.3477831 15.1669348,11.9429883 17.1200299,10.0357575 C17.6644989,9.49083441 18.4364733,9.17296262 19.3905428,9.03673185 C19.6175941,8.99132159 19.798781,9.12755236 19.8446453,9.35460364 C19.8896015,9.62706518 19.980422,9.89952672 20.0716966,10.2173985 C21.1156784,10.2628088 22.3422094,10.6260908 23.5678323,11.8067575 C23.6586528,11.897578 23.7045171,12.0338088 23.7045171,12.1700395 C23.6586528,12.4425011 23.4316015,12.6241421 23.2045502,12.6241421 C23.1137297,12.6241421 22.9774989,12.5787318 22.8866784,12.4879113 C21.2519092,10.9893729 19.7079605,11.0801934 18.7543451,11.3526549 C18.4364733,11.4434754 18.1640117,11.6251165 17.9369605,11.897578 C17.3012169,12.7149626 16.8471143,13.850219 16.8471143,15.3487575 C16.8471143,17.7555011 18.5272938,19.3448601 20.9340374,19.3448601 C24.2489861,19.3448601 28.8808323,16.1207318 28.8808323,9.12755236 C28.835422,3.08798826 25.8383451,1.08993697 24.5668579,0.545013897" id="Fill-1" fill="#FFFFFF" mask="url(#mask-6)"></path>
                    </g>
                </g>
            </g>
        </g>
    </g>
</svg>