<?xml version="1.0" encoding="UTF-8"?>
<svg width="156px" height="123px" viewBox="0 0 156 123" version="1.1" xmlns="http://www.w3.org/2000/svg" xmlns:xlink="http://www.w3.org/1999/xlink">
    <title>防走失</title>
    <defs>
        <path d="M141.787333,119.462 L26.8333333,119.462 C20.93,119.462 16.1,114.632 16.1,108.728667 L16.1,26.8333333 C16.1,20.93 20.93,16.1 26.8333333,16.1 L141.787333,16.1 C147.690667,16.1 152.520667,20.93 152.520667,26.8333333 L152.520667,108.782333 C152.520667,114.685667 147.74487,119.462 141.787333,119.462" id="path-1"></path>
        <filter x="-11.4%" y="-14.0%" width="122.7%" height="130.0%" filterUnits="objectBoundingBox" id="filter-2">
            <feOffset dx="0" dy="1" in="SourceAlpha" result="shadowOffsetOuter1"></feOffset>
            <feGaussianBlur stdDeviation="5" in="shadowOffsetOuter1" result="shadowBlurOuter1"></feGaussianBlur>
            <feColorMatrix values="0 0 0 0 0   0 0 0 0 0   0 0 0 0 0  0 0 0 0.1 0" type="matrix" in="shadowBlurOuter1"></feColorMatrix>
        </filter>
        <path d="M130.785667,70.0886667 L90.6966667,70.0886667 C86.8326667,70.0886667 83.72,66.976 83.72,63.112 L83.72,23.0766667 C83.72,19.2126667 86.8326667,16.1 90.6966667,16.1 L130.785667,16.1 C134.649667,16.1 137.762333,19.2126667 137.762333,23.0766667 L137.762333,63.1656667 C137.762333,66.976 134.596,70.0886667 130.785667,70.0886667" id="path-3"></path>
        <filter x="-14.8%" y="-13.0%" width="129.6%" height="129.6%" filterUnits="objectBoundingBox" id="filter-4">
            <feOffset dx="0" dy="1" in="SourceAlpha" result="shadowOffsetOuter1"></feOffset>
            <feGaussianBlur stdDeviation="2.5" in="shadowOffsetOuter1" result="shadowBlurOuter1"></feGaussianBlur>
            <feColorMatrix values="0 0 0 0 0.0117647059   0 0 0 0 0.654901961   0 0 0 0 0.941176471  0 0 0 0.5 0" type="matrix" in="shadowBlurOuter1"></feColorMatrix>
        </filter>
        <polygon id="path-5" points="2.13593996e-05 0.313100278 23.0904858 0.313100278 23.0904858 31.7527778 2.13593996e-05 31.7527778"></polygon>
    </defs>
    <g id="padCard-床头卡" stroke="none" stroke-width="1" fill="none" fill-rule="evenodd">
        <g id="多重耐药备份" transform="translate(-384.000000, -177.000000)">
            <g id="防走失" transform="translate(382.000000, 173.000000)">
                <g id="编组" transform="translate(-4.293333, -3.440000)">
                    <g id="Fill-2">
                        <use fill="black" fill-opacity="1" filter="url(#filter-2)" xlink:href="#path-1"></use>
                        <use fill="#FFFFFF" fill-rule="evenodd" xlink:href="#path-1"></use>
                    </g>
                    <g id="Fill-5">
                        <use fill="black" fill-opacity="1" filter="url(#filter-4)" xlink:href="#path-3"></use>
                        <use fill="#03A7F0" fill-rule="evenodd" xlink:href="#path-3"></use>
                    </g>
                </g>
                <g id="图标位置" transform="translate(90.160000, 22.856667)">
                    <g id="编组" transform="translate(0.000000, 0.000000)" fill="#FFB400" opacity="0">
                        <g id="图标背景底板60*60px" transform="translate(0.000000, 0.000000)">
                            <rect x="3.55271368e-15" y="3.55271368e-15" width="32.2" height="32.2"></rect>
                        </g>
                    </g>
                    <g id="编组" transform="translate(3.220000, 0.000000)">
                        <path d="M13.7881742,5.41138889 C13.7881742,6.97666667 15.0851186,8.27361111 16.6503964,8.27361111 C18.2156742,8.27361111 19.5126186,6.97666667 19.5126186,5.41138889 C19.5126186,3.84611111 18.2156742,2.54916667 16.6503964,2.54916667 C15.0851186,2.50444444 13.7881742,3.80138889 13.7881742,5.41138889" id="Fill-1" fill="#FFFFFF"></path>
                        <g transform="translate(0.000000, 0.134167)">
                            <mask id="mask-6" fill="white">
                                <use xlink:href="#path-5"></use>
                            </mask>
                            <g id="Clip-4"></g>
                            <path d="M2.6971525,11.1358781 C2.6971525,11.8067114 3.23381917,12.3433781 3.9046525,12.3433781 C4.57548583,12.3433781 5.1121525,11.8067114 5.1121525,11.1358781 C5.1121525,10.4650447 4.57548583,9.92837806 3.9046525,9.92837806 C3.23381917,9.92837806 2.6971525,10.4650447 2.6971525,11.1358781 M3.9046525,0.313100278 C2.02631917,0.313100278 0.416319167,1.65476694 0.0138191667,3.39893361 C-0.0756252778,3.84615583 0.2821525,4.29337806 0.729374722,4.29337806 C1.0871525,4.29337806 1.35548583,4.06976694 1.44493028,3.71198917 C1.71326361,2.59393361 2.6971525,1.78893361 3.85993028,1.78893361 C5.24631917,1.78893361 6.36437472,2.90698917 6.36437472,4.29337806 C6.36437472,4.96421139 6.14076361,5.32198917 5.33576361,5.85865583 C4.48604139,6.26115583 3.23381917,7.46865583 3.23381917,8.98921139 L4.7096525,8.98921139 C4.7096525,8.22893361 5.46993028,7.42393361 6.00659694,7.15560028 C6.90104139,6.57421139 7.84020806,5.85865583 7.84020806,4.24865583 C7.88493028,2.10198917 6.09604139,0.313100278 3.9046525,0.313100278 M23.0904858,11.6278225 C23.0904858,10.1072669 21.8382636,8.94448917 20.3624303,8.94448917 L16.6504858,8.94448917 L11.9099303,8.94448917 L13.1174303,7.24504472 C13.5646525,6.7978225 13.5646525,6.03754472 13.1174303,5.5903225 C12.6702081,5.14310028 11.9099303,5.14310028 11.4627081,5.5903225 L9.00298583,9.07865583 C8.77937472,9.2128225 8.64520806,9.48115583 8.64520806,9.74948917 L8.64520806,10.3756003 C8.64520806,10.8675447 9.04770806,11.2253225 9.49493028,11.2253225 L12.8043747,11.2253225 C12.8938192,12.6117114 12.9832636,14.0875447 12.9832636,14.2217114 C13.0279858,14.5347669 12.9832636,14.8478225 12.9832636,15.1608781 L12.9832636,30.0533781 C12.9832636,31.0819892 13.5199303,31.7528225 14.4143747,31.7528225 C15.1746525,31.7528225 15.7560414,31.3056003 15.9349303,30.5006003 L15.9349303,30.7242114 C15.9796525,30.5006003 16.0243747,30.2322669 16.0243747,29.9192114 L16.0243747,22.0928225 C16.0243747,21.6456003 15.9796525,21.0194892 16.5610414,21.0194892 C17.1871525,21.0194892 17.1424303,21.6456003 17.1424303,22.1375447 L17.1424303,30.0533781 C17.1424303,31.0819892 17.7685414,31.7528225 18.7077081,31.7528225 C19.6021525,31.7528225 20.1388192,31.0819892 20.1388192,30.0533781 L20.1388192,15.1608781 C20.1388192,14.8478225 20.0940969,14.5347669 20.1388192,14.2217114 C20.1835414,13.9981003 20.3624303,13.8192114 20.4965969,13.6403225 C20.6307636,13.8192114 20.8096525,13.9981003 20.8543747,14.1769892 C20.8990969,14.5794892 20.8990969,14.9819892 20.8990969,15.3844892 L20.8990969,20.7958781 C20.8990969,21.6008781 21.2121525,21.9139336 21.8829858,21.9139336 C22.5538192,21.9139336 22.9563192,21.5114336 22.9563192,20.7511558 C23.0904858,16.3236558 23.0904858,16.1000447 23.0904858,11.6278225" id="Fill-3" fill="#FFFFFF" mask="url(#mask-6)"></path>
                        </g>
                    </g>
                </g>
            </g>
        </g>
    </g>
</svg>