<?xml version="1.0" encoding="UTF-8"?><svg version="1.1" width="88px" height="144px" viewBox="0 0 88.0 144.0" xmlns="http://www.w3.org/2000/svg" xmlns:xlink="http://www.w3.org/1999/xlink"><defs><clipPath id="i0"><path d="M1024,0 L1024,628 L0,628 L0,0 L1024,0 Z"></path></clipPath><clipPath id="i1"><path d="M44,0 C68.300529,0 88,10.745166 88,24 L88,126 C88,135.941125 79.9411255,144 70,144 L18,144 C8.0588745,144 4.77015043e-15,135.941125 0,126 L0,24 L0.00589474289,23.6031161 C0.394449526,10.5313372 19.9424763,0 44,0 Z"></path></clipPath><clipPath id="i2"><path d="M44,0 C58.3866181,0 73.0532847,1.59455215 88,4.78365644 L88,52 L0,52 L0,4.78365644 C14.9467153,1.59455215 29.6133819,0 44,0 Z"></path></clipPath><clipPath id="i3"><path d="M79.3359375,0 L87,21.78125 C75.6015625,13.265625 61.2682292,9.0078125 44,9.0078125 C26.7317708,9.0078125 12.0651042,13.265625 0,21.78125 L5.22460937,0 L79.3359375,0 Z"></path></clipPath><clipPath id="i4"><path d="M4.21875,0 C4.60125,0 4.933125,0.14 5.20875,0.4144 C5.49,0.6944 5.625,1.0248 5.625,1.4 L5.625,16.8 L61.5546875,16.8 C61.9371875,16.8 62.2690625,16.94 62.5446875,17.2144 C62.8203125,17.4888 62.9609375,17.8248 62.9609375,18.2 L62.9609375,28 L57.3359375,28 L57.3359375,22.4 L5.625,22.4 L5.625,28 L3.55271368e-15,28 L3.55271368e-15,1.4 C3.55271368e-15,1.0192 0.140625,0.6888 0.41625,0.4144 C0.6975,0.1344 1.02375,0 1.40625,0 L4.21875,0 Z"></path></clipPath><clipPath id="i5"><path d="M8.66236997,0.0281597903 C9.1512329,0.0935475098 9.62059252,0.453506786 10.0704487,1.10803774 C10.1778771,1.88615139 10.2910605,2.6642651 10.0704487,3.44237875 C10.3166387,3.38385674 10.4400534,3.40314612 10.4400534,3.49926603 C10.4400534,3.51023104 10.4407118,3.53706708 10.4412671,3.57664316 L10.4418626,3.73046051 C10.440008,4.00912374 10.4206484,4.48237016 10.3144006,4.86488824 C10.2792306,4.99304816 10.1465438,5.05222399 9.91761912,5.04241584 C9.86678251,5.52628485 9.83640842,6.01734653 9.46296696,6.39463354 L9.46296696,8.27518392 C9.77406157,8.5570049 10.8815967,9.30405945 11.9376558,9.32465653 C12.0111737,9.34694779 12.0852341,9.36762868 12.1595828,9.38745473 L12.3832389,9.44512387 C13.4659631,9.71876636 14.5557956,9.97152918 14.877228,12.5067492 C15.000323,13.4565056 15.1061527,14.2068294 15.1950368,14.7577208 C15.283921,15.3086122 15.283921,16.6160393 15.1950368,18.6803292 C15.0783364,19.3077242 15.1950368,19.4966946 15.3369958,20.1613607 C15.3878324,22.5198951 15.2353225,24.8908532 15.0425269,27.2644269 L15.3369958,30.550159 L14.4698955,32.2871834 L13.2750748,32.927329 L13.2750748,32.5242138 L13.0001094,32.5242138 C13.0231298,32.2286614 13.2242382,31.9782265 13.603115,31.7725821 C13.2526939,31.7235413 13.1433472,31.6313447 13.2750748,31.4959921 C13.4723465,31.2929633 13.985189,30.9738713 14.4312085,30.4824827 C14.5888341,30.3085514 14.4957934,29.9816129 14.4698955,29.8554146 C14.4225759,29.6242691 14.2064403,29.6801756 14.0779099,29.8554146 C13.8790395,30.1261197 13.9084544,30.1653523 13.79655,30.5504859 C13.684006,30.9352926 13.4320609,30.9558897 13.3703535,30.858789 C13.3089659,30.7620152 13.1232044,30.5808912 13.2159253,30.2565682 C13.3086461,29.9319183 13.3342243,29.7779303 13.2750748,29.5608431 C13.2159253,29.343429 13.0084223,28.6186063 13.3364624,28.2694359 C13.6648223,27.9209195 13.6696182,27.2353294 13.603115,26.9522006 C13.5366117,26.6690719 12.6845386,23.7426452 12.8421642,22.4247561 C13.0001094,21.1068669 12.8421642,19.9730441 12.8421642,19.7562838 C12.8421642,19.5986995 12.6397768,19.0438848 12.5288314,18.4436257 C12.4869472,18.2170573 12.4581717,17.984277 12.4581717,17.7635936 C12.4581717,17.2270875 12.2845599,16.405164 11.9376558,15.2984772 C11.8880981,17.1260635 11.7595677,18.1467656 11.5520647,18.3599294 C11.2403307,18.6803292 11.6092959,21.3118573 11.773316,22.0052939 C11.9376557,22.6993844 12.8418444,27.492957 12.6500081,30.0087488 C12.5918758,30.771011 12.5297801,31.7421355 12.4747262,32.7446747 L12.4426269,33.3485484 C12.3338533,35.4653635 12.2658413,37.5642088 12.3405121,38.0017417 C12.4581717,38.6892934 12.8424839,40.4426647 12.8424839,41.0390006 C12.8424839,41.292051 12.9527897,42.945379 12.6640761,44.4754513 C12.5544097,45.0583827 12.3123761,45.7835323 11.9376558,46.6512271 C11.5731668,47.8063009 11.3912419,48.8080405 11.3912419,49.656446 C11.3912419,50.5048514 11.4449561,51.129304 11.5520647,51.5301306 C12.0661861,52.9438128 12.3290019,53.814777 12.3405121,54.1430232 C12.3504236,54.4300753 12.032295,54.5477731 11.9376558,54.5876597 C11.5520648,54.7485134 10.0896324,54.9450035 9.77629964,54.7125502 C9.46296696,54.4804239 9.23436197,53.6549041 9.34850465,52.8401733 C9.46296702,52.0254425 9.74336778,51.8619733 9.46296696,51.3964128 C9.1825662,50.9308523 9.37887867,50.3224197 9.57742934,49.8441087 C9.7762997,49.3657976 9.7762997,47.5199028 9.77629964,46.6512271 C9.77629964,45.7828784 9.1195799,43.6584319 9.34850465,42.5233014 C9.57742934,41.3881708 9.7762997,40.4371067 9.77629964,39.8545023 C9.77629958,39.2718979 9.15059344,38.6405796 8.96962783,37.2461868 C8.78834246,35.852121 8.89673002,33.0780477 8.66268973,32.2871834 C8.42832968,31.4959922 8.11020104,31.0922231 8.11020104,30.5504859 C8.11020104,30.1892189 8.05424876,29.6906376 7.94202452,29.0553961 L7.64787545,29.0553961 C7.41912428,30.1306088 7.19988901,31.2079153 6.99019655,32.2871834 C6.64361225,34.0647481 6.99083601,34.5038265 6.81722407,35.8750067 C6.64361213,37.2461868 5.73814463,39.297726 5.73814469,39.8545023 C5.73814469,40.4112786 6.23532057,42.0227585 6.23532051,43.2533551 C6.23532051,44.4839517 5.71800186,45.6351022 5.71800186,46.508355 C5.71800186,47.3812809 5.65054942,50.688621 5.80849468,50.9184588 C5.96612023,51.1482966 6.26922165,52.0114143 5.96612023,52.6044807 C5.66301881,53.1978741 6.16019469,54.5396298 6.16019463,54.8783381 C6.16019463,55.2173733 6.31909904,56.2975782 5.18534631,55.9215989 C4.05159351,55.5456196 3.26826181,55.9967948 3.16019401,55.6616828 C3.05212621,55.3268977 3.6986147,53.4385009 3.86039664,52.8696278 C4.02185888,52.300101 4.13120559,52.2831001 4.13120559,51.7766724 C4.13120559,51.2699177 4.03431821,47.6395623 3.63497893,46.651554 C3.23531989,45.6632189 2.7365454,44.3822738 2.7365454,42.5233014 C2.7365454,40.6646559 3.23531989,38.4735139 3.23531989,37.7323444 C3.23531989,37.361923 3.15043231,35.5138213 3.06554473,33.5785088 L3.03736531,32.9320819 C2.96284123,31.2098362 2.89576957,29.5407545 2.89576957,28.9014081 C2.89576957,27.4628786 3.66439386,23.3271063 3.93552251,21.4609413 C4.20633147,19.5947762 4.08803241,18.3573139 3.93552251,18.0607807 C3.83352953,17.862656 3.73345492,17.0100003 3.63497893,15.5021599 C3.26409536,15.9105061 3.07865355,16.5421513 3.07865355,17.3974225 C3.07865355,18.6803292 2.7365454,19.4555004 2.7365454,20.1613607 L2.73610981,20.385852 C2.73194229,21.3069742 2.68828046,23.5854162 2.23521307,25.1922906 C1.73899641,26.9522006 1.71405769,27.7391416 1.97463538,28.0042887 C2.23521307,28.2697628 2.23521307,29.4539341 2.23521307,29.8554146 C2.23521307,30.2565682 2.35287268,31.1674189 1.97463538,30.8591159 C1.59671778,30.550486 1.76105761,29.8554147 1.45987451,29.8554146 C1.15901116,29.8554146 1.00969856,29.9626504 1.08451474,30.2565682 C1.15901116,30.550486 2.11403642,31.2190753 2.23521307,31.4956652 C2.31610407,31.6803855 2.22913826,31.7222336 1.97463538,31.6212096 C2.46925343,32.0651921 2.64190615,32.3659755 2.49259348,32.5242138 C2.41809703,32.6033329 2.35942707,32.6428924 2.31654366,32.6428924 L2.302,32.639 L2.32523405,32.6834691 C2.40025153,32.8460423 2.37024453,32.927329 2.23521307,32.927329 C1.97463538,32.927329 1.10241949,32.6190259 0.928487859,32.2871834 C0.899472611,32.231849 0.861505002,32.1575522 0.814590026,32.0642981 L0.708831733,31.852515 C0.571532385,31.575949 0.385537728,31.1961895 0.150911221,30.7133013 C0.340829177,28.5803544 0.435468486,27.1869425 0.435468486,26.5333924 C0.435468486,25.5525768 0,21.1029436 0,20.5324359 C0,19.9619282 0.591175669,19.6228929 0.435468486,18.3599294 C0.280081062,17.0972929 0.353298571,14.7449702 0.572951157,13.9580293 C0.792923501,13.1710883 0.427155537,11.1280495 1.45987451,10.295337 C2.49259348,9.46229768 5.27038368,9.14320571 5.73814469,8.64233588 C6.20590564,8.14179302 6.26441574,7.72396556 6.23532051,7.55395755 C6.21549744,7.44083681 6.15091252,7.05439548 6.04124611,6.39463354 C5.90858303,6.27291236 5.80491602,6.12150835 5.73814469,5.95228572 C5.67547814,5.78881645 5.60321979,5.48574445 5.52136963,5.04241584 C5.01428225,5.19084593 5.14664932,4.20872262 5.15688058,3.44237875 L5.52136963,3.44237875 C5.25599604,2.11697002 5.06479917,0.817062434 6.64361219,0.126241339 C7.55099807,0.00233161223 8.2240239,-0.0303622172 8.66236997,0.0281597903 Z"></path></clipPath></defs><g transform="translate(-54.0 -52.0)"><g clip-path="url(#i0)"><g transform="translate(54.0 52.0)"><g clip-path="url(#i1)"><polygon points="0,0 88,0 88,144 0,144 0,0" stroke="none" fill="#FFFFFF"></polygon><g transform="translate(0.0 91.8330078125)"><g clip-path="url(#i2)"><polygon points="0,0 88,0 88,52 0,52 0,0" stroke="none" fill="#7D4397"></polygon></g></g><g transform="translate(2.2737367544323206e-13 -3.830078125)"><g clip-path="url(#i3)"><polygon points="0,3.83007812 87,3.83007812 87,21.78125 0,21.78125 0,3.83007812" stroke="none" fill="#7D4397"></polygon></g></g></g><g transform="translate(22.0 102.0)"><text transform="translate(0.5 16.0)" font-family="PingFangSC-Medium, PingFang SC" font-size="15.0" font-weight="400" fill="#FFFFFF" text-anchor="center">防压疮</text></g><g transform="translate(6.0 123.0)"><text transform="translate(0.38299999999999557 6.0)" font-family="PingFangSC-Medium, PingFang SC" font-size="6.0" font-weight="400" fill="#FFFFFF" text-anchor="center">Pressure Sore Preventions</text></g><g transform="translate(12.999999999999996 44.0)"><g clip-path="url(#i4)"><polygon points="3.55271368e-15,0 62.9609375,0 62.9609375,28 3.55271368e-15,28 3.55271368e-15,0" stroke="none" fill="#7D4397"></polygon></g></g><g transform="translate(21.142959353683256 44.11516939684861) rotate(-86.00000000000001) scale(-0.9999999999999999 0.9999999999999999)"><g clip-path="url(#i5)"><polygon points="9.09494702e-13,0 15.3468728,0 15.3468728,56 9.09494702e-13,56 9.09494702e-13,0" stroke="none" fill="#81499A"></polygon></g></g></g></g></g></svg>